<?xml version="1.0" encoding="UTF-8" standalone="no"?>
<!DOCTYPE svg PUBLIC "-//W3C//DTD SVG 1.1//EN" "http://www.w3.org/Graphics/SVG/1.1/DTD/svg11.dtd">
<svg width="100%" height="100%" viewBox="0 0 1111 1111" version="1.1" xmlns="http://www.w3.org/2000/svg" xmlns:xlink="http://www.w3.org/1999/xlink" xml:space="preserve" xmlns:serif="http://www.serif.com/" style="fill-rule:evenodd;clip-rule:evenodd;stroke-linejoin:round;stroke-miterlimit:2;">
    <g transform="matrix(1.83718,0,0,1.83718,-465.131,-371.613)">
        <path d="M555.484,235.55L662.345,305.272L769.207,374.994L769.207,653.886L662.345,723.609L555.484,793.33L448.623,723.608L341.762,653.885L341.762,374.995L448.623,305.273L555.484,235.55ZM555.484,268.717L461.331,330.147L367.179,391.578L367.179,637.303L461.331,698.734L555.484,760.164L649.638,698.734L743.79,637.303L743.79,391.578L649.638,330.147L555.484,268.717Z"/>
        <g>
            <path d="M368.042,545.225C370.775,545.225 373.4,545.703 375.849,546.579L381.855,570.821L382.704,590.217C378.644,593.482 373.56,595.425 368.043,595.425C354.766,595.425 343.997,584.185 343.997,570.323C343.997,556.465 354.765,545.225 368.042,545.225Z" style="fill:rgb(254,243,237);"/>
            <path d="M368.042,545.226C370.775,545.226 373.4,545.702 375.849,546.579L381.855,570.822L382.704,590.218C381.687,591.037 380.607,591.773 379.471,592.414C367.489,585.035 365.173,564.579 365.173,564.579C362.49,557.722 356.994,553.632 352.374,551.29C356.583,547.511 362.056,545.226 368.042,545.226Z" style="fill:rgb(251,224,219);"/>
            <path d="M742.926,545.225C740.193,545.225 737.567,545.703 735.118,546.579L729.113,570.821L728.264,590.217C732.323,593.482 737.408,595.425 742.925,595.425C756.203,595.425 766.971,584.185 766.971,570.323C766.972,556.465 756.205,545.225 742.926,545.225Z" style="fill:rgb(254,243,237);"/>
            <path d="M742.926,545.226C740.193,545.226 737.567,545.702 735.118,546.579L729.113,570.822L728.264,590.218C731.863,593.113 736.269,594.968 741.067,595.352C744.739,587.746 748.297,576.843 744.772,567.598C744.772,567.598 748.298,555.899 760.553,553.26C756.162,548.319 749.891,545.226 742.926,545.226Z" style="fill:rgb(251,224,219);"/>
            <path d="M368.042,527.066C369.052,527.066 370.054,527.105 371.045,527.18L375.849,546.579C373.401,545.702 370.776,545.225 368.042,545.225C354.765,545.225 343.996,556.465 343.996,570.324C343.996,584.186 354.765,595.426 368.042,595.426C373.56,595.426 378.644,593.483 382.703,590.218L383.589,610.431C378.786,612.462 373.54,613.584 368.042,613.584C345.159,613.584 326.603,594.212 326.603,570.325C326.603,546.438 345.16,527.066 368.042,527.066Z"/>
            <path d="M742.926,527.066C741.916,527.066 740.914,527.105 739.923,527.18L735.118,546.579C737.566,545.702 740.192,545.225 742.926,545.225C756.204,545.225 766.972,556.465 766.972,570.324C766.972,584.186 756.204,595.426 742.926,595.426C737.408,595.426 732.323,593.483 728.265,590.218L727.378,610.431C732.182,612.462 737.428,613.584 742.926,613.584C765.81,613.584 784.365,594.212 784.365,570.325C784.366,546.438 765.81,527.066 742.926,527.066Z"/>
            <path d="M555.484,720.84C652.894,720.84 732.342,629.931 732.342,518.467C732.342,407.004 652.894,316.095 555.484,316.095C458.074,316.095 378.627,407.004 378.627,518.467C378.626,629.931 458.074,720.84 555.484,720.84Z" style="fill:rgb(254,243,237);"/>
            <path d="M720.666,446.058C728.201,468.544 732.343,492.954 732.343,518.47C732.343,630.214 653.145,720.84 555.484,720.84C541.72,720.84 528.322,719.04 515.463,715.633C522.131,714.749 529.276,714.008 537.068,713.466C739.658,699.382 701.8,504.217 701.8,504.217C627.108,578.661 474.654,537.415 474.654,537.415L473.632,526.349L461.353,533.391C446.005,529.367 405.079,503.211 405.079,503.211C395.87,508.241 383.592,542.445 383.592,542.445L382.147,558.793C379.843,545.761 378.628,532.276 378.628,518.469C378.628,478.506 388.764,441.246 406.243,409.864C424.335,395.65 451.524,377.264 463.4,371.426C481.817,362.372 570.834,378.468 579.019,376.456C587.205,374.444 680.314,388.528 680.314,388.528L720.666,446.058Z" style="fill:rgb(251,224,219);"/>
            <path d="M691.374,647.969C685.394,656.174 678.859,663.83 671.833,670.86C656.947,683.658 638.863,697.357 620.935,706.357C618.006,700.196 616.366,693.299 616.366,686.016C616.366,659.908 637.442,638.734 663.432,638.734C673.894,638.734 683.56,642.166 691.374,647.969ZM439.126,670.85C432.103,663.823 425.571,656.17 419.595,647.969C427.41,642.165 437.076,638.734 447.539,638.734C473.528,638.734 494.605,659.908 494.605,686.016C494.605,693.299 492.963,700.196 490.035,706.357C472.103,697.354 454.015,683.652 439.126,670.85Z" style="fill:rgb(248,207,225);"/>
            <path d="M685.086,358.452L694.928,348.799C665.027,312.514 657.668,262.609 720.773,233.821C715.411,239.107 702.568,262.119 717.292,265.645C722.088,266.792 727.976,259.946 732.037,253.803C748.435,229.002 785.597,255.404 783.187,218.731C821.194,237.695 805.142,260.321 784.787,272.196C776.883,276.808 768.358,279.213 761.974,281.324C739.875,288.623 762.023,307.691 778.072,290.157C798.536,258.971 823.093,284.121 823.093,284.121C788.304,286.133 810.815,312.289 810.815,312.289C829.061,332.409 829.74,350.52 825.777,363.595C814.177,401.873 771.569,399.656 739,383.796C733.122,380.933 727.314,377.475 721.723,373.543L711.764,384.564C736.969,414.753 751.938,452.466 751.938,493.368C751.938,516.208 747.268,538.052 738.756,558.147C732.094,653.719 652.577,729.212 555.485,729.212C458.396,729.212 378.878,653.719 372.217,558.145C363.705,538.05 359.035,516.207 359.035,493.368C359.035,452.464 374.006,414.758 399.214,384.569L389.251,373.544C383.659,377.476 377.853,380.934 371.975,383.797C339.406,399.656 296.796,401.874 285.197,363.596C281.235,350.522 281.913,332.41 300.16,312.29C300.16,312.29 322.67,286.134 287.882,284.122C287.882,284.122 312.439,258.972 332.903,290.158C348.952,307.692 371.098,288.624 349.001,281.325C342.615,279.214 334.092,276.809 326.188,272.197C305.832,260.322 289.781,237.696 327.788,218.732C325.378,255.404 362.539,229.003 378.938,253.804C383,259.947 388.887,266.793 393.683,265.646C408.406,262.121 395.563,239.108 390.202,233.822C453.306,262.61 445.947,312.514 416.046,348.8L425.888,358.451C456.005,334.266 494.282,318.366 536.451,314.657C541.712,314.048 547.065,313.731 552.492,313.731C555.736,313.731 558.953,313.843 562.14,314.064L562.14,313.911C609.187,315.342 652.045,331.913 685.086,358.452ZM661.314,420.048C679.276,438.576 693.002,461.774 700.776,487.813C663.39,518.23 611.162,537.128 553.366,537.128C528.429,537.128 504.53,533.606 482.41,527.162L486.191,481.521L466.884,522.056C445.488,514.184 426.079,503.487 409.429,490.567C417.063,463.324 431.177,439.075 449.854,419.868C414.335,449.953 391.775,494.912 391.775,545.146C391.775,546.535 391.793,547.921 391.827,549.303L391.829,549.378L391.831,549.418C391.866,550.762 391.916,552.099 391.981,553.434L391.988,553.584L391.997,553.724C392.063,555.021 392.145,556.315 392.242,557.605L392.269,557.946C392.368,559.227 392.482,560.503 392.609,561.774L392.639,562.07C392.77,563.346 392.915,564.619 393.075,565.887L393.115,566.2C393.271,567.42 393.441,568.637 393.626,569.85L393.722,570.471C393.893,571.579 394.076,572.684 394.269,573.785L394.416,574.607C394.609,575.669 394.812,576.729 395.024,577.785L395.193,578.613C395.402,579.622 395.622,580.628 395.849,581.631L396.137,582.872C396.323,583.661 396.516,584.446 396.711,585.232L397.177,587.046C397.369,587.779 397.568,588.512 397.77,589.241L398.291,591.066L398.861,592.984L399.455,594.896L399.973,596.493C400.219,597.239 400.469,597.983 400.725,598.724L401.049,599.656L401.379,600.585C401.664,601.378 401.955,602.169 402.252,602.956L402.402,603.358L402.754,604.276C403.046,605.026 403.339,605.773 403.639,606.517L404.123,607.704L404.213,607.923L404.211,607.921C428.815,667.343 487.278,709.155 555.483,709.155C624.347,709.155 683.285,666.53 707.462,606.191C707.716,605.56 707.965,604.928 708.209,604.292L708.893,602.491L709.586,600.599L710.258,598.691L710.877,596.859C711.109,596.156 711.339,595.451 711.562,594.745L712.05,593.179C712.28,592.423 712.507,591.664 712.726,590.904L713.195,589.249C713.42,588.445 713.637,587.637 713.85,586.829L714.2,585.469C714.436,584.533 714.666,583.597 714.886,582.655L715.118,581.644C715.347,580.636 715.566,579.627 715.776,578.613L715.945,577.785C716.158,576.729 716.36,575.671 716.552,574.607L716.699,573.785C716.9,572.649 717.088,571.508 717.265,570.366L717.34,569.872C717.526,568.652 717.697,567.427 717.853,566.201L717.893,565.888C718.053,564.618 718.198,563.347 718.329,562.071L718.359,561.775C718.486,560.504 718.599,559.228 718.699,557.947L718.725,557.606C718.824,556.303 718.907,554.994 718.973,553.684L718.98,553.585L718.987,553.435C719.053,552.1 719.104,550.761 719.137,549.419L719.139,549.379L719.141,549.304C719.176,547.922 719.193,546.536 719.193,545.147C719.194,495.008 696.715,450.129 661.314,420.048Z"/>
            <path d="M579.017,584.41L678.266,536.122C712.008,599.011 619.118,646.058 579.017,584.41Z" style="fill:white;"/>
            <path d="M576.246,578.888L675.495,530.6C678.548,529.118 682.232,530.308 683.808,533.254L683.812,533.252C696.323,556.573 693.074,578.094 681.526,593.879C676.333,600.979 669.474,606.863 661.64,611.175C653.839,615.468 645.025,618.234 635.878,619.116C613.763,621.255 589.829,612.443 573.744,587.715C571.89,584.852 572.745,581.05 575.657,579.226C575.851,579.104 576.049,578.995 576.252,578.896L576.246,578.888ZM675.312,544.43L588.371,586.73C601.273,602.691 618.594,608.416 634.651,606.863C642.03,606.15 649.169,603.905 655.506,600.417C661.81,596.946 667.285,592.273 671.37,586.69C679.428,575.677 682.163,560.867 675.312,544.43Z" style="fill-rule:nonzero;"/>
            <path d="M598.458,574.313L650.595,548.947C655.698,554.191 658.825,561.243 658.825,568.999C658.825,585.192 645.197,598.323 628.391,598.323C613.468,598.322 601.054,587.968 598.458,574.313Z"/>
            <path d="M531.951,584.41L432.703,536.122C398.96,599.011 491.851,646.058 531.951,584.41Z" style="fill:white;"/>
            <path d="M522.599,586.73L435.657,544.43C428.805,560.867 431.541,575.677 439.598,586.69C443.683,592.273 449.157,596.946 455.461,600.417C461.8,603.904 468.939,606.15 476.317,606.863C492.375,608.416 509.696,602.691 522.599,586.73ZM435.474,530.6L534.722,578.888L534.717,578.896C534.92,578.995 535.117,579.104 535.312,579.226C538.224,581.05 539.08,584.852 537.224,587.715C521.14,612.443 497.206,621.255 475.091,619.116C465.945,618.233 457.129,615.468 449.329,611.175C441.495,606.863 434.637,600.979 429.442,593.879C417.895,578.094 414.646,556.573 427.157,533.252L427.16,533.254C428.737,530.308 432.421,529.118 435.474,530.6Z" style="fill-rule:nonzero;"/>
            <path d="M512.511,574.313L460.373,548.947C455.27,554.191 452.143,561.243 452.143,568.999C452.143,585.192 465.771,598.323 482.577,598.323C497.5,598.322 509.915,587.968 512.511,574.313Z"/>
            <path d="M533.266,671.081C530.354,672.905 526.487,672.063 524.631,669.201C522.776,666.338 523.632,662.536 526.543,660.712C536.119,654.697 545.939,651.688 555.996,651.688C565.994,651.688 576.097,654.656 586.298,660.59C589.279,662.32 590.267,666.101 588.507,669.032C586.747,671.963 582.903,672.934 579.921,671.203C571.707,666.427 563.732,664.036 555.996,664.036C548.32,664.036 540.742,666.385 533.266,671.081Z" style="fill-rule:nonzero;"/>
            <path d="M410.534,356.644C410.534,356.644 404.705,365.887 396.803,369.65L419.003,392.467C419.003,392.467 352.784,460.221 379.344,519.478C387.16,460.872 423.17,414.431 471.28,405.484C471.28,405.484 433.995,451.182 423.78,486.837C423.78,486.837 454.425,501.902 464.13,503.409C472.257,483.739 482.046,465.158 494.265,448.17L495.796,519.003C561.556,534.77 633.78,521.033 686.42,484.825C676.204,449.17 638.41,405.484 638.41,405.484C684.473,404.371 722.529,460.872 730.347,519.478C756.906,460.221 698.358,393.973 698.358,393.973L713.909,369.65C706.007,365.887 700.178,356.644 700.178,356.644L679.776,376.142C602.696,314.374 508.02,315.045 430.941,377.148L410.534,356.644ZM787.705,243.28C787.705,243.28 793.684,258.847 762.297,266.883C762.297,266.883 737.387,274.416 740.873,292.996C745.113,309.743 769.402,320.909 778.316,302.508C781.536,295.856 783.958,288.759 792.687,288.979C792.687,288.979 792.53,296.131 793.722,303.189C795.232,312.149 800.318,316.444 804.747,323.772C841.608,384.784 761.542,398.272 722.438,362.798C722.438,362.798 679.253,329.083 684.604,287.618C686.25,274.826 692.795,262.97 701.015,254.83C701.015,254.83 700.02,259.225 700.455,263.744C701.35,273.025 711.694,276.586 721.008,275.412C733.503,273.836 733.348,267.909 739.711,260.74C745.742,253.946 754.983,254.533 763.859,253.409C772.451,252.321 780.512,249.322 787.705,243.28Z" style="fill:rgb(251,196,0);"/>
            <path d="M452.847,499.843C457.447,501.636 461.535,503.006 464.128,503.407C472.195,483.878 481.903,465.423 493.999,448.535L494.093,447.881C462.883,468.089 454.894,489.965 452.847,499.843ZM670.915,494.523C676.245,491.496 681.42,488.261 686.419,484.824C677.178,452.574 645.379,413.757 639.389,406.636L639.386,406.636C665.24,451.12 670.039,483.054 670.915,494.523ZM727.481,503.609C727.183,474.329 720.97,424.472 685.945,392.06L707.94,365.613C709.72,367.169 711.735,368.616 713.907,369.65L698.356,393.973C698.356,393.973 756.904,460.221 730.345,519.478C729.634,514.156 728.673,508.853 727.481,503.609ZM742.022,375.345C782.716,393.22 836.144,375.738 804.748,323.772C800.318,316.444 795.232,312.149 793.723,303.189C792.531,296.131 792.688,288.979 792.688,288.979L792.571,288.977C775.071,308.298 808.5,330.78 800.291,352.604C790.696,378.087 760.235,377.951 742.022,375.345Z" style="fill:rgb(251,196,0);"/>
            <path d="M452.847,499.843C457.447,501.636 461.535,503.006 464.128,503.407C472.195,483.878 481.903,465.423 493.999,448.535L494.093,447.881C462.883,468.089 454.894,489.965 452.847,499.843ZM670.915,494.523C676.245,491.496 681.42,488.261 686.419,484.824C677.178,452.574 645.379,413.757 639.389,406.636L639.386,406.636C665.24,451.12 670.039,483.054 670.915,494.523ZM727.481,503.609C727.183,474.329 720.97,424.472 685.945,392.06L707.94,365.613C709.72,367.169 711.735,368.616 713.907,369.65L698.356,393.973C698.356,393.973 756.904,460.221 730.345,519.478C729.634,514.156 728.673,508.853 727.481,503.609ZM742.022,375.345C782.716,393.22 836.144,375.738 804.748,323.772C800.318,316.444 795.232,312.149 793.723,303.189C792.531,296.131 792.688,288.979 792.688,288.979L792.571,288.977C775.071,308.298 808.5,330.78 800.291,352.604C790.696,378.087 760.235,377.951 742.022,375.345Z" style="fill:rgb(244,156,0);"/>
            <path d="M321.982,243.28C321.982,243.28 316.003,258.847 347.391,266.883C347.391,266.883 372.301,274.416 368.814,292.996C364.574,309.743 340.286,320.909 331.372,302.508C328.152,295.856 325.729,288.759 317.001,288.979C317.001,288.979 317.159,296.131 315.967,303.189C314.456,312.149 309.371,316.444 304.941,323.772C268.08,384.784 348.145,398.272 387.249,362.798C387.249,362.798 430.436,329.083 425.084,287.618C423.438,274.826 416.893,262.97 408.673,254.83C408.673,254.83 409.667,259.225 409.234,263.744C408.338,273.025 397.994,276.586 388.681,275.412C376.185,273.836 376.34,267.909 369.977,260.74C363.945,253.946 354.705,254.533 345.83,253.409C337.236,252.321 329.174,249.322 321.982,243.28Z" style="fill:rgb(251,196,0);"/>
        </g>
    </g>
</svg>
