<?xml version="1.0" encoding="UTF-8"?>
<svg id="_图层_1" data-name="图层 1" xmlns="http://www.w3.org/2000/svg" viewBox="0 0 1919.63 622.59">
  <path d="M318.06,37.7l223.48,129V455.86l-223.48,129L94.58,455.86V166.74L318.06,37.74M318.06,.05l-16.33,9.42L78.25,138.47l-16.33,9.42V474.75l16.33,9.42,223.48,129,16.33,9.42,16.33-9.42,223.48-129,16.33-9.42V147.89l-16.33-9.42L334.38,9.42,318.06,0V.05Z" style="fill: #fac03d;"/>
  <path d="M613.5,29.7s-8.43,13.85-33.18,13.85c-6.47,0-14.04-.95-22.9-3.33-24.18-5.95-41.17-10.52-66.97-10.18-43.89,0-84.01,25.65-101.48,62.64-16.57-3.14-33.89-4.76-51.88-4.76-8.14,0-16.57,.34-24.94,.95-7.62,.42-68.64,5.19-130.85,47.22-45.27-14.71-74.87-45.12-88.67-91.34C78.44,92.29,47.55,123.14,0,137.37c47.55,14.18,80.44,49.5,92.1,96.81,0,0,.05,0,.1-.05-30.51,57.88-30.61,126.8,.67,183.21,36.32,65.54,108.24,103.1,197.3,103.1,20.18,0,41.46-1.91,63.21-5.66,113.81-19.56,164.65-74.83,187.26-117.72,38.41-72.92,21.23-152.03,5.05-187.3-.62-1.33-1.33-2.62-2-3.95,24.28-12.66,52.88-34.84,67.78-72.63,0,0-15.23,8.85-25.75,10.18,0,0,42.37-54.88,27.75-113.62l.05-.05h0Z" style="fill: #231815;"/>
  <path d="M349.76,485.32c-20.66,3.57-40.03,5.19-58.12,5.19-116.33,0-180.02-68.54-189.44-144.6,17.71-4.47,83.35-22.8,155.17-64.21,0,0,4.76-13.95,6.81-40.12,0,0,52.93,71.02,21.56,197.63,0,0,55.02-23.18,78.59-93.87,6.76-5.42,22.14-15.09,36.93-5.33,9.47,6.19,13.09,21.09,8.57,35.32-5.9,18.56-22.99,29.13-45.79,28.42l-.62,18.23c1.05,0,2.04,.05,3.04,.05,6.14,0,11.75-.66,16.99-1.86,5.52,14.37,18.85,33.6,42.65,42.79-21.37,9.57-46.6,17.23-76.25,22.32l-.1,.05h0Z" style="fill: #fbe9ec;"/>
  <path d="M519.64,226.28c22.09,48.08,35.22,163.17-67.02,226.38-34.32-1.38-47.41-25.89-51.31-35.8,13.56-8,21.99-20.28,25.8-32.27,7.04-22.27,.47-45.31-15.94-56.07-14.04-9.19-28.56-8.33-40.6-3.81,3.76-19.42,5.24-41.6,3.19-67.07,0,0-13.56,83.01-59.17,131.66,0,0,15.06-135.88-64.48-179.43,0,0-2.04,31.8-10.66,61.16,0,0-47.84,27.99-139.04,50.46,1.28-27.85,10.31-55.04,25.92-80.03,70.64-113.19,189.16-118.52,189.16-118.52,7.85-.62,15.52-.9,22.99-.9,15.37,0,29.8,1.38,43.41,3.76-6.52,52.5,33.03,97.82,89.35,101.77,2.57,.19,5.14,.29,7.71,.29,8.28,0,16.47-.91,24.37-2.67,7.9-1.76,5.42-1,13.9-3.71,.81,1.62,1.71,3.24,2.48,4.9l-.05-.1h0Z" style="fill: #fac03d;"/>
  <path d="M528.73,167.12l20.13,1.81c-16.61,11.66-33.6,17.28-42.69,19.71l-8.28,1.81c-5.9,1.28-11.85,1.95-17.75,1.95-1.86,0-3.71-.05-5.57-.19-20.04-1.38-37.37-9.95-48.74-24.13-10.05-12.47-14.23-28.18-11.85-44.31,5.24-35.46,39.18-62.88,78.25-63.21,22.42-.19,43.7,5.86,59.69,9.14,10.99,2.24,21.23,4.38,30.94,4.38,1.1,0,2.14,0,3.19-.05-8.19,48.08-57.26,93.1-57.26,93.1h-.05Z" style="fill: #fac03d;"/>
  <path d="M551.91,69.68c-15.99-3.24-37.27-9.33-59.69-9.14-39.13,.34-73.07,27.75-78.25,63.21-2.38,16.09,1.86,31.85,11.85,44.31,11.38,14.14,28.7,22.71,48.74,24.13h.81c-8.61-2.33-30.27-10.42-40.6-34.8-15.61-36.84,9.19-90.15,85.77-81.97,40.36,4.33,57.97,2.14,65.45-1.14,0-.1,0-.19,.05-.29-1.05,0-2.09,.05-3.19,.05-9.71,0-19.94-2.14-30.94-4.38h0Z" style="fill: #fff;"/>
  <path d="M281.19,384.71c5.26,7.55-1.79,21.54-15.73,31.23-13.94,9.7-29.5,11.44-34.76,3.89-5.26-7.55,1.79-21.54,15.73-31.24,13.94-9.7,29.5-11.44,34.76-3.88Z" style="fill: #ed7a95;"/>
  <path d="M261.37,317.39c5.33,31.13-19.85,64.64-56.22,74.83-31.7,8.9-61.4-2.9-72.07-26.66l125.61-57.5c1.14,2.95,2.09,6.05,2.67,9.28v.05h0Z" style="fill: #231815;"/>
  <path d="M223.57,340.14s2.48,16.18-14.14,34.65c0,0,30.27-9.42,32.18-42.84l-18.04,8.19h0Z" style="fill: #fff;"/>
  <path d="M92.76,182.13c-6.86-23.04-21.8-37.98-44.84-44.84,23.04-6.86,37.98-21.8,44.84-44.84,6.86,23.04,21.8,37.98,44.84,44.84-23.04,6.86-37.98,21.8-44.84,44.84Z" style="fill: #fac03d;"/>
  <path d="M250.1,209.88s-12.95,37.41-20.85,47.98c0,0-55.64,22.94-92.39,30.32,0,0,32.33-164.72,244.61-158.44,.1-1.52,.22-2.42,.41-3.94-13.61-2.38-28.68-4.45-44.06-4.45-7.47,0-15.09,.29-22.99,.91,0,0-118.52,5.33-189.16,118.52-15.61,25.04-23.99,52.88-25.28,80.73,2.85-.71,31.26-7.82,63.25-18.39,64.39-23.14,75.78-32.06,75.78-32.06,8.61-29.37,10.66-61.16,10.66-61.16" style="fill: #fff;"/>
  <path d="M1874.97,334.78c12.02-9.48,19.64-25.51,19.54-44.27,0,0,1.37-101.05,1.37-102.42,0-31.37,23.75-48.87,23.75-48.97H633.13s23.75,22.67,23.65,49.25c0,0,.97,273.54,.97,273.43,409.09-91.56,830.2-91.37,1239.19,.5,0,0-1.07-66.07-22.09-127.54h.11Z" style="fill: #231815;"/>
  <path d="M822.23,172.36c-32.64,.59-65.38,1.17-98.02,1.86-3.42,0-6.94,.1-10.36,.2-2.35,0-4.79,.1-7.14,.2,0,0,7.14,9.09,7.14,21.4v.49c-.1,73.79-.3,147.57-.4,221.26h.4c14.76-2.74,29.51-5.49,44.36-8.01,20.91-3.63,41.83-6.95,62.74-10.17,18.67-2.94,34.02-19.95,34.1-38.42,.39-51.89,.69-103.87,1.07-155.77,.1-18.47-15.05-33.32-33.92-33.03h.02Z" style="fill: #fac03d;"/>
  <path d="M810.6,363.72c-17.49,2.35-34.89,4.69-52.29,7.32,.2-52.96,.29-105.83,.49-158.8,17.49-.79,34.99-1.46,52.48-2.25-.2,51.21-.39,102.42-.59,153.64l-.1,.1h.01Z" style="fill: #231815;"/>
  <path d="M982.61,170.11c-24.82,.29-49.64,.59-74.47,.87-18.77,.2-34.1,15.35-34.2,33.82-.1,51.4-.3,102.81-.39,154.11,0,18.38,15.05,31.18,33.82,28.83,24.73-3.03,49.45-5.66,74.17-8.11,18.87-1.85,34.1-17.1,34.2-34.29l.59-144.54c0-17.2-15.15-30.98-33.92-30.78l.2,.1h0Z" style="fill: #fac03d;"/>
  <path d="M970.88,346.22c-17.49,1.46-34.99,3.13-52.48,4.89,.2-48.28,.49-96.66,.69-144.94,17.49-.49,34.99-1.07,52.48-1.46-.2,47.21-.39,94.31-.69,141.51Z" style="fill: #231815;"/>
  <path d="M1303.46,168.45h-74.47c-18.77,0-34.1,13.39-34.1,29.9,0,55.99-.2,112.1-.3,168.09,15.05-.38,30.1-.68,45.25-.86v-82.39c17.59-.1,35.09-.2,52.67-.1v82.28c15.05,0,30.2,.3,45.25,.59,0-55.89-.1-111.8-.2-167.7,0-16.42-15.25-29.81-34.1-29.81h-.01Z" style="fill: #fac03d;"/>
  <rect x="1239.93" y="200.61" width="52.57" height="50.14" style="fill: #231815;"/>
  <path d="M1490.5,254.46c-22.96-.79-45.83-1.46-68.81-1.96,0-16.91,0-33.92-.1-50.81,32.26,.39,64.4,.97,96.66,1.56,0-11.24,0-22.47-.1-33.72-35.86-.3-71.73-.59-107.6-.79-18.77,0-34.02,13.19-34.02,29.71,0,18.57,0,37.14,.1,55.7,0,16.52,15.35,30.2,34.2,30.69,21.2,.59,42.41,1.37,63.62,2.15,0,17.21,.1,34.3,.2,51.5-32.44-1.86-64.99-3.13-97.43-4.11v32.54c36.16,1.17,72.41,3.02,108.48,5.58,18.86,1.37,34.1-11.24,34.01-28.45-.3-21.11-.59-42.22-.97-63.33-.2-14.08-12.8-25.89-28.34-26.39l.1,.1h-.01Z" style="fill: #fff;"/>
  <path d="M1650.98,261.98c-22.87-1.37-45.83-2.63-68.71-3.72,0-17.88-.2-35.68-.3-53.56,32.26,.87,64.4,1.86,96.56,2.93,0-12.02-.1-24.13-.2-36.16-35.86-.59-71.73-.97-107.6-1.36-18.77-.2-34.02,13.59-33.92,30.78,0,19.34,.2,38.7,.3,58.05,0,17.21,15.35,31.96,34.2,33.13,21.2,1.27,42.32,2.73,63.53,4.29,0,18.28,.2,36.55,.29,54.83-32.35-3.32-64.79-6.05-97.23-8.51,0,11.34,.1,22.58,.2,33.91,36.16,3.14,72.23,6.85,108.19,11.24,18.77,2.34,33.92-10.47,33.82-28.94-.3-22.66-.69-45.34-.97-68.01-.2-15.15-12.8-28.15-28.24-29.03l.1,.1v.02Z" style="fill: #fff;"/>
  <path d="M1175.91,260.32c0-20.62,0-41.14,.1-61.77,0-16.51-15.15-29.81-34.02-29.71-24.53,.1-49.05,.3-73.59,.49-18.77,.1-34.1,14.08-34.2,31.27-.2,58.15-.49,116.39-.69,174.55,15.05-1.18,30.1-2.26,45.15-3.22,.2-56.49,.4-112.88,.59-169.37,17.49-.29,34.99-.59,52.57-.79,0,16.91,0,33.92-.1,50.82-15.35,.39-30.59,.79-45.93,1.27,0,.2,45.73,60.6,45.65,115.13,15.05-.7,30.1-1.37,45.25-1.86,0,0-2.15-37.05-27.95-82.29,15.05-.39,27.17-11.33,27.27-24.43l-.1-.1h-.01Z" style="fill: #fac03d;"/>
  <path d="M1839,286.8c0-30.4-.1-60.78-.2-91.18,.1-12.12,7.14-21.01,7.14-21.01-2.35,0-4.79-.1-7.14-.2-3.42,0-6.94-.1-10.36-.2-32.35-.69-64.69-1.27-97.15-1.86-18.77-.3-33.92,14.56-33.92,33.03,.3,63.13,.59,126.17,.79,189.3,14.95,2.06,29.91,4.29,44.96,6.65-.2-63.73-.49-127.44-.69-191.26,17.49,.69,34.99,1.46,52.47,2.25,0,20.04,.1,40.07,.2,60.01-15.25-1.27-30.49-2.45-45.73-3.62,0-.59,46.03,75.45,46.12,141.11,14.95,2.54,29.81,5.28,44.76,8.01,0,.21-2.25-46.7-28.15-104.95,14.95,1.76,26.98-9.87,26.98-26.09h-.09Z" style="fill: #fff;"/>
</svg>