<?xml version="1.0" encoding="utf-8"?>
<!-- Generator: Adobe Illustrator 16.0.0, SVG Export Plug-In . SVG Version: 6.00 Build 0)  -->
<!DOCTYPE svg PUBLIC "-//W3C//DTD SVG 1.1//EN" "http://www.w3.org/Graphics/SVG/1.1/DTD/svg11.dtd">
<svg version="1.1" id="图层_1" xmlns="http://www.w3.org/2000/svg" xmlns:xlink="http://www.w3.org/1999/xlink" x="0px" y="0px"
	 width="350px" height="350px" viewBox="205 175 700 700" enable-background="new 165.5 75.5 780 960"
	 xml:space="preserve">
<path fill-rule="evenodd" clip-rule="evenodd" fill="#FFFFFF" d="M401.04,794.999v0.064l-4.774-2.679l-9.547-5.357l-27.77-15.58
	l-2.528-1.42l-0.536-0.301l-1.664-0.935l-2.93-1.644l0.003-0.004l-4.033-2.239l-0.789-0.438l-9.041-5.031l-3.309-1.84l-1.653-0.92
	v-1.874v-3.748v-9.792v-0.825V693.9v-46.557v-2.403v-10.143l-0.33-0.216v-1.732v-3.462v-46.002
	c-1.979-2.028-3.794-4.215-5.421-6.533c-1.886-2.688-3.536-5.571-4.913-8.609c-1.563-3.452-2.784-7.116-3.604-10.936
	c-0.798-3.717-1.221-7.563-1.221-11.485c0-3.923,0.423-7.767,1.221-11.482c0.819-3.818,2.04-7.481,3.604-10.936
	c1.377-3.037,3.025-5.918,4.91-8.605c1.628-2.318,3.444-4.504,5.424-6.533v-18.326V379.618c-5.214,0.181-10.335-0.131-15.247-1.01
	c-5.698-1.018-11.144-2.804-16.171-5.464c-5.811-3.077-10.988-7.262-15.274-12.703c-3.98-5.055-7.192-11.204-9.423-18.565
	c-1.427-4.707-2.357-9.96-2.382-15.651c-0.019-4.935,0.64-10.195,2.246-15.705c1.391-4.772,3.493-9.728,6.48-14.808
	c2.269-3.856,5.034-7.776,8.373-11.728l-0.03-0.025l2.165-2.436c0.017-0.019,2.952-3.428,3.583-6.813
	c0.456-2.465-1.092-5.045-9.106-5.508l-14.282-0.826l-7.143-0.413l5.049-5.051l10.098-10.099l0.003-0.002l0.007,0.006
	c0.495-0.498,9.555-9.513,21.987-12.081c-0.268-0.337-0.532-0.678-0.79-1.021c-1.493-1.983-2.785-4.027-3.823-6.108
	c-1.052-2.105-1.88-4.31-2.442-6.598c-0.537-2.183-0.826-4.445-0.827-6.775c-0.001-2.457,0.317-4.921,0.999-7.366
	c0.658-2.368,1.641-4.707,2.972-6.99c2.17-3.717,5.31-7.381,9.585-10.915c3.909-3.229,8.783-6.363,14.754-9.341l9.978-4.978
	l4.987-2.488l-0.364,5.558l-0.731,11.116c-0.372,5.685,0.828,8.512,2.931,9.903c2.358,1.561,6.306,1.884,10.56,2.228
	c6.039,0.49,12.434,1.011,18.655,3.232c6.423,2.294,12.483,6.331,17.428,13.808c1.009,1.526,2.142,3.096,3.309,4.49
	c-0.616-2.07-1.546-4.192-2.566-6.123c-1.491-2.823-3.113-5.123-4.213-6.207l-25.737-25.373l-12.869-12.686l16.439,7.498
	l32.879,14.998c10.95,4.993,20.005,10.642,27.36,16.771c7.895,6.578,13.839,13.723,18.075,21.222
	c3.321,5.879,5.584,11.914,6.9,18.017v0.012c0.938,4.347,1.405,8.736,1.443,13.131l102.299-66.748l3.484-2.272l1.742-1.136
	l1.74,1.136l3.482,2.272l102.299,66.749c0.039-4.4,0.506-8.79,1.443-13.14c1.316-6.104,3.58-12.139,6.9-18.019
	c4.236-7.5,10.182-14.645,18.076-21.223c7.355-6.13,16.411-11.778,27.36-16.771l32.884-15l16.44-7.5l-12.87,12.688L727.5,216.162
	c-1.1,1.084-2.721,3.384-4.212,6.207c-1.023,1.938-1.955,4.067-2.572,6.141h0.001c1.132-1.348,2.272-2.934,3.313-4.508
	c4.946-7.479,11.004-11.514,17.428-13.808c6.223-2.222,12.615-2.742,18.654-3.232c4.254-0.344,8.2-0.666,10.56-2.228
	c2.103-1.392,3.303-4.219,2.933-9.903l-0.729-11.118l-0.364-5.557l4.987,2.488l9.976,4.979c5.97,2.979,10.848,6.114,14.757,9.345
	c4.273,3.531,7.415,7.196,9.581,10.911l0.439,0.754v0.063c1.113,2.04,1.953,4.111,2.532,6.194c0.679,2.44,1,4.898,0.998,7.346
	c-0.001,2.331-0.288,4.595-0.826,6.776c-0.563,2.288-1.391,4.491-2.441,6.597s-2.343,4.153-3.824,6.12
	c-0.256,0.339-0.518,0.675-0.786,1.01c12.432,2.571,21.489,11.581,21.984,12.08l0.006-0.006l0.003,0.002l10.099,10.099l5.049,5.051
	l-7.141,0.413l-14.285,0.826c-8.014,0.463-9.563,3.042-9.104,5.508c0.629,3.386,3.629,6.881,3.645,6.899l0.022,0.028
	c4.273,4.744,7.706,9.454,10.423,14.073c2.986,5.08,5.09,10.035,6.48,14.808c1.606,5.51,2.265,10.771,2.245,15.705
	c-0.024,5.689-0.954,10.941-2.38,15.647l0.012,0.004c-2.225,7.346-5.441,13.494-9.438,18.565
	c-4.285,5.441-9.463,9.626-15.274,12.703c-5.024,2.66-10.471,4.445-16.169,5.464c-4.914,0.878-10.033,1.189-15.249,1.01v110.321
	v18.323c1.979,2.026,3.795,4.213,5.422,6.533v0.013c1.896,2.703,3.547,5.582,4.912,8.596c1.563,3.454,2.784,7.117,3.604,10.936
	c0.798,3.716,1.22,7.56,1.22,11.482c0,3.922-0.422,7.769-1.22,11.485c-0.82,3.819-2.041,7.483-3.604,10.936
	c-1.377,3.038-3.027,5.922-4.913,8.609c-1.627,2.318-3.442,4.505-5.421,6.533v36.41v0.584l5.139,129.182l0.16,4.024l0.08,2.014
	l-1.783,0.944l-3.568,1.889l-7.568,4.008v0.078l-1.718,0.906l-3.434,1.812l-10.095,5.33l-2.242,1.185v0.011l-1.717,0.903
	l-3.434,1.807l-1.892,0.996l-6.089,3.215l-4.937,2.607l-2.469,1.304l-0.015-0.022l-3.898,2.05l-0.335,0.176l-0.29,0.153
	l-0.822,0.434l-16.145,8.512l-7.254,3.846l-9.397,4.982l-4.698,2.491v-0.059l-31.303,16.506l-26.828,14.141l-21.516,11.332
	l-19.389,10.202l-5.352,2.815l-2.676,1.409l-0.02-0.032l-0.715,0.379v0.019l-1.717,0.909l-3.434,1.817l-1.02,0.54l-4.447,2.349
	l-2.286,1.203l-8.162,4.324l-9.396,4.979l-4.698,2.49v-3.708l-1.277-0.71l-6.387-3.547v0.104l-4.774-2.675l-9.547-5.349
	l-3.379-1.893l-0.389-0.219l-0.026-0.011l-1.591-0.894l-9.556-5.351l0.033,0.205l-5.777-3.254l-11.501-6.48
	c-20.044-11.29-32.688-18.405-42.448-23.884c-13.232-7.429-18.506-10.379-25.144-14.092h-0.014L401.04,794.999z"/>
<g>
	<path fill-rule="evenodd" clip-rule="evenodd" d="M555.484,209.384l106.861,69.722l106.861,69.723v139.445V627.72l-106.861,69.722
		l-106.861,69.723l-106.861-69.723L341.762,627.72V488.273V348.828l106.861-69.723L555.484,209.384L555.484,209.384z
		 M555.484,242.551l-94.154,61.43l-94.152,61.431v122.862v122.862l94.152,61.432l94.154,61.43l94.153-61.43l94.153-61.432V488.273
		V365.411l-94.153-61.431L555.484,242.551z"/>
	<path fill-rule="evenodd" clip-rule="evenodd" fill="#FEF3ED" d="M368.043,519.059c2.732,0,5.358,0.477,7.807,1.354l6.005,24.242
		l0.849,19.396c-4.059,3.265-9.143,5.208-14.66,5.208c-13.278,0-24.046-11.239-24.046-25.102
		C343.997,530.298,354.765,519.059,368.043,519.059z"/>
	<path fill-rule="evenodd" clip-rule="evenodd" fill="#FBE0DB" d="M368.043,519.059c2.732,0,5.358,0.476,7.807,1.354l6.005,24.243
		l0.849,19.396c-1.016,0.818-2.097,1.554-3.233,2.196c-11.981-7.38-14.298-27.836-14.298-27.836
		c-2.683-6.857-8.179-10.947-12.799-13.288C356.583,521.344,362.056,519.059,368.043,519.059z"/>
	<path fill-rule="evenodd" clip-rule="evenodd" fill="#FEF3ED" d="M742.926,519.059c-2.732,0-5.358,0.477-7.807,1.354l-6.005,24.242
		l-0.85,19.396c4.06,3.265,9.144,5.208,14.661,5.208c13.278,0,24.046-11.239,24.046-25.102
		C766.972,530.298,756.204,519.059,742.926,519.059z"/>
	<path fill-rule="evenodd" clip-rule="evenodd" fill="#FBE0DB" d="M742.926,519.059c-2.732,0-5.358,0.476-7.807,1.354l-6.005,24.243
		l-0.85,19.396c3.599,2.895,8.005,4.75,12.803,5.134c3.672-7.606,7.23-18.51,3.706-27.755c0,0,3.526-11.698,15.781-14.338
		C756.162,522.152,749.891,519.059,742.926,519.059z"/>
	<path fill-rule="evenodd" clip-rule="evenodd" d="M368.043,500.899c1.01,0,2.011,0.039,3.002,0.114l4.805,19.399
		c-2.448-0.878-5.074-1.354-7.807-1.354c-13.278,0-24.046,11.239-24.046,25.099c0,13.862,10.768,25.102,24.046,25.102
		c5.518,0,10.602-1.943,14.66-5.208l0.887,20.213c-4.803,2.031-10.05,3.152-15.547,3.152c-22.884,0-41.44-19.371-41.44-43.259
		C326.603,520.271,345.159,500.899,368.043,500.899z"/>
	<path fill-rule="evenodd" clip-rule="evenodd" d="M742.926,500.899c-1.01,0-2.012,0.039-3.002,0.114l-4.805,19.399
		c2.448-0.878,5.074-1.354,7.807-1.354c13.278,0,24.046,11.239,24.046,25.099c0,13.862-10.768,25.102-24.046,25.102
		c-5.518,0-10.602-1.943-14.661-5.208l-0.886,20.213c4.803,2.031,10.05,3.152,15.547,3.152c22.884,0,41.439-19.371,41.439-43.259
		C784.365,520.271,765.81,500.899,742.926,500.899z"/>
	<path fill-rule="evenodd" clip-rule="evenodd" fill="#FEF3ED" d="M555.484,694.674c97.41,0,176.857-90.909,176.857-202.373
		c0-111.463-79.447-202.372-176.857-202.372c-97.411,0-176.858,90.909-176.858,202.372
		C378.626,603.765,458.073,694.674,555.484,694.674z"/>
	<path fill-rule="evenodd" clip-rule="evenodd" fill="#FEF3ED" d="M711.292,588.108c-10.573,22.451-24.741,42.357-41.624,58.71
		c-10.774,7.706-22.037,14.822-33.251,20.452c-3.622-7.618-5.65-16.148-5.65-25.153c0-32.282,26.061-58.466,58.2-58.466
		C696.875,583.651,704.416,585.236,711.292,588.108L711.292,588.108z M441.297,646.816c-16.88-16.354-31.051-36.254-41.619-58.708
		c6.874-2.872,14.416-4.457,22.326-4.457c32.138,0,58.199,26.184,58.199,58.466c0,9.005-2.028,17.535-5.649,25.153
		C463.339,661.641,452.073,654.523,441.297,646.816z"/>
	<path fill-rule="evenodd" clip-rule="evenodd" fill="#FBE0DB" d="M720.666,419.891c7.535,22.486,11.676,46.896,11.676,72.413
		c0,111.743-79.198,202.369-176.859,202.369c-13.764,0-27.162-1.8-40.021-5.206c6.669-0.884,13.813-1.625,21.606-2.167
		c202.59-14.084,164.731-209.248,164.731-209.248c-74.691,74.444-227.146,33.198-227.146,33.198l-1.022-11.066l-12.278,7.042
		c-15.348-4.024-56.275-30.18-56.275-30.18c-9.209,5.029-21.486,39.233-21.486,39.233l-1.445,16.349
		c-2.305-13.032-3.519-26.517-3.519-40.324c0-39.964,10.135-77.224,27.614-108.605c18.093-14.214,45.281-32.601,57.157-38.439
		c18.417-9.054,107.435,7.043,115.62,5.03c8.186-2.012,101.295,12.072,101.295,12.072L720.666,419.891z"/>
	<path fill-rule="evenodd" clip-rule="evenodd" fill="#F8CFE1" d="M723.519,595.07c-7.395,10.146-15.475,19.612-24.163,28.306
		c-18.407,15.826-40.77,32.766-62.938,43.895c-3.622-7.619-5.651-16.148-5.651-25.153c0-32.284,26.063-58.467,58.201-58.467
		C701.904,583.65,713.856,587.894,723.519,595.07L723.519,595.07z M411.601,623.364c-8.685-8.689-16.761-18.153-24.151-28.294
		c9.664-7.177,21.616-11.42,34.555-11.42c32.138,0,58.2,26.183,58.2,58.467c0,9.005-2.029,17.534-5.651,25.153
		C452.378,656.138,430.012,639.194,411.601,623.364z"/>
	<path fill-rule="evenodd" clip-rule="evenodd" d="M685.087,332.285l9.842-9.653c-29.902-36.285-37.261-86.19,25.844-114.978
		c-5.362,5.285-18.204,28.298-3.481,31.823c4.796,1.147,10.684-5.698,14.745-11.842c16.399-24.801,53.561,1.601,51.15-35.071
		c38.007,18.965,21.956,41.59,1.6,53.465c-7.904,4.611-16.429,7.018-22.813,9.128c-22.098,7.299,0.049,26.366,16.098,8.833
		c20.464-31.186,45.021-6.035,45.021-6.035c-34.788,2.012-12.278,28.168-12.278,28.168c18.246,20.119,18.925,38.23,14.963,51.306
		c-11.601,38.277-54.209,36.06-86.778,20.2c-5.878-2.862-11.686-6.32-17.276-10.252l-9.959,11.02
		c25.204,30.19,40.174,67.903,40.174,108.805c0,22.84-4.671,44.684-13.183,64.779c-6.662,95.571-86.179,171.064-183.271,171.064
		c-97.088,0-176.606-75.493-183.267-171.066c-8.513-20.095-13.183-41.938-13.183-64.777c0-40.903,14.971-78.609,40.179-108.8
		l-9.962-11.024c-5.592,3.932-11.399,7.39-17.277,10.252c-32.569,15.859-75.178,18.077-86.777-20.2
		c-3.963-13.075-3.284-31.187,14.962-51.306c0,0,22.51-26.156-12.278-28.168c0,0,24.557-25.15,45.021,6.035
		c16.049,17.533,38.195-1.534,16.098-8.833c-6.385-2.11-14.909-4.517-22.813-9.128c-20.355-11.875-36.407-34.5,1.6-53.465
		c-2.41,36.672,34.752,10.271,51.151,35.071c4.061,6.144,9.948,12.989,14.744,11.842c14.724-3.525,1.881-26.538-3.481-31.823
		c63.104,28.787,55.746,78.692,25.844,114.978l9.842,9.651c30.118-24.186,68.395-40.085,110.564-43.795
		c5.26-0.609,10.613-0.925,16.041-0.925c3.244,0,6.461,0.112,9.647,0.332v-0.153C609.187,289.175,652.045,305.747,685.087,332.285
		L685.087,332.285z M661.314,393.882c17.962,18.527,31.688,41.725,39.462,67.764c-37.386,30.418-89.615,49.316-147.41,49.316
		c-24.937,0-48.837-3.522-70.957-9.967l3.781-45.641l-19.306,40.535c-21.396-7.872-40.806-18.569-57.456-31.489
		c7.635-27.242,21.748-51.492,40.425-70.698c-35.519,30.085-58.078,75.044-58.078,125.277c0,1.39,0.017,2.776,0.052,4.158
		l0.001,0.075l0.002,0.039c0.035,1.344,0.086,2.681,0.15,4.017l0.007,0.149l0.009,0.14c0.066,1.298,0.149,2.592,0.246,3.882
		l0.027,0.34c0.098,1.281,0.212,2.558,0.339,3.828l0.03,0.297c0.131,1.275,0.276,2.549,0.436,3.816l0.04,0.313
		c0.156,1.22,0.327,2.438,0.511,3.65l0.096,0.621c0.171,1.107,0.354,2.213,0.548,3.314l0.147,0.821
		c0.192,1.062,0.395,2.122,0.607,3.178l0.169,0.828c0.21,1.009,0.429,2.016,0.657,3.018l0.287,1.242
		c0.187,0.788,0.379,1.573,0.575,2.359l0.466,1.814c0.192,0.732,0.39,1.465,0.592,2.194l0.521,1.824l0.569,1.918l0.595,1.912
		l0.518,1.597c0.246,0.746,0.495,1.49,0.751,2.231l0.325,0.932l0.33,0.929c0.284,0.794,0.576,1.584,0.872,2.371l0.151,0.401
		l0.352,0.919c0.291,0.751,0.584,1.497,0.884,2.241l0.484,1.187l0.09,0.219l-0.001-0.001
		c24.603,59.421,83.066,101.234,151.271,101.234c68.865,0,127.803-42.626,151.98-102.965c0.253-0.631,0.502-1.264,0.747-1.898
		l0.683-1.802l0.693-1.892l0.672-1.908l0.619-1.831c0.233-0.703,0.462-1.407,0.686-2.114l0.487-1.565
		c0.23-0.756,0.457-1.515,0.677-2.275l0.469-1.654c0.225-0.804,0.441-1.612,0.654-2.421l0.351-1.359
		c0.235-0.936,0.465-1.873,0.685-2.814l0.232-1.011c0.229-1.008,0.449-2.017,0.658-3.031l0.17-0.828
		c0.212-1.056,0.415-2.114,0.607-3.178l0.147-0.821c0.2-1.137,0.389-2.277,0.565-3.42l0.076-0.494
		c0.186-1.22,0.356-2.445,0.512-3.672l0.04-0.313c0.161-1.27,0.305-2.541,0.436-3.816l0.03-0.297
		c0.128-1.271,0.241-2.547,0.34-3.828l0.027-0.34c0.099-1.303,0.181-2.612,0.248-3.923l0.006-0.099l0.007-0.149
		c0.067-1.336,0.117-2.674,0.151-4.017l0.001-0.039l0.002-0.075c0.035-1.382,0.052-2.769,0.052-4.158
		C719.193,468.841,696.715,423.963,661.314,393.882z"/>
	<path fill-rule="evenodd" clip-rule="evenodd" fill="#FBC400" d="M410.534,330.477c0,0-5.829,9.244-13.731,13.006l22.199,22.817
		c0,0-66.219,67.754-39.659,127.011c7.816-58.605,43.826-105.047,91.936-113.994c0,0-37.285,45.698-47.5,81.354
		c0,0,30.646,15.065,40.35,16.571c8.127-19.67,17.916-38.251,30.135-55.239l1.532,70.833c65.76,15.768,137.983,2.03,190.623-34.178
		c-10.215-35.654-48.01-79.341-48.01-79.341c46.063-1.112,84.119,55.389,91.937,113.994
		c26.559-59.257-31.988-125.504-31.988-125.504l15.55-24.324c-7.902-3.762-13.731-13.006-13.731-13.006l-20.401,19.498
		c-77.081-61.768-171.756-61.096-248.836,1.006L410.534,330.477L410.534,330.477z M787.705,217.113c0,0,5.979,15.567-25.409,23.603
		c0,0-24.909,7.532-21.423,26.113c4.24,16.746,28.528,27.913,37.442,9.512c3.22-6.652,5.642-13.748,14.371-13.529
		c0,0-0.157,7.152,1.035,14.211c1.511,8.96,6.597,13.254,11.025,20.583c36.861,61.012-43.204,74.5-82.309,39.026
		c0,0-43.185-33.715-37.834-75.181c1.646-12.791,8.192-24.647,16.411-32.788c0,0-0.995,4.395-0.56,8.915
		c0.895,9.28,11.24,12.842,20.553,11.668c12.496-1.576,12.34-7.503,18.704-14.672c6.031-6.795,15.271-6.207,24.147-7.332
		C772.451,226.154,780.513,223.156,787.705,217.113z"/>
	<path fill-rule="evenodd" clip-rule="evenodd" fill="#FBC400" d="M452.848,473.677c4.599,1.793,8.688,3.163,11.28,3.564
		c8.067-19.528,17.776-37.984,29.872-54.872l0.093-0.654C462.884,441.923,454.895,463.798,452.848,473.677L452.848,473.677z
		 M670.915,468.357c5.329-3.028,10.504-6.262,15.503-9.7c-9.24-32.249-41.039-71.067-47.029-78.188h-0.004
		C665.239,424.954,670.039,456.888,670.915,468.357L670.915,468.357z M727.481,477.442c-0.299-29.279-6.512-79.137-41.537-111.55
		l21.996-26.447c1.78,1.557,3.794,3.003,5.966,4.037l-15.55,24.324c0,0,58.547,66.247,31.988,125.504
		C729.635,487.99,728.673,482.687,727.481,477.442L727.481,477.442z M742.021,349.178c40.694,17.876,94.123,0.394,62.726-51.572
		c-4.429-7.329-9.515-11.623-11.025-20.583c-1.192-7.059-1.035-14.211-1.035-14.211l-0.117-0.002
		c-17.499,19.322,15.929,41.803,7.72,63.627C790.695,351.921,760.234,351.784,742.021,349.178z"/>
	<path fill-rule="evenodd" clip-rule="evenodd" fill="#F49C00" d="M452.848,473.677c4.599,1.793,8.688,3.163,11.28,3.564
		c8.067-19.528,17.776-37.984,29.872-54.872l0.093-0.654C462.884,441.923,454.895,463.798,452.848,473.677L452.848,473.677z
		 M670.915,468.357c5.329-3.028,10.504-6.262,15.503-9.7c-9.24-32.249-41.039-71.067-47.029-78.188h-0.004
		C665.239,424.954,670.039,456.888,670.915,468.357L670.915,468.357z M727.481,477.442c-0.299-29.279-6.512-79.137-41.537-111.55
		l21.996-26.447c1.78,1.557,3.794,3.003,5.966,4.037l-15.55,24.324c0,0,58.547,66.247,31.988,125.504
		C729.635,487.99,728.673,482.687,727.481,477.442L727.481,477.442z M742.021,349.178c40.694,17.876,94.123,0.394,62.726-51.572
		c-4.429-7.329-9.515-11.623-11.025-20.583c-1.192-7.059-1.035-14.211-1.035-14.211l-0.117-0.002
		c-17.499,19.322,15.929,41.803,7.72,63.627C790.695,351.921,760.234,351.784,742.021,349.178z"/>
	<path fill-rule="evenodd" clip-rule="evenodd" fill="#FBC400" d="M321.982,217.113c0,0-5.979,15.567,25.408,23.603
		c0,0,24.911,7.532,21.424,26.113c-4.241,16.746-28.529,27.913-37.443,9.512c-3.219-6.652-5.642-13.748-14.371-13.529
		c0,0,0.158,7.152-1.034,14.211c-1.511,8.96-6.596,13.254-11.025,20.583c-36.861,61.012,43.204,74.5,82.308,39.026
		c0,0,43.186-33.715,37.835-75.181c-1.646-12.791-8.192-24.647-16.412-32.788c0,0,0.995,4.395,0.561,8.915
		c-0.896,9.28-11.24,12.842-20.553,11.668c-12.496-1.576-12.341-7.503-18.703-14.672c-6.032-6.795-15.272-6.207-24.147-7.332
		C337.236,226.154,329.175,223.156,321.982,217.113z"/>
	<path d="M391.417,776.938v0.041l-27.77-15.581l-2.528-1.418l-0.536-0.302l-1.664-0.934c-0.427-0.239-0.942-0.529-6.996-3.888
		l-0.79-0.439l-9.041-5.028v-9.795v-0.825v-46.536v-46.556v-2.401v-27.248l26.19,11.685l2.387,1.064l9.274,4.137l0.926,0.411
		l10.548,4.689v0.021l11.913,5.3l0.924,0.41l10.547,4.689v0.02l11.153,4.965l13.571,6.056l0.002-0.008l9.756,4.351l0.412,0.184
		l3.703,1.643h0.07l4.025,1.799v-0.071l26.262,11.767l2.388,1.069c13.758,6.164,6.228,2.815,9.118,4.105v-0.03l26.191,11.685
		l2.387,1.065l28.372,12.644l1.978-0.84h0.016l0.748-0.317l2.354-0.998l25.903-10.984v0.027l0.756-0.322l9.876-4.148l1.982-0.836
		l3.115-1.314l0.008-0.043l9.241-3.888l0.756-0.317l-0.013-0.025l3.198-1.354l3.57-1.511l-0.013-0.024l3.604-1.54l0.015,0.03
		l2.733-1.183l31.212-13.49l-0.058,0.333l1.943-0.822l11.86-5.04l2.361-1.007l25.903-11.038v0.081l10.249-4.344l2.354-0.999
		c20.447-8.681,40.819-17.234,61.331-25.889l5.188,130.4l-11.705,6.2l-1.014,0.536v0.067l-10.095,5.329l-7.394,3.904v0.003
		l-1.893,0.995l-6.088,3.215l-0.007-0.01l-1.413,0.743l-4.916,2.585l-0.008-0.015l-5.601,2.963l-0.821,0.436l-16.145,8.512
		l-7.255,3.845v-0.018l-4.927,2.598l-0.222,0.116l-2.75,1.45l-2.174,1.146c-54.182,28.573-77.21,40.707-103.058,54.301l-0.03-0.051
		l-2.459,1.303l-11.423,6.051v0.016l-1.02,0.54l-4.446,2.349l-2.287,1.203l-8.163,4.323v-0.092l-0.483,0.253l-5.753,3.005
		l-17.109-9.504l-3.563-1.979v0.016l-3.377-1.892l-0.417-0.23l-1.591-0.895l-22.385-12.534l-2.528-1.416l-1.908-1.068l0.021,0.14
		C442.771,805.612,443.941,806.376,391.417,776.938z"/>
	<path fill="#FBC400" d="M374.394,747.76l-1.346,0.264v0.734l-2.529-1.398l-0.535-0.297c-3.235-1.791-6.499-3.6-8.733-4.822
		l-0.789-0.434v-0.814v-45.892v-45.913v-2.367l2.386,1.05l9.276,4.079l0.925,0.406v0.911v1.243l0.086-0.232l0.596-1.605l1.706,0.749
		l20.072,8.806l0.925,0.405v0.911V711.3v47.717v2.644l-2.528-1.396l-20.384-11.257L374.394,747.76L374.394,747.76z M383.729,673.067
		l-5.929-2.692l-4.752-2.156v31.55v33.12l6.179,3.315l4.502,2.41V706.69V673.067L383.729,673.067z M399.436,762.488v-48.07v-48.09
		v-2.364l2.387,1.047c5.436,2.383,10.874,4.772,16.311,7.161l16.311,7.176l0.926,0.406v0.911v49.953v49.894v2.644l-2.529-1.396
		l-17.015-9.4l-15.607-8.623l-0.782-0.433V762.488L399.436,762.488z M422.508,690.441c-3.259-1.485-6.561-2.989-10.329-4.694v33.3
		v34.847l3.88,2.083c2.065,1.107,4.126,2.214,6.449,3.468v-33.631V690.441L422.508,690.441z M460.217,796.252l-1.928-11.764h-0.001
		l-1.931-11.726l-3.74-22.628c-0.455-0.228-0.913-0.456-1.387-0.685v12.98v26.828v2.644l-2.529-1.396l-4.729-2.613l0.002-0.003
		l-4.696-2.574l-0.789-0.433v-0.82v-50.268v-50.306v-2.357l2.38,1.034l4.707,2.061l4.73,2.084l0.925,0.408v0.42l0.109-0.368
		l1.812,0.796l8.525,3.744l8.312,3.649l0.925,0.405v0.912v30.301v30.281v2.521l-2.47-1.243l-2.063-1.039l1.317,8.08
		c0.668,4.077,1.34,8.175,2.026,12.506c0.744,4.683,1.568,9.706,2.39,14.727c0.49,2.994,0.983,5.996,1.47,8.998l0.507,3.128
		l-3.017-1.674c-4.175-2.318-6.884-3.807-9.74-5.38l-0.347-0.19l-0.659-0.362L460.217,796.252L460.217,796.252z M458.248,706.546
		l-3.995-1.813l-3.022-1.373v14.001v15.509l4.193,2.055l2.824,1.386v-14.085V706.546L458.248,706.546z M475.864,804.694v-52.365
		v-52.424v-2.371l2.386,1.055c6.603,2.916,13.209,5.814,19.811,8.71c4.27,1.873,8.543,3.748,12.813,5.626l0.924,0.406v0.91v54.249
		v54.209v2.643l-2.528-1.396l-32.622-18.005l0.873-1.247H475.864L475.864,804.694z M498.937,725.162
		c-2.997-1.355-6.628-3.009-10.329-4.695v36.452v38.013l3.616,1.947c2.138,1.151,4.23,2.28,6.713,3.611v-36.806V725.162
		L498.937,725.162z M538.222,743.018v45.928v48.325v2.629l-2.522-1.382c-3.636-1.991-6.27-3.451-8.964-4.944l-0.279-0.155
		l-0.782-0.435v-0.813v-47.873v-46.98l-11.138-5.061l-0.905-0.412v-0.894v-14.454v-2.366l2.387,1.049l33.244,14.612l0.925,0.406
		v0.91v14.944v2.397l-2.406-1.092L538.222,743.018L538.222,743.018z M575.444,831.817v-24.201v-21.755l-10.603,5.02v23.64v24.516
		v0.836l-0.821,0.429l-1.019,0.531c-3.024,1.577-6.025,3.143-8.421,4.377l-2.483,1.28v-2.551v-55.993v-56.033v-0.932l0.957-0.396
		c1.111-0.462,2.996-1.253,5.02-2.101h0.007l4.406-1.842l2.354-0.983v2.313v23.593v21.178l10.603-4.888v-22.389v-23.3v-0.929
		l0.95-0.399c2.258-0.95,5.343-2.231,8.423-3.511l0.898-0.373l2.354-0.978v2.306v54.367v54.326v0.837l-0.821,0.428l-4.563,2.373
		v0.005l-4.752,2.466l-2.49,1.301V831.817L575.444,831.817z M615.976,778.449v16.988v17.043v0.842l-0.827,0.429l-4.794,2.482
		l-4.521,2.343l-2.483,1.286v-2.558V799.83v-17.384c-1.118-5.39-2.242-10.797-3.36-16.217c-1.035-5.011-2.162-10.479-3.39-16.466
		c-1.131-5.52-2.263-11.062-3.392-16.616l-3.39-16.705l-0.226-1.108l1.144-0.479c3.207-1.345,6.415-2.691,10.568-4.413l1.984-0.823
		l0.345,1.922c0.632,3.516,1.329,7.251,2.023,10.979c0.587,3.15,1.171,6.279,1.796,9.732c0.646,3.567,1.353,7.323,2.073,11.117
		l2.262-14.423l3.741-23.712l0.123-0.788l0.814-0.339l3.199-1.336c2.418-1.007,4.848-2.02,7.232-3.033l2.82-1.201l-0.479,2.749
		l-2.211,12.694c-1.416,8.11-2.837,16.244-4.448,25.741c-0.906,5.345-1.828,10.712-2.747,16.084
		C618.516,763.49,617.199,771.177,615.976,778.449L615.976,778.449z M654.561,704.532v14.181v12.665l19.764-9.105l2.413-1.112v2.417
		v28.674v28.653v0.841l-0.828,0.43c-3.632,1.883-6.955,3.604-15.637,8.112c-6.392,3.318-11.999,6.234-15.614,8.122l-2.184,1.141
		l-0.293-2.239l-1.637-12.513l-0.127-0.963l0.954-0.48c5.103-2.567,10.225-5.163,15.351-7.759l7.154-3.622v-15.095v-13.522
		l-8.613,4.063c-3.354,1.588-6.942,3.294-11.008,5.242l-2.438,1.168v-2.462V722.91v-28.458v-0.929l0.957-0.399l9.235-3.855
		c6.959-2.904,13.963-5.827,22.522-9.422l2.36-0.992v2.321v12.807v0.917l-0.938,0.406l-1.063,0.459
		C668.115,698.69,661.337,701.62,654.561,704.532L654.561,704.532z M693.067,687.939v13.613v12.076
		c6.601-3.042,13.203-6.082,19.803-9.105l2.413-1.105v2.41v27.516v27.518v0.837l-0.821,0.428l-31.297,16.277l-2.175,1.13
		l-0.303-2.222l-1.637-12.003l-0.133-0.965l0.961-0.485l22.504-11.381v-14.485v-12.891l-19.627,9.301l-2.432,1.152v-2.445v-27.36
		v-27.378v-0.93l0.958-0.399l31.763-13.278l2.354-0.985v2.314v12.316v0.917l-0.938,0.406c-6.99,3.021-13.986,6.026-20.978,9.028
		L693.067,687.939L693.067,687.939z M740.144,746.531l-1.931-8.693l-1.929-8.724l-1.93-8.781v-0.006l-1.499-6.848l-0.361,0.173
		l-1.35,0.644v13.498v24.829v0.838l-0.82,0.428l-4.515,2.347v0.006l-4.916,2.551l-2.49,1.301v-2.565v-47.521v-47.541v-0.929
		l0.95-0.4c2.596-1.094,6.018-2.519,9.438-3.941l2.109-0.878l0.003-0.014l0.733-0.305c2.805-1.166,5.612-2.34,8.417-3.511
		c2.807-1.171,5.614-2.345,8.419-3.511l2.354-0.979v2.308v26.87v26.869v0.884l-0.886,0.415c-1.274,0.596-2.6,1.229-3.908,1.855
		c0.543,2.514,1.179,5.378,1.81,8.221c0.577,2.604,1.15,5.186,1.783,8.117c1.001,4.64,1.938,8.751,2.869,12.841l0.983,4.328
		l0.231,1.023l-1.014,0.529l-10.095,5.256l-0.834-1.265L740.144,746.531L740.144,746.531z M738.162,668.77
		c-2.543,1.092-5.026,2.16-7.018,3.022v14.247v12.735l7.018-3.251v-14.093V668.77z"/>
	<path fill-rule="evenodd" clip-rule="evenodd" d="M554.86,696.069c36.87,0,66.942-22.095,66.942-49.186
		s-30.072-49.186-66.942-49.186c-36.871,0-66.943,22.095-66.943,49.186S517.989,696.069,554.86,696.069z"/>
	<path fill-rule="evenodd" clip-rule="evenodd" fill="#FFFFFF" d="M554.86,607.938c13.771,0,26.388,3.63,36.183,9.655
		c-9.83,6.462-23.298,8.894-36.183,8.903c-12.885-0.01-26.353-2.441-36.183-8.903C528.473,611.568,541.09,607.938,554.86,607.938z"
		/>
	<path fill-rule="evenodd" clip-rule="evenodd" fill="#E72D5B" d="M611.252,647.647c-0.554,22.532-25.592,40.681-56.392,40.681
		s-55.839-18.148-56.393-40.681c29.68-18.56,55.677,10.665,55.677,10.665h1.432C555.576,658.313,581.572,629.088,611.252,647.647z"
		/>
	<path fill-rule="evenodd" clip-rule="evenodd" fill="#FBE0DB" d="M557.476,593.9c20.884,0,37.916-4.542,37.916-10.11
		c0-5.569-17.032-10.111-37.916-10.111c-20.883,0-37.915,4.542-37.915,10.111C519.561,589.358,536.593,593.9,557.476,593.9z"/>
	<path fill-rule="evenodd" clip-rule="evenodd" d="M648.227,554.181l15.609-7.346l-7.347-12.855l-55.091,31.219v9.183l73.456,0.918
		l1.836-14.691L648.227,554.181L648.227,554.181z M462.728,554.181l-15.608-7.346l7.344-12.854l55.093,31.217v9.183l-73.456,0.918
		l-1.836-14.691L462.728,554.181z"/>
</g>
</svg>
