<?xml version="1.0" encoding="utf-8"?>
<!-- Generator: Adobe Fuck You Illustrator 26.3.1, SVG Export Plug-In . SVG Version: 6.00 Build 0)  -->
<svg version="1.1" id="Layer_1" xmlns="http://www.w3.org/2000/svg" xmlns:xlink="http://www.w3.org/1999/xlink" x="0px" y="0px"
	 viewBox="0 0 319.3 316.5" style="enable-background:new 0 0 319.3 316.5;" xml:space="preserve">
<style type="text/css">
	.st0{display:none;}
	.st1{display:inline;}
	.st2{display:none;fill:url(#SVGID_00000160869774801804058770000003448954414536553346_);}
	.st3{fill:#FFFFFF;}
	.st4{fill:#B2B0B9;}
	.st5{fill:#B2B0BA;}
	.st6{fill:#30394E;}
	.st7{fill:#31394E;}
	.st8{fill:#262E45;}
	.st9{fill:#272F45;}
	.st10{fill:#272F46;}
	.st11{fill:#31394D;}
	.st12{fill:#30394D;}
	.st13{fill:#31384D;}
	.st14{fill:#32394E;}
	.st15{fill:#30384D;}
	.st16{fill:#262F45;}
	.st17{display:none;fill:#414042;}
	.st18{display:inline;fill:#414042;}
	.st19{fill:#141414;}
	.st20{fill:none;stroke:url(#SVGID_00000018219947766010342670000009478690452259162245_);stroke-width:22;stroke-miterlimit:10;}
	.st21{fill:none;stroke:#141414;stroke-width:13;stroke-miterlimit:10;}
</style>
<g class="st0">
	<g class="st1">
		<defs>
			<rect id="SVGID_1_" x="-95.6" y="-97.7" width="512" height="512"/>
		</defs>
		<clipPath id="SVGID_00000005966551843864033050000016577094976219578010_">
			<use xlink:href="#SVGID_1_"  style="overflow:visible;"/>
		</clipPath>
		<g style="clip-path:url(#SVGID_00000005966551843864033050000016577094976219578010_);">
			
				<image style="overflow:visible;" width="512" height="512" xlink:href="16CE8CCC.jpg"  transform="matrix(1 0 0 1 -95.5585 -97.7181)">
			</image>
		</g>
	</g>
</g>
<linearGradient id="SVGID_00000171712485706058130370000017167077035304168877_" gradientUnits="userSpaceOnUse" x1="29.7771" y1="159.8333" x2="288.5762" y2="159.8333">
	<stop  offset="2.012780e-07" style="stop-color:#99908E"/>
	<stop  offset="0.1753" style="stop-color:#857D7A"/>
	<stop  offset="0.439" style="stop-color:#716967"/>
	<stop  offset="0.7106" style="stop-color:#665E5C"/>
	<stop  offset="1" style="stop-color:#625B59"/>
</linearGradient>
<ellipse style="display:none;fill:url(#SVGID_00000171712485706058130370000017167077035304168877_);" cx="159.2" cy="159.8" rx="129.4" ry="130.4"/>
<g>
	<path class="st3" d="M166.7,121.1c0-8.3,0-16.6,0-25c0-0.3,0-0.6,0-1c0-7.7,0-15.4,0-23c0-0.3,0-0.6,0-1c0-7.7,0-15.4,0-23
		c0-0.3,0-0.6,0-1c0-7.7,0-15.4,0-23c0-0.3,0-0.6,0-1c0-6.8,0-13.5,0-20.3c-2.3,0.9-5.2,0.6-7.6,0.5c0,6.2,0,12.3,0,18.5
		c0,0.4-0.1,0.9-0.1,1.3c0,0.3,0,0.6,0,1c0,0.7,0.1,1.3,0.1,2c0,6.6,0,13.1,0,19.7c0,0.4-0.1,0.9-0.1,1.3c0,0.3,0,0.6,0,1
		c0,0.7,0.1,1.3,0.1,2c0,6.6,0,13.1,0,19.7c0,0.4-0.1,0.9-0.1,1.3c0,0.3,0,0.7,0,1c0,0.8,0.1,1.5,0.1,2.3c0,6.5,0,13,0,19.5
		c0,0.4-0.1,0.9-0.1,1.3c0,0.3,0,0.6,0,1c0,0.6,0.1,1.3,0.1,1.9c0,7.7,0,15.4,0,23.1c0,0.3,0,0.6,0,1c0,7.7,0,15.4,0,23
		c0,0.3,0,0.6,0,1c0,7.7,0,15.4,0,23c0,0.3,0,0.6,0,1c0,7.7,0,15.4,0,23c0,0.3,0,0.6,0,1c0,7.7,0,15.4,0,23c0,0.3,0,0.6,0,1
		c0,7.7,0,15.4,0,23c0,0.3,0,0.6,0,1c0,7.7,0,15.4,0,23c0,0.3,0,0.6,0,1c0,7.7,0,15.3,0,23c0,0.1,0,0.2,0,0.3h7.4c0-0.1,0-0.2,0-0.3
		c0-7.7,0-15.3,0-23c0-0.3,0-0.6,0-1c0-7.7,0-15.4,0-23c0-0.3,0-0.6,0-1c0-7.7,0-15.4,0-23c0-0.3,0-0.6,0-1c0-7.7,0-15.4,0-23
		c0-0.3,0-0.6,0-1c0-7.7,0-15.4,0-23c0-0.3,0-0.6,0-1c0-7.7,0-15.4,0-23c0-0.3,0-0.6,0-1c0-7.7,0-15.4,0-23
		C166.7,121.8,166.7,121.5,166.7,121.1z"/>
	<path class="st4" d="M245.4,289.1l-6.6,0c-0.3,0-0.6,0-1,0c-7.7,0-15.4,0-23,0c-0.3,0-0.6,0-1,0l-23,0c-0.3,0-0.6,0-1,0
		c-7.7,0-15.3,0-23,0c0,0.1,0,0.2,0,0.3h78.6C245.3,289.3,245.3,289.2,245.4,289.1z"/>
	<path class="st5" d="M71.3,289.4h88c0-0.1,0-0.2,0-0.3c-7.3,0-14.7,0-22,0c-0.3,0-0.6,0-1,0c-7.7,0-15.4,0-23,0c-0.3,0-0.6,0-1,0
		c-7.7,0-15.4,0-23,0c-0.3,0-0.6,0-1,0c-5.7,0-11.4,0-17,0C71.2,289.2,71.3,289.3,71.3,289.4z"/>
	<path class="st6" d="M216,23.2c-1,0-1.3-0.3-1.3-1.3c0-3.4,0-6.7,0-10.1c-0.3-0.1-0.6-0.3-1-0.4c0,3.9,0,7.8,0,11.7
		c0.3,0.3,0.6,0.6,1,1c7.4,0,14.9,0,22.3,0v-1c0,0,0,0,0,0C230,23.2,223,23.2,216,23.2z"/>
	<path class="st6" d="M238.7,289.1c0-7.7,0-15.3,0-23c-0.4-0.3-0.5-0.6,0-1c0-7.7,0-15.4,0-23c-0.4-0.3-0.5-0.6,0-1l0-23
		c-0.4-0.3-0.5-0.6,0-1c0-7.7,0-15.4,0-23c-0.4-0.3-0.5-0.6,0-1c0-7.7,0-15.4,0-23c-0.4-0.3-0.5-0.6,0-1c0-7.7,0-15.4,0-23
		c-0.4-0.3-0.5-0.6,0-1c0-7.4,0-14.7,0-22.1h-1c0,6.9,0,13.8,0,20.7c0,1-0.2,1.4-1.3,1.4c-6.8-0.1-13.7,0-20.5,0
		c-1,0-1.3-0.3-1.3-1.3c0-6.8,0.1-13.5,0-20.3c0-1.3,0.4-1.5,1.6-1.5c7.1,0,14.2,0,21.2,0v-1c-0.2,0-0.5,0-0.7,0
		c-6.9,0-13.9,0-20.8,0c-1,0-1.3-0.3-1.3-1.3c0-7.7,0-15.3,0-23c0-0.9,0.7-0.7,1.2-0.7c7,0,13.9,0,20.9,0v-1c-6.9,0-13.9,0-20.8,0
		c-1,0-1.3-0.3-1.3-1.3c0-7,0-14,0-21.1c0-0.9,0.7-0.7,1.2-0.7c7,0,13.9,0,20.9,0v-1c-6.9,0-13.9,0-20.8,0c-1,0-1.3-0.3-1.3-1.3
		c0-7,0-14,0-21.1c0-0.9,0.7-0.7,1.2-0.7c7,0,13.9,0,20.9,0v-1c-6.9,0-13.9,0-20.8,0c-1,0-1.3-0.3-1.3-1.3c0-7,0-14,0-21.1l0,0
		c-0.3,0-0.6,0-1,0c0,7,0,14,0,21c0,1-0.2,1.4-1.3,1.4c-6.8-0.1-13.7,0-20.5,0c-1,0-1.3-0.3-1.3-1.3c0-6.8,0-13.7,0-20.5
		c0-1.1,0.4-1.3,1.4-1.3c7,0,14,0,21,0v-1c-7,0-14,0-21,0c-1,0-1.4-0.2-1.4-1.3c0-5.3,0-10.7,0-16c-0.3-0.2-0.6-0.4-0.9-0.5
		c0,5.5,0,11,0,16.5c0,1-0.2,1.4-1.3,1.4c-7.2,0-14.5,0-21.7,0c0,0.3,0,0.6,0,1c7.2,0,14.5,0,21.7,0c1.1,0,1.3,0.3,1.3,1.4
		c0,6.8,0,13.6,0,20.4c0,1-0.2,1.4-1.3,1.4c-7.2,0-14.5,0-21.7,0c0,0.3,0,0.6,0,1c7.2,0,14.5,0,21.7,0c1.1,0,1.3,0.3,1.3,1.4
		c0,6.8,0,13.6,0,20.4c0,1-0.2,1.4-1.3,1.4c-7.2,0-14.5,0-21.7,0c0,0.3,0,0.6,0,1c7.2,0,14.5,0,21.7,0c1.1,0,1.3,0.3,1.3,1.4
		c0,6.8,0,13.6,0,20.4c0,1-0.2,1.4-1.3,1.4c-7.2,0-14.5,0-21.7,0c0,0.3,0,0.6,0,1c7.2,0,14.5,0,21.7,0c1.1,0,1.3,0.3,1.3,1.4
		c0,7.4,0,14.9,0,22.3c0,1-0.2,1.4-1.3,1.4c-7.2,0-14.5,0-21.7,0c0,0.3,0,0.6,0,1c7.2,0,14.3,0,21.5,0c1.5,0,1.5,0,1.5,1.5
		c0,6.7,0,13.4,0,20c0,1.1-0.2,1.5-1.4,1.5c-7.2-0.1-14.4,0-21.6,0c0,0.3,0,0.6,0,1c7.2,0,14.3,0,21.5,0c1.5,0,1.5,0,1.5,1.5
		c0,6.7,0,13.4,0,20c0,1.1-0.2,1.5-1.4,1.5c-7.2-0.1-14.4,0-21.6,0c0,0.3,0,0.6,0,1c7.2,0,14.3,0,21.5,0c1.5,0,1.5,0,1.5,1.5
		c0,6.7,0,13.4,0,20c0,1.1-0.2,1.5-1.4,1.5c-7.2-0.1-14.4,0-21.6,0c0,0.3,0,0.6,0,1c7.2,0,14.3,0,21.5,0c1.5,0,1.5,0,1.5,1.5
		c0,6.7,0,13.4,0,20c0,1.1-0.2,1.5-1.4,1.5c-7.2-0.1-14.4,0-21.6,0c0,0.3,0,0.6,0,1c7.2,0,14.3,0,21.5,0c1.5,0,1.5,0,1.5,1.5
		c0,6.7,0,13.4,0,20c0,1.1-0.2,1.5-1.4,1.5c-7.2-0.1-14.4,0-21.6,0c0,0.3,0,0.6,0,1c7.2,0,14.3,0,21.5,0c1.5,0,1.5,0,1.5,1.5
		c0,6.7,0,13.4,0,20c0,1.1-0.2,1.5-1.4,1.5c-7.2-0.1-14.4,0-21.6,0c0,0.3,0,0.6,0,1c7.2,0,14.3,0,21.5,0c1.2,0,1.6,0.3,1.6,1.6
		c-0.1,7.2,0,14.3,0,21.5c0.3,0,0.6,0,1,0c0-7.7,0-15.3,0-23c0-0.3,0-0.6,0-1l0-23c0-0.3,0-0.6,0-1c0-7.7,0-15.4,0-23
		c0-0.3,0-0.6,0-1l0-23l0-1c0-7.7,0-15.4,0-23c0-0.3,0-0.6,0-1c0-7.7,0-15.4,0-23c0-0.3,0-0.6,0-1c0-7.7,0-15.4,0-23
		c0-0.3,0-0.6,0-1c0-7.9,0-15.7,0-23.6c0-1,0.2-1.4,1.3-1.4c6.8,0.1,13.7,0,20.5,0c1,0,1.3,0.3,1.3,1.3c0,7.5,0,15,0,22.5
		c0,0.4-0.3,0.8-0.5,1.2c-0.1,0.3-0.2,0.6-0.2,1c0.2,0.3,0.7,0.7,0.7,1c0,7.1,0,14.1,0,21.2c0,0.3-0.3,0.5-0.5,0.8
		c-0.1,0.3-0.2,0.6-0.2,1c0.2,0.3,0.7,0.7,0.7,1c0,7.1,0,14.1,0,21.2c0,0.3-0.3,0.5-0.5,0.8c-0.1,0.3-0.2,0.6-0.2,1
		c0.2,0.3,0.7,0.7,0.7,1c0,7.1,0,14.1,0,21.2c0,0.3-0.3,0.5-0.5,0.8c-0.1,0.3-0.2,0.6-0.2,1c0.2,0.3,0.7,0.7,0.7,1
		c0,7.1,0,14.1,0,21.2c0,0.3-0.3,0.5-0.5,0.8c-0.1,0.3-0.2,0.6-0.2,1c0.2,0.3,0.7,0.7,0.7,1c0,7.1,0,14.1,0,21.2
		c0,0.3-0.3,0.5-0.5,0.8c-0.1,0.3-0.2,0.6-0.2,1c0.2,0.3,0.7,0.7,0.7,1c0,7.1,0,14.1,0,21.2c0,0.3-0.3,0.5-0.5,0.8
		c-0.1,0.3-0.2,0.6-0.2,1c0.9,0.1,0.7,0.8,0.7,1.4c0,7.2,0,14.4,0,21.6c0.3,0,0.6,0,1,0c0-7.2,0-14.4,0-21.6c0-1.1,0.3-1.4,1.4-1.4
		c6.7,0,13.4,0,20.1,0c1.2,0,1.5,0.5,1.5,1.6c0,7.2,0,14.3,0,21.5C238.1,289.1,238.4,289.1,238.7,289.1z M191.8,48.2
		c7,0,13.9,0,20.9,0c0.8,0,1.1,0.3,1.1,1.1c0,3.5,0,7,0,10.5c0,3.4,0,6.9,0,10.3c0,0.8-0.2,1.1-1.1,1.1c-7,0-14,0-21,0
		c-0.8,0-1-0.3-1-1c0-7,0-14,0-21C190.7,48.3,191,48.2,191.8,48.2z M213.7,83.7c0,3.5,0,7,0,10.4c0,0.8-0.3,1.1-1.1,1.1
		c-7,0-13.9,0-20.9,0c-0.9,0-1.1-0.3-1.1-1.2c0-6.9,0-13.8,0-20.7c0-0.9,0.3-1.2,1.2-1.2c6.9,0,13.8,0,20.7,0c1,0,1.2,0.4,1.2,1.2
		C213.7,76.8,213.7,80.3,213.7,83.7z M214.7,147.3c0-0.9,0.3-1.3,1.3-1.2c6.8,0,13.7,0,20.5,0c0.9,0,1.3,0.4,1.3,1.3
		c0,7,0,13.9,0,20.9c0,0.9-0.4,0.9-1.1,0.9c-3.5,0-7,0-10.6,0c-3.4,0-6.9,0-10.3,0c-0.8,0-1.1-0.2-1.1-1.1
		C214.7,161.2,214.7,154.2,214.7,147.3z M214.7,171.5c0-1,0.3-1.4,1.4-1.4c6.8,0,13.6,0,20.4,0c0.9,0,1.3,0.3,1.3,1.2c0,7,0,14,0,21
		c0,0.9-0.5,0.9-1.1,0.8c-3.5,0-7,0-10.4,0c-3.4,0-6.9,0-10.3,0c-1,0-1.3-0.3-1.3-1.3C214.7,185.1,214.7,178.3,214.7,171.5z
		 M214.7,195.4c0-1,0.3-1.3,1.3-1.3c6.8,0,13.7,0,20.5,0c1,0,1.3,0.4,1.3,1.3c0,7,0,13.9,0,20.9c0,0.7-0.2,0.9-0.9,0.9
		c-7.1,0-14.1,0-21.2,0c-0.9,0-0.9-0.4-0.9-1.1c0-3.5,0-7,0-10.4C214.7,202.2,214.7,198.8,214.7,195.4z M236.7,265.1
		c-3.5,0-7,0-10.4,0c-3.4,0-6.8,0-10.2,0c-1,0-1.4-0.2-1.4-1.3c0.1-6.8,0-13.6,0-20.4c0-1,0.3-1.4,1.4-1.4c6.8,0,13.6,0,20.4,0
		c0.9,0,1.3,0.3,1.3,1.2c0,7,0,14,0,21C237.8,265.1,237.3,265.1,236.7,265.1z M236.7,241.1c-3.5,0-7,0-10.4,0c-3.5,0-7,0-10.4,0
		c-0.9,0-1.1-0.3-1.1-1.2c0-6.9,0-13.7,0-20.6c0-1,0.4-1.3,1.3-1.3c6.8,0,13.6,0,20.4,0c1,0,1.3,0.4,1.3,1.3c0,6.9,0,13.8,0,20.7
		C237.8,241,237.4,241.2,236.7,241.1z"/>
	<path class="st7" d="M138.6,95.2c-1.2,0-1.4-0.4-1.4-1.5c0.1-7.2,0-14.4,0-21.6c-0.3-0.3-0.6-0.6-1-1c-7.2,0-14.4,0-21.6,0
		c-1.1,0-1.5-0.2-1.5-1.4c0.1-6.8,0-13.6,0-20.4c0-1,0.3-1.3,1.3-1.3c6.9,0,13.7,0,20.6,0c0.5,0,1.2-0.2,1.2,0.7
		c0.3,0.1,0.6,0.2,1,0.2c-0.2-1,0.5-1,1.2-1c6.9,0,13.8,0,20.7,0c0-0.3,0-0.6,0-1c-7.3,0-14.6,0-21.9,0c-0.3,0-0.6,0-1,0
		c-7.2,0-14.5,0-21.7,0c-1,0-1.4-0.2-1.4-1.3c0.1-6.8,0-13.7,0-20.5c0-1,0.3-1.3,1.3-1.3c6.9,0,13.7,0,20.6,0c0.5,0,1.2-0.2,1.2,0.7
		c0.3,0.1,0.6,0.2,1,0.2c-0.2-1,0.5-1,1.2-1c6.9,0,13.8,0,20.7,0c0-0.3,0-0.6,0-1c-7.3,0-14.6,0-21.9,0c-0.3,0-0.6,0-1,0
		c-7.2,0-14.5,0-21.7,0c-1,0-1.4-0.2-1.4-1.3c0-2.4,0-4.9,0-7.3c-0.3,0.1-0.6,0.2-1,0.3c0,2.4,0,4.8,0,7.3c0,1-0.5,1.1-1.2,1.1
		c-6.3,0-12.5,0-18.8,0c-0.7,0.3-1.5,0.6-2.2,1c0,0,0,0,0.1,0c7,0,14.1,0,21.1,0c0.8,0,1,0.2,1,1c0,7,0,14.1,0,21.1
		c0,0.7-0.3,1-1,0.9c0.1,0.3,0.2,0.6,0.2,1c0.2,0.3,0.7,0.5,0.7,0.8c0,7.1,0,14.2,0,21.3c0,0.7-0.2,0.9-0.9,0.9
		c-7.1,0-14.1,0-21.2,0c-1,0-0.9-0.6-0.9-1.2c0-7.3,0-14.5,0-21.8c-0.3-0.3-0.6-0.6-1-1c-7.2,0-14.4,0-21.6,0
		c-1.1,0-1.5-0.2-1.5-1.4c0-3.1,0-6.2,0-9.3c-0.3,0.2-0.6,0.3-1,0.5c0,3.1,0,6.2,0,9.3c0,0.8-0.4,0.9-1,0.8c0.1,0.3,0.2,0.6,0.2,1
		c0.2,0.3,0.7,0.5,0.7,0.8c0,7.1,0,14.3,0,21.4c0,0.3-0.4,0.5-0.7,0.8c-0.1,0-0.2,0-0.2,0c0.1,0.3,0.2,0.6,0.2,1
		c0.2,0.2,0.5,0.5,0.7,0.7c0.3,0.1,0.6,0.2,1,0.2c-0.1-0.7,0.2-1,0.9-1c7,0,14.1,0,21.1,0c0.8,0,1,0.2,1,1c0,7,0,14.1,0,21.1
		c0,0.7-0.3,1-1,0.9c0.1,0.3,0.2,0.6,0.2,1c0.9,0,0.7,0.7,0.7,1.2c0,7,0,13.9,0,20.9c0,0.2,0,0.5,0,0.7c0.3,0.1,0.6,0.2,1,0.2
		c0-7.2,0-14.5,0-21.7c0-1,0.2-1.4,1.3-1.4c6.8,0.1,13.7,0.1,20.5,0c1.1,0,1.3,0.4,1.3,1.4c0,7.1,0,14.3,0,21.4
		c0.3,0.1,0.6,0.2,1,0.2c0-7.2,0-14.5,0-21.7c0-1,0.2-1.4,1.3-1.4c6.8,0.1,13.7,0.1,20.5,0c1.1,0,1.3,0.4,1.3,1.4
		c0,7.1,0,14.3,0,21.4c0.3,0.1,0.6,0.2,1,0.2c0-7.2,0-14.4,0-21.6c0-1.1,0.3-1.5,1.4-1.5c6.8,0.1,13.7,0,20.5,0c0-0.3,0-0.6,0-1
		C152.3,95.2,145.4,95.2,138.6,95.2z M87,71.2c-3.5,0-7,0-10.4,0c-3.4,0-6.9,0-10.3,0c-0.8,0-1.1-0.2-1.1-1.1c0-7,0-13.9,0-20.9
		c0-0.9,0.3-1.1,1.2-1.1c6.9,0,13.8,0,20.7,0c0.9,0,1.2,0.2,1.2,1.1c0,6.9,0,13.8,0,20.7C88.3,71,87.9,71.2,87,71.2z M111.1,95.2
		c-7,0-13.9,0-20.9,0c-0.9,0-1.1-0.3-1.1-1.1c0-3.5,0-7,0-10.5c0-3.4,0-6.9,0-10.3c0-0.8,0.2-1.1,1.1-1.1c7,0,13.9,0,20.9,0
		c0.9,0,1.1,0.3,1.1,1.2c0,6.9,0,13.8,0,20.7C112.2,94.9,112,95.2,111.1,95.2z M136.2,83.8c0,3.4,0,6.9,0,10.3
		c0,0.8-0.2,1.1-1.1,1.1c-7,0-13.9,0-20.9,0c-0.9,0-1.1-0.3-1.1-1.2c0-6.9,0-13.8,0-20.7c0-0.9,0.2-1.2,1.1-1.2c6.9,0,13.8,0,20.7,0
		c1,0,1.2,0.3,1.2,1.2C136.2,76.9,136.2,80.3,136.2,83.8z"/>
	<path class="st8" d="M166.7,96.2c7.2,0,14.5,0,21.7,0c1.1,0,1.3,0.3,1.3,1.4c0,7.4,0,14.9,0,22.3c0,1-0.2,1.4-1.3,1.4
		c-7.2,0-14.5,0-21.7,0C166.7,112.8,166.7,104.5,166.7,96.2z"/>
	<path class="st8" d="M137.2,119.2c0-7.2,0-14.4,0-21.6c0-1.1,0.3-1.5,1.4-1.5c6.8,0.1,13.7,0,20.5,0c0,0.6,0.1,1.3,0.1,1.9
		c0,7.7,0,15.4,0,23.1c-7.3,0-14.7,0-22,0C137.2,120.5,137.2,119.9,137.2,119.2z"/>
	<path class="st8" d="M166.7,48.2c7.2,0,14.5,0,21.7,0c1.1,0,1.3,0.3,1.3,1.4c0,6.8,0,13.6,0,20.4c0,1-0.2,1.4-1.3,1.4
		c-7.2,0-14.5,0-21.7,0C166.7,63.5,166.7,55.9,166.7,48.2z"/>
	<path class="st8" d="M166.7,72.2c7.2,0,14.5,0,21.7,0c1.1,0,1.3,0.3,1.3,1.4c0,6.8,0,13.6,0,20.4c0,1-0.2,1.4-1.3,1.4
		c-7.2,0-14.5,0-21.7,0C166.7,87.5,166.7,79.9,166.7,72.2z"/>
	<path class="st8" d="M189.8,5.4c-1.3-0.8-2.5-1.7-3.6-2.7c-3.5-0.3-7-0.5-10.6-0.5c-2.1,0-4.5-0.1-6.8-0.5c-0.6,0.5-1.3,0.9-2,1.2
		c0,6.8,0,13.5,0,20.3c7.2,0,14.5,0,21.7,0c1.1,0,1.3-0.3,1.3-1.4C189.7,16.4,189.7,10.9,189.8,5.4z"/>
	<path class="st8" d="M166.7,24.2c7.2,0,14.5,0,21.7,0c1.1,0,1.3,0.3,1.3,1.4c0,6.8,0,13.6,0,20.4c0,1-0.2,1.4-1.3,1.4
		c-7.2,0-14.5,0-21.7,0C166.7,39.5,166.7,31.9,166.7,24.2z"/>
	<path class="st8" d="M166.7,266.1c7.2,0,14.3,0,21.5,0c1.2,0,1.6,0.3,1.6,1.6c-0.1,7.2,0,14.3,0,21.5c-7.7,0-15.3,0-23,0
		C166.7,281.4,166.7,273.8,166.7,266.1z"/>
	<path class="st8" d="M166.7,242.1c7.2,0,14.3,0,21.5,0c1.5,0,1.5,0,1.5,1.5c0,6.7,0,13.4,0,20c0,1.1-0.2,1.5-1.4,1.5
		c-7.2-0.1-14.4,0-21.6,0C166.7,257.5,166.7,249.8,166.7,242.1z"/>
	<path class="st8" d="M166.7,122.1c7.2,0,14.3,0,21.5,0c1.5,0,1.5,0,1.5,1.5c0,6.7,0,13.4,0,20c0,1.1-0.2,1.5-1.4,1.5
		c-7.2-0.1-14.4,0-21.6,0C166.7,137.5,166.7,129.8,166.7,122.1z"/>
	<path class="st8" d="M166.7,146.1c7.2,0,14.3,0,21.5,0c1.5,0,1.5,0,1.5,1.5c0,6.7,0,13.4,0,20c0,1.1-0.2,1.5-1.4,1.5
		c-7.2-0.1-14.4,0-21.6,0C166.7,161.5,166.7,153.8,166.7,146.1z"/>
	<path class="st8" d="M166.7,194.1c7.2,0,14.3,0,21.5,0c1.5,0,1.5,0,1.5,1.5c0,6.7,0,13.4,0,20c0,1.1-0.2,1.5-1.4,1.5
		c-7.2-0.1-14.4,0-21.6,0C166.7,209.5,166.7,201.8,166.7,194.1z"/>
	<path class="st8" d="M166.7,170.1c7.2,0,14.3,0,21.5,0c1.5,0,1.5,0,1.5,1.5c0,6.7,0,13.4,0,20c0,1.1-0.2,1.5-1.4,1.5
		c-7.2-0.1-14.4,0-21.6,0C166.7,185.5,166.7,177.8,166.7,170.1z"/>
	<path class="st8" d="M166.7,218.1c7.2,0,14.3,0,21.5,0c1.5,0,1.5,0,1.5,1.5c0,6.7,0,13.4,0,20c0,1.1-0.2,1.5-1.4,1.5
		c-7.2-0.1-14.4,0-21.6,0C166.7,233.5,166.7,225.8,166.7,218.1z"/>
	<path class="st9" d="M137.2,49.1c-0.2-1,0.5-1,1.2-1c6.9,0,13.8,0,20.7,0c0,0.7,0.1,1.3,0.1,2c0,6.6,0,13.1,0,19.7
		c0,0.4-0.1,0.9-0.1,1.3c-6.9,0-13.7,0-20.6,0c-1.1,0-1.3-0.3-1.3-1.4C137.2,63,137.2,56,137.2,49.1z"/>
	<path class="st10" d="M159.2,242.1c0,7.7,0,15.4,0,23c-6.9,0-13.8,0-20.7,0c-1.1,0-1.3-0.3-1.3-1.4c0-6.8,0-13.6,0-20.5
		c0-0.4,0.1-0.8,0.2-1.2C144.7,242.1,151.9,242.1,159.2,242.1z"/>
	<path class="st9" d="M159.1,95.2c-6.8,0-13.7,0-20.5,0c-1.2,0-1.4-0.4-1.4-1.5c0.1-7.2,0-14.4,0-21.6c7.3,0,14.6,0,21.9,0
		c0,0.8,0.1,1.5,0.1,2.3c0,6.5,0,13,0,19.5C159.2,94.3,159.1,94.8,159.1,95.2z"/>
	<path class="st10" d="M159.2,289.1c-7.3,0-14.7,0-22,0c0-7.2,0-14.4,0-21.7c0-1,0.2-1.4,1.3-1.4c6.9,0.1,13.8,0,20.7,0
		C159.2,273.8,159.2,281.4,159.2,289.1z"/>
	<path class="st8" d="M159.1,47.2c-7.3,0-14.6,0-21.9,0c0-7.4,0-14.7,0-22.1c-0.2-1,0.5-1,1.2-1c6.9,0,13.8,0,20.7,0
		c0,0.7,0.1,1.3,0.1,2c0,6.6,0,13.1,0,19.7C159.2,46.3,159.1,46.8,159.1,47.2z"/>
	<path class="st10" d="M159.2,146.1c0,7.7,0,15.4,0,23c-7.3,0-14.7,0-22,0c0-7.2,0-14.5,0-21.7c0-0.5,0.1-0.9,0.2-1.4
		C144.7,146.1,151.9,146.1,159.2,146.1z"/>
	<path class="st10" d="M159.2,170.1c0,7.7,0,15.4,0,23c-7.3,0-14.7,0-22,0c0-7.2,0-14.5,0-21.7c0-0.5,0.1-0.9,0.2-1.4
		C144.7,170.1,151.9,170.1,159.2,170.1z"/>
	<path class="st10" d="M159.2,194.1c0,7.7,0,15.4,0,23c-7.3,0-14.7,0-22,0c0-7.2,0-14.5,0-21.7c0-0.5,0.1-0.9,0.2-1.4
		C144.7,194.1,151.9,194.1,159.2,194.1z"/>
	<path class="st10" d="M159.2,122.1c0,7.7,0,15.4,0,23c-7.3,0-14.7,0-22,0c0-7.2,0-14.5,0-21.7c0-0.5,0.1-0.9,0.2-1.4
		C144.7,122.1,151.9,122.1,159.2,122.1z"/>
	<path class="st8" d="M159.2,3.4c-2-0.1-4.7-0.7-7.2-1.7c-3.3,2.5-7.1,4.5-11.4,5.7c-1.1,0.3-2.2,0.6-3.3,0.9c0,5,0,9.9,0,14.9
		c7.3,0,14.6,0,21.9,0c0-0.4,0.1-0.9,0.1-1.3C159.2,15.7,159.2,9.6,159.2,3.4C159.2,3.4,159.2,3.4,159.2,3.4z"/>
	<path class="st10" d="M159.2,218.1c0,7.7,0,15.4,0,23c-7.3,0-14.7,0-22,0c0-7.2,0-14.5,0-21.7c0-0.5,0.1-0.9,0.2-1.4
		C144.7,218.1,151.9,218.1,159.2,218.1z"/>
	<path class="st11" d="M137.4,218.1c-0.1,0.5-0.2,0.9-0.2,1.4c0,7.2,0,14.5,0,21.7c0.1,0.3,0.2,0.6,0.2,1c-0.1,0.4-0.2,0.8-0.2,1.2
		c0,6.8,0,13.6,0,20.5c0,1,0.2,1.4,1.3,1.4c6.9-0.1,13.8,0,20.7,0c0,0.3,0,0.6,0,1c-6.9,0-13.8,0-20.7,0c-1.1,0-1.3,0.3-1.3,1.4
		c0,7.2,0,14.4,0,21.7c-0.3,0-0.6,0-1,0c0-7.2,0-14.5,0-21.7c0-1.1-0.3-1.3-1.4-1.3c-6.8,0-13.6,0-20.4,0c-1,0-1.4,0.2-1.4,1.3
		c0.1,7.2,0,14.5,0,21.7c-0.3,0-0.6,0-1,0c0-7.2,0-14.5,0-21.7c0-0.4-0.3-0.9-0.5-1.3c0-0.3,0-0.6,0-1c0.2-0.3,0.5-0.6,0.5-0.9
		c0-7.1,0-14.1,0-21.2c0-0.3-0.3-0.6-0.5-0.9c0-0.3,0-0.6,0-1c0.2-0.3,0.5-0.6,0.5-0.9c0-7.1,0-14.1,0-21.2c0-0.3-0.3-0.6-0.5-0.9
		c0-0.3,0-0.6,0-1c0.2-0.3,0.5-0.6,0.5-0.9c0-7.1,0-14.1,0-21.2c0-0.3-0.3-0.6-0.5-0.9c0-0.3,0-0.6,0-1c0.2-0.3,0.5-0.6,0.5-0.9
		c0-7.1,0-14.1,0-21.2c0-0.3-0.3-0.6-0.5-0.9c0-0.3,0-0.6,0-1c0.2-0.3,0.5-0.6,0.5-0.9c0-7.1,0-14.1,0-21.2c0-0.3-0.3-0.6-0.5-0.9
		c0-0.3,0-0.6,0-1c0.2-0.3,0.5-0.6,0.5-0.9c0-7.1,0-14.1,0-21.2c0-0.3-0.3-0.6-0.5-0.9c0-0.3,0-0.6,0-1c1-0.5,0.3-1.5,0.5-2.2
		c0.3,0.1,0.6,0.2,1,0.2c0,2.2-0.3,1.9,1.9,1.9c6.3,0,12.7,0,19,0c2.1,0,2.1,0,2.1-2.2c0.3,0.1,0.6,0.2,1,0.2c0,0.6,0,1.3,0,1.9
		c0.1,0.3,0.2,0.6,0.2,1c-0.1,0.5-0.2,0.9-0.2,1.4c0,7.2,0,14.5,0,21.7c0.1,0.3,0.2,0.6,0.2,1c-0.1,0.5-0.2,0.9-0.2,1.4
		c0,7.2,0,14.5,0,21.7c0.1,0.3,0.2,0.6,0.2,1c-0.1,0.5-0.2,0.9-0.2,1.4c0,7.2,0,14.5,0,21.7c0.1,0.3,0.2,0.6,0.2,1
		c-0.1,0.5-0.2,0.9-0.2,1.4c0,7.2,0,14.5,0,21.7C137.3,217.5,137.3,217.8,137.4,218.1z M135.7,169.1c0.2-0.4,0.5-0.8,0.5-1.2
		c0-6.9,0-13.7,0-20.6c0-1-0.3-1.3-1.3-1.3c-6.8,0-13.7,0-20.5,0c-1.1,0-1.3,0.4-1.3,1.4c0,7.2,0,14.5,0,21.7c0.1,0.3,0.2,0.6,0.2,1
		c-0.1,0.3-0.2,0.5-0.2,0.8c0,7.1,0,14.2,0,21.4c0,0.7,0.2,0.9,0.9,0.9c7.1,0,14.2,0,21.2,0c0.6,0,0.9-0.2,0.9-0.9
		c0-7.1,0-14.2,0-21.4c0-0.3-0.4-0.5-0.7-0.8C135.6,169.8,135.7,169.5,135.7,169.1z M136.2,253.7c0-3.5,0-7,0-10.4
		c0-0.9-0.2-1.2-1.2-1.2c-6.9,0-13.8,0-20.7,0c-0.9,0-1.1,0.3-1.1,1.2c0,6.9,0,13.8,0,20.7c0,0.9,0.2,1.2,1.1,1.2c7,0,13.9,0,20.9,0
		c0.8,0,1.1-0.3,1.1-1.1C136.2,260.6,136.2,257.2,136.2,253.7z M124.7,241.1c3.5,0,7,0,10.5,0c0.8,0,1-0.2,1-1c0-7,0-14,0-21
		c0-0.9-0.3-1.1-1.1-1.1c-7,0-13.9,0-20.9,0c-0.8,0-1.1,0.2-1.1,1.1c0,7,0,13.9,0,20.9c0,0.9,0.3,1.1,1.2,1.1
		C117.8,241.1,121.2,241.1,124.7,241.1z M136.2,205.7c0-3.5,0-7,0-10.5c0-0.8-0.2-1-1-1c-7,0-14,0-21,0c-0.9,0-1.1,0.3-1.1,1.1
		c0,7,0,13.9,0,20.9c0,0.8,0.2,1.1,1.1,1.1c7,0,13.9,0,20.9,0c0.9,0,1.1-0.3,1.1-1.2C136.2,212.5,136.2,209.1,136.2,205.7z
		 M124.6,145.1c3.5,0,7,0,10.4,0c0.9,0,1.2-0.2,1.2-1.1c0-7,0-13.9,0-20.9c0-0.9-0.3-1.1-1.1-1.1c-7,0-13.9,0-20.9,0
		c-0.8,0-1.1,0.2-1.1,1.1c0,7,0,13.9,0,20.9c0,0.9,0.3,1.1,1.2,1.1C117.8,145.1,121.2,145.1,124.6,145.1z"/>
	<path class="st12" d="M159.1,72.2c-7.3,0-14.6,0-21.9,0c-0.3-0.3-0.6-0.6-1-1c0-7.4,0-14.9,0-22.3c0.3,0.1,0.6,0.2,1,0.2
		c0,6.9,0,13.8,0,20.7c0,1,0.2,1.4,1.3,1.4c6.9-0.1,13.7,0,20.6,0C159.1,71.5,159.1,71.9,159.1,72.2z"/>
	<path class="st13" d="M137.4,242.1c-0.1-0.3-0.2-0.6-0.2-1c7.3,0,14.7,0,22,0c0,0.3,0,0.6,0,1C151.9,242.1,144.7,242.1,137.4,242.1
		z"/>
	<path class="st13" d="M137.4,122.1c-0.1-0.3-0.2-0.6-0.2-1c7.3,0,14.7,0,22,0c0,0.3,0,0.6,0,1C151.9,122.1,144.7,122.1,137.4,122.1
		z"/>
	<path class="st13" d="M137.4,146.1c-0.1-0.3-0.2-0.6-0.2-1c7.3,0,14.7,0,22,0c0,0.3,0,0.6,0,1C151.9,146.1,144.7,146.1,137.4,146.1
		z"/>
	<path class="st13" d="M137.4,218.1c-0.1-0.3-0.2-0.6-0.2-1c7.3,0,14.7,0,22,0c0,0.3,0,0.6,0,1C151.9,218.1,144.7,218.1,137.4,218.1
		z"/>
	<path class="st13" d="M137.4,194.1c-0.1-0.3-0.2-0.6-0.2-1c7.3,0,14.7,0,22,0c0,0.3,0,0.6,0,1C151.9,194.1,144.7,194.1,137.4,194.1
		z"/>
	<path class="st13" d="M137.4,170.1c-0.1-0.3-0.2-0.6-0.2-1c7.3,0,14.7,0,22,0c0,0.3,0,0.6,0,1C151.9,170.1,144.7,170.1,137.4,170.1
		z"/>
	<path class="st7" d="M240.9,23.2c-0.7,0-1.5,0-2.2,0v1c1.5,0,2.9,0,4.4,0C242.4,23.9,241.6,23.5,240.9,23.2z"/>
	<path class="st7" d="M264,71.2c-1,0-1.4-0.2-1.4-1.3c0.1-6.8,0-13.7,0-20.5c0-1,0.3-1.3,1.3-1.3c3,0,6.1,0,9.1,0
		c-0.3-0.3-0.6-0.6-0.8-1c-2.8,0-5.6,0-8.4,0c-0.9,0-1.2-0.2-1.2-1.1c0-2.2,0-4.4,0-6.6c-0.3-0.1-0.6-0.3-1-0.4c0,2.3,0,4.6,0,6.9
		c0,1-0.3,1.3-1.3,1.3c-6.8,0-13.7,0-20.5,0c-1.1,0-1.3-0.4-1.3-1.4c0-7,0-14,0-21h-1c0,7.1,0,14.1,0,21.2c0,0.5,0.2,1.2-0.7,1.2
		c-0.1,0-0.2,0-0.2,0v1c0.7-0.1,1,0.2,1,0.9c0,7.1,0,14.1,0,21.2c0,0.5,0,1-0.7,0.9c-0.1,0-0.2,0-0.2,0v1c0.7-0.1,1,0.2,1,0.9
		c0,7.1,0,14.1,0,21.2c0,0.5,0,1-0.7,0.9c-0.1,0-0.2,0-0.2,0v1c0.7-0.1,1,0.2,1,0.9c0,7.8,0,15.5,0,23.3c0,0.3-0.1,0.5-0.2,0.8v1
		c0.1,0.3,0.2,0.6,0.2,1h1c0-0.2,0-0.5,0-0.7l-0.5-0.5c0.2-0.2,0.3-0.5,0.5-0.7c0-7.9,0-15.9,0-23.8c0-0.5-0.2-1.2,0.7-1.2
		c0.3-0.2,0.6-0.5,0.9-0.5c6.4,0,12.9,0,19.3,0c0.4,0,0.7,0.3,1.1,0.5c0.1,0,0.2,0,0.2,0v-1c-7,0-14,0-21,0c-1,0-1.4-0.2-1.4-1.3
		c0.1-6.8,0-13.7,0-20.5c0-1,0.3-1.3,1.3-1.3c6.8,0,13.7,0,20.5,0c1.1,0,1.3,0.4,1.3,1.4c0,7.2,0,14.5,0,21.7l1,1
		c7.4,0,14.9,0,22.3,0v-1c-7,0-14,0-21,0c-1,0-1.4-0.2-1.4-1.3c0.1-6.8,0.1-13.7,0-20.5c0-1.1,0.4-1.3,1.4-1.3c7,0,14,0,21,0v-1
		C278,71.2,271,71.2,264,71.2z M261.8,70.2c0,0.8-0.3,1-1,1c-3.5,0-7,0-10.5,0c-3.4,0-6.9,0-10.3,0c-0.9,0-1.2-0.2-1.2-1.1
		c0-7,0-13.9,0-20.9c0-0.9,0.3-1.1,1.1-1.1c7,0,13.9,0,20.9,0c0.8,0,1.1,0.2,1.1,1.1C261.7,56.2,261.7,63.2,261.8,70.2z"/>
	<path class="st12" d="M260.4,169.2c-7.2,0-14.5,0-21.7,0c-0.5,0.3-0.4,0.6,0,1c7.2,0,14.4,0,21.6,0c1.2,0,1.5,0.4,1.5,1.5
		c0,6.8,0,13.5,0,20.3c0,1.1-0.4,1.3-1.4,1.3c-7.2,0-14.5,0-21.7,0c-0.5,0.3-0.4,0.6,0,1c7.2,0,14.4,0,21.6,0c1.2,0,1.5,0.4,1.5,1.5
		c0,6.8,0,13.5,0,20.3c0,1.1-0.4,1.3-1.4,1.3c-7.2,0-14.5,0-21.7,0c-0.5,0.3-0.4,0.6,0,1c7.2,0,14.4,0,21.6,0c1.2,0,1.5,0.4,1.5,1.5
		c0,6.8,0,13.5,0,20.3c0,1.1-0.4,1.3-1.4,1.3c-7.2,0-14.5,0-21.7,0c-0.5,0.3-0.4,0.6,0,1c7.2,0,14.4,0,21.6,0c1.2,0,1.5,0.4,1.5,1.5
		c0,5.9,0,11.8,0,17.7c0.3-0.4,0.6-0.8,0.9-1.1c0-5.6,0-11.2,0-16.8c0-0.9,0.3-1.2,1.2-1.2c6.3,0,12.6,0,18.9,0
		c0.3-0.3,0.7-0.6,1-0.9c-3.2,0-6.3,0-9.5,0c-3.5,0-7,0-10.4,0c-0.9,0-1.2-0.3-1.1-1.2c0-6.9,0-13.8,0-20.6c0-0.9,0.3-1.3,1.2-1.3
		c6.9,0,13.8,0,20.6,0c0.9,0,1.2,0.3,1.2,1.2c0,6.4,0,12.8,0,19.1c0.3-0.6,0.6-1.1,0.9-1.7c0-0.1,0.1-0.1,0.1-0.2
		c0-6.1,0-12.3,0-18.4c0-0.3,0-0.6,0-1l0-23c0-0.3,0-0.6,0-1c0-7.7,0-15.4,0-23c0-0.3,0-0.6,0-1c0-7.7,0-15.4,0-23c0-0.3,0-0.6,0-1
		c0-7.7,0-15.4,0-23c0-0.3,0-0.6,0-1c0-8,0-16,0-24c-0.3-0.1-0.6-0.2-1-0.2c0,7.6,0,15.3,0,22.9c0,1-0.2,1.4-1.3,1.4
		c-6.8-0.1-13.7-0.1-20.5,0c-1.1,0-1.3-0.4-1.3-1.4c0-7.5,0-15.1,0-22.6c-0.3-0.1-0.6-0.2-1-0.2c0,7.7,0,15.3,0,23
		c0,1-0.3,1.3-1.3,1.3c-7.3,0-14.5,0-21.8,0c-0.2,0.2-0.3,0.5-0.5,0.7c0.2,0.1,0.3,0.2,0.5,0.2c7.2,0,14.4,0,21.6,0
		c1.2,0,1.5,0.4,1.5,1.5c0,6.8,0,13.5,0,20.3c0,1.1-0.4,1.3-1.4,1.3c-7.2,0-14.5,0-21.7,0c-0.5,0.3-0.4,0.6,0,1c7.2,0,14.4,0,21.6,0
		c1.2,0,1.5,0.4,1.5,1.5c0,6.8,0,13.5,0,20.3C261.8,169,261.4,169.2,260.4,169.2z M284.6,217.1c-7,0-13.9,0-20.9,0
		c-0.8,0-1.1-0.3-1.1-1.1c0-3.5,0-7,0-10.4c0-3.4,0-6.8,0-10.2c0-1,0.3-1.3,1.3-1.3c6.8,0,13.7,0,20.5,0c0.9,0,1.3,0.3,1.3,1.2
		c0,6.9,0,13.8,0,20.8C285.8,216.9,285.5,217.1,284.6,217.1z M262.7,123.3c0-0.9,0.3-1.2,1.3-1.2c6.8,0,13.7,0,20.5,0
		c1,0,1.3,0.4,1.3,1.3c0,3.4,0,6.8,0,10.2c0,3.5,0,7,0,10.4c0,0.8-0.2,1.1-1.1,1.1c-7,0-13.9,0-20.9,0c-0.8,0-1.1-0.2-1.1-1.1
		C262.7,137.2,262.7,130.2,262.7,123.3z M285.8,168.2c0,0.9-0.4,0.9-1.1,0.9c-3.5,0-7,0-10.4,0c-3.5,0-7,0-10.4,0
		c-0.8,0-1.1-0.3-1.1-1.1c0-6.9,0-13.8,0-20.8c0-0.9,0.3-1.2,1.2-1.2c6.9,0,13.8,0,20.8,0c0.8,0,1.1,0.3,1.1,1.1
		C285.7,154.2,285.7,161.2,285.8,168.2z M262.7,171.4c0-1,0.3-1.3,1.3-1.3c6.8,0,13.6,0,20.4,0c1.1,0,1.4,0.4,1.4,1.4
		c0,6.8,0,13.7,0,20.5c0,0.9-0.2,1.2-1.1,1.2c-3.5,0-7,0-10.4,0c-3.4,0-6.9,0-10.3,0c-0.9,0-1.2-0.2-1.2-1.1
		C262.7,185.1,262.7,178.3,262.7,171.4z"/>
	<path class="st12" d="M258.9,265.2c-6.7,0-13.5,0-20.2,0c-0.5,0.3-0.4,0.6,0,1c6.5,0,13,0,19.5,0
		C258.5,265.8,258.7,265.5,258.9,265.2z"/>
	<path class="st8" d="M190.7,289.1c0-7.7,0-15.3,0-23c7.4,0,14.9,0,22.3,0c0.9,0.1,0.7,0.8,0.7,1.4c0,7.2,0,14.4,0,21.6
		C206.1,289.1,198.4,289.1,190.7,289.1z"/>
	<path class="st8" d="M255.7,270.1c0.8-1.4,1.7-2.7,2.5-4c-6.5,0-13,0-19.5,0c0,7.7,0,15.3,0,23l6.6,0
		C245.8,281.9,249.2,274.8,255.7,270.1z"/>
	<path class="st8" d="M214.7,289.1c0-7.2,0-14.4,0-21.6c0-1.1,0.3-1.4,1.4-1.4c6.7,0,13.4,0,20.1,0c1.2,0,1.5,0.5,1.5,1.6
		c0,7.2,0,14.3,0,21.5C230.1,289.1,222.4,289.1,214.7,289.1z"/>
	<path class="st13" d="M90.4,122.1c7.1,0,14.2,0,21.3,0v-1c-6.9,0-13.8,0-20.7,0c-2.2,0-1.9,0.3-1.9-1.9c-0.3-0.1-0.6-0.2-1-0.2
		c0,2.2,0,2.2-2.1,2.2c-6.3,0-12.7,0-19,0c-2.2,0-1.9,0.3-1.9-1.9h-1c0,0.2,0,0.3,0,0.5c0.2,1.1-0.3,1.5-1.4,1.5
		c-7.2-0.1-14.4,0-21.6,0c0,0.3,0,0.6,0,1c7.2,0,14.5,0,21.7,0c1,0,1.4,0.2,1.4,1.3c-0.1,6.8-0.1,13.7,0,20.5c0,1.1-0.4,1.3-1.4,1.3
		c-7.2,0-14.5,0-21.7,0c0,0.3,0,0.6,0,1c7.2,0,14.5,0,21.7,0c1,0,1.4,0.2,1.4,1.3c-0.1,6.8-0.1,13.7,0,20.5c0,1.1-0.4,1.3-1.4,1.3
		c-7.2,0-14.5,0-21.7,0c0,0.3,0,0.6,0,1c7.2,0,14.5,0,21.7,0c1,0,1.4,0.2,1.4,1.3c-0.1,6.8-0.1,13.7,0,20.5c0,1.1-0.4,1.3-1.4,1.3
		c-7.2,0-14.5,0-21.7,0c0,0.3,0,0.6,0,1c7.2,0,14.5,0,21.7,0c1,0,1.4,0.2,1.4,1.3c-0.1,6.8-0.1,13.7,0,20.5c0,1.1-0.4,1.3-1.4,1.3
		c-7.2,0-14.5,0-21.7,0c0,0.3,0,0.6,0,1c7.2,0,14.5,0,21.7,0c1,0,1.4,0.2,1.4,1.3c-0.1,6.8-0.1,13.7,0,20.5c0,1.1-0.4,1.3-1.4,1.3
		c-7.2,0-14.5,0-21.7,0c0,0.3,0,0.6,0,1c7.2,0,14.5,0,21.7,0c1,0,1.4,0.2,1.4,1.3c-0.1,6.8-0.1,13.7,0,20.5c0,1.1-0.4,1.3-1.4,1.3
		c-4.8,0-9.6,0-14.4,0c0.3,0.3,0.7,0.6,1,1c4.5,0,8.9,0,13.4,0c1,0,1.4,0.2,1.4,1.3c0,4,0,8,0,12.1c0.3,0.3,0.7,0.6,1,0.9
		c0-4.3,0-8.6,0-13c0-1.1,0.3-1.3,1.4-1.3c6.8,0,13.6,0,20.4,0c1,0,1.4,0.2,1.4,1.3c-0.1,7.2,0,14.5,0,21.7c0.3,0,0.6,0,1,0
		c0-7.2,0-14.5,0-21.7c0-1.1,0.3-1.3,1.4-1.3c7.1,0,14.1,0,21.2,0v-1c-7.1,0-14.1,0-21.2,0c-1.1,0-1.4-0.3-1.4-1.4
		c0-6.8,0-13.6,0-20.4c0-0.4,0.3-0.9,0.5-1.3c-0.2-0.3-0.3-0.6-0.5-1c0-7.3,0-14.5,0-21.8c0-0.4,0.3-0.9,0.5-1.3
		c-0.2-0.3-0.3-0.6-0.5-1c0-7.3,0-14.5,0-21.8c0-0.4,0.3-0.9,0.5-1.3c-0.2-0.3-0.3-0.6-0.5-1c0-7.3,0-14.5,0-21.8
		c0-0.4,0.3-0.9,0.5-1.3c-0.2-0.3-0.3-0.6-0.5-1c0-7.3,0-14.5,0-21.8c0-0.4,0.3-0.9,0.5-1.3c-0.2-0.3-0.3-0.6-0.5-1
		c0-7.3,0-14.5,0-21.8C89.2,122.3,89.4,122.1,90.4,122.1z M66.5,122.1c6.8,0.1,13.7,0,20.5,0c1,0,1.3,0.3,1.3,1.3
		c0,6.9,0,13.7,0,20.6c0,0.4-0.3,0.8-0.5,1.2c-0.2,0.3-0.3,0.6-0.5,1c0.7-0.1,1,0.2,1,0.9c0,7,0,14.1,0,21.1c0,0.8-0.3,1-1,1
		c-7,0-14,0-21,0c-0.8,0-1-0.2-1-1c0-7,0-14.1,0-21.1c0-0.3,0.3-0.6,0.5-0.9c-0.2-0.3-0.3-0.6-0.5-1c0-7.2,0-14.5,0-21.7
		C65.2,122.4,65.4,122.1,66.5,122.1z M65.2,181.6c0-3.5,0-7,0-10.4c0-0.8,0.2-1.1,1.1-1.1c7,0,14,0,21,0c0.8,0,1,0.3,1,1
		c0,7,0,14,0,21c0,0.9-0.3,1.1-1.1,1c-7,0-13.9,0-20.9,0c-0.9,0-1.1-0.3-1.1-1.1C65.2,188.6,65.2,185.1,65.2,181.6z M88.2,264.1
		c0,0.8-0.3,1-1,1c-7,0-14,0-21,0c-0.9,0-1.1-0.3-1-1.1c0-7,0-13.9,0-20.9c0-0.8,0.3-1.1,1.1-1.1c3.5,0,7,0,10.4,0c3.5,0,7,0,10.4,0
		c0.8,0,1.1,0.2,1.1,1.1C88.2,250.1,88.2,257.1,88.2,264.1z M88.2,229.6c0,3.4,0,6.9,0,10.3c0,0.9-0.2,1.3-1.2,1.2
		c-6.9,0-13.8,0-20.7,0c-0.9,0-1.2-0.3-1.2-1.2c0-6.9,0-13.8,0-20.7c0-1,0.4-1.2,1.2-1.2c6.9,0,13.7,0,20.6,0c1,0,1.2,0.3,1.2,1.2
		C88.2,222.7,88.2,226.2,88.2,229.6z M87,217.2c-3.5,0-7,0-10.4,0c-3.4,0-6.9,0-10.3,0c-0.8,0-1.1-0.2-1.1-1.1c0-7,0-13.9,0-20.9
		c0-0.9,0.3-1.1,1.2-1.1c6.9,0,13.8,0,20.7,0c0.9,0,1.2,0.2,1.2,1.1c0,6.9,0,13.8,0,20.7C88.3,216.9,87.9,217.2,87,217.2z"/>
	<path class="st10" d="M113.2,289.1c0-7.2,0-14.5,0-21.7c0-1.1,0.3-1.3,1.4-1.3c6.8,0,13.6,0,20.4,0c1,0,1.4,0.2,1.4,1.3
		c-0.1,7.2,0,14.5,0,21.7C128.5,289.1,120.9,289.1,113.2,289.1z"/>
	<path class="st10" d="M89.2,289.1c0-7.2,0-14.5,0-21.7c0-1.1,0.3-1.3,1.4-1.3c7.1,0,14.1,0,21.2,0c0.2,0.4,0.5,0.9,0.5,1.3
		c0,7.2,0,14.5,0,21.7C104.5,289.1,96.9,289.1,89.2,289.1z"/>
	<path class="st10" d="M88.3,267.4c0-1.1-0.3-1.3-1.4-1.3c-6.8,0-13.6,0-20.4,0c-1,0-1.4,0.2-1.4,1.3c0,4.3,0,8.6,0,13
		c2.5,2.5,4.6,5.4,6,8.7c5.7,0,11.4,0,17,0C88.2,281.9,88.2,274.6,88.3,267.4z"/>
	<path class="st10" d="M55.9,274.7c3.1,1,5.9,2.7,8.3,4.8c0-4,0-8,0-12.1c0-1.1-0.3-1.3-1.4-1.3c-4.5,0-8.9,0-13.4,0
		C52.1,268.6,54.3,271.4,55.9,274.7z"/>
	<path class="st13" d="M16.3,147.4c-0.1,6.8-0.1,13.7,0,20.5c0,1.1-0.4,1.3-1.4,1.3c-3.7,0-7.3,0-11,0c0,0.3,0.1,0.6,0.1,1
		c3.6,0,7.3,0,10.9,0c1,0,1.4,0.2,1.4,1.3c-0.1,6.8-0.1,13.7,0,20.5c0,0.5-0.1,0.8-0.2,1c0.4,0.8,0.8,1.7,1.2,2.6c0,0,0,0,0,0
		c0-1.1,0.4-1.3,1.4-1.3c7.1,0,14.1,0,21.2,0c0.1-0.3,0.2-0.6,0.2-1c-7.1,0-14.3,0-21.4,0c-1,0-1.4-0.2-1.4-1.3
		c0.1-6.8,0.1-13.7,0-20.5c0-1.1,0.4-1.3,1.4-1.3c7.1,0,14.1,0,21.2,0c0.1-0.3,0.2-0.6,0.2-1c-7.1,0-14.3,0-21.4,0
		c-1,0-1.4-0.2-1.4-1.3c0.1-6.8,0.1-13.7,0-20.5c0-1.1,0.4-1.3,1.4-1.3c7.1,0,14.1,0,21.2,0c0.1-0.3,0.2-0.6,0.2-1
		c-7.1,0-14.3,0-21.4,0c-1,0-1.4-0.2-1.4-1.3c0.1-6.8,0.1-13.7,0-20.5c0-1.1,0.4-1.3,1.4-1.3c7.1,0,14.1,0,21.2,0
		c0.1-0.3,0.2-0.6,0.2-1H17.3c0-0.6-0.1-1.1-0.1-1.7h-1c0,0.5,0,1,0,1.7H7.2c-0.1,0.3-0.2,0.6-0.4,1c2.7,0,5.4,0,8.1,0
		c1,0,1.4,0.2,1.4,1.3c-0.1,6.8-0.1,13.7,0,20.5c0,1.1-0.4,1.3-1.4,1.3c-4,0-7.9,0-11.9,0c0,0.3-0.1,0.6-0.1,1c4,0,8,0,12,0
		C15.9,146.1,16.3,146.3,16.3,147.4z"/>
	<path class="st13" d="M40,241.1c-3.1,0-6.2,0-9.3,0c0.2,0.3,0.3,0.6,0.5,1c2.9,0,5.7,0,8.6,0C39.8,241.8,39.9,241.5,40,241.1z"/>
	<path class="st13" d="M22.4,217.1c0.1,0.3,0.1,0.6,0.2,0.9c5.7,0,11.4,0,17.2,0c0.1-0.3,0.2-0.6,0.2-1
		C34.1,217.1,28.3,217.1,22.4,217.1z"/>
	<path class="st14" d="M39.7,242.1c0.2,0.3,0.5,0.6,0.5,0.9c0,5.2,0,10.4,0,15.6c0.3,0.2,0.7,0.4,1,0.7c0-5.7,0-11.5,0-17.2
		c0-0.3,0-0.6,0-1c0-7.7,0-15.4,0-23c0-0.3,0-0.6,0-1l0-23c0-0.3,0-0.6,0-1c0-7.7,0-15.4,0-23c0-0.3,0-0.6,0-1l0-23c0-0.3,0-0.6,0-1
		c0-7.7,0-15.4,0-23c0-0.3,0-0.6,0-1c0-0.6,0-1.1,0-1.7h-1c-0.1,0.6-0.2,1.1-0.2,1.7c-0.1,0.3-0.2,0.6-0.2,1
		c0.2,0.3,0.5,0.6,0.5,0.9c0,7.1,0,14.2,0,21.2c0,0.3-0.1,0.6-0.2,0.9c-0.1,0.3-0.2,0.6-0.2,1c0.2,0.3,0.5,0.6,0.5,0.9
		c0,7.1,0,14.2,0,21.2c0,0.3-0.1,0.6-0.2,0.9c-0.1,0.3-0.2,0.6-0.2,1c0.2,0.3,0.5,0.6,0.5,0.9c0,7.1,0,14.2,0,21.2
		c0,0.3-0.1,0.6-0.2,0.9c-0.1,0.3-0.2,0.6-0.2,1c0.2,0.3,0.5,0.6,0.5,0.9c0,7.1,0,14.2,0,21.2c0,0.3-0.1,0.6-0.2,0.9
		c-0.1,0.3-0.2,0.6-0.2,1c0.2,0.3,0.5,0.6,0.5,0.9c0,7.1,0,14.2,0,21.2c0,0.3-0.1,0.6-0.2,0.9C39.9,241.5,39.8,241.8,39.7,242.1z"/>
	<path class="st8" d="M190.7,121.1c0-7.9,0-15.7,0-23.6c0-1,0.2-1.4,1.3-1.4c6.8,0.1,13.7,0,20.5,0c1,0,1.3,0.3,1.3,1.3
		c0,7.5,0,15,0,22.5c0,0.4-0.3,0.8-0.5,1.2C205.7,121.1,198.2,121.1,190.7,121.1z"/>
	<path class="st8" d="M236.8,121.1c-6.9,0-13.9,0-20.8,0c-1,0-1.3-0.3-1.3-1.3c0-7.7,0-15.3,0-23c7,0,14,0,21,0
		c1.1,0,1.4,0.4,1.4,1.4c0,7,0,14.1,0,21.1C237,120,236.9,120.5,236.8,121.1z"/>
	<path class="st8" d="M213.7,83.7c0,3.5,0,7,0,10.4c0,0.8-0.3,1.1-1.1,1.1c-7,0-13.9,0-20.9,0c-0.9,0-1.1-0.3-1.1-1.2
		c0-6.9,0-13.8,0-20.7c0-0.9,0.3-1.2,1.2-1.2c6.9,0,13.8,0,20.7,0c1,0,1.2,0.4,1.2,1.2C213.7,76.8,213.7,80.3,213.7,83.7z"/>
	<path class="st8" d="M213.7,59.8c0,3.4,0,6.9,0,10.3c0,0.8-0.2,1.1-1.1,1.1c-7,0-14,0-21,0c-0.8,0-1-0.3-1-1c0-7,0-14,0-21
		c0-0.9,0.3-1.1,1.1-1.1c7,0,13.9,0,20.9,0c0.8,0,1.1,0.3,1.1,1.1C213.7,52.8,213.7,56.3,213.7,59.8z"/>
	<path class="st8" d="M208.1,8.2c-1.8,0.4-3.7,0.7-5.6,0.7c-4.3,0-8.3-1.1-11.8-3c0,5.3,0,10.7,0,16c0,1.1,0.4,1.3,1.4,1.3
		c7,0,14,0,21,0c0.2,0,0.5,0,0.7,0c0-3.9,0-7.8,0-11.7c-1.3-0.6-2.6-1.1-3.9-1.7C209.1,9.4,208.5,8.9,208.1,8.2z"/>
	<path class="st8" d="M213.7,24.9c0,7,0,14,0,21c0,1-0.2,1.4-1.3,1.4c-6.8-0.1-13.7,0-20.5,0c-1,0-1.3-0.3-1.3-1.3
		c0-6.8,0-13.7,0-20.5c0-1.1,0.4-1.3,1.4-1.3c7,0,14,0,21,0C213.3,24.4,213.5,24.7,213.7,24.9z"/>
	<path class="st8" d="M258.9,265.2c0.1-0.1,0.2-0.3,0.3-0.4c0.8-1.2,1.7-2.3,2.6-3.4c0-5.9,0-11.8,0-17.7c0-1.1-0.3-1.5-1.5-1.5
		c-7.2,0-14.4,0-21.6,0c0,7.7,0,15.4,0,23C245.4,265.1,252.2,265.1,258.9,265.2z"/>
	<path class="st8" d="M213,122.1c0.2,0.3,0.7,0.7,0.7,1c0,7.1,0,14.1,0,21.2c0,0.3-0.3,0.5-0.5,0.8c-7.5,0-15,0-22.6,0
		c0-7.7,0-15.4,0-23C198.1,122.1,205.6,122.1,213,122.1z"/>
	<path class="st8" d="M190.7,265.1c0-7.7,0-15.4,0-23c7.4,0,14.9,0,22.3,0c0.2,0.3,0.7,0.7,0.7,1c0,7.1,0,14.1,0,21.2
		c0,0.3-0.3,0.5-0.5,0.8C205.7,265.1,198.2,265.1,190.7,265.1z"/>
	<path class="st8" d="M238.7,146.1c7.2,0,14.4,0,21.6,0c1.2,0,1.5,0.4,1.5,1.5c0,6.8,0,13.5,0,20.3c0,1.1-0.4,1.3-1.4,1.3
		c-7.2,0-14.5,0-21.7,0C238.7,161.5,238.7,153.8,238.7,146.1z"/>
	<path class="st8" d="M213,146.1c0.2,0.3,0.7,0.7,0.7,1c0,7.1,0,14.1,0,21.2c0,0.3-0.3,0.5-0.5,0.8c-7.5,0-15,0-22.6,0
		c0-7.7,0-15.4,0-23C198.1,146.1,205.6,146.1,213,146.1z"/>
	<path class="st8" d="M238.7,170.1c7.2,0,14.4,0,21.6,0c1.2,0,1.5,0.4,1.5,1.5c0,6.8,0,13.5,0,20.3c0,1.1-0.4,1.3-1.4,1.3
		c-7.2,0-14.5,0-21.7,0C238.7,185.5,238.7,177.8,238.7,170.1z"/>
	<path class="st8" d="M213,170.1c0.2,0.3,0.7,0.7,0.7,1c0,7.1,0,14.1,0,21.2c0,0.3-0.3,0.5-0.5,0.8c-7.5,0-15,0-22.6,0
		c0-7.7,0-15.4,0-23C198.1,170.1,205.6,170.1,213,170.1z"/>
	<path class="st8" d="M190.7,217.1c0-7.7,0-15.4,0-23c7.4,0,14.9,0,22.3,0c0.2,0.3,0.7,0.7,0.7,1c0,7.1,0,14.1,0,21.2
		c0,0.3-0.3,0.5-0.5,0.8C205.7,217.1,198.2,217.1,190.7,217.1z"/>
	<path class="st8" d="M238.7,122.1c7.2,0,14.4,0,21.6,0c1.2,0,1.5,0.4,1.5,1.5c0,6.8,0,13.5,0,20.3c0,1.1-0.4,1.3-1.4,1.3
		c-7.2,0-14.5,0-21.7,0c0-7.4,0-14.7,0-22.1c0-0.2,0-0.5,0-0.7C238.7,122.3,238.7,122.2,238.7,122.1z"/>
	<path class="st8" d="M237.5,122.1c0.1,0.3,0.2,0.6,0.2,1c0,6.9,0,13.8,0,20.7c0,1-0.2,1.4-1.3,1.4c-6.8-0.1-13.7,0-20.5,0
		c-1,0-1.3-0.3-1.3-1.3c0-6.8,0.1-13.5,0-20.3c0-1.3,0.4-1.5,1.6-1.5C223.4,122.1,230.4,122.1,237.5,122.1z"/>
	<path class="st8" d="M238.7,194.1c7.2,0,14.4,0,21.6,0c1.2,0,1.5,0.4,1.5,1.5c0,6.8,0,13.5,0,20.3c0,1.1-0.4,1.3-1.4,1.3
		c-7.2,0-14.5,0-21.7,0C238.7,209.5,238.7,201.8,238.7,194.1z"/>
	<path class="st8" d="M213,218.1c0.2,0.3,0.7,0.7,0.7,1c0,7.1,0,14.1,0,21.2c0,0.3-0.3,0.5-0.5,0.8c-7.5,0-15,0-22.6,0
		c0-7.7,0-15.4,0-23C198.1,218.1,205.6,218.1,213,218.1z"/>
	<path class="st8" d="M238.7,218.1c7.2,0,14.4,0,21.6,0c1.2,0,1.5,0.4,1.5,1.5c0,6.8,0,13.5,0,20.3c0,1.1-0.4,1.3-1.4,1.3
		c-7.2,0-14.5,0-21.7,0C238.7,233.5,238.7,225.8,238.7,218.1z"/>
	<path class="st8" d="M226.1,169.1c-3.4,0-6.9,0-10.3,0c-0.8,0-1.1-0.2-1.1-1.1c0-6.9,0-13.8,0-20.7c0-0.9,0.3-1.3,1.3-1.2
		c6.8,0,13.7,0,20.5,0c0.9,0,1.3,0.4,1.3,1.3c0,7,0,13.9,0,20.9c0,0.9-0.4,0.9-1.1,0.9C233.1,169.1,229.6,169.1,226.1,169.1z"/>
	<path class="st8" d="M226.3,193.1c-3.4,0-6.9,0-10.3,0c-1,0-1.3-0.3-1.3-1.3c0-6.8,0-13.6,0-20.4c0-1,0.3-1.4,1.4-1.4
		c6.8,0,13.6,0,20.4,0c0.9,0,1.3,0.3,1.3,1.2c0,7,0,14,0,21c0,0.9-0.5,0.9-1.1,0.8C233.2,193.1,229.7,193.1,226.3,193.1z"/>
	<path class="st8" d="M214.7,205.6c0-3.4,0-6.8,0-10.2c0-1,0.3-1.3,1.3-1.3c6.8,0,13.7,0,20.5,0c1,0,1.3,0.4,1.3,1.3
		c0,7,0,13.9,0,20.9c0,0.7-0.2,0.9-0.9,0.9c-7.1,0-14.1,0-21.2,0c-0.9,0-0.9-0.4-0.9-1.1C214.7,212.6,214.7,209.1,214.7,205.6z"/>
	<path class="st8" d="M226.2,265.1c-3.4,0-6.8,0-10.2,0c-1,0-1.4-0.2-1.4-1.3c0.1-6.8,0-13.6,0-20.4c0-1,0.3-1.4,1.4-1.4
		c6.8,0,13.6,0,20.4,0c0.9,0,1.3,0.3,1.3,1.2c0,7,0,14,0,21c0,0.9-0.5,0.8-1.1,0.8C233.2,265.1,229.7,265.1,226.2,265.1z"/>
	<path class="st8" d="M226.3,241.1c-3.5,0-7,0-10.4,0c-0.9,0-1.1-0.3-1.1-1.2c0-6.9,0-13.7,0-20.6c0-1,0.4-1.3,1.3-1.3
		c6.8,0,13.6,0,20.4,0c1,0,1.3,0.4,1.3,1.3c0,6.9,0,13.8,0,20.7c0,0.8-0.3,1-1.1,1C233.2,241.1,229.7,241.1,226.3,241.1z"/>
	<path class="st8" d="M237,47.2c-0.1,0-0.2,0-0.2,0c-6.9,0-13.9,0-20.8,0c-1,0-1.3-0.3-1.3-1.3c0-7,0-14,0-21.1c6.9,0,13.9,0,20.8,0
		c1.2,0,1.5,0.3,1.5,1.5C237,33.3,237,40.3,237,47.2z"/>
	<path class="st8" d="M237,71.2c-0.1,0-0.2,0-0.2,0c-6.9,0-13.9,0-20.8,0c-1,0-1.3-0.3-1.3-1.3c0-7,0-14,0-21.1c6.9,0,13.9,0,20.8,0
		c1.2,0,1.5,0.3,1.5,1.5C237,57.3,237,64.3,237,71.2z"/>
	<path class="st8" d="M214.7,11.9c0,3.4,0,6.7,0,10.1c0,1,0.3,1.3,1.3,1.3c7,0,14,0,21.1,0c0-0.6,0-1.1,0-1.7
		C229.6,18.3,222.1,15.2,214.7,11.9z"/>
	<path class="st8" d="M237,95.2c-0.1,0-0.2,0-0.2,0c-6.9,0-13.9,0-20.8,0c-1,0-1.3-0.3-1.3-1.3c0-7,0-14,0-21.1c6.9,0,13.9,0,20.8,0
		c1.2,0,1.5,0.3,1.5,1.5C237,81.3,237,88.3,237,95.2z"/>
	<path class="st10" d="M236.8,121.1c0.1-0.6,0.2-1.2,0.2-1.8c0-7,0-14.1,0-21.1c0-1.1-0.2-1.4-1.4-1.4c-7,0.1-14,0-21,0
		c0-0.9,0.7-0.7,1.2-0.7c7,0,13.9,0,20.9,0c0.7-0.1,1,0.2,1,0.9c0,7.8,0,15.5,0,23.3c0,0.3-0.1,0.5-0.2,0.8
		C237.3,121.1,237,121.1,236.8,121.1z"/>
	<path class="st10" d="M237,71.2c0-6.9,0-13.9,0-20.8c0-1.2-0.3-1.5-1.5-1.5c-6.9,0-13.9,0-20.8,0c0-0.9,0.7-0.7,1.2-0.7
		c7,0,13.9,0,20.9,0c0.7-0.1,1,0.2,1,0.9c0,7.1,0,14.1,0,21.2C237.8,70.8,237.7,71.3,237,71.2z"/>
	<path class="st10" d="M237,95.2c0-6.9,0-13.9,0-20.8c0-1.2-0.3-1.5-1.5-1.5c-6.9,0-13.9,0-20.8,0c0-0.9,0.7-0.7,1.2-0.7
		c7,0,13.9,0,20.9,0c0.7-0.1,1,0.2,1,0.9c0,7.1,0,14.1,0,21.2C237.8,94.8,237.7,95.3,237,95.2z"/>
	<path class="st10" d="M237,47.2c0-6.9,0-13.9,0-20.8c0-1.2-0.3-1.5-1.5-1.5c-6.9,0-13.9,0-20.8,0l0,0c0-0.2,0-0.5,0-0.7
		c7.4,0,14.9,0,22.3,0c0.2,0.2,0.5,0.5,0.7,0.7c0,7.1,0,14.1,0,21.2C237.7,46.6,238,47.3,237,47.2z"/>
	<path class="st15" d="M213,218.1c-7.4,0-14.9,0-22.3,0c0-0.3,0-0.6,0-1c7.5,0,15,0,22.6,0C213.2,217.5,213.1,217.8,213,218.1z"/>
	<path class="st15" d="M213,122.1c-7.4,0-14.9,0-22.3,0c0-0.3,0-0.6,0-1c7.5,0,15,0,22.6,0C213.2,121.5,213.1,121.8,213,122.1z"/>
	<path class="st15" d="M213,146.1c-7.4,0-14.9,0-22.3,0c0-0.3,0-0.6,0-1c7.5,0,15,0,22.6,0C213.2,145.5,213.1,145.8,213,146.1z"/>
	<path class="st15" d="M190.7,265.1c7.5,0,15,0,22.6,0c-0.1,0.3-0.2,0.6-0.2,1c-7.4,0-14.9,0-22.3,0
		C190.7,265.8,190.7,265.5,190.7,265.1z"/>
	<path class="st15" d="M213,170.1c-7.4,0-14.9,0-22.3,0c0-0.3,0-0.6,0-1c7.5,0,15,0,22.6,0C213.2,169.5,213.1,169.8,213,170.1z"/>
	<path class="st15" d="M213,194.1c-7.4,0-14.9,0-22.3,0c0-0.3,0-0.6,0-1c7.5,0,15,0,22.6,0C213.2,193.5,213.1,193.8,213,194.1z"/>
	<path class="st15" d="M190.7,241.1c7.5,0,15,0,22.6,0c-0.1,0.3-0.2,0.6-0.2,1c-7.4,0-14.9,0-22.3,0
		C190.7,241.8,190.7,241.5,190.7,241.1z"/>
	<path class="st7" d="M237.7,24.9c-0.2-0.2-0.5-0.5-0.7-0.7c0-0.3,0-0.6,0-1c0.2,0,0.5,0,0.7,0c0.3,0,0.6,0,1,0c0,0.3,0,0.6,0,1
		c0,0.2,0,0.5,0,0.7C238.4,24.9,238.1,24.9,237.7,24.9z"/>
	<path class="st7" d="M214.7,24.2c0,0.2,0,0.5,0,0.7c-0.3,0-0.6,0-1,0c-0.2-0.2-0.5-0.5-0.7-0.7c0-0.3,0-0.6,0-1c0.2,0,0.5,0,0.7,0
		C214.1,23.5,214.4,23.9,214.7,24.2z"/>
	<path class="st16" d="M136.2,119c0,2.2,0,2.2-2.1,2.2c-6.3,0-12.7,0-19,0c-2.2,0-1.9,0.3-1.9-1.9c0-7.2,0-14.5,0-21.7
		c0-1,0.2-1.4,1.3-1.4c6.8,0.1,13.7,0.1,20.5,0c1.1,0,1.3,0.4,1.3,1.4C136.2,104.7,136.2,111.8,136.2,119z"/>
	<path class="st16" d="M88.2,119c0,2.2,0,2.2-2.1,2.2c-6.3,0-12.7,0-19,0c-2.2,0-1.9,0.3-1.9-1.9c0-7.4,0-14.7,0-22.1
		c0-0.3,0-0.6,0-1c7.4,0,14.9,0,22.3,0c0.9,0,0.7,0.7,0.7,1.2c0,7,0,13.9,0,20.9C88.2,118.5,88.2,118.7,88.2,119z"/>
	<path class="st16" d="M111.7,121.1c-6.9,0-13.8,0-20.7,0c-2.2,0-1.9,0.3-1.9-1.9c0-7.2,0-14.5,0-21.7c0-1,0.2-1.4,1.3-1.4
		c6.8,0.1,13.7,0.1,20.5,0c1.1,0,1.3,0.4,1.3,1.4c0,7.1,0,14.3,0,21.4C112,119.7,112.7,120.6,111.7,121.1z"/>
	<path class="st10" d="M65.2,73.1c-0.1-0.7,0.2-1,0.9-1c7,0,14.1,0,21.1,0c0.8,0,1,0.2,1,1c0,7,0,14.1,0,21.1c0,0.7-0.3,1-1,0.9
		c-7.4,0-14.7,0-22.1,0C65.2,87.9,65.2,80.5,65.2,73.1z"/>
	<path class="st8" d="M89.2,83.6c0-3.4,0-6.9,0-10.3c0-0.8,0.2-1.1,1.1-1.1c7,0,13.9,0,20.9,0c0.9,0,1.1,0.3,1.1,1.2
		c0,6.9,0,13.8,0,20.7c0,0.9-0.2,1.2-1.1,1.2c-7,0-13.9,0-20.9,0c-0.9,0-1.1-0.3-1.1-1.1C89.2,90.6,89.2,87.1,89.2,83.6z"/>
	<path class="st8" d="M136.2,83.8c0,3.4,0,6.9,0,10.3c0,0.8-0.2,1.1-1.1,1.1c-7,0-13.9,0-20.9,0c-0.9,0-1.1-0.3-1.1-1.2
		c0-6.9,0-13.8,0-20.7c0-0.9,0.2-1.2,1.1-1.2c6.9,0,13.8,0,20.7,0c1,0,1.2,0.3,1.2,1.2C136.2,76.9,136.2,80.3,136.2,83.8z"/>
	<path class="st8" d="M136.2,48.9c0,7.4,0,14.9,0,22.3c-7.2,0-14.4,0-21.6,0c-1.1,0-1.5-0.2-1.5-1.4c0.1-6.8,0-13.6,0-20.4
		c0-1,0.3-1.3,1.3-1.3c6.9,0,13.7,0,20.6,0C135.6,48.2,136.3,47.9,136.2,48.9z"/>
	<path class="st8" d="M102.1,18.9c5.7-3.5-1.1,0.5-2.6,1.2c-1.7,0.8-3.4,1.5-5.2,2.2c-0.7,0.3-1.5,0.6-2.2,1c6.3,0,12.5,0,18.8,0
		c0.8,0,1.3,0,1.2-1.1c0-2.4,0-4.8,0-7.3C108.6,15.9,105.1,17.1,102.1,18.9z"/>
	<path class="st8" d="M122.2,12.3c-2.8,0.8-5.9,1.5-9,2.3c0,2.4,0,4.9,0,7.3c0,1.1,0.4,1.3,1.4,1.3c7.2,0,14.5,0,21.7,0
		c0-4.9,0-9.7,0-14.6C131.6,9.8,126.8,11,122.2,12.3z"/>
	<path class="st8" d="M52.8,43.5c-0.1,1.2-0.3,2.5-0.6,3.7c3.7,0,7.4,0,11.1,0c0.6,0,1-0.1,1-0.8c0-3.1,0-6.2,0-9.3
		C60.4,39.1,56.5,41.2,52.8,43.5z"/>
	<path class="st10" d="M86.1,26c-6,2.8-11.9,5.9-17.8,9c-1,0.5-2,1.1-3.1,1.6c0,3.1,0,6.2,0,9.3c0,1.2,0.4,1.4,1.5,1.4
		c7.2,0,14.4,0,21.6,0c0-7.4,0-14.8,0-22.2C87.5,25.3,86.8,25.6,86.1,26z"/>
	<path class="st8" d="M111.2,24.2c-7,0-14.1,0-21.1,0c0,0,0,0-0.1,0c-0.3,0.1-0.5,0.2-0.8,0.4c-0.1,0.2-0.1,0.3-0.1,0.6
		c0,6.9,0,13.9,0,20.8c0,1,0.3,1.3,1.3,1.3c6.9,0,13.9,0,20.8,0c0.7,0.1,1-0.2,1-0.9c0-7,0-14.1,0-21.1
		C112.2,24.4,112,24.2,111.2,24.2z"/>
	<path class="st8" d="M136.2,47.2c-7.2,0-14.5,0-21.7,0c-1,0-1.4-0.2-1.4-1.3c0.1-6.8,0-13.7,0-20.5c0-1,0.3-1.3,1.3-1.3
		c6.9,0,13.7,0,20.6,0c0.5,0,1.2-0.2,1.2,0.7C136.2,32.3,136.2,39.8,136.2,47.2z"/>
	<path class="st10" d="M76.6,71.2c-3.4,0-6.9,0-10.3,0c-0.8,0-1.1-0.2-1.1-1.1c0-7,0-13.9,0-20.9c0-0.9,0.3-1.1,1.2-1.1
		c6.9,0,13.8,0,20.7,0c0.9,0,1.2,0.2,1.2,1.1c0,6.9,0,13.8,0,20.7c0,1-0.3,1.2-1.2,1.2C83.5,71.2,80.1,71.2,76.6,71.2z"/>
	<path class="st8" d="M111.5,48.2c0.2,0.3,0.7,0.5,0.7,0.8c0,7.1,0,14.2,0,21.3c0,0.7-0.2,0.9-0.9,0.9c-7.1,0-14.1,0-21.2,0
		c-1,0-0.9-0.6-0.9-1.2c0-7.3,0-14.5,0-21.8C96.6,48.2,104.1,48.2,111.5,48.2z"/>
	<path class="st8" d="M63.5,72.2c0.2,0.2,0.5,0.5,0.7,0.7c0,7.4,0,14.9,0,22.3c-0.3,0-0.6,0-1,0c-7.4,0-14.7,0-22.1,0
		c0-7.4,0-14.7,0-22.1c0-0.3,0-0.6,0-1C48.6,72.2,56.1,72.2,63.5,72.2z"/>
	<path class="st8" d="M62.3,48.9c-3.5,0-7,0-10.5,0C50,55.5,46.4,61.7,41.2,66c0,1.7,0,3.4,0,5.2l0,0c7.4,0,14.7,0,22.1,0
		c0.1,0,0.2,0,0.2,0c0-7,0-14,0-21.1C63.5,49.2,63.3,48.9,62.3,48.9z"/>
	<path class="st12" d="M90.4,47.2c-1,0-1.3-0.3-1.3-1.3c0-6.9,0-13.9,0-20.8c-0.3-0.1-0.5-0.1-0.8-0.2c0,0-0.1,0-0.1,0.1
		c0,7.4,0,14.8,0,22.2c0.3,0.3,0.6,0.6,1,1c7.4,0,14.9,0,22.3,0c-0.1-0.3-0.2-0.6-0.2-1C104.3,47.2,97.4,47.2,90.4,47.2z"/>
	<path class="st10" d="M63.5,48.2l-11.5,0c-0.1,0.2-0.1,0.5-0.2,0.7c3.5,0,7,0,10.5,0c1,0,1.3,0.3,1.3,1.3c0,7,0,14,0,21.1
		c0.2-0.3,0.7-0.5,0.7-0.8c0-7.1,0-14.3,0-21.4C64.2,48.7,63.7,48.4,63.5,48.2z"/>
	<path class="st12" d="M64.2,95.2c0-7.4,0-14.9,0-22.3c0.3,0.1,0.6,0.2,1,0.2c0,7.4,0,14.7,0,22.1l0,0
		C64.9,95.2,64.5,95.2,64.2,95.2z"/>
	<path class="st12" d="M65.2,95.2c7.4,0,14.7,0,22.1,0c0.1,0.3,0.2,0.6,0.2,1c-7.4,0-14.9,0-22.3,0C65.2,95.9,65.2,95.5,65.2,95.2
		L65.2,95.2z"/>
	<path class="st12" d="M41.2,71.2c7.4,0,14.7,0,22.1,0c0.1,0.3,0.2,0.6,0.2,1c-7.4,0-14.9,0-22.3,0C41.2,71.9,41.2,71.5,41.2,71.2z"
		/>
	<path class="st12" d="M52.2,47.2c-0.1,0.3-0.1,0.6-0.2,1l11.5,0c-0.1-0.3-0.2-0.6-0.2-1C59.6,47.2,55.9,47.2,52.2,47.2z"/>
	<path class="st12" d="M136.2,47.2c0-7.4,0-14.9,0-22.3c0.3,0.1,0.6,0.2,1,0.2c0,7.4,0,14.7,0,22.1
		C136.9,47.2,136.5,47.2,136.2,47.2z"/>
	<path class="st12" d="M136.2,8.6c0,4.9,0,9.7,0,14.6c0.3,0,0.6,0,1,0c0-5,0-9.9,0-14.9C136.9,8.4,136.5,8.5,136.2,8.6z"/>
	<path class="st10" d="M136.2,253.7c0,3.4,0,6.9,0,10.3c0,0.8-0.2,1.1-1.1,1.1c-7,0-13.9,0-20.9,0c-0.9,0-1.1-0.3-1.1-1.2
		c0-6.9,0-13.8,0-20.7c0-0.9,0.2-1.2,1.1-1.2c6.9,0,13.8,0,20.7,0c1,0,1.2,0.3,1.2,1.2C136.2,246.8,136.2,250.3,136.2,253.7z"/>
	<path class="st10" d="M111.7,265.1c-7.1,0-14.1,0-21.2,0c-1.1,0-1.4-0.3-1.4-1.4c0-6.8,0-13.6,0-20.4c0-0.4,0.3-0.9,0.5-1.3
		c7.4,0,14.7,0,22.1,0c0.2,0.3,0.5,0.6,0.5,0.9c0,7.1,0,14.1,0,21.2C112.2,264.5,111.9,264.8,111.7,265.1z"/>
	<path class="st10" d="M124.7,241.1c-3.4,0-6.9,0-10.3,0c-0.9,0-1.2-0.2-1.2-1.1c0-7,0-13.9,0-20.9c0-0.9,0.3-1.1,1.1-1.1
		c7,0,13.9,0,20.9,0c0.8,0,1.1,0.2,1.1,1.1c0,7,0,14,0,21c0,0.8-0.3,1-1,1C131.7,241.1,128.2,241.1,124.7,241.1z"/>
	<path class="st10" d="M89.2,241.1c0-7.3,0-14.5,0-21.8c0-0.4,0.3-0.9,0.5-1.3c7.4,0,14.7,0,22.1,0c0.2,0.3,0.5,0.6,0.5,0.9
		c0,7.1,0,14.1,0,21.2c0,0.3-0.3,0.6-0.5,0.9C104.2,241.1,96.7,241.1,89.2,241.1z"/>
	<path class="st10" d="M136.2,205.7c0,3.4,0,6.9,0,10.3c0,0.9-0.2,1.2-1.1,1.2c-7,0-13.9,0-20.9,0c-0.9,0-1.1-0.3-1.1-1.1
		c0-7,0-13.9,0-20.9c0-0.8,0.2-1.1,1.1-1.1c7,0,14,0,21,0c0.8,0,1,0.3,1,1C136.2,198.6,136.2,202.2,136.2,205.7z"/>
	<path class="st10" d="M89.2,217.1c0-7.3,0-14.5,0-21.8c0-0.4,0.3-0.9,0.5-1.3c7.4,0,14.7,0,22.1,0c0.2,0.3,0.5,0.6,0.5,0.9
		c0,7.1,0,14.1,0,21.2c0,0.3-0.3,0.6-0.5,0.9C104.2,217.1,96.7,217.1,89.2,217.1z"/>
	<path class="st10" d="M135.5,170.1c0.2,0.3,0.7,0.5,0.7,0.8c0,7.1,0,14.2,0,21.4c0,0.7-0.3,0.9-0.9,0.9c-7.1,0-14.2,0-21.2,0
		c-0.7,0-0.9-0.3-0.9-0.9c0-7.1,0-14.2,0-21.4c0-0.3,0.1-0.5,0.2-0.8C120.8,170.1,128.1,170.1,135.5,170.1z"/>
	<path class="st10" d="M89.2,193.1c0-7.3,0-14.5,0-21.8c0-0.4,0.3-0.9,0.5-1.3c7.4,0,14.7,0,22.1,0c0.2,0.3,0.5,0.6,0.5,0.9
		c0,7.1,0,14.1,0,21.2c0,0.3-0.3,0.6-0.5,0.9C104.2,193.1,96.7,193.1,89.2,193.1z"/>
	<path class="st10" d="M113.2,169.1c0-7.2,0-14.5,0-21.7c0-1,0.2-1.4,1.3-1.4c6.8,0.1,13.7,0,20.5,0c1,0,1.3,0.3,1.3,1.3
		c0,6.9,0,13.7,0,20.6c0,0.4-0.3,0.8-0.5,1.2C128.2,169.1,120.7,169.1,113.2,169.1z"/>
	<path class="st10" d="M89.2,169.1c0-7.3,0-14.5,0-21.8c0-0.4,0.3-0.9,0.5-1.3c7.4,0,14.7,0,22.1,0c0.2,0.3,0.5,0.6,0.5,0.9
		c0,7.1,0,14.1,0,21.2c0,0.3-0.3,0.6-0.5,0.9C104.2,169.1,96.7,169.1,89.2,169.1z"/>
	<path class="st10" d="M124.6,145.1c-3.4,0-6.9,0-10.3,0c-0.9,0-1.2-0.2-1.2-1.1c0-7,0-13.9,0-20.9c0-0.9,0.3-1.1,1.1-1.1
		c7,0,13.9,0,20.9,0c0.8,0,1.1,0.2,1.1,1.1c0,7,0,13.9,0,20.9c0,0.9-0.3,1.2-1.2,1.1C131.6,145.1,128.1,145.1,124.6,145.1z"/>
	<path class="st10" d="M89.2,145.1c0-7.3,0-14.5,0-21.8c0-1,0.3-1.3,1.3-1.3c7.1,0,14.2,0,21.3,0c0.2,0.3,0.5,0.6,0.5,0.9
		c0,7.1,0,14.1,0,21.2c0,0.3-0.3,0.6-0.5,0.9C104.2,145.1,96.7,145.1,89.2,145.1z"/>
	<path class="st13" d="M89.2,217.1c7.5,0,15,0,22.6,0c0,0.3,0,0.6,0,1c-7.4,0-14.7,0-22.1,0C89.5,217.8,89.3,217.5,89.2,217.1z"/>
	<path class="st13" d="M113.2,169.1c7.5,0,15,0,22.6,0c-0.1,0.3-0.2,0.6-0.2,1c-7.4,0-14.7,0-22.1,0
		C113.3,169.8,113.3,169.5,113.2,169.1z"/>
	<path class="st13" d="M89.2,241.1c7.5,0,15,0,22.6,0c0,0.3,0,0.6,0,1c-7.4,0-14.7,0-22.1,0C89.5,241.8,89.3,241.5,89.2,241.1z"/>
	<path class="st13" d="M89.2,169.1c7.5,0,15,0,22.6,0c0,0.3,0,0.6,0,1c-7.4,0-14.7,0-22.1,0C89.5,169.8,89.3,169.5,89.2,169.1z"/>
	<path class="st13" d="M89.2,145.1c7.5,0,15,0,22.6,0c0,0.3,0,0.6,0,1c-7.4,0-14.7,0-22.1,0C89.5,145.8,89.3,145.5,89.2,145.1z"/>
	<path class="st13" d="M89.2,193.1c7.5,0,15,0,22.6,0c0,0.3,0,0.6,0,1c-7.4,0-14.7,0-22.1,0C89.5,193.8,89.3,193.5,89.2,193.1z"/>
	<path class="st16" d="M11.1,103.7c-0.5,1.3-0.9,2.6-1.4,3.9c-0.3,0.8-0.7,1.6-1,2.4c0.4,3.2,0.2,6.4-0.9,9.4
		c-0.2,0.6-0.4,1.1-0.6,1.7h9.1v-1.7c0-7.5,0-15,0-22.6c-0.2-0.2-0.3-0.3-0.5-0.5C14.6,99,13,101.4,11.1,103.7z"/>
	<path class="st10" d="M4.2,177.4c0,0.8-0.1,1.6-0.2,2.4c2.5,1.5,4.7,3.3,6.6,5.3c2.3,2.3,4,4.9,5.4,7.7c0.2-0.2,0.3-0.5,0.2-1
		c-0.1-6.8-0.1-13.7,0-20.5c0-1.1-0.4-1.3-1.4-1.3c-3.6,0-7.3,0-10.9,0C4.2,172.5,4.3,175,4.2,177.4z"/>
	<path class="st10" d="M16.3,147.4c0-1.1-0.4-1.3-1.4-1.3c-4,0-8,0-12,0c-0.1,0.7-0.2,1.5-0.3,2.2c0,0.1,0,0.2,0,0.3
		c0,0.5-0.1,0.9-0.1,1.4c0,1.2,0,2.3,0.1,3.5c0.2,2.9,0.5,5.8,0.7,8.6c0.2,2.4,0.5,4.7,0.7,7.1c3.7,0,7.3,0,11,0
		c1,0,1.4-0.2,1.4-1.3C16.2,161,16.2,154.2,16.3,147.4z"/>
	<path class="st10" d="M16.3,123.4c0-1.1-0.4-1.3-1.4-1.3c-2.7,0-5.4,0-8.1,0c-0.7,1.9-1.4,3.8-2,5.8c-0.5,1.4-0.9,2.9-1.3,4.3
		c0,0.1-0.1,0.3-0.1,0.5c0,0.8-0.1,2-0.1,2.3c0,1.2,0.2,2.3,0.2,3.5c0,2.2-0.2,4.4-0.5,6.7c4,0,7.9,0,11.9,0c1,0,1.4-0.2,1.4-1.3
		C16.2,137,16.2,130.2,16.3,123.4z"/>
	<path class="st10" d="M261.7,96.9c0,7.7,0,15.3,0,23c0,1-0.3,1.3-1.3,1.3c-7.3,0-14.5,0-21.8,0c0-7.9,0-15.9,0-23.8
		c0-0.5-0.2-1.2,0.7-1.2c7.1,0,14.2,0,21.4,0c0.1,0,0.2,0,0.2,0C261.3,96.4,261.5,96.7,261.7,96.9z"/>
	<path class="st8" d="M285.7,96.9c0,7.6,0,15.3,0,22.9c0,1-0.2,1.4-1.3,1.4c-6.8-0.1-13.7-0.1-20.5,0c-1.1,0-1.3-0.4-1.3-1.4
		c0-7.5,0-15.1,0-22.6c0-0.3,0-0.6,0-1c7.4,0,14.9,0,22.3,0C285.3,96.4,285.5,96.7,285.7,96.9z"/>
	<path class="st10" d="M261,95.2c-7,0-14,0-21,0c-1,0-1.4-0.2-1.4-1.3c0.1-6.8,0-13.7,0-20.5c0-1,0.3-1.3,1.3-1.3
		c6.8,0,13.7,0,20.5,0c1.1,0,1.3,0.4,1.3,1.4c0,7.2,0,14.5,0,21.7C261.5,95.2,261.3,95.2,261,95.2z"/>
	<path class="st8" d="M285,95.2c-7,0-14,0-21,0c-1,0-1.4-0.2-1.4-1.3c0.1-6.8,0.1-13.7,0-20.5c0-1.1,0.4-1.3,1.4-1.3c7,0,14,0,21,0
		c0.2,0.3,0.7,0.5,0.7,0.8c0,7.1,0,14.3,0,21.4C285.7,94.7,285.3,94.9,285,95.2z"/>
	<path class="st10" d="M250.2,71.2c-3.4,0-6.9,0-10.3,0c-0.9,0-1.2-0.2-1.2-1.1c0-7,0-13.9,0-20.9c0-0.9,0.3-1.1,1.1-1.1
		c7,0,13.9,0,20.9,0c0.8,0,1.1,0.2,1.1,1.1c0,7,0,14,0,21c0,0.8-0.3,1-1,1C257.2,71.2,253.7,71.2,250.2,71.2z"/>
	<path class="st8" d="M284.8,67.6c-2.7-5.5-5.9-10.7-9.2-15.9c-0.8-1.2-1.6-2.4-2.5-3.5c-3,0-6.1,0-9.1,0c-1,0-1.3,0.3-1.3,1.3
		c0,6.8,0,13.7,0,20.5c0,1.1,0.4,1.3,1.4,1.3c7,0,14,0,21,0c0.2,0,0.5,0,0.7,0c0-0.6,0-1.2,0-1.8C285.4,68.8,285.1,68.2,284.8,67.6z
		"/>
	<path class="st8" d="M263.7,39.9c-0.3-0.1-0.6-0.3-1-0.4c0,2.2,0,4.4,0,6.6c0,0.9,0.3,1.1,1.2,1.1c2.8,0,5.6,0,8.4,0
		C269.7,44.3,266.8,41.9,263.7,39.9z"/>
	<path class="st10" d="M246.5,31.4c-2.4-1.4-2.7-4.3-1.8-6.5c-0.5-0.2-1.1-0.5-1.6-0.7c-1.5,0-2.9,0-4.4,0c0,0.2,0,0.5,0,0.7
		c0,7,0,14,0,21c0,1,0.2,1.4,1.3,1.4c6.8-0.1,13.7,0,20.5,0c1,0,1.3-0.3,1.3-1.3c0-2.3,0-4.6,0-6.9
		C256.5,36.9,251.4,34.3,246.5,31.4z"/>
	<path class="st7" d="M285,71.2c0.2,0,0.5,0,0.7,0c0.3,0,0.6,0,1,0c0,0,0,0,0,0c0,0.3,0,0.6,0,1c0,7.3,0,14.6,0,21.9
		c0,0.7,0,1.3,1,1.2c-0.2,0.3-0.3,0.6-0.5,1c-0.2,0.3-0.3,0.6-0.5,1c-0.3-0.1-0.6-0.2-1-0.2c-0.2-0.2-0.5-0.5-0.7-0.7
		c0-0.3,0-0.6,0-1c0.2-0.3,0.7-0.5,0.7-0.8c0-7.1,0-14.3,0-21.4c0-0.3-0.4-0.5-0.7-0.8C285,71.9,285,71.5,285,71.2z"/>
	<path class="st12" d="M260.8,96.2c-7.1,0-14.2,0-21.4,0c0.3-0.2,0.6-0.5,0.9-0.5c6.4,0,12.9,0,19.3,0C260,95.7,260.4,96,260.8,96.2
		z"/>
	<path class="st7" d="M261,95.2c0.2,0,0.5,0,0.7,0c0.3,0.3,0.6,0.6,1,1c0,0.3,0,0.6,0,1c-0.3-0.1-0.6-0.2-1-0.2
		c-0.2-0.2-0.5-0.5-0.7-0.7C261,95.9,261,95.5,261,95.2z"/>
	<path class="st6" d="M238.7,122.1c0,0.1,0,0.2,0,0.2c-0.2-0.2-0.3-0.3-0.5-0.5C238.4,121.9,238.5,122,238.7,122.1z"/>
	<path class="st8" d="M311,184.9c0.2-0.7,0.4-1.8,0.6-2.8c0-0.3,0-0.6-0.1-0.9c-0.1-1.5-0.4-3-0.4-4.6c0-2.2,0.2-4.4,0.6-6.6
		c-0.3,0-0.7,0-1,0c0,0.4,0,0.8,0,1.2v14.6C310.8,185.6,310.9,185.3,311,184.9z"/>
	<path class="st8" d="M316.3,146.8c-0.1-0.2-0.3-0.5-0.4-0.7c-1.7,0-3.5,0-5.2,0c0,0.4,0,0.8,0,1.2v20.9c0,0.3,0,0.6,0,1
		c0.4,0,0.8,0,1.2,0c0.1-0.3,0.1-0.6,0.2-0.9C309.3,160.6,311.6,152.8,316.3,146.8z"/>
	<path class="st8" d="M312.9,136.8c-0.5-0.7-1-1.5-1.5-2.3c-0.3-0.4-0.5-0.9-0.7-1.3v11c0,0.3,0,0.6,0,1c1.6,0,3.1,0,4.7,0
		C314.1,142.5,313.3,139.7,312.9,136.8z"/>
	<path class="st12" d="M315.4,145.1c-1.6,0-3.1,0-4.7,0c0,0.3,0,0.6,0,1c1.7,0,3.5,0,5.2,0C315.7,145.8,315.6,145.5,315.4,145.1z"/>
	<path class="st8" d="M296.3,92.3c-2.4-5.3-3.9-9.4-4.7-14.4c-1.6-1.8-3-3.7-4.2-5.7c-0.2,0-0.4,0-0.6,0c0,7.3,0,14.6,0,21.9
		c0,0.7,0,1.3,1,1.2h10C297.2,94.2,296.8,93.2,296.3,92.3z"/>
	<path class="st8" d="M307.3,115.2c-0.2-0.4-0.5-0.8-0.7-1.2c-3.2-5.7-5.9-11.8-8.6-17.8h-10.9l-0.5,1c0,8,0,16,0,24
		c6.9,0,13.8,0,20.7,0C307.2,119.2,307.2,117.2,307.3,115.2z"/>
	<path class="st8" d="M309.3,192.4c0.1-1.1,0.3-2,0.5-2.9v-18.4c-0.2-0.3-0.3-0.6-0.5-1c-7.5,0-15,0-22.6,0c0,7.7,0,15.4,0,23
		c7.5,0,15,0,22.5,0C309.2,192.9,309.2,192.6,309.3,192.4z"/>
	<path class="st8" d="M286.7,169.1c0-7.7,0-15.4,0-23c7.5,0,15,0,22.6,0c0.2,0.3,0.3,0.6,0.5,1c0,7.2,0,14.4,0,21.6
		c-0.1,0.2-0.2,0.3-0.2,0.5C301.9,169.1,294.3,169.1,286.7,169.1z"/>
	<path class="st8" d="M307.5,122.1c-6.9,0-13.8,0-20.7,0c0,7.7,0,15.4,0,23c7.6,0,15.2,0,22.8,0l0.2-0.5c0-4.5,0-9,0-13.5
		C308.5,128.2,307.8,125.2,307.5,122.1z"/>
	<path class="st8" d="M309.7,203.5v-0.4c-0.7-2.9-0.9-5.9-0.7-9c-7.5,0-14.9,0-22.4,0c0,7.7,0,15.4,0,23c3.5,0,7.1,0,10.6,0
		C300.8,211.9,304.9,207,309.7,203.5z"/>
	<path class="st8" d="M290.3,229.3c1.9-3.7,4-7.5,6.4-11.2c-3.3,0-6.6,0-10,0c0,6.1,0,12.3,0,18.4
		C287.9,234.1,289.1,231.7,290.3,229.3z"/>
	<path class="st8" d="M277.9,246.3c0.9-0.6,1.7-1.2,2.6-1.9c0.5-0.5,1.4-1.4,2.3-2.3c-6.3,0-12.6,0-18.9,0c-0.9,0-1.2,0.4-1.2,1.2
		c0,5.6,0,11.2,0,16.8C267.1,254.8,271.9,250.7,277.9,246.3z"/>
	<path class="st8" d="M274.2,169.1c-3.5,0-7,0-10.4,0c-0.8,0-1.1-0.3-1.1-1.1c0-6.9,0-13.8,0-20.8c0-0.9,0.3-1.2,1.2-1.2
		c6.9,0,13.8,0,20.8,0c0.8,0,1.1,0.3,1.1,1.1c0,7,0,14,0,21c0,0.9-0.4,0.9-1.1,0.9C281.2,169.1,277.7,169.1,274.2,169.1z"/>
	<path class="st8" d="M274.2,193.1c-3.4,0-6.9,0-10.3,0c-0.9,0-1.2-0.2-1.2-1.1c0-6.9,0-13.8,0-20.6c0-1,0.3-1.3,1.3-1.3
		c6.8,0,13.6,0,20.4,0c1.1,0,1.4,0.4,1.4,1.4c0,6.8,0,13.7,0,20.5c0,0.9-0.2,1.2-1.1,1.2C281.1,193.1,277.7,193.1,274.2,193.1z"/>
	<path class="st8" d="M262.7,205.6c0-3.4,0-6.8,0-10.2c0-1,0.3-1.3,1.3-1.3c6.8,0,13.7,0,20.5,0c0.9,0,1.3,0.3,1.3,1.2
		c0,6.9,0,13.8,0,20.8c0,0.9-0.3,1.1-1.1,1.1c-7,0-13.9,0-20.9,0c-0.8,0-1.1-0.3-1.1-1.1C262.7,212.6,262.7,209.1,262.7,205.6z"/>
	<path class="st8" d="M285.7,133.6c0,3.5,0,7,0,10.4c0,0.8-0.2,1.1-1.1,1.1c-7,0-13.9,0-20.9,0c-0.8,0-1.1-0.2-1.1-1.1
		c0-6.9,0-13.8,0-20.8c0-0.9,0.3-1.2,1.3-1.2c6.8,0,13.7,0,20.5,0c1,0,1.3,0.4,1.3,1.3C285.7,126.8,285.7,130.2,285.7,133.6z"/>
	<path class="st8" d="M263.8,241.2c3.5,0,7,0,10.4,0c3.2,0,6.3,0,9.5,0c0.3-0.3,0.6-0.5,0.9-0.8c0-0.1,0.1-0.1,0.1-0.2
		c0.3-0.6,0.7-1.2,1-1.8c0-6.4,0-12.8,0-19.1c0-0.9-0.3-1.2-1.2-1.2c-6.9,0-13.8,0-20.6,0c-1,0-1.2,0.4-1.2,1.3c0,6.9,0,13.8,0,20.6
		C262.7,240.9,262.9,241.2,263.8,241.2z"/>
	<path class="st12" d="M286.7,145.1c7.6,0,15.2,0,22.8,0c-0.1,0.3-0.2,0.6-0.2,1c-7.5,0-15,0-22.6,0
		C286.7,145.8,286.7,145.5,286.7,145.1z"/>
	<path class="st12" d="M309.1,194.1c0-0.3,0.1-0.6,0.1-1c-7.5,0-15,0-22.5,0c0,0.3,0,0.6,0,1C294.2,194.1,301.6,194.1,309.1,194.1z"
		/>
	<path class="st12" d="M286.7,169.1c7.6,0,15.2,0,22.8,0c-0.1,0.3-0.2,0.6-0.2,1c-7.5,0-15,0-22.6,0
		C286.7,169.8,286.7,169.5,286.7,169.1z"/>
	<path class="st12" d="M307.4,121.1c-6.9,0-13.8,0-20.7,0c0,0.3,0,0.6,0,1c6.9,0,13.8,0,20.7,0C307.4,121.8,307.4,121.5,307.4,121.1
		z"/>
	<path class="st12" d="M296.7,218.1c0.2-0.3,0.4-0.6,0.6-1c-3.5,0-7.1,0-10.6,0c0,0.3,0,0.6,0,1C290,218.1,293.4,218.1,296.7,218.1z
		"/>
	<path class="st16" d="M41.2,121.1c0-0.6,0-1.1,0-1.7c0-7.4,0-14.9,0-22.3c0-0.3,0-0.6,0-1c7.4,0,14.9,0,22.3,0
		c0.2,0.2,0.5,0.5,0.7,0.7c0,7.4,0,14.9,0,22.3c0,0.2,0,0.3,0,0.5c0.2,1.1-0.3,1.5-1.4,1.5C55.6,121.1,48.4,121.1,41.2,121.1z"/>
	<path class="st10" d="M41.2,145.1c0-7.7,0-15.4,0-23c7.2,0,14.5,0,21.7,0c1,0,1.4,0.2,1.4,1.3c-0.1,6.8-0.1,13.7,0,20.5
		c0,1.1-0.4,1.3-1.4,1.3C55.6,145.1,48.4,145.1,41.2,145.1z"/>
	<path class="st10" d="M76.7,242.1c3.5,0,7,0,10.4,0c0.8,0,1.1,0.2,1.1,1.1c0,7,0,14,0,21c0,0.8-0.3,1-1,1c-7,0-14,0-21,0
		c-0.9,0-1.1-0.3-1-1.1c0-7,0-13.9,0-20.9c0-0.8,0.3-1.1,1.1-1.1C69.7,242.1,73.2,242.1,76.7,242.1z"/>
	<path class="st10" d="M42.1,260c2.2,1.6,4.4,3.3,6.4,5.2c4.8,0,9.6,0,14.4,0c1,0,1.4-0.2,1.4-1.3c-0.1-6.8-0.1-13.7,0-20.5
		c0-1.1-0.4-1.3-1.4-1.3c-7.2,0-14.5,0-21.7,0c0,5.7,0,11.5,0,17.2C41.5,259.5,41.8,259.8,42.1,260z"/>
	<path class="st10" d="M88.2,229.6c0,3.4,0,6.9,0,10.3c0,0.9-0.2,1.3-1.2,1.2c-6.9,0-13.8,0-20.7,0c-0.9,0-1.2-0.3-1.2-1.2
		c0-6.9,0-13.8,0-20.7c0-1,0.4-1.2,1.2-1.2c6.9,0,13.7,0,20.6,0c1,0,1.2,0.3,1.2,1.2C88.2,222.7,88.2,226.2,88.2,229.6z"/>
	<path class="st10" d="M41.2,241.1c0-7.7,0-15.4,0-23c7.2,0,14.5,0,21.7,0c1,0,1.4,0.2,1.4,1.3c-0.1,6.8-0.1,13.7,0,20.5
		c0,1.1-0.4,1.3-1.4,1.3C55.6,241.1,48.4,241.1,41.2,241.1z"/>
	<path class="st10" d="M76.6,217.1c-3.4,0-6.9,0-10.3,0c-0.8,0-1.1-0.2-1.1-1.1c0-7,0-13.9,0-20.9c0-0.9,0.3-1.1,1.2-1.1
		c6.9,0,13.8,0,20.7,0c0.9,0,1.2,0.2,1.2,1.1c0,6.9,0,13.8,0,20.7c0,1-0.3,1.2-1.2,1.2C83.5,217.1,80.1,217.1,76.6,217.1z"/>
	<path class="st10" d="M41.2,217.1c0-7.7,0-15.4,0-23c7.2,0,14.5,0,21.7,0c1,0,1.4,0.2,1.4,1.3c-0.1,6.8-0.1,13.7,0,20.5
		c0,1.1-0.4,1.3-1.4,1.3C55.6,217.1,48.4,217.1,41.2,217.1z"/>
	<path class="st10" d="M65.2,181.6c0-3.5,0-7,0-10.4c0-0.8,0.2-1.1,1.1-1.1c7,0,14,0,21,0c0.8,0,1,0.3,1,1c0,7,0,14,0,21
		c0,0.9-0.3,1.1-1.1,1c-7,0-13.9,0-20.9,0c-0.9,0-1.1-0.3-1.1-1.1C65.2,188.6,65.2,185.1,65.2,181.6z"/>
	<path class="st10" d="M41.2,193.1c0-7.7,0-15.4,0-23c7.2,0,14.5,0,21.7,0c1,0,1.4,0.2,1.4,1.3c-0.1,6.8-0.1,13.7,0,20.5
		c0,1.1-0.4,1.3-1.4,1.3C55.6,193.1,48.4,193.1,41.2,193.1z"/>
	<path class="st10" d="M87.3,146.1c0.7-0.1,1,0.2,1,0.9c0,7,0,14.1,0,21.1c0,0.8-0.3,1-1,1c-7,0-14,0-21,0c-0.8,0-1-0.2-1-1
		c0-7,0-14.1,0-21.1c0-0.3,0.3-0.6,0.5-0.9C72.9,146.1,80.1,146.1,87.3,146.1z"/>
	<path class="st10" d="M41.2,169.1c0-7.7,0-15.4,0-23c7.2,0,14.5,0,21.7,0c1,0,1.4,0.2,1.4,1.3c-0.1,6.8-0.1,13.7,0,20.5
		c0,1.1-0.4,1.3-1.4,1.3C55.6,169.1,48.4,169.1,41.2,169.1z"/>
	<path class="st10" d="M65.2,145.1c0-7.2,0-14.5,0-21.7c0-1,0.2-1.4,1.3-1.4c6.8,0.1,13.7,0,20.5,0c1,0,1.3,0.3,1.3,1.3
		c0,6.9,0,13.7,0,20.6c0,0.4-0.3,0.8-0.5,1.2C80.2,145.1,72.7,145.1,65.2,145.1z"/>
	<path class="st12" d="M64.2,119.2c0-7.4,0-14.9,0-22.3c0.3,0.1,0.6,0.2,1,0.2c0,7.4,0,14.7,0,22.1
		C64.9,119.2,64.5,119.2,64.2,119.2z"/>
	<path class="st13" d="M65.2,145.1c7.5,0,15,0,22.6,0c-0.2,0.3-0.3,0.6-0.5,1c-7.2,0-14.4,0-21.6,0
		C65.5,145.8,65.3,145.5,65.2,145.1z"/>
	<path class="st16" d="M40.2,119.5c-0.1,0.6-0.2,1.1-0.2,1.7c-7.5,0-15,0-22.7,0c0-0.6-0.1-1.1-0.1-1.7c0-7.4,0-14.9,0-22.3
		c0-0.3,0-0.6,0-1c7.4,0,14.9,0,22.3,0c0.2,0.2,0.5,0.5,0.7,0.7C40.2,104.4,40.2,111.9,40.2,119.5z"/>
	<path class="st10" d="M39.7,122.1c0.2,0.3,0.5,0.6,0.5,0.9c0,7.1,0,14.2,0,21.2c0,0.3-0.1,0.6-0.2,0.9c-7.1,0-14.3,0-21.4,0
		c-1,0-1.4-0.2-1.4-1.3c0.1-6.8,0.1-13.7,0-20.5c0-1.1,0.4-1.3,1.4-1.3C25.6,122.1,32.7,122.1,39.7,122.1z"/>
	<path class="st10" d="M32.6,245.1c0.8,1.7,1.6,3.5,2.4,5.3c2.8,6.6,3.4,8.1,1.9,4.5c-0.2-0.5-0.4-1-0.6-1.5
		c0.5,0.7,0.9,1.9,1.3,2.7c0.2,0.2,0.7,1,1.1,1.6c0.5,0.3,1,0.7,1.5,1c0-5.2,0-10.4,0-15.6c0-0.3-0.3-0.6-0.5-0.9
		c-2.9,0-5.7,0-8.6,0C31.7,243.1,32.2,244.1,32.6,245.1z"/>
	<path class="st10" d="M23.2,221c0.6,2.9,1.3,5.8,2.1,8.6c0.1,0.4,0.7,1.9,1,2.8c1.6,2.9,3,5.8,4.4,8.8c3.1,0,6.2,0,9.3,0
		c0.1-0.3,0.2-0.6,0.2-0.9c0-7.1,0-14.2,0-21.2c0-0.3-0.3-0.6-0.5-0.9c-5.7,0-11.4,0-17.2,0C22.8,219.1,23,220,23.2,221z"/>
	<path class="st10" d="M22.4,217.1c5.9,0,11.7,0,17.6,0c0.1-0.3,0.2-0.6,0.2-0.9c0-7.1,0-14.2,0-21.2c0-0.3-0.3-0.6-0.5-0.9
		c-7.1,0-14.1,0-21.2,0c-1,0-1.4,0.2-1.4,1.3c0,0,0,0,0,0C19.9,202.2,21,209.9,22.4,217.1z"/>
	<path class="st10" d="M39.7,170.1c0.2,0.3,0.5,0.6,0.5,0.9c0,7.1,0,14.2,0,21.2c0,0.3-0.1,0.6-0.2,0.9c-7.1,0-14.3,0-21.4,0
		c-1,0-1.4-0.2-1.4-1.3c0.1-6.8,0.1-13.7,0-20.5c0-1.1,0.4-1.3,1.4-1.3C25.6,170.1,32.7,170.1,39.7,170.1z"/>
	<path class="st10" d="M39.7,146.1c0.2,0.3,0.5,0.6,0.5,0.9c0,7.1,0,14.2,0,21.2c0,0.3-0.1,0.6-0.2,0.9c-7.1,0-14.3,0-21.4,0
		c-1,0-1.4-0.2-1.4-1.3c0.1-6.8,0.1-13.7,0-20.5c0-1.1,0.4-1.3,1.4-1.3C25.6,146.1,32.7,146.1,39.7,146.1z"/>
	<path class="st12" d="M17.2,97.1c0,7.4,0,14.9,0,22.3c-0.3,0-0.6,0-1,0c0-7.5,0-15,0-22.6C16.5,97,16.9,97.1,17.2,97.1z"/>
	<path class="st12" d="M40.2,119.5c0-7.5,0-15,0-22.6c0.3,0.1,0.6,0.2,1,0.2c0,7.4,0,14.9,0,22.3C40.9,119.5,40.5,119.5,40.2,119.5z
		"/>
	<path class="st7" d="M65.2,97.1c-0.3-0.1-0.6-0.2-1-0.2c-0.2-0.2-0.5-0.5-0.7-0.7c-0.1-0.3-0.2-0.6-0.2-1c0.3,0,0.6,0,1,0
		c0.3,0,0.6,0,1,0c0,0.3,0,0.6,0,1C65.2,96.5,65.2,96.8,65.2,97.1z"/>
	<path class="st12" d="M63.3,95.2c0.1,0.3,0.2,0.6,0.2,1c-7.4,0-14.9,0-22.3,0c0-0.3,0-0.6,0-1l0,0C48.6,95.2,55.9,95.2,63.3,95.2z"
		/>
	<path class="st12" d="M41.2,73.1c0,7.4,0,14.7,0,22.1c0,0,0,0,0,0c-0.3,0-0.6,0-1,0c0-7.4,0-14.9,0-22.3
		C40.5,73,40.9,73.1,41.2,73.1z"/>
	<path class="st7" d="M41.2,73.1c-0.3-0.1-0.6-0.2-1-0.2c-0.2-0.2-0.5-0.5-0.7-0.7c-0.1-0.3-0.2-0.6-0.2-1c0.3,0,0.6,0,1,0
		c0.3,0,0.6,0,1,0c0,0,0,0,0,0c0,0.3,0,0.6,0,1C41.2,72.5,41.2,72.8,41.2,73.1z"/>
	<path class="st12" d="M40.2,66.8c0,1.5,0,2.9,0,4.4h1c0-1.7,0-3.4,0-5.2C40.9,66.3,40.6,66.6,40.2,66.8z"/>
	<path class="st12" d="M297.6,95.2h-10c-0.2,0.3-0.3,0.6-0.5,1h10.9C297.9,95.9,297.8,95.5,297.6,95.2z"/>
	<path class="st12" d="M310.7,185.9v-14.6c-0.3-0.1-0.6-0.2-1-0.2v18.4C310,188.2,310.3,187.1,310.7,185.9z"/>
	<path class="st7" d="M310.7,171.3c-0.3-0.1-0.6-0.2-1-0.2c-0.2-0.3-0.3-0.6-0.5-1c0.1-0.3,0.2-0.6,0.2-1c0.1-0.2,0.2-0.3,0.2-0.5
		c0.3-0.2,0.6-0.3,1-0.5c0,0.3,0,0.6,0,1c0,0.3,0,0.6,0,1C310.7,170.5,310.7,170.9,310.7,171.3z"/>
	<path class="st12" d="M310.7,168.2c-0.3,0.2-0.6,0.3-1,0.5c0-7.2,0-14.4,0-21.6c0.3,0.1,0.6,0.2,1,0.2
		C310.7,154.3,310.7,161.2,310.7,168.2z"/>
	<path class="st7" d="M310.7,147.3c-0.3-0.1-0.6-0.2-1-0.2c-0.2-0.3-0.3-0.6-0.5-1c0.1-0.3,0.2-0.6,0.2-1c0.1-0.2,0.2-0.3,0.2-0.5
		c0.3-0.2,0.6-0.3,1-0.5c0,0.3,0,0.6,0,1c0,0.3,0,0.6,0,1C310.7,146.5,310.7,146.9,310.7,147.3z"/>
	<path class="st12" d="M309.7,131.2c0,4.5,0,9,0,13.5c0.3-0.2,0.6-0.3,1-0.5v-11C310.4,132.5,310,131.9,309.7,131.2z"/>
	<path class="st7" d="M40.2,95.2c0.3,0,0.6,0,1,0c0,0.3,0,0.6,0,1c0,0.3,0,0.6,0,1c-0.3-0.1-0.6-0.2-1-0.2c-0.2-0.2-0.5-0.5-0.7-0.7
		c-0.1-0.3-0.2-0.6-0.2-1C39.6,95.2,39.9,95.2,40.2,95.2z"/>
	<path class="st12" d="M39.3,95.2c0.1,0.3,0.2,0.6,0.2,1c-7.4,0-14.9,0-22.3,0c0-0.3,0-0.6,0-1C24.6,95.2,31.9,95.2,39.3,95.2z"/>
	<path class="st8" d="M39.5,72.2c-3.6,0-7.1,0-10.7,0c-0.9,7.5-4.9,14.8-11.2,18.6c-0.1,0.6-0.2,1.1-0.4,1.6c0,0.9,0,1.8,0,2.8
		c0,0,0,0,0,0c7.4,0,14.7,0,22.1,0c0.3,0,0.6,0,1,0c0-7.4,0-14.9,0-22.3C40,72.7,39.7,72.4,39.5,72.2z"/>
	<path class="st8" d="M31.8,71c-0.3,0.1-0.6,0.2-1,0.2l8.4,0l1,0c0-1.5,0-2.9,0-4.4C37.7,68.7,34.9,70.2,31.8,71z"/>
	<path class="st12" d="M28.8,72.2c3.6,0,7.1,0,10.7,0c-0.1-0.3-0.2-0.6-0.2-1c-2.8,0-5.6,0-8.4,0c-0.7,0.2-1.4,0.3-2,0.4
		C28.8,71.8,28.8,72,28.8,72.2z"/>
</g>
<rect x="150.5" y="29.5" class="st17" width="1.2" height="263"/>
<rect x="147.9" y="29.5" class="st17" width="1.2" height="263"/>
<g class="st0">
	<rect x="163.5" y="27.8" class="st18" width="1.2" height="263"/>
	<rect x="160.9" y="27.7" class="st18" width="1.2" height="263"/>
	<rect x="158" y="25.6" class="st18" width="1.2" height="263"/>
	<rect x="155.3" y="24.9" class="st18" width="1.2" height="263"/>
	<rect x="152.8" y="27.2" class="st18" width="1.2" height="263"/>
	<rect x="145" y="27" class="st18" width="1.2" height="263"/>
	<rect x="142.3" y="26.3" class="st18" width="1.2" height="263"/>
	<rect x="139.8" y="28.6" class="st18" width="1.2" height="263"/>
	<rect x="137.3" y="31.5" class="st18" width="1.2" height="263"/>
	<rect x="134.6" y="30.3" class="st18" width="1.2" height="263"/>
	<rect x="131.9" y="29.3" class="st18" width="1.2" height="263"/>
	<rect x="129.2" y="28.6" class="st18" width="1.2" height="263"/>
	<rect x="126.7" y="30.9" class="st18" width="1.2" height="263"/>
	<rect x="124.2" y="32.1" class="st18" width="1.2" height="263"/>
	<rect x="121.6" y="32" class="st18" width="1.2" height="263"/>
	<rect x="118.8" y="29.9" class="st18" width="1.2" height="263"/>
	<rect x="116.1" y="29.2" class="st18" width="1.2" height="263"/>
	<rect x="113.6" y="31.5" class="st18" width="1.2" height="263"/>
	<rect x="111.6" y="37.8" class="st18" width="1.2" height="263"/>
	<rect x="109" y="37.7" class="st18" width="1.2" height="263"/>
	<rect x="106.1" y="35.6" class="st18" width="1.2" height="263"/>
	<rect x="103.4" y="34.9" class="st18" width="1.2" height="263"/>
	<rect x="100.9" y="37.2" class="st18" width="1.2" height="263"/>
	<rect x="98.3" y="43.6" class="st18" width="1.2" height="259.3"/>
	<rect x="95.7" y="43.6" class="st18" width="1.2" height="258.3"/>
	<rect x="92.9" y="41.5" class="st18" width="1.2" height="258.7"/>
	<rect x="90.2" y="40.8" class="st18" width="1.2" height="258.7"/>
	<rect x="87.7" y="43.1" class="st18" width="1.2" height="254.8"/>
	<rect x="85.3" y="48.4" class="st18" width="1.2" height="248.4"/>
	<rect x="82.7" y="48.3" class="st18" width="1.2" height="247.6"/>
	<rect x="79.9" y="46.2" class="st18" width="1.2" height="247.4"/>
	<rect x="77.2" y="45.5" class="st18" width="1.2" height="247.4"/>
	<rect x="74.7" y="47.8" class="st18" width="1.2" height="242.9"/>
	<rect x="72.3" y="56.6" class="st18" width="1.2" height="233.2"/>
	<rect x="69.6" y="56.5" class="st18" width="1.2" height="231.4"/>
	<rect x="66.8" y="54.4" class="st18" width="1.2" height="230.2"/>
	<rect x="64.1" y="53.7" class="st18" width="1.2" height="229.8"/>
	<rect x="61.6" y="56" class="st18" width="1.2" height="224.4"/>
	<rect x="59" y="73.7" class="st18" width="1.2" height="203.8"/>
	<rect x="56.4" y="73.6" class="st18" width="1.2" height="203.9"/>
	<rect x="53.6" y="71.5" class="st18" width="1.2" height="203.6"/>
	<rect x="50.9" y="70.8" class="st18" width="1.2" height="200"/>
	<rect x="48.4" y="73.1" class="st18" width="1.2" height="196.5"/>
	<rect x="45.7" y="49.3" class="st18" width="1.2" height="217.1"/>
	<rect x="43.1" y="55.7" class="st18" width="1.2" height="207.7"/>
	<rect x="40.3" y="57.3" class="st18" width="1.2" height="203.7"/>
	<rect x="37.6" y="66.4" class="st18" width="1.2" height="192.3"/>
	<rect x="35.1" y="61.4" class="st18" width="1.2" height="192.9"/>
	<rect x="33.1" y="66" class="st18" width="1.2" height="187.1"/>
	<rect x="30.5" y="69.4" class="st18" width="1.2" height="179.1"/>
	<rect x="27.7" y="70.1" class="st18" width="1.2" height="174.9"/>
	<rect x="25" y="74.5" class="st18" width="1.2" height="166.2"/>
	
		<rect x="22.3" y="77.9" transform="matrix(1 4.847095e-03 -4.847095e-03 1 0.7614 -0.1092)" class="st18" width="1.3" height="158.2"/>
</g>
<g class="st0">
	
		<rect x="169" y="26.2" transform="matrix(-1 4.567135e-11 -4.567135e-11 -1 339.1972 315.3772)" class="st18" width="1.2" height="263"/>
	
		<rect x="171.6" y="26.2" transform="matrix(-1 4.567135e-11 -4.567135e-11 -1 344.4262 315.4583)" class="st18" width="1.2" height="263"/>
	
		<rect x="174.5" y="28.4" transform="matrix(-1 4.491018e-11 -4.491018e-11 -1 350.1241 319.6859)" class="st18" width="1.2" height="263"/>
	
		<rect x="177.1" y="29.1" transform="matrix(-1 4.491018e-11 -4.491018e-11 -1 355.4766 321.0912)" class="st18" width="1.2" height="263"/>
	
		<rect x="179.7" y="26.8" transform="matrix(-1 4.567135e-11 -4.567135e-11 -1 360.5114 316.4848)" class="st18" width="1.2" height="263"/>
	
		<rect x="187.5" y="26.9" transform="matrix(-1 4.567135e-11 -4.567135e-11 -1 376.1947 316.8289)" class="st18" width="1.2" height="263"/>
	
		<rect x="190.2" y="27.6" transform="matrix(-1 4.567135e-11 -4.567135e-11 -1 381.5472 318.2342)" class="st18" width="1.2" height="263"/>
	
		<rect x="192.7" y="25.3" transform="matrix(-1 4.643251e-11 -4.643251e-11 -1 386.582 313.6278)" class="st18" width="1.2" height="263"/>
	
		<rect x="195.1" y="22.5" transform="matrix(-1 4.567135e-11 -4.567135e-11 -1 391.4507 307.9137)" class="st18" width="1.2" height="263"/>
	
		<rect x="197.9" y="23.7" transform="matrix(-1 4.567135e-11 -4.567135e-11 -1 396.9142 310.3907)" class="st18" width="1.2" height="263"/>
	
		<rect x="200.6" y="24.6" transform="matrix(-1 4.262667e-11 -4.262667e-11 -1 402.3776 312.2224)" class="st18" width="1.2" height="263"/>
	
		<rect x="203.3" y="25.3" transform="matrix(-1 4.567135e-11 -4.567135e-11 -1 407.7301 313.6278)" class="st18" width="1.2" height="263"/>
	
		<rect x="205.8" y="23" transform="matrix(-1 4.567135e-11 -4.567135e-11 -1 412.7649 309.0213)" class="st18" width="1.2" height="263"/>
	
		<rect x="208.3" y="21.9" transform="matrix(-1 4.567135e-11 -4.567135e-11 -1 417.7031 306.8061)" class="st18" width="1.2" height="263"/>
	
		<rect x="210.9" y="22" transform="matrix(-1 4.262667e-11 -4.262667e-11 -1 422.932 306.8872)" class="st18" width="1.2" height="263"/>
	
		<rect x="213.7" y="24.1" transform="matrix(-1 4.262667e-11 -4.262667e-11 -1 428.6299 311.1148)" class="st18" width="1.2" height="263"/>
	
		<rect x="216.4" y="24.8" transform="matrix(-1 4.186550e-11 -4.186550e-11 -1 433.9824 312.5201)" class="st18" width="1.2" height="263"/>
	
		<rect x="218.9" y="22.5" transform="matrix(-1 4.567135e-11 -4.567135e-11 -1 439.0172 307.9137)" class="st18" width="1.2" height="263"/>
	
		<rect x="220.9" y="16.2" transform="matrix(-1 4.567135e-11 -4.567135e-11 -1 442.9807 295.4038)" class="st18" width="1.2" height="263"/>
	
		<rect x="223.5" y="16.3" transform="matrix(-1 4.262667e-11 -4.262667e-11 -1 448.2097 295.4849)" class="st18" width="1.2" height="263"/>
	
		<rect x="226.4" y="18.4" transform="matrix(-1 4.262667e-11 -4.262667e-11 -1 453.9075 299.7126)" class="st18" width="1.2" height="263"/>
	
		<rect x="229" y="19.1" transform="matrix(-1 4.262667e-11 -4.262667e-11 -1 459.2601 301.1179)" class="st18" width="1.2" height="263"/>
	
		<rect x="231.6" y="18.7" transform="matrix(-1 4.414901e-11 -4.414901e-11 -1 464.2949 298.4789)" class="st18" width="1.2" height="261"/>
	
		<rect x="234.2" y="20.6" transform="matrix(-1 4.567135e-11 -4.567135e-11 -1 469.5154 293.9418)" class="st18" width="1.2" height="252.7"/>
	
		<rect x="236.8" y="22.5" transform="matrix(-1 4.414901e-11 -4.414901e-11 -1 474.7444 295.8168)" class="st18" width="1.2" height="250.9"/>
	
		<rect x="239.6" y="23.7" transform="matrix(-1 4.414901e-11 -4.414901e-11 -1 480.4422 299.1691)" class="st18" width="1.2" height="251.8"/>
	
		<rect x="242.3" y="24.9" transform="matrix(-1 4.414901e-11 -4.414901e-11 -1 485.7948 301.0804)" class="st18" width="1.2" height="251.3"/>
	
		<rect x="244.8" y="26.2" transform="matrix(-1 4.110433e-11 -4.110433e-11 -1 490.8296 300.0618)" class="st18" width="1.2" height="247.7"/>
	
		<rect x="247.1" y="27.8" transform="matrix(-1 4.414901e-11 -4.414901e-11 -1 495.4687 296.3522)" class="st18" width="1.2" height="240.8"/>
	
		<rect x="249.8" y="29.5" transform="matrix(-1 4.414901e-11 -4.414901e-11 -1 500.6977 298.1316)" class="st18" width="1.2" height="239.1"/>
	
		<rect x="252.6" y="33.9" transform="matrix(-1 4.110433e-11 -4.110433e-11 -1 506.3956 304.663)" class="st18" width="1.2" height="236.8"/>
	
		<rect x="255.3" y="35.2" transform="matrix(-1 4.034316e-11 -4.034316e-11 -1 511.7481 306.6606)" class="st18" width="1.2" height="236.2"/>
	
		<rect x="257.8" y="36.2" transform="matrix(-1 4.110433e-11 -4.110433e-11 -1 516.7829 305.307)" class="st18" width="1.2" height="233"/>
	
		<rect x="260.2" y="39.6" transform="matrix(-1 4.110433e-11 -4.110433e-11 -1 521.6378 299.997)" class="st18" width="1.2" height="220.7"/>
	
		<rect x="262.8" y="43.8" transform="matrix(-1 4.262667e-11 -4.262667e-11 -1 526.8668 304.1815)" class="st18" width="1.2" height="216.6"/>
	
		<rect x="265.7" y="44.1" transform="matrix(-1 4.338784e-11 -4.338784e-11 -1 532.5646 306.6406)" class="st18" width="1.2" height="218.4"/>
	
		<rect x="268.4" y="45.5" transform="matrix(-1 4.338784e-11 -4.338784e-11 -1 537.9171 308.7246)" class="st18" width="1.2" height="217.7"/>
	
		<rect x="270.9" y="48.3" transform="matrix(-1 4.338784e-11 -4.338784e-11 -1 542.9519 309.1839)" class="st18" width="1.2" height="212.7"/>
	
		<rect x="273.4" y="51.9" transform="matrix(-1 4.034316e-11 -4.034316e-11 -1 548.0551 295.1625)" class="st18" width="1.2" height="191.4"/>
	
		<rect x="276" y="54.7" transform="matrix(-1 4.186550e-11 -4.186550e-11 -1 553.2841 298.052)" class="st18" width="1.2" height="188.6"/>
	
		<rect x="278.9" y="57.6" transform="matrix(-1 4.262667e-11 -4.262667e-11 -1 558.9819 303.0147)" class="st18" width="1.2" height="187.8"/>
	
		<rect x="281.6" y="61.6" transform="matrix(-1 4.186550e-11 -4.186550e-11 -1 564.3344 307.6886)" class="st18" width="1.2" height="184.6"/>
	
		<rect x="284.1" y="65.4" transform="matrix(-1 4.110433e-11 -4.110433e-11 -1 569.3692 309.2703)" class="st18" width="1.2" height="178.4"/>
	
		<rect x="286.4" y="68.5" transform="matrix(-1 2.633703e-11 -2.633703e-11 -1 574.2734 315.9712)" class="st18" width="1.6" height="179.1"/>
	
		<rect x="185.2" y="26.3" transform="matrix(-1 4.643251e-11 -4.643251e-11 -1 371.5684 315.665)" class="st18" width="1.2" height="263"/>
	
		<rect x="182.4" y="28.4" transform="matrix(-1 4.491018e-11 -4.491018e-11 -1 366.0388 319.6859)" class="st18" width="1.2" height="263"/>
</g>
<g class="st0">
	
		<rect x="159.5" y="17.7" transform="matrix(7.609852e-13 1 -1 7.609852e-13 309.3271 -10.8583)" class="st18" width="1.2" height="263"/>
	
		<rect x="159.5" y="15.1" transform="matrix(7.609852e-13 1 -1 7.609852e-13 306.7532 -13.5134)" class="st18" width="1.2" height="263"/>
	
		<rect x="161.6" y="12.3" transform="matrix(7.609852e-13 1 -1 7.609852e-13 306.0181 -18.4761)" class="st18" width="1.2" height="263"/>
	
		<rect x="162.4" y="9.6" transform="matrix(7.609852e-13 1 -1 7.609852e-13 304.0445 -21.855)" class="st18" width="1.2" height="263"/>
	
		<rect x="160" y="7.1" transform="matrix(7.609852e-13 1 -1 7.609852e-13 299.2238 -22.0692)" class="st18" width="1.2" height="263"/>
	
		<rect x="160.2" y="-0.8" transform="matrix(1.522154e-12 1 -1 1.522154e-12 291.5542 -30.0829)" class="st18" width="1.2" height="263"/>
	
		<rect x="160.9" y="-3.4" transform="matrix(7.609852e-13 1 -1 7.609852e-13 289.5806 -33.4618)" class="st18" width="1.2" height="263"/>
	
		<rect x="158.6" y="-5.9" transform="matrix(7.609852e-13 1 -1 7.609852e-13 284.76 -33.676)" class="st18" width="1.2" height="263"/>
	
		<rect x="155.8" y="-8.4" transform="matrix(7.609852e-13 1 -1 7.609852e-13 279.4686 -33.2533)" class="st18" width="1.2" height="263"/>
	
		<rect x="157" y="-11.1" transform="matrix(7.609852e-13 1 -1 7.609852e-13 277.9754 -37.2235)" class="st18" width="1.2" height="263"/>
	
		<rect x="157.9" y="-13.8" transform="matrix(-2.283690e-12 1 -1 -2.283690e-12 276.1596 -40.8711)" class="st18" width="1.2" height="263"/>
	
		<rect x="158.6" y="-16.5" transform="matrix(7.609852e-13 1 -1 7.609852e-13 274.186 -44.25)" class="st18" width="1.2" height="263"/>
	
		<rect x="156.3" y="-19" transform="matrix(1.522154e-12 1 -1 1.522154e-12 269.3654 -44.4642)" class="st18" width="1.2" height="263"/>
	
		<rect x="155.2" y="-21.5" transform="matrix(7.609852e-13 1 -1 7.609852e-13 265.7886 -45.8257)" class="st18" width="1.2" height="263"/>
	
		<rect x="155.3" y="-24.1" transform="matrix(-2.283690e-12 1 -1 -2.283690e-12 263.2147 -48.4807)" class="st18" width="1.2" height="263"/>
	
		<rect x="157.4" y="-27" transform="matrix(-1.522521e-12 1 -1 -1.522521e-12 262.4796 -53.4435)" class="st18" width="1.2" height="263"/>
	
		<rect x="158.1" y="-29.6" transform="matrix(-2.283690e-12 1 -1 -2.283690e-12 260.506 -56.8224)" class="st18" width="1.2" height="263"/>
	
		<rect x="155.8" y="-32.2" transform="matrix(7.609852e-13 1 -1 7.609852e-13 255.6854 -57.0366)" class="st18" width="1.2" height="263"/>
	
		<rect x="149.5" y="-34.1" transform="matrix(7.609852e-13 1 -1 7.609852e-13 247.4487 -52.7634)" class="st18" width="1.2" height="263"/>
	
		<rect x="149.5" y="-36.8" transform="matrix(-2.283690e-12 1 -1 -2.283690e-12 244.8747 -55.4184)" class="st18" width="1.2" height="263"/>
	
		<rect x="151.7" y="-39.6" transform="matrix(-2.283690e-12 1 -1 -2.283690e-12 244.1396 -60.3812)" class="st18" width="1.2" height="263"/>
	
		<rect x="152.4" y="-42.3" transform="matrix(-2.283690e-12 1 -1 -2.283690e-12 242.166 -63.7601)" class="st18" width="1.2" height="263"/>
	
		<rect x="151" y="-43.8" transform="matrix(-1.836970e-16 1 -1 -1.836970e-16 238.3291 -64.958)" class="st18" width="1.2" height="261"/>
	
		<rect x="148.8" y="-42.3" transform="matrix(-1.836970e-16 1 -1 -1.836970e-16 233.4503 -65.2998)" class="st18" width="1.2" height="252.7"/>
	
		<rect x="149.7" y="-44" transform="matrix(-1.836970e-16 1 -1 -1.836970e-16 231.7733 -68.8517)" class="st18" width="1.2" height="250.9"/>
	
		<rect x="151.4" y="-47.3" transform="matrix(-7.613526e-13 1 -1 -7.613526e-13 230.6006 -73.3768)" class="st18" width="1.2" height="251.8"/>
	
		<rect x="152.3" y="-49.7" transform="matrix(-7.613526e-13 1 -1 -7.613526e-13 228.8799 -77.0087)" class="st18" width="1.2" height="251.3"/>
	
		<rect x="151.8" y="-50.4" transform="matrix(-3.806028e-12 1 -1 -3.806028e-12 225.8532 -79.0168)" class="st18" width="1.2" height="247.7"/>
	
		<rect x="150" y="-49.3" transform="matrix(-7.613526e-13 1 -1 -7.613526e-13 221.6789 -79.4816)" class="st18" width="1.2" height="240.8"/>
	
		<rect x="150.9" y="-51.1" transform="matrix(-1.836970e-16 1 -1 -1.836970e-16 219.954 -82.9858)" class="st18" width="1.2" height="239.1"/>
	
		<rect x="154.1" y="-52.8" transform="matrix(-4.567197e-12 1 -1 -4.567197e-12 220.3708 -89.1004)" class="st18" width="1.2" height="236.8"/>
	
		<rect x="155.1" y="-55.1" transform="matrix(-4.567197e-12 1 -1 -4.567197e-12 218.6934 -92.7755)" class="st18" width="1.2" height="236.2"/>
	
		<rect x="154.5" y="-56" transform="matrix(-3.044859e-12 1 -1 -3.044859e-12 215.4992 -94.6161)" class="st18" width="1.2" height="233"/>
	
		<rect x="151.8" y="-52.4" transform="matrix(-3.806028e-12 1 -1 -3.806028e-12 210.4167 -94.3885)" class="st18" width="1.2" height="220.7"/>
	
		<rect x="153.9" y="-52.9" transform="matrix(-2.283690e-12 1 -1 -2.283690e-12 209.8945 -99.0952)" class="st18" width="1.2" height="216.6"/>
	
		<rect x="155.1" y="-56.7" transform="matrix(-1.522521e-12 1 -1 -1.522521e-12 208.2751 -103.1737)" class="st18" width="1.2" height="218.4"/>
	
		<rect x="156.2" y="-59" transform="matrix(-1.522521e-12 1 -1 -1.522521e-12 206.6409 -106.892)" class="st18" width="1.2" height="217.7"/>
	
		<rect x="156.4" y="-59" transform="matrix(-2.283690e-12 1 -1 -2.283690e-12 204.3531 -109.639)" class="st18" width="1.2" height="212.7"/>
	
		<rect x="149.4" y="-50.9" transform="matrix(-4.567197e-12 1 -1 -4.567197e-12 194.7909 -105.1799)" class="st18" width="1.2" height="191.4"/>
	
		<rect x="150.8" y="-52.1" transform="matrix(-3.044859e-12 1 -1 -3.044859e-12 193.6211 -109.2391)" class="st18" width="1.2" height="188.6"/>
	
		<rect x="153.3" y="-54.6" transform="matrix(-2.283690e-12 1 -1 -2.283690e-12 193.2535 -114.5694)" class="st18" width="1.2" height="187.8"/>
	
		<rect x="155.7" y="-55.6" transform="matrix(-3.044859e-12 1 -1 -3.044859e-12 192.9142 -119.5826)" class="st18" width="1.2" height="184.6"/>
	
		<rect x="156.4" y="-55" transform="matrix(-3.806028e-12 1 -1 -3.806028e-12 191.1877 -122.8908)" class="st18" width="1.2" height="178.4"/>
	
		<rect x="159.6" y="-57.8" transform="matrix(-1.814389e-11 1 -1 -1.814389e-11 192.086 -128.6934)" class="st18" width="1.6" height="179.1"/>
	
		<rect x="159.6" y="1.6" transform="matrix(1.522154e-12 1 -1 1.522154e-12 293.2855 -27.1878)" class="st18" width="1.2" height="263"/>
	
		<rect x="161.6" y="4.3" transform="matrix(7.609852e-13 1 -1 7.609852e-13 298.0607 -26.4335)" class="st18" width="1.2" height="263"/>
</g>
<g class="st0">
	
		<rect x="155.8" y="32.1" transform="matrix(7.612302e-13 -1 1 7.612302e-13 -7.2292 319.9511)" class="st18" width="1.2" height="263"/>
	
		<rect x="155.8" y="34.7" transform="matrix(1.522399e-12 -1 1 1.522399e-12 -9.8032 322.6062)" class="st18" width="1.2" height="263"/>
	
		<rect x="157.9" y="37.6" transform="matrix(7.612302e-13 -1 1 7.612302e-13 -10.5382 327.5689)" class="st18" width="1.2" height="263"/>
	
		<rect x="158.6" y="40.2" transform="matrix(7.612302e-13 -1 1 7.612302e-13 -12.5118 330.9479)" class="st18" width="1.2" height="263"/>
	
		<rect x="156.3" y="42.8" transform="matrix(7.612302e-13 -1 1 7.612302e-13 -17.3325 331.162)" class="st18" width="1.2" height="263"/>
	
		<rect x="156.5" y="50.6" transform="matrix(7.612302e-13 -1 1 7.612302e-13 -25.0021 339.1758)" class="st18" width="1.2" height="263"/>
	
		<rect x="157.2" y="53.3" transform="matrix(7.612302e-13 -1 1 7.612302e-13 -26.9757 342.5547)" class="st18" width="1.2" height="263"/>
	
		<rect x="154.9" y="55.8" transform="matrix(7.612302e-13 -1 1 7.612302e-13 -31.7963 342.7689)" class="st18" width="1.2" height="263"/>
	
		<rect x="152" y="58.2" transform="matrix(7.612302e-13 -1 1 7.612302e-13 -37.0877 342.3462)" class="st18" width="1.2" height="263"/>
	
		<rect x="153.3" y="61" transform="matrix(7.612302e-13 -1 1 7.612302e-13 -38.5809 346.3164)" class="st18" width="1.2" height="263"/>
	
		<rect x="154.2" y="63.7" transform="matrix(-2.283668e-12 -1 1 -2.283668e-12 -40.3967 349.964)" class="st18" width="1.2" height="263"/>
	
		<rect x="154.9" y="66.4" transform="matrix(7.612302e-13 -1 1 7.612302e-13 -42.3703 353.3429)" class="st18" width="1.2" height="263"/>
	
		<rect x="152.6" y="68.9" transform="matrix(7.612302e-13 -1 1 7.612302e-13 -47.191 353.557)" class="st18" width="1.2" height="263"/>
	
		<rect x="151.5" y="71.4" transform="matrix(7.612302e-13 -1 1 7.612302e-13 -50.7677 354.9185)" class="st18" width="1.2" height="263"/>
	
		<rect x="151.5" y="74" transform="matrix(-2.283668e-12 -1 1 -2.283668e-12 -53.3416 357.5735)" class="st18" width="1.2" height="263"/>
	
		<rect x="153.6" y="76.8" transform="matrix(-1.522277e-12 -1 1 -1.522277e-12 -54.0767 362.5363)" class="st18" width="1.2" height="263"/>
	
		<rect x="154.3" y="79.5" transform="matrix(-2.283668e-12 -1 1 -2.283668e-12 -56.0503 365.9152)" class="st18" width="1.2" height="263"/>
	
		<rect x="152" y="82" transform="matrix(7.612302e-13 -1 1 7.612302e-13 -60.8709 366.1294)" class="st18" width="1.2" height="263"/>
	
		<rect x="145.8" y="84" transform="matrix(7.612302e-13 -1 1 7.612302e-13 -69.1076 361.8562)" class="st18" width="1.2" height="263"/>
	
		<rect x="145.8" y="86.6" transform="matrix(-2.283668e-12 -1 1 -2.283668e-12 -71.6816 364.5113)" class="st18" width="1.2" height="263"/>
	
		<rect x="147.9" y="89.5" transform="matrix(-2.283668e-12 -1 1 -2.283668e-12 -72.4167 369.474)" class="st18" width="1.2" height="263"/>
	
		<rect x="148.6" y="92.1" transform="matrix(-1.522277e-12 -1 1 -1.522277e-12 -74.3903 372.8529)" class="st18" width="1.2" height="263"/>
	
		<rect x="147.3" y="95.6" transform="matrix(6.123234e-17 -1 1 6.123234e-17 -78.2272 374.0508)" class="st18" width="1.2" height="261"/>
	
		<rect x="145" y="102.4" transform="matrix(6.123234e-17 -1 1 6.123234e-17 -83.106 374.3926)" class="st18" width="1.2" height="252.7"/>
	
		<rect x="146" y="105.9" transform="matrix(-7.611076e-13 -1 1 -7.611076e-13 -84.783 377.9445)" class="st18" width="1.2" height="250.9"/>
	
		<rect x="147.7" y="108.3" transform="matrix(-1.522277e-12 -1 1 -1.522277e-12 -85.9557 382.4696)" class="st18" width="1.2" height="251.8"/>
	
		<rect x="148.6" y="111.3" transform="matrix(-1.522277e-12 -1 1 -1.522277e-12 -87.6764 386.1015)" class="st18" width="1.2" height="251.3"/>
	
		<rect x="148.1" y="115.6" transform="matrix(-3.806005e-12 -1 1 -3.806005e-12 -90.7031 388.1096)" class="st18" width="1.2" height="247.7"/>
	
		<rect x="146.3" y="121.3" transform="matrix(-7.611076e-13 -1 1 -7.611076e-13 -94.8775 388.5744)" class="st18" width="1.2" height="240.8"/>
	
		<rect x="147.1" y="124.8" transform="matrix(-7.611076e-13 -1 1 -7.611076e-13 -96.6023 392.0786)" class="st18" width="1.2" height="239.1"/>
	
		<rect x="150.4" y="128.8" transform="matrix(-4.567174e-12 -1 1 -4.567174e-12 -96.1855 398.1932)" class="st18" width="1.2" height="236.8"/>
	
		<rect x="151.4" y="131.8" transform="matrix(-4.567174e-12 -1 1 -4.567174e-12 -97.8629 401.8683)" class="st18" width="1.2" height="236.2"/>
	
		<rect x="150.7" y="135.9" transform="matrix(-3.806005e-12 -1 1 -3.806005e-12 -101.0571 403.7089)" class="st18" width="1.2" height="233"/>
	
		<rect x="148.1" y="144.4" transform="matrix(-3.806005e-12 -1 1 -3.806005e-12 -106.1396 403.4814)" class="st18" width="1.2" height="220.7"/>
	
		<rect x="150.2" y="149.1" transform="matrix(-1.522277e-12 -1 1 -1.522277e-12 -106.6618 408.188)" class="st18" width="1.2" height="216.6"/>
	
		<rect x="151.4" y="151.1" transform="matrix(-1.522277e-12 -1 1 -1.522277e-12 -108.2812 412.2666)" class="st18" width="1.2" height="218.4"/>
	
		<rect x="152.4" y="154.1" transform="matrix(-1.522277e-12 -1 1 -1.522277e-12 -109.9155 415.9848)" class="st18" width="1.2" height="217.7"/>
	
		<rect x="152.7" y="159.1" transform="matrix(-2.283668e-12 -1 1 -2.283668e-12 -112.2032 418.7319)" class="st18" width="1.2" height="212.7"/>
	
		<rect x="145.7" y="172.3" transform="matrix(-4.567174e-12 -1 1 -4.567174e-12 -121.7655 414.2727)" class="st18" width="1.2" height="191.4"/>
	
		<rect x="147.1" y="176.3" transform="matrix(-3.044837e-12 -1 1 -3.044837e-12 -122.9352 418.3319)" class="st18" width="1.2" height="188.6"/>
	
		<rect x="149.6" y="179.6" transform="matrix(-1.522277e-12 -1 1 -1.522277e-12 -123.3028 423.6622)" class="st18" width="1.2" height="187.8"/>
	
		<rect x="151.9" y="183.9" transform="matrix(-3.044837e-12 -1 1 -3.044837e-12 -123.6421 428.6754)" class="st18" width="1.2" height="184.6"/>
	
		<rect x="152.7" y="189.5" transform="matrix(-3.806005e-12 -1 1 -3.806005e-12 -125.3687 431.9837)" class="st18" width="1.2" height="178.4"/>
	
		<rect x="155.9" y="191.6" transform="matrix(-1.814365e-11 -1 1 -1.814365e-11 -124.4703 437.7863)" class="st18" width="1.6" height="179.1"/>
	
		<rect x="155.9" y="48.3" transform="matrix(7.612302e-13 -1 1 7.612302e-13 -23.2709 336.2806)" class="st18" width="1.2" height="263"/>
	
		<rect x="157.9" y="45.5" transform="matrix(1.522399e-12 -1 1 1.522399e-12 -18.4956 335.5263)" class="st18" width="1.2" height="263"/>
	
		<rect x="166.6" y="198.4" transform="matrix(-1.697303e-11 -1 1 -1.697303e-11 -116.265 450.9558)" class="st18" width="1.6" height="170.5"/>
	
		<rect x="164.1" y="200.6" transform="matrix(-1.814365e-11 -1 1 -1.814365e-11 -121.0876 450.9124)" class="st18" width="1.6" height="170.9"/>
	
		<rect x="165.9" y="62.6" transform="matrix(-1.755834e-11 -1 1 -1.755834e-11 14.6318 318.8132)" class="st18" width="1.6" height="179.1"/>
	
		<rect x="169.8" y="65.1" transform="matrix(-1.755834e-11 -1 1 -1.755834e-11 16.0016 325.1855)" class="st18" width="1.6" height="179.1"/>
	
		<rect x="173.1" y="68" transform="matrix(-1.814365e-11 -1 1 -1.814365e-11 16.3624 331.454)" class="st18" width="1.6" height="179.1"/>
	
		<rect x="173.7" y="71" transform="matrix(-1.814365e-11 -1 1 -1.814365e-11 13.919 335.0102)" class="st18" width="1.6" height="179.1"/>
</g>
<rect x="177.8" y="169.4" class="st19" width="45.9" height="45.2"/>
<rect x="177.8" y="96.6" class="st19" width="45.9" height="46.7"/>
<rect x="117.1" y="101.5" class="st19" width="34.6" height="41.9"/>
<rect x="115.9" y="169.4" class="st19" width="34.6" height="41.9"/>
<rect x="159" y="29.5" class="st19" width="9.6" height="259.7"/>
<rect x="23.8" y="150.8" class="st19" width="135.1" height="11.3"/>
<rect x="208.3" y="150.8" class="st19" width="81.2" height="11.3"/>
<linearGradient id="SVGID_00000112600924820512295390000008785744044514016653_" gradientUnits="userSpaceOnUse" x1="0.6503" y1="158.1428" x2="318.6245" y2="158.1428">
	<stop  offset="0.2775" style="stop-color:#494099"/>
	<stop  offset="0.8836" style="stop-color:#262367"/>
	<stop  offset="1" style="stop-color:#1F1854"/>
</linearGradient>
<ellipse style="fill:none;stroke:url(#SVGID_00000112600924820512295390000008785744044514016653_);stroke-width:22;stroke-miterlimit:10;" cx="159.6" cy="158.1" rx="148" ry="146.8"/>
<circle class="st21" cx="159" cy="158.8" r="135.1"/>
</svg>
