<?xml version="1.0" encoding="UTF-8" standalone="no"?><!DOCTYPE svg PUBLIC "-//W3C//DTD SVG 1.1//EN" "http://www.w3.org/Graphics/SVG/1.1/DTD/svg11.dtd"><svg width="100%" height="100%" viewBox="0 0 700 300" version="1.1" xmlns="http://www.w3.org/2000/svg" xmlns:xlink="http://www.w3.org/1999/xlink" xml:space="preserve" xmlns:serif="http://www.serif.com/" style="fill-rule:evenodd;clip-rule:evenodd;"><path d="M138.57,38.505c0,-9.211 -7.479,-16.69 -16.69,-16.69l-77.9,-0c-9.211,-0 -16.69,7.479 -16.69,16.69l0,189.18c0,9.211 7.479,16.69 16.69,16.69l77.9,0c9.211,0 16.69,-7.479 16.69,-16.69l0,-189.18Z" style="fill:#f0f4f8;stroke:#a3b1c6;stroke-width:3px;"/><rect x="66.24" y="233.245" width="33.38" height="5.56" style="fill:#a3b1c6;"/><path d="M672.71,71.905c0,-6.143 -4.987,-11.13 -11.13,-11.13l-178.04,0c-6.143,0 -11.13,4.987 -11.13,11.13l-0,111.28c-0,6.143 4.987,11.13 11.13,11.13l178.04,0c6.143,0 11.13,-4.987 11.13,-11.13l0,-111.28Z" style="fill:#f0f4f8;stroke:#a3b1c6;stroke-width:3px;"/><rect x="505.79" y="194.315" width="133.54" height="11.13" style="fill:#a3b1c6;"/><g><path d="M289.31,152.285c10.27,-15.41 20.54,-15.41 30.81,0" style="fill:none;fill-rule:nonzero;stroke:#6cbf84;stroke-width:3px;stroke-linecap:round;"/><path d="M273.9,136.875c20.54,-25.68 41.08,-25.68 61.62,0" style="fill:none;fill-rule:nonzero;stroke:#6cbf84;stroke-width:3px;stroke-linecap:round;"/><path d="M258.5,121.465c30.81,-35.95 61.62,-35.95 92.44,0" style="fill:none;fill-rule:nonzero;stroke:#6cbf84;stroke-width:3px;stroke-linecap:round;"/></g><path d="M438.04,119.085l22.35,7.52l-22.16,8.06l-0.19,-15.58Z" style="fill:#6cbf84;fill-rule:nonzero;"/><path d="M170.72,138.365l-22.18,-8l22.33,-7.58l-0.15,15.58Z" style="fill:#6cbf84;fill-rule:nonzero;"/><path d="M174.43,130.865l66.54,-0.82" style="fill:none;fill-rule:nonzero;stroke:#6cbf84;stroke-width:3px;stroke-linecap:round;"/><path d="M368.45,128.015l66.55,-0.82" style="fill:none;fill-rule:nonzero;stroke:#6cbf84;stroke-width:3px;stroke-linecap:round;"/><path d="M655.31,82.165c-0,-3.069 -2.491,-5.56 -5.56,-5.56l-155.8,-0c-3.069,-0 -5.56,2.491 -5.56,5.56l-0,89.03c-0,3.069 2.491,5.56 5.56,5.56l155.8,0c3.069,0 5.56,-2.491 5.56,-5.56l-0,-89.03Z" style="fill:#fff;stroke:#a3b1c6;stroke-width:2px;"/><path d="M655.31,82.165c-0,-3.069 -2.491,-5.56 -5.56,-5.56l-155.8,-0c-3.069,-0 -5.56,2.491 -5.56,5.56l-0,5.57c-0,3.069 2.491,5.56 5.56,5.56l155.8,-0c3.069,-0 5.56,-2.491 5.56,-5.56l-0,-5.57Z" style="fill:#e0e4e8;"/><circle cx="499.52" cy="84.395" r="4.45" style="fill:#ff5f56;"/><circle cx="510.64" cy="84.395" r="4.45" style="fill:#ffbd2e;"/><circle cx="521.77" cy="84.395" r="4.45" style="fill:#27c93f;"/><path d="M537.35,79.945l102.38,-0c2.46,-0 4.45,1.99 4.45,4.45c0,2.46 -1.99,4.45 -4.45,4.45l-102.38,-0c-2.46,-0 -4.45,-1.99 -4.45,-4.45c0,-2.46 1.99,-4.45 4.45,-4.45Z" style="fill:#fff;fill-rule:nonzero;stroke:#c0c7d0;stroke-width:1px;"/><g><path d="M83.38,95.965l29.36,16.95l0,38l-29.36,16.95l-29.36,-16.95l0,-37.99l29.36,-16.95m0,-4.95l-2.15,1.24l-29.36,16.95l-2.15,1.24l0,42.95l2.15,1.24l29.36,16.95l2.15,1.24l2.15,-1.24l29.36,-16.95l2.15,-1.24l0,-42.95l-2.15,-1.24l-29.36,-16.96l-2.15,-1.24l0,0.01Z" style="fill:#fac03d;fill-rule:nonzero;"/><path d="M122.2,94.915c0,-0 -1.11,1.82 -4.36,1.82c-0.85,-0 -1.85,-0.13 -3.01,-0.44c-3.18,-0.78 -5.41,-1.38 -8.8,-1.34c-5.77,-0 -11.04,3.37 -13.33,8.23c-2.18,-0.41 -4.45,-0.63 -6.82,-0.63c-1.07,-0 -2.18,0.04 -3.28,0.13c-1,0.06 -9.02,0.68 -17.19,6.2c-5.95,-1.93 -9.84,-5.93 -11.65,-12c-1.86,6.25 -5.92,10.3 -12.17,12.17c6.25,1.86 10.57,6.5 12.1,12.72l0.01,-0c-4.01,7.6 -4.02,16.66 0.09,24.07c4.77,8.61 14.22,13.55 25.92,13.55c2.65,0 5.45,-0.25 8.31,-0.74c14.95,-2.57 21.63,-9.83 24.61,-15.47c5.05,-9.58 2.79,-19.98 0.66,-24.61c-0.08,-0.17 -0.17,-0.34 -0.26,-0.52c3.19,-1.66 6.95,-4.58 8.91,-9.54c0,0 -2,1.16 -3.38,1.34c0,0 5.57,-7.21 3.65,-14.93c-1.92,-7.72 0,0 0,0l-0.01,-0.01Z" style="fill:#231815;fill-rule:nonzero;"/><path d="M87.55,154.785c-2.71,0.47 -5.26,0.68 -7.64,0.68c-15.29,0 -23.65,-9.01 -24.89,-19c2.33,-0.59 10.95,-3 20.39,-8.44c0,0 0.63,-1.83 0.89,-5.27c0,0 6.96,9.33 2.83,25.97c0,0 7.23,-3.05 10.33,-12.33c0.89,-0.71 2.91,-1.98 4.85,-0.7c1.24,0.81 1.72,2.77 1.13,4.64c-0.78,2.44 -3.02,3.83 -6.02,3.73l-0.08,2.4l0.4,0c0.81,0 1.54,-0.09 2.23,-0.24c0.73,1.89 2.48,4.42 5.6,5.62c-2.81,1.26 -6.12,2.26 -10.02,2.93l-0.01,0l0.01,0.01Z" style="fill:#fbe9ec;fill-rule:nonzero;"/><path d="M109.87,120.745c2.9,6.32 4.63,21.44 -8.81,29.75c-4.51,-0.18 -6.23,-3.4 -6.74,-4.7c1.78,-1.05 2.89,-2.66 3.39,-4.24c0.93,-2.93 0.06,-5.95 -2.09,-7.37c-1.85,-1.21 -3.75,-1.09 -5.34,-0.5c0.49,-2.55 0.69,-5.47 0.42,-8.81c0,0 -1.78,10.91 -7.77,17.3c0,0 1.98,-17.85 -8.47,-23.58c0,-0 -0.27,4.18 -1.4,8.04c0,-0 -6.29,3.68 -18.27,6.63c0.17,-3.66 1.35,-7.23 3.41,-10.52c9.28,-14.87 24.85,-15.57 24.85,-15.57c1.03,-0.08 2.04,-0.12 3.02,-0.12c2.02,-0 3.92,0.18 5.7,0.49c-0.86,6.9 4.34,12.85 11.74,13.37c0.34,0.03 0.68,0.04 1.01,0.04c1.09,-0 2.16,-0.12 3.2,-0.35c1.04,-0.23 0.71,-0.13 1.83,-0.49c0.11,0.21 0.23,0.43 0.33,0.64c0.1,0.21 0,-0.01 0,-0.01l-0.01,-0Z" style="fill:#fac03d;fill-rule:nonzero;"/><path d="M111.06,112.975l2.65,0.24c-2.18,1.53 -4.42,2.27 -5.61,2.59l-1.09,0.24c-0.78,0.17 -1.56,0.26 -2.33,0.26c-0.24,-0 -0.49,-0 -0.73,-0.03c-2.63,-0.18 -4.91,-1.31 -6.4,-3.17c-1.32,-1.64 -1.87,-3.7 -1.56,-5.82c0.69,-4.66 5.15,-8.26 10.28,-8.31c2.95,-0.03 5.74,0.77 7.84,1.2c1.44,0.29 2.79,0.58 4.07,0.58l0.42,0c-1.08,6.32 -7.52,12.23 -7.52,12.23l-0.02,-0.01Z" style="fill:#fac03d;fill-rule:nonzero;"/><path d="M114.11,100.165c-2.1,-0.43 -4.9,-1.23 -7.84,-1.2c-5.14,0.04 -9.6,3.65 -10.28,8.31c-0.31,2.11 0.24,4.18 1.56,5.82c1.49,1.86 3.77,2.98 6.4,3.17l0.11,0c-1.13,-0.31 -3.98,-1.37 -5.34,-4.57c-2.05,-4.84 1.21,-11.85 11.27,-10.77c5.3,0.57 7.62,0.28 8.6,-0.15l0,-0.04l-0.42,0c-1.28,0 -2.62,-0.28 -4.07,-0.58l0.01,0.01Z" style="fill:#fff;fill-rule:nonzero;"/><path d="M78.54,141.565c0.69,0.99 -0.23,2.83 -2.07,4.1c-1.83,1.27 -3.88,1.5 -4.57,0.51c-0.69,-0.99 0.23,-2.83 2.07,-4.1c1.83,-1.28 3.88,-1.5 4.57,-0.51Z" style="fill:#ed7a95;fill-rule:nonzero;"/><path d="M75.93,132.715c0.7,4.09 -2.61,8.49 -7.39,9.83c-4.17,1.17 -8.07,-0.38 -9.47,-3.5l16.51,-7.56c0.15,0.39 0.27,0.79 0.35,1.22c0.08,0.43 0,-0 0,-0l0,0.01Z" style="fill:#231815;fill-rule:nonzero;"/><path d="M70.97,135.705c0,-0 0.33,2.13 -1.86,4.55c0,-0 3.98,-1.24 4.23,-5.63l-2.37,1.08Z" style="fill:#fff;fill-rule:nonzero;"/><path d="M53.78,114.945c-0.9,-3.03 -2.86,-4.99 -5.89,-5.89c3.03,-0.9 4.99,-2.86 5.89,-5.89c0.9,3.03 2.86,4.99 5.89,5.89c-3.03,0.9 -4.99,2.86 -5.89,5.89Z" style="fill:#fac03d;fill-rule:nonzero;"/><path d="M74.45,118.595c0,0 -1.7,4.92 -2.74,6.3c0,0 -7.31,3.01 -12.14,3.98c0,0 4.25,-21.64 32.14,-20.82c0.01,-0.2 0.03,-0.32 0.05,-0.52c-1.79,-0.31 -3.77,-0.59 -5.79,-0.59c-0.98,0 -1.98,0.04 -3.02,0.12c0,0 -15.57,0.7 -24.85,15.57c-2.05,3.29 -3.15,6.95 -3.32,10.61c0.37,-0.09 4.11,-1.03 8.31,-2.42c8.46,-3.04 9.96,-4.21 9.96,-4.21c1.13,-3.86 1.4,-8.04 1.4,-8.04" style="fill:#fff;fill-rule:nonzero;"/></g><g><path d="M45.59,263.025c0.37,0.23 0.88,0.61 1.53,1.13c0.62,0.5 1.11,0.92 1.46,1.24l-1.21,1.67c-0.17,-0.18 -0.37,-0.38 -0.61,-0.59c-0.24,-0.22 -0.52,-0.45 -0.83,-0.7c-0.31,-0.26 -0.59,-0.49 -0.84,-0.67c-0.25,-0.19 -0.47,-0.34 -0.66,-0.48l1.15,-1.6l0.01,0Zm-1.12,11.79c0.18,-0.37 0.38,-0.86 0.58,-1.46c0.21,-0.6 0.42,-1.23 0.62,-1.88c0.2,-0.65 0.39,-1.29 0.55,-1.91c0.16,-0.62 0.29,-1.14 0.37,-1.56l1.91,0.52c-0.1,0.46 -0.22,0.99 -0.39,1.61c-0.17,0.62 -0.36,1.29 -0.58,2.01c-0.23,0.71 -0.44,1.34 -0.64,1.9c-0.2,0.56 -0.39,1.05 -0.57,1.47l-1.85,-0.7Zm2.79,-0.11c0.47,-0.68 0.85,-1.35 1.15,-2c0.3,-0.65 0.52,-1.28 0.65,-1.89c0.13,-0.61 0.24,-1.33 0.32,-2.17c0.08,-0.83 0.14,-1.8 0.18,-2.89l0.07,-2.52l-1.03,0l0,-1.6l-0.9,1.19c-0.14,-0.16 -0.32,-0.33 -0.54,-0.52c-0.22,-0.19 -0.46,-0.41 -0.74,-0.65c-0.28,-0.24 -0.53,-0.45 -0.77,-0.63c-0.23,-0.18 -0.44,-0.33 -0.6,-0.45l1.12,-1.51c0.18,0.12 0.39,0.26 0.62,0.43c0.23,0.17 0.49,0.37 0.77,0.61c0.29,0.23 0.54,0.44 0.76,0.63c0.22,0.19 0.41,0.37 0.57,0.52l-0.09,0.11l2.12,0c-0.06,-0.38 -0.13,-0.78 -0.22,-1.18c-0.08,-0.4 -0.17,-0.79 -0.27,-1.18l1.85,-0.27c0.04,0.14 0.08,0.32 0.13,0.51c0.05,0.2 0.1,0.41 0.14,0.65c0.05,0.23 0.1,0.48 0.14,0.73c0.05,0.25 0.09,0.5 0.13,0.74l1.69,-0l0,1.31c0.35,-0.65 0.66,-1.32 0.94,-2.01c0.28,-0.69 0.52,-1.36 0.71,-2.01l1.82,0.45c-0.1,0.28 -0.19,0.55 -0.28,0.81c-0.09,0.26 -0.18,0.52 -0.28,0.77l3.58,0l0,1.96l-4.46,0c-0.2,0.42 -0.42,0.82 -0.65,1.19l4.55,0l0,1.89c-0.3,0.35 -0.6,0.67 -0.91,0.98c-0.31,0.31 -0.61,0.6 -0.93,0.87l0,0.56l2.47,0l0,2l-2.47,0l0,3.24c0,0.42 -0.04,0.76 -0.11,1.01c-0.07,0.25 -0.18,0.45 -0.32,0.6c-0.14,0.15 -0.32,0.26 -0.54,0.32c-0.22,0.07 -0.47,0.12 -0.76,0.15c-0.2,0.02 -0.45,0.04 -0.73,0.06c-0.28,0.02 -0.56,0.02 -0.84,0l-0.38,-2.09c0.36,0.04 0.76,0.05 1.21,0.05c0.28,-0 0.46,-0.04 0.54,-0.11c0.08,-0.07 0.13,-0.26 0.13,-0.56l0,-2.7l-2.23,-0l0,-2l2.23,-0l0,-1.03c0.22,-0.19 0.44,-0.4 0.68,-0.62c0.24,-0.22 0.48,-0.48 0.75,-0.78l-2.93,-0l0,-0.92l-0.29,0.41l-1.44,-0.99c0.1,-0.16 0.2,-0.31 0.31,-0.48c0.11,-0.16 0.21,-0.33 0.31,-0.51l-2.74,-0l-0.02,1.87l2.88,-0c-0.02,1.48 -0.05,2.83 -0.09,4.07c-0.04,1.24 -0.08,2.38 -0.14,3.44c-0.02,0.52 -0.08,0.94 -0.15,1.27c-0.08,0.33 -0.19,0.59 -0.33,0.78c-0.14,0.19 -0.32,0.33 -0.52,0.42c-0.2,0.09 -0.45,0.15 -0.74,0.19c-0.47,0.07 -0.94,0.11 -1.42,0.11l-0.4,-2.18c0.12,0.02 0.27,0.04 0.46,0.04c0.19,-0 0.39,0.01 0.62,0.03c0.16,0.01 0.28,-0 0.37,-0c0.09,-0.02 0.16,-0.07 0.22,-0.17c0.05,-0.1 0.09,-0.25 0.11,-0.45c0.02,-0.2 0.04,-0.49 0.06,-0.86c0.04,-0.66 0.07,-1.36 0.1,-2.11c0.03,-0.74 0.05,-1.62 0.06,-2.63l-1.15,0c-0.1,1.99 -0.3,3.55 -0.61,4.66c-0.37,1.33 -1.01,2.66 -1.91,3.98l-1.6,-0.99l0.01,0.05Z" style="fill:#606060;fill-rule:nonzero;"/><path d="M64.64,263.365c0.25,0.37 0.54,0.81 0.87,1.31c0.33,0.5 0.67,1.04 1.03,1.62c0.23,-0.65 0.42,-1.29 0.58,-1.93c0.16,-0.64 0.3,-1.28 0.42,-1.93l-4.36,0l0,-2.03l6.39,-0l0,2.03c-0.2,1.12 -0.44,2.18 -0.71,3.18c-0.27,1 -0.6,1.97 -0.98,2.91c0.34,0.56 0.66,1.1 0.96,1.62c0.31,0.52 0.57,0.98 0.8,1.39l-1.69,1.13c-0.16,-0.29 -0.33,-0.6 -0.51,-0.93c-0.18,-0.33 -0.38,-0.67 -0.58,-1.02c-0.38,0.73 -0.82,1.45 -1.3,2.14c-0.48,0.7 -1.01,1.39 -1.58,2.09l-1.67,-1.37c0.64,-0.72 1.24,-1.51 1.81,-2.37c0.57,-0.86 1.06,-1.75 1.48,-2.67c-0.49,-0.83 -0.96,-1.62 -1.41,-2.37c-0.45,-0.75 -0.83,-1.37 -1.12,-1.84l1.57,-0.97l0,0.01Zm10.57,-4.41c0.18,0.17 0.38,0.37 0.6,0.6c0.22,0.23 0.46,0.51 0.73,0.82c0.28,0.3 0.51,0.57 0.71,0.82c0.2,0.25 0.36,0.47 0.5,0.68l-0.9,0.77l2.03,-0.25l0.2,1.93l-5.56,0.72c0.07,0.68 0.15,1.31 0.23,1.89c0.08,0.58 0.18,1.12 0.29,1.64c1.04,-1.13 1.93,-2.35 2.65,-3.67l1.58,1.04c-0.54,0.95 -1.11,1.82 -1.7,2.63c-0.59,0.8 -1.23,1.55 -1.92,2.23c0.23,0.64 0.5,1.21 0.81,1.71c0.22,0.36 0.4,0.6 0.56,0.72c0.16,0.12 0.31,0.18 0.45,0.18c0.13,0 0.25,-0.11 0.35,-0.34c0.1,-0.23 0.2,-0.52 0.3,-0.88c0.06,-0.25 0.12,-0.53 0.18,-0.83c0.06,-0.3 0.11,-0.58 0.14,-0.83l1.76,0.9c-0.04,0.17 -0.07,0.32 -0.1,0.46c-0.03,0.14 -0.06,0.28 -0.1,0.42c-0.04,0.14 -0.08,0.29 -0.12,0.45c-0.04,0.16 -0.09,0.34 -0.15,0.56c-0.23,0.77 -0.53,1.35 -0.92,1.76c-0.38,0.4 -0.83,0.6 -1.33,0.6c-0.54,-0 -1.03,-0.16 -1.46,-0.49c-0.43,-0.32 -0.89,-0.89 -1.39,-1.71c-0.12,-0.18 -0.23,-0.37 -0.33,-0.58c-0.1,-0.2 -0.2,-0.42 -0.3,-0.65c-0.54,0.43 -1.11,0.85 -1.72,1.24c-0.61,0.4 -1.25,0.79 -1.94,1.17l-1.1,-1.66c0.76,-0.42 1.47,-0.86 2.15,-1.32c0.68,-0.46 1.32,-0.96 1.93,-1.48c-0.05,-0.16 -0.09,-0.31 -0.12,-0.45c-0.03,-0.14 -0.06,-0.3 -0.1,-0.47c-0.12,-0.54 -0.23,-1.14 -0.32,-1.81c-0.09,-0.67 -0.19,-1.39 -0.29,-2.19l-1.89,0.23l-0.22,-1.98l1.94,-0.23c-0.02,-0.16 -0.04,-0.31 -0.04,-0.47c-0,-0.16 -0.02,-0.32 -0.03,-0.49c-0.1,-1.45 -0.15,-2.62 -0.16,-3.51l2.09,-0c-0.01,0.28 -0,0.72 0.02,1.32c0.02,0.61 0.06,1.39 0.11,2.35l-0,0.56l2.7,-0.34c-0.12,-0.17 -0.25,-0.35 -0.4,-0.56c-0.15,-0.21 -0.31,-0.42 -0.5,-0.65c-0.25,-0.31 -0.48,-0.59 -0.68,-0.83c-0.2,-0.24 -0.39,-0.44 -0.56,-0.61l1.3,-1.13l0.04,0.01Z" style="fill:#606060;fill-rule:nonzero;"/><path d="M90.36,259.425l0,5.85l-6.23,-0l-0.18,2.02l6.37,0c-0.01,0.6 -0.02,1.14 -0.04,1.62c-0.01,0.48 -0.03,0.94 -0.04,1.37c-0.02,0.43 -0.04,0.85 -0.06,1.24c-0.02,0.4 -0.06,0.8 -0.11,1.22c-0.05,0.46 -0.12,0.83 -0.22,1.12c-0.1,0.29 -0.25,0.53 -0.45,0.7c-0.2,0.17 -0.48,0.3 -0.83,0.39c-0.35,0.08 -0.79,0.15 -1.33,0.2c-0.56,0.05 -1.11,0.08 -1.65,0.09c-0.53,0.01 -1.09,0.01 -1.67,0l-0.41,-2.07c0.5,0.04 0.99,0.06 1.45,0.06l1.5,0c0.31,0 0.56,-0.01 0.76,-0.04c0.19,-0.03 0.34,-0.09 0.44,-0.17c0.1,-0.08 0.17,-0.2 0.21,-0.34c0.04,-0.14 0.07,-0.33 0.09,-0.56c0.04,-0.37 0.07,-0.8 0.09,-1.28c0.02,-0.48 0.04,-1 0.05,-1.55l-6.39,0l0.49,-5.89l5.99,0l0,-2.05l-6.16,0l0,-1.93l8.33,0Zm5.17,-0.41l0,16.4l-2.16,0l0,-16.4l2.16,0Z" style="fill:#606060;fill-rule:nonzero;"/><path d="M98.12,264.045c0.47,-0.38 0.9,-0.81 1.3,-1.28c0.4,-0.47 0.71,-0.91 0.93,-1.31l1.37,0.52l-0.11,0.22l5.78,-0c0.47,-0.58 0.87,-1.17 1.21,-1.78c0.34,-0.61 0.63,-1.2 0.87,-1.76l1.64,0.5c-0.1,0.23 -0.19,0.44 -0.29,0.65c-0.1,0.2 -0.19,0.4 -0.29,0.59l4.41,-0l0,1.46l-0.85,0c-0.2,0.53 -0.44,1.02 -0.71,1.47c-0.27,0.45 -0.58,0.86 -0.93,1.23c0.73,0.4 1.63,0.72 2.68,0.97l-0.67,1.6c-0.66,-0.22 -1.26,-0.45 -1.79,-0.7c-0.53,-0.25 -1.02,-0.52 -1.47,-0.81c-0.86,0.58 -1.97,1.08 -3.33,1.51l-0.63,-1.28c-0.06,0.36 -0.18,0.62 -0.36,0.78c-0.18,0.16 -0.5,0.27 -0.97,0.33c-0.17,0.02 -0.36,0.04 -0.58,0.04l-0.52,-0l-0.2,-1.33c0.11,0.01 0.22,0.02 0.34,0.03l0.36,-0c0.19,-0 0.32,-0.04 0.38,-0.11c0.06,-0.07 0.1,-0.22 0.13,-0.43c0.02,-0.24 0.04,-0.5 0.06,-0.79c0.02,-0.29 0.03,-0.64 0.04,-1.06l-5.08,-0c-0.16,0.22 -0.32,0.41 -0.49,0.58l4.23,-0l0,2.66l-4.66,-0l0,-2.21c-0.26,0.26 -0.53,0.49 -0.79,0.68l-1.04,-0.97l0.03,-0Zm8.03,-5.2l0,0.99l2.02,-0l0,1.3l-2.02,-0l0,0.67l-1.75,-0l0,-0.67l-1.51,-0l0,0.58l-1.73,-0l0,-0.58l-2.16,-0l0,-1.3l2.16,-0l0,-0.99l1.73,-0l0,0.99l1.51,-0l0,-0.99l1.75,-0Zm0.09,10.85l0,-0.68c-1.26,0.06 -2.38,0.09 -3.37,0.09c-0.99,-0 -1.84,-0.02 -2.56,-0.05l-0.25,-1.37c0.83,0.04 1.77,0.04 2.83,0.03c1.06,-0.02 2.28,-0.06 3.66,-0.12c1.38,-0.06 2.6,-0.13 3.65,-0.22c1.06,-0.09 1.96,-0.18 2.72,-0.28l0.36,1.39c-0.68,0.1 -1.44,0.18 -2.28,0.24c-0.83,0.07 -1.76,0.13 -2.78,0.19l0,0.79l4.95,-0l0,1.26l-4.95,-0l0,0.81l6.59,-0l0,1.37l-6.59,-0l0,0.41c0,0.72 -0.15,1.22 -0.45,1.51c-0.3,0.29 -0.74,0.46 -1.33,0.52c-0.58,0.06 -1.06,0.09 -1.46,0.1c-0.4,0.01 -0.81,-0 -1.24,-0.03l-0.32,-1.67c0.34,0.04 0.67,0.06 0.99,0.07c0.32,0.01 0.69,0.02 1.1,0.02c0.3,-0.01 0.5,-0.05 0.58,-0.13c0.09,-0.07 0.13,-0.26 0.13,-0.56l0,-0.25l-7.16,-0l0,-1.37l7.16,-0l0,-0.81l-5.54,-0l0,-1.26l5.56,-0Zm-4.93,-4.14l1.91,-0l0,-0.72l-1.91,0l0,0.72Zm8.6,-0.97c-0.47,-0.47 -0.85,-0.97 -1.15,-1.49l-0.43,0.5l-0.85,-0.74c-0.02,0.68 -0.05,1.25 -0.09,1.68c-0.04,0.44 -0.07,0.78 -0.09,1.04c0.53,-0.13 1.01,-0.28 1.44,-0.45c0.43,-0.17 0.82,-0.35 1.17,-0.54Zm-0.16,-2.74c0.35,0.7 0.82,1.3 1.4,1.82c0.5,-0.5 0.91,-1.11 1.21,-1.82l-2.61,0Z" style="fill:#606060;fill-rule:nonzero;"/></g><g><path d="M529.62,233.025c0.2,-0.31 0.41,-0.63 0.61,-0.95c0.2,-0.32 0.4,-0.64 0.59,-0.96l-1.35,0.72c-0.1,-0.28 -0.2,-0.57 -0.32,-0.88c-0.12,-0.31 -0.26,-0.64 -0.41,-0.99c-0.35,0.67 -0.7,1.32 -1.04,1.93c-0.35,0.62 -0.71,1.21 -1.08,1.79l-1.19,-0.81l0,3.35l-1.91,0l0,-16.06l14.63,0l-0,13.52c-0,1.39 -0.57,2.17 -1.71,2.34c-0.17,0.02 -0.36,0.04 -0.58,0.05c-0.22,0.01 -0.46,0.02 -0.7,0.04c-0.24,0.02 -0.5,0.02 -0.76,0.02c-0.26,0 -0.51,0 -0.74,-0.02l-0.43,-2.02c0.28,0.02 0.62,0.04 1.04,0.05c0.42,0.01 0.8,0.01 1.16,0c0.31,-0.02 0.52,-0.08 0.61,-0.17c0.1,-0.09 0.14,-0.3 0.14,-0.62l0,-1.01l-1.24,0.77c-0.16,-0.43 -0.34,-0.9 -0.57,-1.41c-0.22,-0.51 -0.49,-1.07 -0.8,-1.68c-0.35,0.68 -0.72,1.36 -1.11,2.03c-0.39,0.67 -0.81,1.34 -1.25,2.03l-1.58,-1.06l-0.01,-0Zm-2.43,-9.83c0.43,0.65 0.94,1.49 1.51,2.54c0.2,-0.49 0.4,-0.98 0.58,-1.48c0.19,-0.49 0.36,-0.99 0.53,-1.49l1.75,0.43c-0.1,0.25 -0.19,0.5 -0.28,0.76c-0.09,0.25 -0.18,0.5 -0.28,0.76l1.19,-0.81c0.36,0.52 0.78,1.19 1.26,2.02c0.37,-0.94 0.71,-1.87 1.03,-2.81l1.69,0.5l0,-1.57l-10.75,-0l0,10.01c0.41,-0.65 0.81,-1.32 1.21,-2.02c0.4,-0.7 0.77,-1.42 1.13,-2.18c-0.4,-0.83 -0.76,-1.56 -1.11,-2.19c-0.34,-0.63 -0.66,-1.17 -0.95,-1.61l1.48,-0.86l0.01,0Zm2.57,4.57c0.28,0.58 0.52,1.11 0.75,1.59c0.22,0.49 0.41,0.93 0.57,1.34c0.26,-0.46 0.51,-0.91 0.75,-1.36c0.23,-0.45 0.46,-0.9 0.69,-1.36c-0.31,-0.59 -0.61,-1.12 -0.88,-1.59c-0.27,-0.47 -0.53,-0.9 -0.77,-1.27c-0.18,0.46 -0.36,0.91 -0.54,1.35c-0.18,0.44 -0.37,0.88 -0.56,1.3l-0.01,0Zm4.79,0.18c0.35,0.66 0.65,1.27 0.92,1.83c0.27,0.56 0.5,1.08 0.7,1.56l-0,-7.6c-0.24,0.74 -0.49,1.46 -0.76,2.15c-0.26,0.69 -0.55,1.38 -0.86,2.06Z" style="fill:#606060;fill-rule:nonzero;"/><path d="M540.73,234.465c1.43,-0.38 2.6,-0.78 3.53,-1.18c0.92,-0.4 1.66,-0.87 2.21,-1.39c0.41,-0.38 0.71,-0.86 0.9,-1.42c0.19,-0.56 0.31,-1.21 0.34,-1.93c0.02,-0.38 0.04,-0.74 0.04,-1.07c0,-0.33 0,-0.65 -0.02,-0.96l2.09,0c0.01,0.23 0.02,0.53 0,0.91c0,0.38 -0.02,0.79 -0.03,1.23c-0.02,0.73 -0.1,1.39 -0.22,1.96c0.44,0.18 0.92,0.4 1.44,0.65c0.52,0.25 1.08,0.53 1.69,0.85c0.8,0.42 1.56,0.84 2.26,1.25c0.7,0.41 1.28,0.77 1.74,1.07l-1.24,2.03c-0.89,-0.68 -2.12,-1.48 -3.71,-2.38c-0.58,-0.32 -1.11,-0.62 -1.6,-0.87c-0.49,-0.26 -0.95,-0.48 -1.37,-0.68c-0.14,0.22 -0.32,0.43 -0.52,0.63c-0.38,0.38 -0.8,0.73 -1.24,1.05c-0.44,0.32 -0.93,0.61 -1.47,0.87c-0.53,0.26 -1.12,0.51 -1.76,0.74c-0.64,0.23 -1.35,0.44 -2.13,0.65l-0.94,-2.02l0.01,0.01Zm6.39,-10.69c0.05,-0.12 0.09,-0.25 0.13,-0.38c0.04,-0.13 0.08,-0.28 0.13,-0.45c0.05,-0.17 0.09,-0.33 0.13,-0.49c0.04,-0.16 0.07,-0.31 0.1,-0.45l-6.39,0l0,-1.98l15.12,0l0,1.98l-6.34,0c-0.04,0.16 -0.08,0.31 -0.13,0.48c-0.05,0.16 -0.1,0.33 -0.14,0.51l-0.23,0.77l5.49,0l0,7.9l-2.12,0l0,-5.96l-8.15,0l0,6.05l-2.12,0l0,-7.99l4.54,0l-0.02,0.01Z" style="fill:#606060;fill-rule:nonzero;"/><path d="M562.65,226.815l0,-4.48l-3.17,0l0,-1.94l14.65,0l0,1.94l-2.92,0l0,4.48l3.71,0l0,2l-3.71,0l0,7.33l-2.07,0l0,-7.33l-4.48,0c-0.13,1.54 -0.37,2.75 -0.72,3.64c-0.26,0.66 -0.67,1.34 -1.22,2.04c-0.55,0.7 -1.26,1.45 -2.12,2.24l-1.57,-1.55c1.57,-1.32 2.57,-2.52 2.99,-3.6c0.28,-0.71 0.46,-1.63 0.54,-2.77l-3.83,0l0,-2l3.92,0Zm2.09,0l4.41,0l0,-4.48l-4.41,0l0,4.48Z" style="fill:#606060;fill-rule:nonzero;"/><path d="M578.99,234.445c1.13,-0.34 2.14,-0.68 3.04,-1.04c0.9,-0.36 1.7,-0.73 2.39,-1.12c-0.84,-0.84 -1.57,-1.78 -2.18,-2.83c-1,2.05 -2.5,4.13 -4.52,6.23l-1.58,-1.53c0.97,-0.97 1.84,-2 2.61,-3.08c0.77,-1.08 1.4,-2.2 1.91,-3.37c0.42,-0.96 0.78,-1.99 1.08,-3.1l-4.05,0l0,-1.73c0.16,-0.31 0.31,-0.8 0.47,-1.48l0.38,-1.69l1.96,0.31c-0.12,0.49 -0.24,0.97 -0.35,1.42c-0.11,0.46 -0.23,0.89 -0.35,1.3l2.38,0c0.11,-0.52 0.2,-1.04 0.29,-1.58c0.09,-0.54 0.16,-1.1 0.22,-1.67l2.12,0.09c-0.14,1.14 -0.31,2.2 -0.49,3.17l8.37,0l0,1.87l-8.78,0c-0.12,0.55 -0.26,1.1 -0.43,1.64l7.54,0l0,1.87c-0.47,0.86 -0.96,1.64 -1.48,2.34c-0.52,0.7 -1.06,1.31 -1.64,1.85c1.38,0.84 3.08,1.55 5.11,2.12l-0.86,2.11c-1.26,-0.42 -2.39,-0.87 -3.39,-1.34c-1,-0.47 -1.89,-0.98 -2.67,-1.52c-0.76,0.46 -1.64,0.91 -2.66,1.36c-1.02,0.45 -2.2,0.9 -3.53,1.36l-0.9,-1.96l-0.01,0Zm4.81,-6.28c0.34,0.58 0.7,1.11 1.1,1.59c0.4,0.49 0.82,0.93 1.28,1.34c0.54,-0.43 1.02,-0.89 1.43,-1.38c0.41,-0.49 0.77,-1 1.07,-1.56l-4.88,0l-0,0.01Zm3.8,-9.04c0.2,0.1 0.44,0.21 0.72,0.35c0.28,0.14 0.58,0.31 0.92,0.51c0.34,0.19 0.63,0.37 0.89,0.53c0.26,0.16 0.48,0.31 0.66,0.44l-1.01,1.73c-0.19,-0.14 -0.42,-0.3 -0.68,-0.47c-0.26,-0.17 -0.56,-0.35 -0.9,-0.56c-0.34,-0.2 -0.64,-0.38 -0.9,-0.53c-0.26,-0.15 -0.5,-0.27 -0.7,-0.37l1.01,-1.64l-0.01,0.01Z" style="fill:#606060;fill-rule:nonzero;"/><path d="M597.07,226.075l-0,-3.46l-2.03,-0l-0,-1.93l6.03,-0l-0,1.93l-2.02,-0l-0,3.46l1.93,-0l0,1.94l-1.93,-0l-0,3.94c0.42,-0.1 0.8,-0.18 1.15,-0.26c0.35,-0.08 0.67,-0.16 0.97,-0.24l0.23,2.05c-0.83,0.22 -1.9,0.43 -3.22,0.65c-0.68,0.12 -1.29,0.22 -1.82,0.29c-0.53,0.07 -1,0.13 -1.4,0.18l-0.29,-1.93c0.31,-0.02 0.67,-0.06 1.06,-0.12c0.4,-0.05 0.84,-0.13 1.33,-0.22l-0,-4.34l-1.87,-0l0,-1.94l1.88,-0Zm13.63,-5.6l0,2.03l-3.58,-0c-0.19,0.54 -0.39,1.06 -0.6,1.56c-0.21,0.5 -0.44,0.99 -0.67,1.47l0.56,-0l-0,0.59l0.68,-0.63c0.64,0.55 1.39,1.35 2.27,2.39c0.94,1.08 1.62,1.95 2.05,2.61l-1.58,1.33c-0.58,-0.8 -1.16,-1.57 -1.74,-2.3c-0.58,-0.73 -1.14,-1.39 -1.68,-1.98l0,8.53l-2.09,-0l-0,-7.9c-0.37,0.55 -0.77,1.09 -1.19,1.62c-0.42,0.53 -0.89,1.08 -1.42,1.66l-1.66,-1.37c1.12,-1.07 2.07,-2.24 2.87,-3.53c0.8,-1.28 1.48,-2.63 2.06,-4.05l-3.56,-0l0,-2.03l9.29,-0l-0.01,-0Z" style="fill:#606060;fill-rule:nonzero;"/><path d="M614.49,223.795l0,-4.37l1.84,-0l0,4.37l1.37,-0l0,1.89l-1.37,-0l0,5.35l1.31,-0.52l0.47,1.94c-0.65,0.28 -1.51,0.6 -2.59,0.97c-0.54,0.18 -1.01,0.33 -1.42,0.45c-0.41,0.12 -0.77,0.22 -1.1,0.31l-0.61,-1.89c0.26,-0.06 0.58,-0.15 0.94,-0.26c0.36,-0.11 0.75,-0.24 1.17,-0.37l0,-5.98l-1.6,-0l0,-1.89l1.6,-0l-0.01,-0Zm1.89,11c1.5,-0.42 2.5,-0.86 3.01,-1.33c0.53,-0.48 0.82,-1.03 0.88,-1.64l-1.89,-0l0,-5.9l9.31,-0l0,5.9l-2.41,-0l0,1.71c0,0.35 0.04,0.56 0.13,0.65c0.09,0.09 0.23,0.13 0.45,0.14l0.97,-0c0.3,-0.01 0.5,-0.06 0.58,-0.14c0.09,-0.08 0.15,-0.28 0.17,-0.59c0.02,-0.31 0.05,-0.6 0.07,-0.85c0.02,-0.26 0.04,-0.49 0.04,-0.69l1.6,0.38c-0.01,0.25 -0.03,0.5 -0.04,0.74c-0.02,0.24 -0.04,0.49 -0.06,0.76c-0.07,0.65 -0.23,1.13 -0.49,1.46c-0.26,0.33 -0.67,0.51 -1.26,0.56c-0.25,0.02 -0.56,0.04 -0.94,0.04c-0.38,-0 -0.74,-0 -1.12,-0.02c-0.66,-0.01 -1.14,-0.17 -1.43,-0.46c-0.29,-0.29 -0.44,-0.83 -0.44,-1.59l0,-2.07l-1.3,-0c-0.05,0.68 -0.19,1.26 -0.41,1.72c-0.23,0.46 -0.55,0.85 -0.95,1.16c-0.82,0.66 -2.02,1.26 -3.62,1.8l-0.85,-1.71l0,-0.03Zm5.65,-14.08l-0,-0.02c-0.06,-0.24 -0.12,-0.45 -0.17,-0.63c-0.05,-0.18 -0.1,-0.34 -0.15,-0.47l2.05,-0.23c0.08,0.28 0.19,0.65 0.32,1.13l0.05,0.22l4.23,-0l0,1.48l-2.74,-0l0.86,0.43l-0.52,0.99l2.97,-0l-0,1.49l-10.89,-0l0,-1.49l2.48,-0l-0.67,-1.08l0.74,-0.34l-2.43,-0l0,-1.48l3.87,-0Zm-1.85,7.4l5.72,-0l-0,-0.77l-5.72,-0l-0,0.77Zm5.72,2.23l-0,-0.79l-5.72,-0l-0,0.79l5.72,-0Zm-4.19,-8.15c0.13,0.2 0.26,0.42 0.4,0.66c0.13,0.23 0.28,0.49 0.45,0.76l1.4,-0c0.16,-0.25 0.29,-0.49 0.41,-0.72c0.12,-0.23 0.25,-0.46 0.38,-0.7l-3.04,-0Z" style="fill:#606060;fill-rule:nonzero;"/></g><g><path d="M279.11,186.735c0.88,-1.58 1.43,-3.01 1.66,-4.27c0.24,-1.31 0.36,-3.13 0.36,-5.45l-0,-5.42l13.3,-0l-0,4.99l-11.36,-0l-0,1.08l12.13,-0c-0,0.54 -0,1.12 -0.02,1.75c-0.01,0.63 -0.03,1.28 -0.04,1.93c-0.02,0.66 -0.04,1.32 -0.06,1.98c-0.02,0.66 -0.05,1.28 -0.09,1.87c-0.02,0.4 -0.08,0.74 -0.17,1.03c-0.09,0.29 -0.24,0.53 -0.46,0.73c-0.22,0.2 -0.51,0.36 -0.87,0.48c-0.36,0.12 -0.84,0.21 -1.43,0.27c-0.24,0.02 -0.57,0.05 -0.98,0.07c-0.41,0.02 -0.85,0.03 -1.3,0.02l-0.36,-1.82c0.29,0.02 0.61,0.04 0.98,0.04l0.94,-0c0.36,-0.01 0.65,-0.04 0.85,-0.07c0.2,-0.03 0.37,-0.1 0.49,-0.21c0.11,-0.1 0.19,-0.25 0.23,-0.44c0.04,-0.19 0.07,-0.46 0.1,-0.81c0.05,-0.77 0.08,-1.57 0.11,-2.4c0.02,-0.83 0.04,-1.68 0.04,-2.55l-10.13,-0c-0.07,1.42 -0.2,2.6 -0.38,3.55c-0.26,1.43 -0.86,2.98 -1.78,4.64l-1.75,-0.99l-0.01,-0Zm3.96,-11.97l9.32,-0l-0,-1.37l-9.32,-0l-0,1.37Zm8.23,5.87l-0,4.99l-7.49,-0l-0,-4.99l7.49,-0Zm-5.6,3.35l3.69,-0l-0,-1.75l-3.69,-0l-0,1.75Z" style="fill:#606060;fill-rule:nonzero;"/><path d="M301.29,171.235l0,4.03l1.4,-0l0,1.89l-1.4,-0l0,5.04c0.25,-0.1 0.49,-0.18 0.7,-0.26c0.22,-0.08 0.42,-0.16 0.61,-0.24l0.36,1.98c-0.32,0.13 -0.71,0.28 -1.15,0.44c-0.44,0.16 -0.94,0.33 -1.48,0.5c-0.53,0.17 -1,0.32 -1.42,0.44c-0.42,0.13 -0.79,0.22 -1.12,0.3l-0.41,-2.02c0.26,-0.06 0.56,-0.13 0.89,-0.22c0.33,-0.09 0.7,-0.19 1.11,-0.31l0,-5.65l-1.62,-0l0,-1.89l1.62,-0l0,-4.03l1.91,-0Zm4.37,15.05c0.23,-0.19 0.45,-0.38 0.66,-0.55c0.21,-0.17 0.42,-0.36 0.62,-0.55c-0.6,0.2 -1.3,0.4 -2.11,0.59c-0.6,0.17 -1.14,0.31 -1.61,0.42c-0.47,0.11 -0.89,0.21 -1.25,0.3l-0.41,-1.93c0.37,-0.06 0.79,-0.15 1.27,-0.26c0.47,-0.11 1.02,-0.25 1.63,-0.4c1.2,-0.32 2.17,-0.61 2.92,-0.86l0.23,1.48c0.24,-0.24 0.46,-0.49 0.67,-0.74c0.2,-0.25 0.4,-0.5 0.58,-0.76c-0.06,-0.28 -0.11,-0.56 -0.15,-0.85c-0.04,-0.29 -0.09,-0.6 -0.13,-0.93c-0.13,-0.89 -0.23,-1.82 -0.31,-2.8c-0.07,-0.98 -0.14,-2.01 -0.2,-3.1l-5.27,0l0,-1.8l5.22,0c-0.02,-0.59 -0.04,-1.09 -0.04,-1.51l0,-1.04l1.89,-0.04c-0.01,0.25 -0.02,0.59 -0.02,1.03c0,0.44 0.01,0.95 0.04,1.57l1.71,0l-0.54,-0.76c-0.37,-0.5 -0.67,-0.86 -0.88,-1.08l1.22,-0.99c0.24,0.25 0.55,0.6 0.94,1.04c0.38,0.46 0.67,0.83 0.85,1.12l-0.85,0.67l1.3,0l0,1.8l-3.71,0c0.02,1 0.06,1.91 0.12,2.75c0.05,0.84 0.13,1.62 0.23,2.34c0.24,-0.59 0.48,-1.22 0.72,-1.91c0.24,-0.68 0.47,-1.43 0.7,-2.23l1.76,0.41c-0.37,1.26 -0.77,2.42 -1.2,3.47c-0.43,1.06 -0.88,2.02 -1.36,2.88l-0.13,0.22c0.06,0.24 0.12,0.47 0.18,0.68c0.06,0.21 0.13,0.43 0.2,0.63c0.13,0.38 0.23,0.65 0.31,0.78c0.07,0.14 0.17,0.2 0.31,0.19c0.08,-0.01 0.15,-0.08 0.19,-0.22c0.04,-0.13 0.09,-0.32 0.15,-0.56c0.06,-0.26 0.11,-0.55 0.16,-0.86c0.05,-0.31 0.1,-0.62 0.14,-0.95l1.64,0.54c-0.04,0.35 -0.09,0.68 -0.15,1c-0.07,0.32 -0.13,0.63 -0.21,0.95c-0.1,0.36 -0.2,0.68 -0.3,0.95c-0.1,0.28 -0.22,0.51 -0.36,0.7c-0.14,0.19 -0.31,0.34 -0.5,0.46c-0.2,0.11 -0.44,0.18 -0.73,0.19c-0.43,0.02 -0.83,-0.12 -1.19,-0.44c-0.36,-0.32 -0.69,-0.84 -0.99,-1.58c-0.04,-0.07 -0.07,-0.15 -0.1,-0.23c-0.03,-0.08 -0.06,-0.17 -0.08,-0.25c-0.68,0.86 -1.46,1.7 -2.34,2.5l-1.42,-1.49l-0.02,0.01Zm1.91,-9.63l-0,5.71l-4.54,0l-0,-5.71l4.54,0Zm-2.93,3.94l1.33,0l-0,-2.23l-1.33,0l-0,2.23Z" style="fill:#606060;fill-rule:nonzero;"/><path d="M322.4,184.555c0.2,-0.31 0.41,-0.63 0.61,-0.95c0.2,-0.32 0.4,-0.64 0.59,-0.96l-1.35,0.72c-0.1,-0.28 -0.2,-0.57 -0.32,-0.88c-0.12,-0.31 -0.26,-0.64 -0.41,-0.99c-0.35,0.67 -0.7,1.32 -1.04,1.93c-0.35,0.62 -0.71,1.21 -1.08,1.79l-1.19,-0.81l0,3.35l-1.91,0l0,-16.06l14.63,0l0,13.52c0,1.39 -0.57,2.17 -1.71,2.34c-0.17,0.02 -0.36,0.04 -0.59,0.05c-0.22,0.01 -0.46,0.02 -0.7,0.04c-0.24,0.02 -0.5,0.02 -0.77,0.02c-0.27,0 -0.51,0 -0.74,-0.02l-0.43,-2.02c0.28,0.02 0.62,0.04 1.04,0.05c0.42,0.01 0.8,0.01 1.16,0c0.31,-0.02 0.52,-0.08 0.61,-0.17c0.09,-0.09 0.14,-0.3 0.14,-0.62l0,-1.01l-1.24,0.77c-0.16,-0.43 -0.35,-0.9 -0.57,-1.41c-0.22,-0.51 -0.49,-1.07 -0.8,-1.68c-0.35,0.68 -0.72,1.36 -1.11,2.03c-0.39,0.67 -0.81,1.34 -1.25,2.03l-1.58,-1.06l0.01,-0Zm-2.43,-9.83c0.43,0.65 0.94,1.49 1.51,2.54c0.2,-0.49 0.4,-0.98 0.58,-1.48c0.18,-0.5 0.36,-0.99 0.53,-1.49l1.75,0.43c-0.1,0.25 -0.19,0.5 -0.28,0.76c-0.09,0.26 -0.18,0.5 -0.28,0.76l1.19,-0.81c0.36,0.52 0.78,1.19 1.26,2.02c0.37,-0.94 0.71,-1.87 1.03,-2.81l1.69,0.5l0,-1.57l-10.75,-0l0,10.01c0.41,-0.65 0.81,-1.32 1.21,-2.02c0.4,-0.7 0.77,-1.42 1.13,-2.18c-0.4,-0.83 -0.76,-1.56 -1.11,-2.19c-0.34,-0.63 -0.66,-1.17 -0.94,-1.61l1.48,-0.86Zm2.57,4.57c0.28,0.58 0.52,1.11 0.75,1.59c0.22,0.49 0.41,0.93 0.57,1.34c0.26,-0.46 0.51,-0.91 0.75,-1.36c0.24,-0.45 0.46,-0.9 0.69,-1.36c-0.31,-0.59 -0.61,-1.12 -0.88,-1.59c-0.28,-0.47 -0.53,-0.9 -0.77,-1.27c-0.18,0.46 -0.36,0.91 -0.54,1.35c-0.18,0.44 -0.37,0.88 -0.56,1.3l-0.01,0Zm4.79,0.18c0.35,0.66 0.65,1.27 0.92,1.83c0.27,0.56 0.5,1.08 0.7,1.56l0,-7.6c-0.24,0.74 -0.49,1.46 -0.76,2.15c-0.26,0.69 -0.55,1.38 -0.86,2.06Z" style="fill:#606060;fill-rule:nonzero;"/></g></svg>