<?xml version="1.0" encoding="UTF-8"?>
<svg id="_图层_1" data-name="图层 1" xmlns="http://www.w3.org/2000/svg" viewBox="0 0 651.9 257.89">
  <rect x="4.98" y="1.5" width="111.28" height="222.56" rx="16.69" ry="16.69" style="fill: #f0f4f8; stroke: #a3b1c6; stroke-width: 3px;"/>
  <rect x="43.92" y="212.93" width="33.38" height="5.56" style="fill: #a3b1c6;"/>
  <rect x="450.1" y="40.46" width="200.3" height="133.54" rx="11.13" ry="11.13" style="fill: #f0f4f8; stroke: #a3b1c6; stroke-width: 3px;"/>
  <rect x="483.48" y="174" width="133.54" height="11.13" style="fill: #a3b1c6;"/>
  <g>
    <path d="M266.99,131.97c10.27-15.41,20.54-15.41,30.81,0" style="fill: none; stroke: #6cbf84; stroke-linecap: round; stroke-width: 3px;"/>
    <path d="M251.59,116.56c20.54-25.68,41.08-25.68,61.62,0" style="fill: none; stroke: #6cbf84; stroke-linecap: round; stroke-width: 3px;"/>
    <path d="M236.18,101.15c30.81-35.95,61.62-35.95,92.44,0" style="fill: none; stroke: #6cbf84; stroke-linecap: round; stroke-width: 3px;"/>
  </g>
  <polygon points="415.72 98.77 438.07 106.29 415.91 114.35 415.72 98.77" style="fill: #6cbf84;"/>
  <polygon points="148.41 118.05 126.23 110.05 148.55 102.47 148.41 118.05" style="fill: #6cbf84;"/>
  <line x1="152.11" y1="110.55" x2="218.66" y2="109.73" style="fill: none; stroke: #6cbf84; stroke-linecap: round; stroke-width: 3px;"/>
  <line x1="346.13" y1="107.7" x2="412.68" y2="106.88" style="fill: none; stroke: #6cbf84; stroke-linecap: round; stroke-width: 3px;"/>
  <rect x="466.07" y="56.29" width="166.92" height="100.15" rx="5.56" ry="5.56" style="fill: #fff; stroke: #a3b1c6; stroke-width: 2px;"/>
  <rect x="466.07" y="56.29" width="166.92" height="16.69" rx="5.56" ry="5.56" style="fill: #e0e4e8;"/>
  <circle cx="477.2" cy="64.08" r="4.45" style="fill: #ff5f56;"/>
  <circle cx="488.33" cy="64.08" r="4.45" style="fill: #ffbd2e;"/>
  <circle cx="499.46" cy="64.08" r="4.45" style="fill: #27c93f;"/>
  <path d="M515.04,59.63h102.38c2.46,0,4.45,1.99,4.45,4.45h0c0,2.46-1.99,4.45-4.45,4.45h-102.38c-2.46,0-4.45-1.99-4.45-4.45h0c0-2.46,1.99-4.45,4.45-4.45Z" style="fill: #fff; stroke: #c0c7d0;"/>
  <g>
    <path d="M61.07,75.65l29.36,16.95v38l-29.36,16.95-29.36-16.95v-37.99l29.36-16.95m0-4.95l-2.15,1.24-29.36,16.95-2.15,1.24v42.95l2.15,1.24,29.36,16.95,2.15,1.24,2.15-1.24,29.36-16.95,2.15-1.24v-42.95l-2.15-1.24-29.36-16.96-2.15-1.24h0Z" style="fill: #fac03d;"/>
    <path d="M99.89,74.6s-1.11,1.82-4.36,1.82c-.85,0-1.85-.13-3.01-.44-3.18-.78-5.41-1.38-8.8-1.34-5.77,0-11.04,3.37-13.33,8.23-2.18-.41-4.45-.63-6.82-.63-1.07,0-2.18,.04-3.28,.13-1,.06-9.02,.68-17.19,6.2-5.95-1.93-9.84-5.93-11.65-12-1.86,6.25-5.92,10.3-12.17,12.17,6.25,1.86,10.57,6.5,12.1,12.72,0,0,0,0,.01,0-4.01,7.6-4.02,16.66,.09,24.07,4.77,8.61,14.22,13.55,25.92,13.55,2.65,0,5.45-.25,8.31-.74,14.95-2.57,21.63-9.83,24.61-15.47,5.05-9.58,2.79-19.98,.66-24.61-.08-.17-.17-.34-.26-.52,3.19-1.66,6.95-4.58,8.91-9.54,0,0-2,1.16-3.38,1.34,0,0,5.57-7.21,3.65-14.93h0s0,0,0,0Z" style="fill: #231815;"/>
    <path d="M65.23,134.47c-2.71,.47-5.26,.68-7.64,.68-15.29,0-23.65-9.01-24.89-19,2.33-.59,10.95-3,20.39-8.44,0,0,.63-1.83,.89-5.27,0,0,6.96,9.33,2.83,25.97,0,0,7.23-3.05,10.33-12.33,.89-.71,2.91-1.98,4.85-.7,1.24,.81,1.72,2.77,1.13,4.64-.78,2.44-3.02,3.83-6.02,3.73l-.08,2.4c.14,0,.27,0,.4,0,.81,0,1.54-.09,2.23-.24,.73,1.89,2.48,4.42,5.6,5.62-2.81,1.26-6.12,2.26-10.02,2.93h-.01s0,0,0,0Z" style="fill: #fbe9ec;"/>
    <path d="M87.56,100.43c2.9,6.32,4.63,21.44-8.81,29.75-4.51-.18-6.23-3.4-6.74-4.7,1.78-1.05,2.89-2.66,3.39-4.24,.93-2.93,.06-5.95-2.09-7.37-1.85-1.21-3.75-1.09-5.34-.5,.49-2.55,.69-5.47,.42-8.81,0,0-1.78,10.91-7.77,17.3,0,0,1.98-17.85-8.47-23.58,0,0-.27,4.18-1.4,8.04,0,0-6.29,3.68-18.27,6.63,.17-3.66,1.35-7.23,3.41-10.52,9.28-14.87,24.85-15.57,24.85-15.57,1.03-.08,2.04-.12,3.02-.12,2.02,0,3.92,.18,5.7,.49-.86,6.9,4.34,12.85,11.74,13.37,.34,.03,.68,.04,1.01,.04,1.09,0,2.16-.12,3.2-.35s.71-.13,1.83-.49c.11,.21,.23,.43,.33,.64h0s0-.01,0-.01Z" style="fill: #fac03d;"/>
    <path d="M88.75,92.66l2.65,.24c-2.18,1.53-4.42,2.27-5.61,2.59l-1.09,.24c-.78,.17-1.56,.26-2.33,.26-.24,0-.49,0-.73-.03-2.63-.18-4.91-1.31-6.4-3.17-1.32-1.64-1.87-3.7-1.56-5.82,.69-4.66,5.15-8.26,10.28-8.31,2.95-.03,5.74,.77,7.84,1.2,1.44,.29,2.79,.58,4.07,.58,.14,0,.28,0,.42,0-1.08,6.32-7.52,12.23-7.52,12.23h0Z" style="fill: #fac03d;"/>
    <path d="M91.8,79.85c-2.1-.43-4.9-1.23-7.84-1.2-5.14,.04-9.6,3.65-10.28,8.31-.31,2.11,.24,4.18,1.56,5.82,1.49,1.86,3.77,2.98,6.4,3.17h.11c-1.13-.31-3.98-1.37-5.34-4.57-2.05-4.84,1.21-11.85,11.27-10.77,5.3,.57,7.62,.28,8.6-.15,0-.01,0-.03,0-.04-.14,0-.27,0-.42,0-1.28,0-2.62-.28-4.07-.58h0Z" style="fill: #fff;"/>
    <path d="M56.22,121.25c.69,.99-.23,2.83-2.07,4.1-1.83,1.27-3.88,1.5-4.57,.51-.69-.99,.23-2.83,2.07-4.1,1.83-1.28,3.88-1.5,4.57-.51Z" style="fill: #ed7a95;"/>
    <path d="M53.62,112.4c.7,4.09-2.61,8.49-7.39,9.83-4.17,1.17-8.07-.38-9.47-3.5l16.51-7.56c.15,.39,.27,.79,.35,1.22h0s0,0,0,0Z" style="fill: #231815;"/>
    <path d="M48.65,115.39s.33,2.13-1.86,4.55c0,0,3.98-1.24,4.23-5.63l-2.37,1.08h0Z" style="fill: #fff;"/>
    <path d="M31.46,94.63c-.9-3.03-2.86-4.99-5.89-5.89,3.03-.9,4.99-2.86,5.89-5.89,.9,3.03,2.86,4.99,5.89,5.89-3.03,.9-4.99,2.86-5.89,5.89Z" style="fill: #fac03d;"/>
    <path d="M52.14,98.28s-1.7,4.92-2.74,6.3c0,0-7.31,3.01-12.14,3.98,0,0,4.25-21.64,32.14-20.82,.01-.2,.03-.32,.05-.52-1.79-.31-3.77-.59-5.79-.59-.98,0-1.98,.04-3.02,.12,0,0-15.57,.7-24.85,15.57-2.05,3.29-3.15,6.95-3.32,10.61,.37-.09,4.11-1.03,8.31-2.42,8.46-3.04,9.96-4.21,9.96-4.21,1.13-3.86,1.4-8.04,1.4-8.04" style="fill: #fff;"/>
  </g>
  <g>
    <path d="M13.07,247.29c0,1.15-.21,2.17-.63,3.06-.42,.89-1.04,1.58-1.87,2.07s-1.84,.74-3.04,.74c-1.27,0-2.41-.32-3.4-.96-1-.63-1.77-1.53-2.32-2.67-.55-1.15-.83-2.46-.83-3.95s.28-2.8,.83-3.95c.55-1.15,1.33-2.04,2.32-2.67,1-.63,2.14-.95,3.42-.95s2.47,.31,3.37,.93c.9,.62,1.51,1.46,1.82,2.51l-1.94,.94c-.49-1.61-1.59-2.41-3.29-2.41-.82,0-1.54,.23-2.16,.7-.62,.47-1.11,1.13-1.46,1.98-.35,.85-.52,1.83-.52,2.94s.17,2.13,.51,2.98c.34,.85,.83,1.5,1.46,1.95,.63,.46,1.37,.68,2.21,.68,2.26,0,3.38-1.34,3.38-4.01h-2.93v-2.02h5.09v2.12Z" style="fill: #606060;"/>
    <path d="M25.24,250.42c0,1.09,.02,1.93,.07,2.5h-1.98c-.04-.24-.07-.83-.09-1.78-.4,.65-.9,1.15-1.5,1.49-.61,.35-1.31,.52-2.1,.52-.84,0-1.61-.24-2.3-.71-.7-.47-1.25-1.14-1.65-2-.4-.86-.6-1.84-.6-2.94s.2-2.09,.6-2.94,.95-1.52,1.65-2,1.46-.71,2.3-.71c.79,0,1.49,.17,2.1,.52,.61,.35,1.11,.85,1.5,1.49,.02-.92,.05-1.52,.09-1.78h1.98c-.05,.58-.07,1.41-.07,2.5v5.83Zm-2.21-2.92c0-.77-.12-1.45-.36-2.04-.24-.59-.58-1.04-1.01-1.37-.43-.32-.93-.49-1.49-.49s-1.04,.16-1.48,.49-.77,.78-1.02,1.37-.37,1.27-.37,2.04,.12,1.45,.37,2.03,.58,1.04,1.02,1.37c.43,.32,.92,.48,1.48,.48s1.06-.16,1.49-.48c.43-.32,.77-.78,1.01-1.37,.24-.59,.36-1.27,.36-2.03Z" style="fill: #606060;"/>
    <path d="M43.16,245.42v7.51h-2.2v-7.15c0-1.38-.65-2.07-1.94-2.07-.73,0-1.32,.26-1.76,.77s-.66,1.19-.66,2.03v6.43h-2.2v-7.15c0-1.38-.65-2.07-1.96-2.07-.73,0-1.31,.25-1.75,.76-.43,.5-.65,1.18-.65,2.04v6.43h-2.2v-8.33c0-.95-.03-1.78-.09-2.5h1.94c.05,.31,.09,.85,.13,1.6,.72-1.22,1.85-1.84,3.4-1.84,.73,0,1.36,.16,1.89,.48,.53,.32,.91,.78,1.15,1.38,.73-1.24,1.9-1.85,3.51-1.85,1.06,0,1.88,.31,2.48,.95,.59,.63,.89,1.5,.89,2.62Z" style="fill: #606060;"/>
    <path d="M55.03,248.06h-7.47c.06,1.07,.36,1.89,.89,2.47,.53,.58,1.24,.86,2.12,.86,.65,0,1.16-.14,1.54-.41,.38-.28,.67-.69,.89-1.24l1.84,.86c-.7,1.7-2.11,2.56-4.25,2.56-1.07,0-2-.24-2.79-.71-.79-.47-1.4-1.14-1.83-1.99-.43-.85-.64-1.84-.64-2.95s.21-2.09,.64-2.94c.43-.86,1.01-1.52,1.76-2,.75-.47,1.59-.71,2.51-.71,.98,0,1.84,.23,2.56,.69,.73,.46,1.28,1.12,1.67,1.97,.39,.85,.58,1.84,.58,2.97,0,.19-.01,.38-.04,.57Zm-7.43-1.62h5.24c-.1-.92-.37-1.62-.81-2.11-.44-.48-1.04-.72-1.8-.72-.7,0-1.28,.25-1.75,.74-.47,.49-.76,1.19-.88,2.09Z" style="fill: #606060;"/>
    <path d="M65,240.25v3.96h6.01v2.02h-6.01v4.7h6.43v2h-8.78v-14.69h8.78v2.02h-6.43Z" style="fill: #606060;"/>
    <path d="M83.39,245.77v7.15h-2.2v-6.8c0-1.61-.76-2.41-2.27-2.41-.86,0-1.55,.29-2.05,.87-.5,.57-.76,1.36-.76,2.34v6.01h-2.21v-8.33c0-1.09-.02-1.93-.07-2.5h1.94c.07,.44,.11,1.03,.13,1.76,.79-1.33,2.06-2,3.8-2,1.15,0,2.06,.34,2.71,1.03,.65,.68,.98,1.65,.98,2.9Z" style="fill: #606060;"/>
    <path d="M95.56,242.09c-.05,.58-.07,1.41-.07,2.5v7.78c0,1.5-.44,2.67-1.31,3.52s-2.12,1.27-3.74,1.27c-1.34,0-2.42-.22-3.23-.66s-1.34-1.07-1.59-1.9l1.76-.81c.18,.5,.52,.9,1.01,1.18,.49,.28,1.13,.42,1.93,.42,.98,0,1.73-.25,2.23-.75s.76-1.25,.76-2.24v-1.17c-.38,.54-.85,.96-1.41,1.25-.56,.29-1.19,.44-1.9,.44-.83,0-1.58-.23-2.27-.69-.68-.46-1.22-1.11-1.61-1.95-.39-.84-.58-1.8-.58-2.88s.2-2.04,.58-2.89c.39-.85,.93-1.5,1.61-1.96,.68-.46,1.44-.69,2.27-.69,.77,0,1.45,.17,2.04,.51,.59,.34,1.08,.83,1.45,1.47,.01-.41,.04-.78,.07-1.12,.04-.34,.05-.55,.05-.62h1.96Zm-2.27,5.31c0-.76-.12-1.42-.35-1.99s-.56-1.01-.99-1.32-.91-.47-1.45-.47-1.02,.16-1.44,.47c-.42,.31-.75,.75-.98,1.32-.23,.57-.35,1.23-.35,1.99s.12,1.4,.35,1.97c.23,.57,.56,1.01,.98,1.32,.42,.31,.9,.47,1.44,.47s1.02-.16,1.45-.47,.76-.75,.99-1.32,.35-1.23,.35-1.97Z" style="fill: #606060;"/>
    <path d="M99.38,237.98c.41,0,.73,.12,.98,.37,.25,.25,.37,.58,.37,1s-.12,.73-.36,.98-.57,.37-.99,.37-.75-.12-1-.37c-.25-.25-.37-.57-.37-.98s.13-.75,.38-1c.25-.24,.58-.37,.99-.37Zm1.1,4.1v10.84h-2.21v-10.84h2.21Z" style="fill: #606060;"/>
    <path d="M112.73,245.77v7.15h-2.2v-6.8c0-1.61-.76-2.41-2.27-2.41-.86,0-1.55,.29-2.05,.87-.5,.57-.76,1.36-.76,2.34v6.01h-2.21v-8.33c0-1.09-.02-1.93-.07-2.5h1.94c.07,.44,.11,1.03,.13,1.76,.79-1.33,2.06-2,3.8-2,1.15,0,2.06,.34,2.71,1.03,.65,.68,.98,1.65,.98,2.9Z" style="fill: #606060;"/>
    <path d="M124.56,248.06h-7.47c.06,1.07,.36,1.89,.89,2.47,.53,.58,1.24,.86,2.12,.86,.65,0,1.16-.14,1.54-.41,.38-.28,.67-.69,.89-1.24l1.84,.86c-.7,1.7-2.11,2.56-4.25,2.56-1.07,0-2-.24-2.79-.71-.79-.47-1.4-1.14-1.83-1.99-.43-.85-.64-1.84-.64-2.95s.21-2.09,.64-2.94c.43-.86,1.01-1.52,1.76-2,.75-.47,1.59-.71,2.51-.71,.98,0,1.84,.23,2.56,.69,.73,.46,1.28,1.12,1.67,1.97,.39,.85,.58,1.84,.58,2.97,0,.19-.01,.38-.04,.57Zm-7.43-1.62h5.24c-.1-.92-.37-1.62-.81-2.11-.44-.48-1.04-.72-1.8-.72-.7,0-1.28,.25-1.75,.74-.47,.49-.76,1.19-.88,2.09Z" style="fill: #606060;"/>
  </g>
  <g>
    <path d="M529.07,200.3l-3.83,14.69h-2.45l-3.06-11.75-3.06,11.75h-2.45l-3.83-14.69h2.48l2.68,11.84,3.02-11.84h2.41l3.02,11.84,2.68-11.84h2.38Z" style="fill: #606060;"/>
    <path d="M540.1,210.13h-7.47c.06,1.07,.36,1.89,.89,2.47,.53,.58,1.24,.86,2.12,.86,.65,0,1.16-.14,1.54-.41,.38-.28,.67-.69,.89-1.24l1.84,.86c-.7,1.7-2.11,2.56-4.25,2.56-1.07,0-2-.24-2.79-.71-.79-.47-1.4-1.14-1.83-1.99-.43-.85-.64-1.84-.64-2.95s.21-2.08,.64-2.94c.43-.86,1.01-1.52,1.76-2,.75-.47,1.59-.71,2.51-.71,.98,0,1.84,.23,2.57,.69,.73,.46,1.28,1.12,1.67,1.97,.39,.85,.58,1.84,.58,2.97,0,.19-.01,.38-.04,.58Zm-7.43-1.62h5.24c-.1-.92-.37-1.63-.81-2.11-.44-.48-1.04-.72-1.8-.72-.7,0-1.28,.25-1.75,.74-.47,.49-.76,1.19-.88,2.09Z" style="fill: #606060;"/>
    <path d="M552.49,209.57c0,1.1-.2,2.08-.6,2.94-.4,.86-.95,1.52-1.65,2-.7,.47-1.47,.71-2.32,.71-.79,0-1.49-.17-2.1-.51-.61-.34-1.1-.83-1.49-1.47-.01,.76-.05,1.34-.13,1.75h-1.94c.06-.72,.09-1.55,.09-2.5v-12.82h2.2v5.92c.4-.54,.88-.95,1.44-1.24,.56-.29,1.21-.43,1.93-.43,.85,0,1.63,.24,2.32,.71,.7,.47,1.25,1.14,1.65,2,.4,.86,.6,1.84,.6,2.94Zm-2.23,0c0-.77-.12-1.45-.36-2.03s-.58-1.04-1.01-1.37c-.43-.32-.93-.49-1.49-.49s-1.06,.16-1.49,.49c-.43,.32-.76,.78-1,1.37s-.36,1.27-.36,2.03,.12,1.45,.36,2.03,.57,1.04,1,1.37c.43,.32,.92,.49,1.49,.49s1.06-.16,1.49-.49c.43-.32,.77-.78,1.01-1.37s.36-1.27,.36-2.03Z" style="fill: #606060;"/>
    <path d="M562.55,200.3v14.69h-2.38v-14.69h2.38Z" style="fill: #606060;"/>
    <path d="M577.33,207.65c0,1.48-.26,2.77-.79,3.87-.53,1.1-1.28,1.96-2.27,2.56-.98,.61-2.14,.91-3.46,.91h-5.33v-14.69h5.33c1.32,0,2.47,.3,3.46,.91,.98,.61,1.74,1.46,2.27,2.57,.53,1.11,.79,2.4,.79,3.86Zm-2.38,0c0-1.63-.4-2.93-1.2-3.89s-1.92-1.44-3.36-1.44h-2.56v10.67h2.56c1.44,0,2.56-.48,3.36-1.45,.8-.97,1.2-2.26,1.2-3.9Z" style="fill: #606060;"/>
    <path d="M582.09,202.32v3.96h6.01v2.02h-6.01v4.7h6.43v2h-8.78v-14.69h8.78v2.02h-6.43Z" style="fill: #606060;"/>
  </g>
  <g>
    <path d="M223.76,164.23v2h-8.57v-14.69h2.36v12.69h6.21Z" style="fill: #606060;"/>
    <path d="M230.46,155.16c.97,0,1.84,.24,2.61,.71,.77,.47,1.37,1.14,1.8,2,.43,.86,.65,1.84,.65,2.94s-.22,2.1-.65,2.95c-.43,.85-1.03,1.51-1.8,1.99-.77,.47-1.64,.71-2.61,.71s-1.86-.24-2.63-.71c-.77-.47-1.37-1.14-1.8-1.99-.43-.85-.65-1.84-.65-2.95s.22-2.08,.65-2.94c.43-.86,1.03-1.52,1.8-2,.77-.47,1.64-.71,2.63-.71Zm0,1.76c-.56,0-1.06,.16-1.49,.49-.43,.32-.77,.78-1.01,1.37-.24,.59-.36,1.27-.36,2.03s.12,1.45,.36,2.03c.24,.59,.58,1.04,1.01,1.37,.43,.32,.93,.49,1.49,.49s1.06-.16,1.48-.49c.43-.32,.76-.78,1-1.37s.36-1.27,.36-2.03-.12-1.45-.36-2.03-.57-1.04-1-1.37c-.43-.32-.92-.49-1.48-.49Z" style="fill: #606060;"/>
    <path d="M242.32,155.16c1.09,0,1.98,.23,2.67,.7,.69,.47,1.14,1.07,1.34,1.82l-1.87,.88c-.28-1.03-.98-1.55-2.11-1.55-.86,0-1.56,.34-2.08,1.03-.52,.68-.78,1.61-.78,2.77s.26,2.07,.78,2.76c.52,.69,1.22,1.04,2.08,1.04,1.13,0,1.83-.51,2.11-1.53l1.87,.86c-.2,.74-.65,1.35-1.34,1.82-.69,.47-1.58,.7-2.67,.7-.97,0-1.84-.24-2.6-.71-.76-.47-1.36-1.14-1.79-1.99-.43-.85-.65-1.84-.65-2.95s.22-2.08,.65-2.94c.43-.86,1.03-1.52,1.79-2,.76-.47,1.63-.71,2.6-.71Z" style="fill: #606060;"/>
    <path d="M258.03,163.73c0,1.09,.02,1.93,.07,2.5h-1.98c-.04-.24-.07-.83-.09-1.78-.4,.65-.9,1.15-1.5,1.49-.61,.35-1.31,.52-2.1,.52-.84,0-1.61-.24-2.3-.71-.7-.47-1.25-1.14-1.65-2-.4-.86-.6-1.84-.6-2.94s.2-2.08,.6-2.94c.4-.86,.95-1.52,1.65-2,.7-.47,1.46-.71,2.3-.71,.79,0,1.49,.17,2.1,.52,.61,.35,1.11,.85,1.5,1.49,.02-.92,.05-1.52,.09-1.78h1.98c-.05,.58-.07,1.41-.07,2.5v5.83Zm-2.21-2.92c0-.77-.12-1.45-.36-2.03-.24-.59-.58-1.04-1.01-1.37-.43-.32-.93-.49-1.49-.49s-1.04,.16-1.48,.49c-.43,.32-.77,.78-1.02,1.37s-.37,1.27-.37,2.03,.12,1.45,.37,2.03,.58,1.04,1.02,1.37c.43,.32,.92,.49,1.48,.49s1.06-.16,1.49-.49c.43-.32,.77-.78,1.01-1.37,.24-.59,.36-1.27,.36-2.03Z" style="fill: #606060;"/>
    <path d="M262.98,150.91v15.32h-2.21v-15.32h2.21Z" style="fill: #606060;"/>
    <path d="M282.73,151.55v14.69h-2.11l-7.34-10.94v10.94h-2.14v-14.69h2.52l6.93,10.37v-10.37h2.14Z" style="fill: #606060;"/>
    <path d="M294.7,161.37h-7.47c.06,1.07,.36,1.89,.89,2.47,.53,.58,1.24,.86,2.12,.86,.65,0,1.16-.14,1.54-.41,.38-.28,.67-.69,.89-1.24l1.84,.86c-.7,1.7-2.11,2.56-4.25,2.56-1.07,0-2-.24-2.79-.71-.79-.47-1.4-1.14-1.83-1.99-.43-.85-.64-1.84-.64-2.95s.21-2.08,.64-2.94c.43-.86,1.01-1.52,1.76-2,.75-.47,1.59-.71,2.51-.71,.98,0,1.84,.23,2.57,.69,.73,.46,1.28,1.12,1.67,1.97,.39,.85,.58,1.84,.58,2.97,0,.19-.01,.38-.04,.58Zm-7.43-1.62h5.24c-.1-.92-.37-1.63-.81-2.11-.44-.48-1.04-.72-1.8-.72-.7,0-1.28,.25-1.75,.74-.47,.49-.76,1.19-.88,2.09Z" style="fill: #606060;"/>
    <path d="M300.01,157.16v5.99c0,.97,.48,1.46,1.44,1.46,.43,0,.79-.05,1.08-.14v1.75c-.48,.17-1,.25-1.55,.25-.98,0-1.76-.29-2.33-.86-.57-.57-.86-1.35-.86-2.35v-6.1h-1.57v-1.76h1.57v-2.63h2.21v2.63h2.52v1.76h-2.52Z" style="fill: #606060;"/>
    <path d="M319.59,155.4l-2.97,10.84h-2.52l-2.38-8.8-2.39,8.8h-2.52l-2.95-10.84h2.25l2,8.78,2.39-8.78h2.56l2.39,8.78,2-8.78h2.14Z" style="fill: #606060;"/>
    <path d="M326.12,155.16c.97,0,1.84,.24,2.61,.71,.77,.47,1.37,1.14,1.8,2,.43,.86,.65,1.84,.65,2.94s-.22,2.1-.65,2.95c-.43,.85-1.03,1.51-1.8,1.99-.77,.47-1.64,.71-2.61,.71s-1.86-.24-2.63-.71c-.77-.47-1.37-1.14-1.8-1.99-.43-.85-.65-1.84-.65-2.95s.22-2.08,.65-2.94c.43-.86,1.03-1.52,1.8-2,.77-.47,1.64-.71,2.63-.71Zm0,1.76c-.56,0-1.06,.16-1.49,.49-.43,.32-.77,.78-1.01,1.37s-.36,1.27-.36,2.03,.12,1.45,.36,2.03,.58,1.04,1.01,1.37c.43,.32,.93,.49,1.49,.49s1.06-.16,1.49-.49c.43-.32,.76-.78,1-1.37,.24-.59,.36-1.27,.36-2.03s-.12-1.45-.36-2.03c-.24-.59-.57-1.04-1-1.37-.43-.32-.92-.49-1.49-.49Z" style="fill: #606060;"/>
    <path d="M339.05,155.25v1.98c-.18-.04-.42-.05-.72-.05-.83,0-1.49,.26-1.99,.79-.5,.53-.75,1.28-.75,2.25v6.01h-2.2v-8.33c0-.95-.03-1.78-.09-2.5h1.91c.06,.42,.1,1.02,.11,1.8,.32-.66,.76-1.16,1.3-1.51s1.15-.52,1.82-.52c.29,0,.49,.03,.61,.09Z" style="fill: #606060;"/>
    <path d="M347.44,166.23l-4.21-5.35v5.35h-2.21v-15.32h2.21v9.27l3.98-4.79h2.68l-4.41,5.15,4.79,5.69h-2.83Z" style="fill: #606060;"/>
  </g>
</svg>