<?xml version="1.0" encoding="UTF-8"?>
<svg id="_图层_1" data-name="图层 1" xmlns="http://www.w3.org/2000/svg" viewBox="0 0 648.42 259.37">
  <rect x="1.5" y="1.5" width="111.28" height="222.56" rx="16.69" ry="16.69" style="fill: #f0f4f8; stroke: #a3b1c6; stroke-width: 3px;"/>
  <rect x="40.45" y="212.93" width="33.38" height="5.56" style="fill: #a3b1c6;"/>
  <rect x="446.62" y="40.46" width="200.3" height="133.54" rx="11.13" ry="11.13" style="fill: #f0f4f8; stroke: #a3b1c6; stroke-width: 3px;"/>
  <rect x="480" y="174" width="133.54" height="11.13" style="fill: #a3b1c6;"/>
  <g>
    <path d="M263.52,131.97c10.27-15.41,20.54-15.41,30.81,0" style="fill: none; stroke: #6cbf84; stroke-linecap: round; stroke-width: 3px;"/>
    <path d="M248.11,116.56c20.54-25.68,41.08-25.68,61.62,0" style="fill: none; stroke: #6cbf84; stroke-linecap: round; stroke-width: 3px;"/>
    <path d="M232.71,101.15c30.81-35.95,61.62-35.95,92.44,0" style="fill: none; stroke: #6cbf84; stroke-linecap: round; stroke-width: 3px;"/>
  </g>
  <polygon points="412.25 98.77 434.6 106.29 412.44 114.35 412.25 98.77" style="fill: #6cbf84;"/>
  <polygon points="144.93 118.05 122.75 110.05 145.08 102.47 144.93 118.05" style="fill: #6cbf84;"/>
  <line x1="148.64" y1="110.55" x2="215.18" y2="109.73" style="fill: none; stroke: #6cbf84; stroke-linecap: round; stroke-width: 3px;"/>
  <line x1="342.66" y1="107.7" x2="409.21" y2="106.88" style="fill: none; stroke: #6cbf84; stroke-linecap: round; stroke-width: 3px;"/>
  <rect x="462.6" y="56.29" width="166.92" height="100.15" rx="5.56" ry="5.56" style="fill: #fff; stroke: #a3b1c6; stroke-width: 2px;"/>
  <rect x="462.6" y="56.29" width="166.92" height="16.69" rx="5.56" ry="5.56" style="fill: #e0e4e8;"/>
  <circle cx="473.73" cy="64.08" r="4.45" style="fill: #ff5f56;"/>
  <circle cx="484.85" cy="64.08" r="4.45" style="fill: #ffbd2e;"/>
  <circle cx="495.98" cy="64.08" r="4.45" style="fill: #27c93f;"/>
  <path d="M511.56,59.63h102.38c2.46,0,4.45,1.99,4.45,4.45h0c0,2.46-1.99,4.45-4.45,4.45h-102.38c-2.46,0-4.45-1.99-4.45-4.45h0c0-2.46,1.99-4.45,4.45-4.45Z" style="fill: #fff; stroke: #c0c7d0;"/>
  <g>
    <path d="M57.59,75.65l29.36,16.95v38l-29.36,16.95-29.36-16.95v-37.99l29.36-16.95m0-4.95l-2.15,1.24-29.36,16.95-2.15,1.24v42.95l2.15,1.24,29.36,16.95,2.15,1.24,2.15-1.24,29.36-16.95,2.15-1.24v-42.95l-2.15-1.24-29.36-16.96-2.15-1.24h0Z" style="fill: #fac03d;"/>
    <path d="M96.41,74.6s-1.11,1.82-4.36,1.82c-.85,0-1.85-.13-3.01-.44-3.18-.78-5.41-1.38-8.8-1.34-5.77,0-11.04,3.37-13.33,8.23-2.18-.41-4.45-.63-6.82-.63-1.07,0-2.18,.04-3.28,.13-1,.06-9.02,.68-17.19,6.2-5.95-1.93-9.84-5.93-11.65-12-1.86,6.25-5.92,10.3-12.17,12.17,6.25,1.86,10.57,6.5,12.1,12.72,0,0,0,0,.01,0-4.01,7.6-4.02,16.66,.09,24.07,4.77,8.61,14.22,13.55,25.92,13.55,2.65,0,5.45-.25,8.31-.74,14.95-2.57,21.63-9.83,24.61-15.47,5.05-9.58,2.79-19.98,.66-24.61-.08-.17-.17-.34-.26-.52,3.19-1.66,6.95-4.58,8.91-9.54,0,0-2,1.16-3.38,1.34,0,0,5.57-7.21,3.65-14.93h0s0,0,0,0Z" style="fill: #231815;"/>
    <path d="M61.76,134.47c-2.71,.47-5.26,.68-7.64,.68-15.29,0-23.65-9.01-24.89-19,2.33-.59,10.95-3,20.39-8.44,0,0,.63-1.83,.89-5.27,0,0,6.96,9.33,2.83,25.97,0,0,7.23-3.05,10.33-12.33,.89-.71,2.91-1.98,4.85-.7,1.24,.81,1.72,2.77,1.13,4.64-.78,2.44-3.02,3.83-6.02,3.73l-.08,2.4c.14,0,.27,0,.4,0,.81,0,1.54-.09,2.23-.24,.73,1.89,2.48,4.42,5.6,5.62-2.81,1.26-6.12,2.26-10.02,2.93h-.01s0,0,0,0Z" style="fill: #fbe9ec;"/>
    <path d="M84.08,100.43c2.9,6.32,4.63,21.44-8.81,29.75-4.51-.18-6.23-3.4-6.74-4.7,1.78-1.05,2.89-2.66,3.39-4.24,.93-2.93,.06-5.95-2.09-7.37-1.85-1.21-3.75-1.09-5.34-.5,.49-2.55,.69-5.47,.42-8.81,0,0-1.78,10.91-7.77,17.3,0,0,1.98-17.85-8.47-23.58,0,0-.27,4.18-1.4,8.04,0,0-6.29,3.68-18.27,6.63,.17-3.66,1.35-7.23,3.41-10.52,9.28-14.87,24.85-15.57,24.85-15.57,1.03-.08,2.04-.12,3.02-.12,2.02,0,3.92,.18,5.7,.49-.86,6.9,4.34,12.85,11.74,13.37,.34,.03,.68,.04,1.01,.04,1.09,0,2.16-.12,3.2-.35s.71-.13,1.83-.49c.11,.21,.23,.43,.33,.64h0s0-.01,0-.01Z" style="fill: #fac03d;"/>
    <path d="M85.27,92.66l2.65,.24c-2.18,1.53-4.42,2.27-5.61,2.59l-1.09,.24c-.78,.17-1.56,.26-2.33,.26-.24,0-.49,0-.73-.03-2.63-.18-4.91-1.31-6.4-3.17-1.32-1.64-1.87-3.7-1.56-5.82,.69-4.66,5.15-8.26,10.28-8.31,2.95-.03,5.74,.77,7.84,1.2,1.44,.29,2.79,.58,4.07,.58,.14,0,.28,0,.42,0-1.08,6.32-7.52,12.23-7.52,12.23h0Z" style="fill: #fac03d;"/>
    <path d="M88.32,79.85c-2.1-.43-4.9-1.23-7.84-1.2-5.14,.04-9.6,3.65-10.28,8.31-.31,2.11,.24,4.18,1.56,5.82,1.49,1.86,3.77,2.98,6.4,3.17h.11c-1.13-.31-3.98-1.37-5.34-4.57-2.05-4.84,1.21-11.85,11.27-10.77,5.3,.57,7.62,.28,8.6-.15,0-.01,0-.03,0-.04-.14,0-.27,0-.42,0-1.28,0-2.62-.28-4.07-.58h0Z" style="fill: #fff;"/>
    <path d="M52.75,121.25c.69,.99-.23,2.83-2.07,4.1-1.83,1.27-3.88,1.5-4.57,.51-.69-.99,.23-2.83,2.07-4.1,1.83-1.28,3.88-1.5,4.57-.51Z" style="fill: #ed7a95;"/>
    <path d="M50.14,112.4c.7,4.09-2.61,8.49-7.39,9.83-4.17,1.17-8.07-.38-9.47-3.5l16.51-7.56c.15,.39,.27,.79,.35,1.22h0s0,0,0,0Z" style="fill: #231815;"/>
    <path d="M45.18,115.39s.33,2.13-1.86,4.55c0,0,3.98-1.24,4.23-5.63l-2.37,1.08h0Z" style="fill: #fff;"/>
    <path d="M27.99,94.63c-.9-3.03-2.86-4.99-5.89-5.89,3.03-.9,4.99-2.86,5.89-5.89,.9,3.03,2.86,4.99,5.89,5.89-3.03,.9-4.99,2.86-5.89,5.89Z" style="fill: #fac03d;"/>
    <path d="M48.66,98.28s-1.7,4.92-2.74,6.3c0,0-7.31,3.01-12.14,3.98,0,0,4.25-21.64,32.14-20.82,.01-.2,.03-.32,.05-.52-1.79-.31-3.77-.59-5.79-.59-.98,0-1.98,.04-3.02,.12,0,0-15.57,.7-24.85,15.57-2.05,3.29-3.15,6.95-3.32,10.61,.37-.09,4.11-1.03,8.31-2.42,8.46-3.04,9.96-4.21,9.96-4.21,1.13-3.86,1.4-8.04,1.4-8.04" style="fill: #fff;"/>
  </g>
  <g>
    <path d="M19.8,242.71c.37,.23,.88,.61,1.53,1.13,.62,.5,1.11,.92,1.46,1.24l-1.21,1.67c-.17-.18-.37-.38-.61-.59-.24-.22-.52-.45-.83-.7-.31-.26-.59-.49-.84-.67-.25-.19-.47-.34-.66-.48l1.15-1.6Zm-1.12,11.79c.18-.37,.38-.86,.58-1.46,.21-.6,.42-1.23,.62-1.88,.2-.65,.39-1.29,.55-1.91,.16-.62,.29-1.14,.37-1.56l1.91,.52c-.1,.46-.22,.99-.39,1.61s-.36,1.29-.58,2.01c-.23,.71-.44,1.34-.64,1.9-.2,.56-.39,1.05-.57,1.47l-1.85-.7Zm2.79-.11c.47-.68,.85-1.35,1.15-2,.3-.65,.52-1.28,.65-1.89,.13-.61,.24-1.33,.32-2.17,.08-.83,.14-1.8,.18-2.89l.07-2.52h-1.03v-1.6l-.9,1.19c-.14-.16-.32-.33-.54-.52-.22-.19-.46-.41-.74-.65-.28-.24-.53-.45-.77-.63-.23-.18-.44-.33-.6-.45l1.12-1.51c.18,.12,.39,.26,.62,.43s.49,.37,.77,.61c.29,.23,.54,.44,.76,.63,.22,.19,.41,.37,.57,.52l-.09,.11h2.12c-.06-.38-.13-.78-.22-1.18-.08-.4-.17-.79-.27-1.18l1.85-.27c.04,.14,.08,.32,.13,.51,.05,.2,.1,.41,.14,.65,.05,.23,.1,.48,.14,.73,.05,.25,.09,.5,.13,.74h1.69v1.31c.35-.65,.66-1.32,.94-2.01s.52-1.36,.71-2.01l1.82,.45c-.1,.28-.19,.55-.28,.81-.09,.26-.18,.52-.28,.77h3.58v1.96h-4.46c-.2,.42-.42,.82-.65,1.19h4.55v1.89c-.3,.35-.6,.67-.91,.98-.31,.31-.61,.6-.93,.87v.56h2.47v2h-2.47v3.24c0,.42-.04,.76-.11,1.01-.07,.25-.18,.45-.32,.6-.14,.15-.32,.26-.54,.32-.22,.07-.47,.12-.76,.15-.2,.02-.45,.04-.73,.06-.28,.02-.56,.02-.84,0l-.38-2.09c.36,.04,.76,.05,1.21,.05,.28,0,.46-.04,.54-.11,.08-.07,.13-.26,.13-.56v-2.7h-2.23v-2h2.23v-1.03c.22-.19,.44-.4,.68-.62s.48-.48,.75-.78h-2.93v-.92l-.29,.41-1.44-.99c.1-.16,.2-.31,.31-.48,.11-.16,.21-.33,.31-.51h-2.74l-.02,1.87h2.88c-.02,1.48-.05,2.83-.09,4.07-.04,1.24-.08,2.38-.14,3.44-.02,.52-.08,.94-.15,1.27-.08,.33-.19,.59-.33,.78-.14,.19-.32,.33-.52,.42-.2,.09-.45,.15-.74,.19-.47,.07-.94,.11-1.42,.11l-.4-2.18c.12,.02,.27,.04,.46,.04s.39,.01,.62,.03c.16,.01,.28,0,.37,0,.09-.02,.16-.07,.22-.17,.05-.1,.09-.25,.11-.45,.02-.2,.04-.49,.06-.86,.04-.66,.07-1.36,.1-2.11,.03-.74,.05-1.62,.06-2.63h-1.15c-.1,1.99-.3,3.55-.61,4.66-.37,1.33-1.01,2.66-1.91,3.98l-1.6-.99Z" style="fill: #606060;"/>
    <path d="M38.85,243.05c.25,.37,.54,.81,.87,1.31,.33,.5,.67,1.04,1.03,1.62,.23-.65,.42-1.29,.58-1.93s.3-1.28,.42-1.93h-4.36v-2.03h6.39v2.03c-.2,1.12-.44,2.18-.71,3.18s-.6,1.97-.98,2.91c.34,.56,.66,1.1,.96,1.62,.31,.52,.57,.98,.8,1.39l-1.69,1.13c-.16-.29-.33-.6-.51-.93s-.38-.67-.58-1.02c-.38,.73-.82,1.45-1.3,2.14-.48,.7-1.01,1.39-1.58,2.09l-1.67-1.37c.64-.72,1.24-1.51,1.81-2.37,.57-.86,1.06-1.75,1.48-2.67-.49-.83-.96-1.62-1.41-2.37-.45-.75-.83-1.37-1.12-1.84l1.57-.97Zm10.57-4.41c.18,.17,.38,.37,.6,.6,.22,.23,.46,.51,.73,.82,.28,.3,.51,.57,.71,.82,.2,.25,.36,.47,.5,.68l-.9,.77,2.03-.25,.2,1.93-5.56,.72c.07,.68,.15,1.31,.23,1.89,.08,.58,.18,1.12,.29,1.64,1.04-1.13,1.93-2.35,2.65-3.67l1.58,1.04c-.54,.95-1.11,1.82-1.7,2.63-.59,.8-1.23,1.55-1.92,2.23,.23,.64,.5,1.21,.81,1.71,.22,.36,.4,.6,.56,.72,.16,.12,.31,.18,.45,.18,.13,0,.25-.11,.35-.34,.1-.23,.2-.52,.3-.88,.06-.25,.12-.53,.18-.83,.06-.3,.11-.58,.14-.83l1.76,.9c-.04,.17-.07,.32-.1,.46-.03,.14-.06,.28-.1,.42-.04,.14-.08,.29-.12,.45s-.09,.34-.15,.56c-.23,.77-.53,1.35-.92,1.76-.38,.4-.83,.6-1.33,.6-.54,0-1.03-.16-1.46-.49-.43-.32-.89-.89-1.39-1.71-.12-.18-.23-.37-.33-.58-.1-.2-.2-.42-.3-.65-.54,.43-1.11,.85-1.72,1.24-.61,.4-1.25,.79-1.94,1.17l-1.1-1.66c.76-.42,1.47-.86,2.15-1.32,.68-.46,1.32-.96,1.93-1.48-.05-.16-.09-.31-.12-.45-.03-.14-.06-.3-.1-.47-.12-.54-.23-1.14-.32-1.81s-.19-1.39-.29-2.19l-1.89,.23-.22-1.98,1.94-.23c-.02-.16-.04-.31-.04-.47,0-.16-.02-.32-.03-.49-.1-1.45-.15-2.62-.16-3.51h2.09c-.01,.28,0,.72,.02,1.32,.02,.61,.06,1.39,.11,2.35,0,.1,0,.19,0,.28s0,.18,0,.28l2.7-.34c-.12-.17-.25-.35-.4-.56s-.31-.42-.5-.65c-.25-.31-.48-.59-.68-.83s-.39-.44-.56-.61l1.3-1.13Z" style="fill: #606060;"/>
    <path d="M64.57,239.11v5.85h-6.23l-.18,2.02h6.37c-.01,.6-.02,1.14-.04,1.62-.01,.48-.03,.94-.04,1.37-.02,.43-.04,.85-.06,1.24-.02,.4-.06,.8-.11,1.22-.05,.46-.12,.83-.22,1.12-.1,.29-.25,.53-.45,.7s-.48,.3-.83,.39c-.35,.08-.79,.15-1.33,.2-.56,.05-1.11,.08-1.65,.09-.53,.01-1.09,.01-1.67,0l-.41-2.07c.5,.04,.99,.06,1.45,.06,.46,0,.96,0,1.5,0,.31,0,.56-.01,.76-.04,.19-.03,.34-.09,.44-.17s.17-.2,.21-.34c.04-.14,.07-.33,.09-.56,.04-.37,.07-.8,.09-1.28,.02-.48,.04-1,.05-1.55h-6.39l.49-5.89h5.99v-2.05h-6.16v-1.93h8.32Zm5.17-.41v16.4h-2.16v-16.4h2.16Z" style="fill: #606060;"/>
    <path d="M72.33,243.73c.47-.38,.9-.81,1.3-1.28s.71-.91,.93-1.31l1.37,.52-.11,.22h5.78c.47-.58,.87-1.17,1.21-1.78,.34-.61,.63-1.2,.87-1.76l1.64,.5c-.1,.23-.19,.44-.29,.65-.1,.2-.19,.4-.29,.59h4.41v1.46h-.85c-.2,.53-.44,1.02-.71,1.47-.27,.45-.58,.86-.93,1.23,.73,.4,1.63,.72,2.68,.97l-.67,1.6c-.66-.22-1.26-.45-1.79-.7-.53-.25-1.02-.52-1.47-.81-.86,.58-1.97,1.08-3.33,1.51l-.63-1.28c-.06,.36-.18,.62-.36,.78-.18,.16-.5,.27-.97,.33-.17,.02-.36,.04-.58,.04s-.39,0-.52,0l-.2-1.33c.11,.01,.22,.02,.34,.03,.12,0,.24,0,.36,0,.19,0,.32-.04,.38-.11s.1-.22,.13-.43c.02-.24,.04-.5,.06-.79s.03-.64,.04-1.06h-5.08c-.16,.22-.32,.41-.49,.58h4.23v2.66h-4.66v-2.21c-.26,.26-.53,.49-.79,.68l-1.04-.97Zm8.03-5.2v.99h2.02v1.3h-2.02v.67h-1.75v-.67h-1.51v.58h-1.73v-.58h-2.16v-1.3h2.16v-.99h1.73v.99h1.51v-.99h1.75Zm.09,10.85v-.68c-1.26,.06-2.38,.09-3.37,.09s-1.84-.02-2.56-.05l-.25-1.37c.83,.04,1.77,.04,2.83,.03,1.06-.02,2.28-.06,3.66-.12,1.38-.06,2.6-.13,3.65-.22,1.06-.09,1.96-.18,2.72-.28l.36,1.39c-.68,.1-1.44,.18-2.28,.24-.83,.07-1.76,.13-2.78,.19v.79h4.95v1.26h-4.95v.81h6.59v1.37h-6.59v.41c0,.72-.15,1.22-.45,1.51-.3,.29-.74,.46-1.33,.52-.58,.06-1.06,.09-1.46,.1s-.81,0-1.24-.03l-.32-1.67c.34,.04,.67,.06,.99,.07s.69,.02,1.1,.02c.3-.01,.5-.05,.58-.13,.09-.07,.13-.26,.13-.56v-.25h-7.16v-1.37h7.16v-.81h-5.54v-1.26h5.54Zm-4.93-4.14h1.91v-.72h-1.91v.72Zm8.6-.97c-.47-.47-.85-.97-1.15-1.49l-.43,.5-.85-.74c-.02,.68-.05,1.25-.09,1.68-.04,.44-.07,.78-.09,1.04,.53-.13,1.01-.28,1.44-.45,.43-.17,.82-.35,1.17-.54Zm-.16-2.74c.35,.7,.82,1.3,1.4,1.82,.5-.5,.91-1.11,1.21-1.82h-2.61Z" style="fill: #606060;"/>
  </g>
  <g>
    <path d="M503.83,212.71c.2-.31,.41-.63,.61-.95,.2-.32,.4-.64,.59-.96l-1.35,.72c-.1-.28-.2-.57-.32-.88-.12-.31-.26-.64-.41-.99-.35,.67-.7,1.32-1.04,1.93-.35,.62-.71,1.21-1.08,1.79l-1.19-.81v3.35h-1.91v-16.06h14.63v13.52c0,1.39-.57,2.17-1.71,2.34-.17,.02-.36,.04-.58,.05-.22,.01-.46,.02-.7,.04s-.5,.02-.76,.02-.51,0-.74-.02l-.43-2.02c.28,.02,.62,.04,1.04,.05s.8,.01,1.16,0c.31-.02,.52-.08,.61-.17,.1-.09,.14-.3,.14-.62v-1.01l-1.24,.77c-.16-.43-.34-.9-.57-1.41-.22-.51-.49-1.07-.8-1.68-.35,.68-.72,1.36-1.11,2.03-.39,.67-.81,1.34-1.25,2.03l-1.58-1.06Zm-2.43-9.83c.43,.65,.94,1.49,1.51,2.54,.2-.49,.4-.98,.58-1.48,.19-.49,.36-.99,.53-1.49l1.75,.43c-.1,.25-.19,.5-.28,.76-.09,.25-.18,.5-.28,.76l1.19-.81c.36,.52,.78,1.19,1.26,2.02,.37-.94,.71-1.87,1.03-2.81l1.69,.5v-1.57h-10.75v10.01c.41-.65,.81-1.32,1.21-2.02,.4-.7,.77-1.42,1.13-2.18-.4-.83-.76-1.56-1.11-2.19-.34-.63-.66-1.17-.95-1.61l1.48-.86Zm2.57,4.57c.28,.58,.52,1.11,.75,1.59,.22,.49,.41,.93,.57,1.34,.26-.46,.51-.91,.75-1.36,.23-.45,.46-.9,.69-1.36-.31-.59-.61-1.12-.88-1.59s-.53-.9-.77-1.27c-.18,.46-.36,.91-.54,1.35-.18,.44-.37,.88-.56,1.3Zm4.79,.18c.35,.66,.65,1.27,.92,1.83s.5,1.08,.7,1.56v-7.6c-.24,.74-.49,1.46-.76,2.15-.26,.69-.55,1.38-.86,2.06Z" style="fill: #606060;"/>
    <path d="M514.94,214.15c1.43-.38,2.6-.78,3.53-1.18,.92-.4,1.66-.87,2.21-1.39,.41-.38,.71-.86,.9-1.42,.19-.56,.31-1.21,.34-1.93,.02-.38,.04-.74,.04-1.07s0-.65-.02-.96h2.09c.01,.23,.02,.53,0,.91,0,.38-.02,.79-.03,1.23-.02,.73-.1,1.39-.22,1.96,.44,.18,.92,.4,1.44,.65s1.08,.53,1.69,.85c.8,.42,1.56,.84,2.26,1.25s1.28,.77,1.74,1.07l-1.24,2.03c-.89-.68-2.12-1.48-3.71-2.38-.58-.32-1.11-.62-1.6-.87-.49-.26-.95-.48-1.37-.68-.14,.22-.32,.43-.52,.63-.38,.38-.8,.73-1.24,1.05-.44,.32-.93,.61-1.47,.87-.53,.26-1.12,.51-1.76,.74-.64,.23-1.35,.44-2.13,.65l-.94-2.02Zm6.39-10.69c.05-.12,.09-.25,.13-.38,.04-.13,.08-.28,.13-.45,.05-.17,.09-.33,.13-.49,.04-.16,.07-.31,.1-.45h-6.39v-1.98h15.12v1.98h-6.34c-.04,.16-.08,.31-.13,.48-.05,.16-.1,.33-.14,.51l-.23,.77h5.49v7.9h-2.12v-5.96h-8.15v6.05h-2.12v-7.99h4.54Z" style="fill: #606060;"/>
    <path d="M536.86,206.5v-4.48h-3.17v-1.94h14.65v1.94h-2.92v4.48h3.71v2h-3.71v7.33h-2.07v-7.33h-4.48c-.13,1.54-.37,2.75-.72,3.64-.26,.66-.67,1.34-1.22,2.04s-1.26,1.45-2.12,2.24l-1.57-1.55c1.57-1.32,2.57-2.52,2.99-3.6,.28-.71,.46-1.63,.54-2.77h-3.83v-2h3.92Zm2.09,0h4.41v-4.48h-4.41v4.48Z" style="fill: #606060;"/>
    <path d="M553.2,214.13c1.13-.34,2.14-.68,3.04-1.04,.9-.36,1.7-.73,2.39-1.12-.84-.84-1.57-1.78-2.18-2.83-1,2.05-2.5,4.13-4.52,6.23l-1.58-1.53c.97-.97,1.84-2,2.61-3.08,.77-1.08,1.4-2.2,1.91-3.37,.42-.96,.78-1.99,1.08-3.1h-4.05v-1.73c.16-.31,.31-.8,.47-1.48l.38-1.69,1.96,.31c-.12,.49-.24,.97-.35,1.42-.11,.46-.23,.89-.35,1.3h2.38c.11-.52,.2-1.04,.29-1.58s.16-1.1,.22-1.67l2.12,.09c-.14,1.14-.31,2.2-.49,3.17h8.37v1.87h-8.78c-.12,.55-.26,1.1-.43,1.64h7.54v1.87c-.47,.86-.96,1.64-1.48,2.34-.52,.7-1.06,1.31-1.64,1.85,1.38,.84,3.08,1.55,5.11,2.12l-.86,2.11c-1.26-.42-2.39-.87-3.39-1.34-1-.47-1.89-.98-2.67-1.52-.76,.46-1.64,.91-2.66,1.36-1.02,.45-2.2,.9-3.53,1.36l-.9-1.96Zm4.81-6.28c.34,.58,.7,1.11,1.1,1.59,.4,.49,.82,.93,1.28,1.34,.54-.43,1.02-.89,1.43-1.38,.41-.49,.77-1,1.07-1.56h-4.88Zm3.8-9.04c.2,.1,.44,.21,.72,.35,.28,.14,.58,.31,.92,.51,.34,.19,.63,.37,.89,.53,.26,.16,.48,.31,.66,.44l-1.01,1.73c-.19-.14-.42-.3-.68-.47s-.56-.35-.9-.56c-.34-.2-.64-.38-.9-.53-.26-.15-.5-.27-.7-.37l1.01-1.64Z" style="fill: #606060;"/>
    <path d="M571.28,205.76v-3.46h-2.03v-1.93h6.03v1.93h-2.02v3.46h1.93v1.94h-1.93v3.94c.42-.1,.8-.18,1.15-.26,.35-.08,.67-.16,.97-.24l.23,2.05c-.83,.22-1.9,.43-3.22,.65-.68,.12-1.29,.22-1.82,.29-.53,.07-1,.13-1.4,.18l-.29-1.93c.31-.02,.67-.06,1.06-.12,.4-.05,.84-.13,1.33-.22v-4.34h-1.87v-1.94h1.87Zm13.63-5.6v2.03h-3.58c-.19,.54-.39,1.06-.6,1.56s-.44,.99-.67,1.47h.56v.59l.68-.63c.64,.55,1.39,1.35,2.27,2.39,.94,1.08,1.62,1.95,2.05,2.61l-1.58,1.33c-.58-.8-1.16-1.57-1.74-2.3-.58-.73-1.14-1.39-1.68-1.98v8.53h-2.09v-7.9c-.37,.55-.77,1.09-1.19,1.62s-.89,1.08-1.42,1.66l-1.66-1.37c1.12-1.07,2.07-2.24,2.87-3.53,.8-1.28,1.48-2.63,2.06-4.05h-3.56v-2.03h9.29Z" style="fill: #606060;"/>
    <path d="M588.7,203.48v-4.37h1.84v4.37h1.37v1.89h-1.37v5.35l1.31-.52,.47,1.94c-.65,.28-1.51,.6-2.59,.97-.54,.18-1.01,.33-1.42,.45-.41,.12-.77,.22-1.1,.31l-.61-1.89c.26-.06,.58-.15,.94-.26,.36-.11,.75-.24,1.17-.37v-5.98h-1.6v-1.89h1.6Zm1.89,11c1.5-.42,2.5-.86,3.01-1.33,.53-.48,.82-1.03,.88-1.64h-1.89v-5.9h9.31v5.9h-2.41v1.71c0,.35,.04,.56,.13,.65s.23,.13,.45,.14h.97c.3-.01,.5-.06,.58-.14,.09-.08,.15-.28,.17-.59,.02-.31,.05-.6,.07-.85,.02-.26,.04-.49,.04-.69l1.6,.38c-.01,.25-.03,.5-.04,.74-.02,.24-.04,.49-.06,.76-.07,.65-.23,1.13-.49,1.46s-.67,.51-1.26,.56c-.25,.02-.56,.04-.94,.04s-.74,0-1.12-.02c-.66-.01-1.14-.17-1.43-.46-.29-.29-.44-.83-.44-1.59v-2.07h-1.3c-.05,.68-.19,1.26-.41,1.72-.23,.46-.55,.85-.95,1.16-.82,.66-2.02,1.26-3.62,1.8l-.85-1.71Zm5.65-14.08v-.02c-.06-.24-.12-.45-.17-.63-.05-.18-.1-.34-.15-.47l2.05-.23c.08,.28,.19,.65,.32,1.13l.05,.22h4.23v1.48h-2.74l.86,.43-.52,.99h2.97v1.49h-10.89v-1.49h2.48l-.67-1.08,.74-.34h-2.43v-1.48h3.85Zm-1.85,7.4h5.72v-.77h-5.72v.77Zm5.72,2.23v-.79h-5.72v.79h5.72Zm-4.19-8.15c.13,.2,.26,.42,.4,.66,.13,.23,.28,.49,.45,.76h1.4c.16-.25,.29-.49,.41-.72,.12-.23,.25-.46,.38-.7h-3.04Z" style="fill: #606060;"/>
  </g>
  <g>
    <path d="M253.32,166.42c.88-1.58,1.43-3.01,1.66-4.27,.24-1.31,.36-3.13,.36-5.45v-5.42h13.3v4.99h-11.36v1.08h12.13c0,.54,0,1.12-.02,1.75-.01,.63-.03,1.28-.04,1.93-.02,.66-.04,1.32-.06,1.98-.02,.66-.05,1.28-.09,1.87-.02,.4-.08,.74-.17,1.03s-.24,.53-.46,.73c-.22,.2-.51,.36-.87,.48s-.84,.21-1.43,.27c-.24,.02-.57,.05-.98,.07-.41,.02-.85,.03-1.3,.02l-.36-1.82c.29,.02,.61,.04,.98,.04,.37,0,.68,0,.94,0,.36-.01,.65-.04,.85-.07s.37-.1,.49-.21c.11-.1,.19-.25,.23-.44,.04-.19,.07-.46,.1-.81,.05-.77,.08-1.57,.11-2.4,.02-.83,.04-1.68,.04-2.55h-10.13c-.07,1.42-.2,2.6-.38,3.55-.26,1.43-.86,2.98-1.78,4.64l-1.75-.99Zm3.96-11.97h9.32v-1.37h-9.32v1.37Zm8.23,5.87v4.99h-7.49v-4.99h7.49Zm-5.6,3.35h3.69v-1.75h-3.69v1.75Z" style="fill: #606060;"/>
    <path d="M275.5,150.92v4.03h1.4v1.89h-1.4v5.04c.25-.1,.49-.18,.7-.26,.22-.08,.42-.16,.61-.24l.36,1.98c-.32,.13-.71,.28-1.15,.44-.44,.16-.94,.33-1.48,.5-.53,.17-1,.32-1.42,.44-.42,.13-.79,.22-1.12,.3l-.41-2.02c.26-.06,.56-.13,.89-.22s.7-.19,1.11-.31v-5.65h-1.62v-1.89h1.62v-4.03h1.91Zm4.37,15.05c.23-.19,.45-.38,.66-.55s.42-.36,.62-.55c-.6,.2-1.3,.4-2.11,.59-.6,.17-1.14,.31-1.61,.42-.47,.11-.89,.21-1.25,.3l-.41-1.93c.37-.06,.79-.15,1.27-.26,.47-.11,1.02-.25,1.63-.4,1.2-.32,2.17-.61,2.92-.86l.23,1.48c.24-.24,.46-.49,.67-.74,.2-.25,.4-.5,.58-.76-.06-.28-.11-.56-.15-.85s-.09-.6-.13-.93c-.13-.89-.23-1.82-.31-2.8-.07-.98-.14-2.01-.2-3.1h-5.27v-1.8h5.22c-.02-.59-.04-1.09-.04-1.51,0-.42,0-.77,0-1.04l1.89-.04c-.01,.25-.02,.59-.02,1.03s.01,.95,.04,1.57h1.71l-.54-.76c-.37-.5-.67-.86-.88-1.08l1.22-.99c.24,.25,.55,.6,.94,1.04,.38,.46,.67,.83,.85,1.12l-.85,.67h1.3v1.8h-3.71c.02,1,.06,1.91,.12,2.75,.05,.84,.13,1.62,.23,2.34,.24-.59,.48-1.22,.72-1.91,.24-.68,.47-1.43,.7-2.23l1.76,.41c-.37,1.26-.77,2.42-1.2,3.47-.43,1.06-.88,2.02-1.36,2.88l-.13,.22c.06,.24,.12,.47,.18,.68s.13,.43,.2,.63c.13,.38,.23,.65,.31,.78,.07,.14,.17,.2,.31,.19,.08-.01,.15-.08,.19-.22,.04-.13,.09-.32,.15-.56,.06-.26,.11-.55,.16-.86,.05-.31,.1-.62,.14-.95l1.64,.54c-.04,.35-.09,.68-.15,1-.07,.32-.13,.63-.21,.95-.1,.36-.2,.68-.3,.95-.1,.28-.22,.51-.36,.7-.14,.19-.31,.34-.5,.46-.2,.11-.44,.18-.73,.19-.43,.02-.83-.12-1.19-.44-.36-.32-.69-.84-.99-1.58-.04-.07-.07-.15-.1-.23-.03-.08-.06-.17-.08-.25-.68,.86-1.46,1.7-2.34,2.5l-1.42-1.49Zm1.91-9.63v5.71h-4.54v-5.71h4.54Zm-2.93,3.94h1.33v-2.23h-1.33v2.23Z" style="fill: #606060;"/>
    <path d="M296.61,164.24c.2-.31,.41-.63,.61-.95,.2-.32,.4-.64,.59-.96l-1.35,.72c-.1-.28-.2-.57-.32-.88-.12-.31-.26-.64-.41-.99-.35,.67-.7,1.32-1.04,1.93-.35,.62-.71,1.21-1.08,1.79l-1.19-.81v3.35h-1.91v-16.06h14.63v13.52c0,1.39-.57,2.17-1.71,2.34-.17,.02-.36,.04-.59,.05-.22,.01-.46,.02-.7,.04s-.5,.02-.77,.02-.51,0-.74-.02l-.43-2.02c.28,.02,.62,.04,1.04,.05s.8,.01,1.16,0c.31-.02,.52-.08,.61-.17s.14-.3,.14-.62v-1.01l-1.24,.77c-.16-.43-.35-.9-.57-1.41-.22-.51-.49-1.07-.8-1.68-.35,.68-.72,1.36-1.11,2.03s-.81,1.34-1.25,2.03l-1.58-1.06Zm-2.43-9.83c.43,.65,.94,1.49,1.51,2.54,.2-.49,.4-.98,.58-1.48s.36-.99,.53-1.49l1.75,.43c-.1,.25-.19,.5-.28,.76s-.18,.5-.28,.76l1.19-.81c.36,.52,.78,1.19,1.26,2.02,.37-.94,.71-1.87,1.03-2.81l1.69,.5v-1.57h-10.75v10.01c.41-.65,.81-1.32,1.21-2.02,.4-.7,.77-1.42,1.13-2.18-.4-.83-.76-1.56-1.11-2.19-.34-.63-.66-1.17-.94-1.61l1.48-.86Zm2.57,4.57c.28,.58,.52,1.11,.75,1.59,.22,.49,.41,.93,.57,1.34,.26-.46,.51-.91,.75-1.36s.46-.9,.69-1.36c-.31-.59-.61-1.12-.88-1.59-.28-.47-.53-.9-.77-1.27-.18,.46-.36,.91-.54,1.35s-.37,.88-.56,1.3Zm4.79,.18c.35,.66,.65,1.27,.92,1.83s.5,1.08,.7,1.56v-7.6c-.24,.74-.49,1.46-.76,2.15-.26,.69-.55,1.38-.86,2.06Z" style="fill: #606060;"/>
  </g>
</svg>