<?xml version="1.0" encoding="UTF-8" standalone="no"?><!DOCTYPE svg PUBLIC "-//W3C//DTD SVG 1.1//EN" "http://www.w3.org/Graphics/SVG/1.1/DTD/svg11.dtd"><svg width="100%" height="100%" viewBox="0 0 700 300" version="1.1" xmlns="http://www.w3.org/2000/svg" xmlns:xlink="http://www.w3.org/1999/xlink" xml:space="preserve" xmlns:serif="http://www.serif.com/" style="fill-rule:evenodd;clip-rule:evenodd;"><path d="M140.31,39.245c0,-9.211 -7.479,-16.69 -16.69,-16.69l-77.9,0c-9.211,0 -16.69,7.479 -16.69,16.69l0,189.18c0,9.211 7.479,16.69 16.69,16.69l77.9,0c9.211,0 16.69,-7.479 16.69,-16.69l0,-189.18Z" style="fill:#f0f4f8;stroke:#a3b1c6;stroke-width:3px;"/><rect x="67.97" y="233.985" width="33.38" height="5.56" style="fill:#a3b1c6;"/><path d="M674.45,72.645c0,-6.143 -4.987,-11.13 -11.13,-11.13l-178.04,0c-6.143,0 -11.13,4.987 -11.13,11.13l-0,111.28c-0,6.143 4.987,11.13 11.13,11.13l178.04,0c6.143,0 11.13,-4.987 11.13,-11.13l0,-111.28Z" style="fill:#f0f4f8;stroke:#a3b1c6;stroke-width:3px;"/><rect x="507.53" y="195.055" width="133.54" height="11.13" style="fill:#a3b1c6;"/><g><path d="M291.04,153.025c10.27,-15.41 20.54,-15.41 30.81,0" style="fill:none;fill-rule:nonzero;stroke:#6cbf84;stroke-width:3px;stroke-linecap:round;"/><path d="M275.64,137.615c20.54,-25.68 41.08,-25.68 61.62,0" style="fill:none;fill-rule:nonzero;stroke:#6cbf84;stroke-width:3px;stroke-linecap:round;"/><path d="M260.23,122.205c30.81,-35.95 61.62,-35.95 92.44,0" style="fill:none;fill-rule:nonzero;stroke:#6cbf84;stroke-width:3px;stroke-linecap:round;"/></g><path d="M439.77,119.825l22.35,7.52l-22.16,8.06l-0.19,-15.58Z" style="fill:#6cbf84;fill-rule:nonzero;"/><path d="M172.46,139.105l-22.18,-8l22.32,-7.58l-0.14,15.58Z" style="fill:#6cbf84;fill-rule:nonzero;"/><path d="M176.16,131.605l66.55,-0.82" style="fill:none;fill-rule:nonzero;stroke:#6cbf84;stroke-width:3px;stroke-linecap:round;"/><path d="M370.18,128.755l66.55,-0.82" style="fill:none;fill-rule:nonzero;stroke:#6cbf84;stroke-width:3px;stroke-linecap:round;"/><path d="M657.04,82.905c0,-3.069 -2.491,-5.56 -5.56,-5.56l-155.8,0c-3.069,0 -5.56,2.491 -5.56,5.56l0,89.03c0,3.069 2.491,5.56 5.56,5.56l155.8,0c3.069,0 5.56,-2.491 5.56,-5.56l0,-89.03Z" style="fill:#fff;stroke:#a3b1c6;stroke-width:2px;"/><path d="M657.04,82.905c0,-3.069 -2.491,-5.56 -5.56,-5.56l-155.8,0c-3.069,0 -5.56,2.491 -5.56,5.56l0,5.57c0,3.069 2.491,5.56 5.56,5.56l155.8,0c3.069,0 5.56,-2.491 5.56,-5.56l0,-5.57Z" style="fill:#e0e4e8;"/><circle cx="501.25" cy="85.135" r="4.45" style="fill:#ff5f56;"/><circle cx="512.38" cy="85.135" r="4.45" style="fill:#ffbd2e;"/><circle cx="523.51" cy="85.135" r="4.45" style="fill:#27c93f;"/><path d="M539.09,80.685l102.38,0c2.46,0 4.45,1.99 4.45,4.45c0,2.46 -1.99,4.45 -4.45,4.45l-102.38,0c-2.46,0 -4.45,-1.99 -4.45,-4.45c0,-2.46 1.99,-4.45 4.45,-4.45Z" style="fill:#fff;fill-rule:nonzero;stroke:#c0c7d0;stroke-width:1px;"/><g><path d="M85.12,96.705l29.36,16.95l0,38l-29.36,16.95l-29.36,-16.95l0,-37.99l29.36,-16.95m0,-4.95l-2.15,1.24l-29.36,16.95l-2.15,1.24l0,42.95l2.15,1.24l29.36,16.95l2.15,1.24l2.15,-1.24l29.36,-16.95l2.15,-1.24l0,-42.95l-2.15,-1.24l-29.36,-16.96l-2.15,-1.24l0,0.01Z" style="fill:#fac03d;fill-rule:nonzero;"/><path d="M123.94,95.655c0,0 -1.11,1.82 -4.36,1.82c-0.85,0 -1.85,-0.13 -3.01,-0.44c-3.18,-0.78 -5.41,-1.38 -8.8,-1.34c-5.77,0 -11.04,3.37 -13.33,8.23c-2.18,-0.41 -4.45,-0.63 -6.82,-0.63c-1.07,0 -2.18,0.04 -3.28,0.13c-1,0.06 -9.02,0.68 -17.19,6.2c-5.95,-1.93 -9.84,-5.93 -11.65,-12c-1.86,6.25 -5.92,10.3 -12.17,12.17c6.25,1.86 10.57,6.5 12.1,12.72l0.01,0c-4.01,7.6 -4.02,16.66 0.09,24.07c4.77,8.61 14.22,13.55 25.92,13.55c2.65,0 5.45,-0.25 8.31,-0.74c14.95,-2.57 21.63,-9.83 24.61,-15.47c5.05,-9.58 2.79,-19.98 0.66,-24.61c-0.08,-0.17 -0.17,-0.34 -0.26,-0.52c3.19,-1.66 6.95,-4.58 8.91,-9.54c-0,0 -2,1.16 -3.38,1.34c-0,0 5.57,-7.21 3.65,-14.93c-1.92,-7.72 -0,0 -0,0l-0.01,-0.01Z" style="fill:#231815;fill-rule:nonzero;"/><path d="M89.28,155.525c-2.71,0.47 -5.26,0.68 -7.64,0.68c-15.29,0 -23.65,-9.01 -24.89,-19c2.33,-0.59 10.95,-3 20.39,-8.44c0,0 0.63,-1.83 0.89,-5.27c0,0 6.96,9.33 2.83,25.97c0,0 7.23,-3.05 10.33,-12.33c0.89,-0.71 2.91,-1.98 4.85,-0.7c1.24,0.81 1.72,2.77 1.13,4.64c-0.78,2.44 -3.02,3.83 -6.02,3.73l-0.08,2.4l0.4,0c0.81,0 1.54,-0.09 2.23,-0.24c0.73,1.89 2.48,4.42 5.6,5.62c-2.81,1.26 -6.12,2.26 -10.02,2.93l-0.01,0l0.01,0.01Z" style="fill:#fbe9ec;fill-rule:nonzero;"/><path d="M111.61,121.485c2.9,6.32 4.63,21.44 -8.81,29.75c-4.51,-0.18 -6.23,-3.4 -6.74,-4.7c1.78,-1.05 2.89,-2.66 3.39,-4.24c0.93,-2.93 0.06,-5.95 -2.09,-7.37c-1.85,-1.21 -3.75,-1.09 -5.34,-0.5c0.49,-2.55 0.69,-5.47 0.42,-8.81c0,0 -1.78,10.91 -7.77,17.3c0,0 1.98,-17.85 -8.47,-23.58c0,-0 -0.27,4.18 -1.4,8.04c0,-0 -6.29,3.68 -18.27,6.63c0.17,-3.66 1.35,-7.23 3.41,-10.52c9.28,-14.87 24.85,-15.57 24.85,-15.57c1.03,-0.08 2.04,-0.12 3.02,-0.12c2.02,-0 3.92,0.18 5.7,0.49c-0.86,6.9 4.34,12.85 11.74,13.37c0.34,0.03 0.68,0.04 1.01,0.04c1.09,-0 2.16,-0.12 3.2,-0.35c1.04,-0.23 0.71,-0.13 1.83,-0.49c0.11,0.21 0.23,0.43 0.33,0.64c0.1,0.21 0,-0.01 0,-0.01l-0.01,-0Z" style="fill:#fac03d;fill-rule:nonzero;"/><path d="M112.8,113.715l2.65,0.24c-2.18,1.53 -4.42,2.27 -5.61,2.59l-1.09,0.24c-0.78,0.17 -1.56,0.26 -2.33,0.26c-0.24,0 -0.49,0 -0.73,-0.03c-2.63,-0.18 -4.91,-1.31 -6.4,-3.17c-1.32,-1.64 -1.87,-3.7 -1.56,-5.82c0.69,-4.66 5.15,-8.26 10.28,-8.31c2.95,-0.03 5.74,0.77 7.84,1.2c1.44,0.29 2.79,0.58 4.07,0.58l0.42,0c-1.08,6.32 -7.52,12.23 -7.52,12.23l-0.02,-0.01Z" style="fill:#fac03d;fill-rule:nonzero;"/><path d="M115.85,100.905c-2.1,-0.43 -4.9,-1.23 -7.84,-1.2c-5.14,0.04 -9.6,3.65 -10.28,8.31c-0.31,2.11 0.24,4.18 1.56,5.82c1.49,1.86 3.77,2.98 6.4,3.17l0.11,0c-1.13,-0.31 -3.98,-1.37 -5.34,-4.57c-2.05,-4.84 1.21,-11.85 11.27,-10.77c5.3,0.57 7.62,0.28 8.6,-0.15l0,-0.04l-0.42,0c-1.28,0 -2.62,-0.28 -4.07,-0.58l0.01,0.01Z" style="fill:#fff;fill-rule:nonzero;"/><path d="M80.27,142.305c0.69,0.99 -0.23,2.83 -2.07,4.1c-1.83,1.27 -3.88,1.5 -4.57,0.51c-0.69,-0.99 0.23,-2.83 2.07,-4.1c1.83,-1.28 3.88,-1.5 4.57,-0.51Z" style="fill:#ed7a95;fill-rule:nonzero;"/><path d="M77.67,133.455c0.7,4.09 -2.61,8.49 -7.39,9.83c-4.17,1.17 -8.07,-0.38 -9.47,-3.5l16.51,-7.56c0.15,0.39 0.27,0.79 0.35,1.22c0.08,0.43 0,-0 0,-0l0,0.01Z" style="fill:#231815;fill-rule:nonzero;"/><path d="M72.7,136.445c0,0 0.33,2.13 -1.86,4.55c0,0 3.98,-1.24 4.23,-5.63l-2.37,1.08Z" style="fill:#fff;fill-rule:nonzero;"/><path d="M55.51,115.685c-0.9,-3.03 -2.86,-4.99 -5.89,-5.89c3.03,-0.9 4.99,-2.86 5.89,-5.89c0.9,3.03 2.86,4.99 5.89,5.89c-3.03,0.9 -4.99,2.86 -5.89,5.89Z" style="fill:#fac03d;fill-rule:nonzero;"/><path d="M76.19,119.335c0,0 -1.7,4.92 -2.74,6.3c0,0 -7.31,3.01 -12.14,3.98c0,0 4.25,-21.64 32.14,-20.82c0.01,-0.2 0.03,-0.32 0.05,-0.52c-1.79,-0.31 -3.77,-0.59 -5.79,-0.59c-0.98,0 -1.98,0.04 -3.02,0.12c0,0 -15.57,0.7 -24.85,15.57c-2.05,3.29 -3.15,6.95 -3.32,10.61c0.37,-0.09 4.11,-1.03 8.31,-2.42c8.46,-3.04 9.96,-4.21 9.96,-4.21c1.13,-3.86 1.4,-8.04 1.4,-8.04" style="fill:#fff;fill-rule:nonzero;"/></g><g><path d="M37.12,268.345c0,1.15 -0.21,2.17 -0.63,3.06c-0.42,0.89 -1.04,1.58 -1.87,2.07c-0.83,0.49 -1.84,0.74 -3.04,0.74c-1.27,0 -2.41,-0.32 -3.4,-0.96c-1,-0.63 -1.77,-1.53 -2.32,-2.67c-0.55,-1.15 -0.83,-2.46 -0.83,-3.95c0,-1.49 0.28,-2.8 0.83,-3.95c0.55,-1.15 1.33,-2.04 2.32,-2.67c1,-0.63 2.14,-0.95 3.42,-0.95c1.28,0 2.47,0.31 3.37,0.93c0.9,0.62 1.51,1.46 1.82,2.51l-1.94,0.94c-0.49,-1.61 -1.59,-2.41 -3.29,-2.41c-0.82,0 -1.54,0.23 -2.16,0.7c-0.62,0.47 -1.11,1.13 -1.46,1.98c-0.35,0.85 -0.52,1.83 -0.52,2.94c0,1.11 0.17,2.13 0.51,2.98c0.34,0.85 0.83,1.5 1.46,1.95c0.63,0.46 1.37,0.68 2.21,0.68c2.26,-0 3.38,-1.34 3.38,-4.01l-2.93,-0l0,-2.02l5.09,-0l0,2.12l-0.02,-0.01Z" style="fill:#606060;fill-rule:nonzero;"/><path d="M49.29,271.475c0,1.09 0.02,1.93 0.07,2.5l-1.98,0c-0.04,-0.24 -0.07,-0.83 -0.09,-1.78c-0.4,0.65 -0.9,1.15 -1.5,1.49c-0.61,0.35 -1.31,0.52 -2.1,0.52c-0.84,0 -1.61,-0.24 -2.3,-0.71c-0.7,-0.47 -1.25,-1.14 -1.65,-2c-0.4,-0.86 -0.6,-1.84 -0.6,-2.94c0,-1.1 0.2,-2.09 0.6,-2.94c0.4,-0.85 0.95,-1.52 1.65,-2c0.7,-0.48 1.46,-0.71 2.3,-0.71c0.79,-0 1.49,0.17 2.1,0.52c0.61,0.35 1.11,0.85 1.5,1.49c0.02,-0.92 0.05,-1.52 0.09,-1.78l1.98,-0c-0.05,0.58 -0.07,1.41 -0.07,2.5l0,5.84Zm-2.21,-2.92c0,-0.77 -0.12,-1.45 -0.36,-2.04c-0.24,-0.59 -0.58,-1.04 -1.01,-1.37c-0.43,-0.32 -0.93,-0.49 -1.49,-0.49c-0.56,-0 -1.04,0.16 -1.48,0.49c-0.44,0.33 -0.77,0.78 -1.02,1.37c-0.25,0.59 -0.37,1.27 -0.37,2.04c0,0.77 0.12,1.45 0.37,2.03c0.25,0.58 0.58,1.04 1.02,1.37c0.43,0.32 0.92,0.48 1.48,0.48c0.56,-0 1.06,-0.16 1.49,-0.48c0.43,-0.32 0.77,-0.78 1.01,-1.37c0.24,-0.59 0.36,-1.27 0.36,-2.03Z" style="fill:#606060;fill-rule:nonzero;"/><path d="M67.21,266.475l0,7.51l-2.2,0l0,-7.15c0,-1.38 -0.65,-2.07 -1.94,-2.07c-0.73,-0 -1.32,0.26 -1.76,0.77c-0.44,0.51 -0.66,1.19 -0.66,2.03l0,6.43l-2.2,0l0,-7.15c0,-1.38 -0.65,-2.07 -1.96,-2.07c-0.73,-0 -1.31,0.25 -1.75,0.76c-0.43,0.5 -0.65,1.18 -0.65,2.04l0,6.43l-2.2,-0l0,-8.33c0,-0.95 -0.03,-1.78 -0.09,-2.5l1.94,-0c0.05,0.31 0.09,0.85 0.13,1.6c0.72,-1.22 1.85,-1.84 3.4,-1.84c0.73,-0 1.36,0.16 1.89,0.48c0.53,0.32 0.91,0.78 1.15,1.38c0.73,-1.24 1.9,-1.85 3.51,-1.85c1.06,-0 1.88,0.31 2.48,0.95c0.59,0.63 0.89,1.5 0.89,2.62l0.02,-0.04Z" style="fill:#606060;fill-rule:nonzero;"/><path d="M79.08,269.115l-7.47,0c0.06,1.07 0.36,1.89 0.89,2.47c0.53,0.58 1.24,0.86 2.12,0.86c0.65,0 1.16,-0.14 1.54,-0.41c0.38,-0.28 0.67,-0.69 0.89,-1.24l1.84,0.86c-0.7,1.7 -2.11,2.56 -4.25,2.56c-1.07,0 -2,-0.24 -2.79,-0.71c-0.79,-0.47 -1.4,-1.14 -1.83,-1.99c-0.43,-0.85 -0.64,-1.84 -0.64,-2.95c0,-1.11 0.21,-2.09 0.64,-2.94c0.43,-0.86 1.01,-1.52 1.76,-2c0.75,-0.47 1.59,-0.71 2.51,-0.71c0.98,-0 1.84,0.23 2.56,0.69c0.73,0.46 1.28,1.12 1.67,1.97c0.39,0.85 0.58,1.84 0.58,2.97c0,0.19 -0.01,0.38 -0.04,0.57l0.02,-0Zm-7.43,-1.62l5.24,-0c-0.1,-0.92 -0.37,-1.62 -0.81,-2.11c-0.44,-0.48 -1.04,-0.72 -1.8,-0.72c-0.7,-0 -1.28,0.25 -1.75,0.74c-0.47,0.49 -0.76,1.19 -0.88,2.09Z" style="fill:#606060;fill-rule:nonzero;"/><path d="M89.05,261.305l0,3.96l6.01,0l0,2.02l-6.01,0l0,4.7l6.43,0l0,2l-8.78,0l0,-14.69l8.78,0l0,2.02l-6.43,0l0,-0.01Z" style="fill:#606060;fill-rule:nonzero;"/><path d="M107.44,266.825l0,7.15l-2.2,0l0,-6.8c0,-1.61 -0.76,-2.41 -2.27,-2.41c-0.86,0 -1.55,0.29 -2.05,0.87c-0.5,0.57 -0.76,1.36 -0.76,2.34l0,6.01l-2.21,0l0,-8.33c0,-1.09 -0.02,-1.93 -0.07,-2.5l1.94,0c0.07,0.44 0.11,1.03 0.13,1.76c0.79,-1.33 2.06,-2 3.8,-2c1.15,0 2.06,0.34 2.71,1.03c0.65,0.68 0.98,1.65 0.98,2.9l0,-0.02Z" style="fill:#606060;fill-rule:nonzero;"/><path d="M119.61,263.145c-0.05,0.58 -0.07,1.41 -0.07,2.5l0,7.78c0,1.5 -0.44,2.67 -1.31,3.52c-0.87,0.85 -2.12,1.27 -3.74,1.27c-1.34,0 -2.42,-0.22 -3.23,-0.66c-0.81,-0.44 -1.34,-1.07 -1.59,-1.9l1.76,-0.81c0.18,0.5 0.52,0.9 1.01,1.18c0.49,0.28 1.13,0.42 1.93,0.42c0.98,0 1.73,-0.25 2.23,-0.75c0.5,-0.5 0.76,-1.25 0.76,-2.24l0,-1.17c-0.38,0.54 -0.85,0.96 -1.41,1.25c-0.56,0.29 -1.19,0.44 -1.9,0.44c-0.83,0 -1.58,-0.23 -2.27,-0.69c-0.68,-0.46 -1.22,-1.11 -1.61,-1.95c-0.39,-0.84 -0.58,-1.8 -0.58,-2.88c0,-1.08 0.2,-2.04 0.58,-2.89c0.39,-0.85 0.93,-1.5 1.61,-1.96c0.68,-0.46 1.44,-0.69 2.27,-0.69c0.77,0 1.45,0.17 2.04,0.51c0.59,0.34 1.08,0.83 1.45,1.47c0.01,-0.41 0.04,-0.78 0.07,-1.12c0.04,-0.34 0.05,-0.55 0.05,-0.62l1.96,0l-0.01,-0.01Zm-2.27,5.31c0,-0.76 -0.12,-1.42 -0.35,-1.99c-0.23,-0.57 -0.56,-1.01 -0.99,-1.32c-0.43,-0.31 -0.91,-0.47 -1.45,-0.47c-0.54,0 -1.02,0.16 -1.44,0.47c-0.42,0.31 -0.75,0.75 -0.98,1.32c-0.23,0.57 -0.35,1.23 -0.35,1.99c0,0.76 0.12,1.4 0.35,1.97c0.23,0.57 0.56,1.01 0.98,1.32c0.42,0.31 0.9,0.47 1.44,0.47c0.54,0 1.02,-0.16 1.45,-0.47c0.43,-0.31 0.76,-0.75 0.99,-1.32c0.23,-0.57 0.35,-1.23 0.35,-1.97Z" style="fill:#606060;fill-rule:nonzero;"/><path d="M123.43,259.035c0.41,-0 0.73,0.12 0.98,0.37c0.25,0.25 0.37,0.58 0.37,1c0,0.42 -0.12,0.73 -0.36,0.98c-0.24,0.25 -0.57,0.37 -0.99,0.37c-0.42,-0 -0.75,-0.12 -1,-0.37c-0.25,-0.25 -0.37,-0.57 -0.37,-0.98c0,-0.41 0.13,-0.75 0.38,-1c0.25,-0.24 0.58,-0.37 0.99,-0.37Zm1.1,4.1l0,10.84l-2.21,0l0,-10.84l2.21,-0Z" style="fill:#606060;fill-rule:nonzero;"/><path d="M136.78,266.825l0,7.15l-2.2,0l0,-6.8c0,-1.61 -0.76,-2.41 -2.27,-2.41c-0.86,0 -1.55,0.29 -2.05,0.87c-0.5,0.57 -0.76,1.36 -0.76,2.34l0,6.01l-2.21,0l0,-8.33c0,-1.09 -0.02,-1.93 -0.07,-2.5l1.94,0c0.07,0.44 0.11,1.03 0.13,1.76c0.79,-1.33 2.06,-2 3.8,-2c1.15,0 2.06,0.34 2.71,1.03c0.65,0.68 0.98,1.65 0.98,2.9l0,-0.02Z" style="fill:#606060;fill-rule:nonzero;"/><path d="M148.61,269.115l-7.47,0c0.06,1.07 0.36,1.89 0.89,2.47c0.53,0.58 1.24,0.86 2.12,0.86c0.65,0 1.16,-0.14 1.54,-0.41c0.38,-0.28 0.67,-0.69 0.89,-1.24l1.84,0.86c-0.7,1.7 -2.11,2.56 -4.25,2.56c-1.07,0 -2,-0.24 -2.79,-0.71c-0.79,-0.47 -1.4,-1.14 -1.83,-1.99c-0.43,-0.85 -0.64,-1.84 -0.64,-2.95c0,-1.11 0.21,-2.09 0.64,-2.94c0.43,-0.86 1.01,-1.52 1.76,-2c0.75,-0.47 1.59,-0.71 2.51,-0.71c0.98,-0 1.84,0.23 2.56,0.69c0.73,0.46 1.28,1.12 1.67,1.97c0.39,0.85 0.58,1.84 0.58,2.97c0,0.19 -0.01,0.38 -0.04,0.57l0.02,-0Zm-7.43,-1.62l5.24,-0c-0.1,-0.92 -0.37,-1.62 -0.81,-2.11c-0.44,-0.48 -1.04,-0.72 -1.8,-0.72c-0.7,-0 -1.28,0.25 -1.75,0.74c-0.47,0.49 -0.76,1.19 -0.88,2.09Z" style="fill:#606060;fill-rule:nonzero;"/></g><g><path d="M553.12,221.355l-3.83,14.69l-2.45,0l-3.06,-11.75l-3.06,11.75l-2.45,0l-3.83,-14.69l2.48,0l2.68,11.84l3.02,-11.84l2.41,0l3.02,11.84l2.68,-11.84l2.39,0Z" style="fill:#606060;fill-rule:nonzero;"/><path d="M564.15,231.185l-7.47,0c0.06,1.07 0.36,1.89 0.89,2.47c0.53,0.58 1.24,0.86 2.12,0.86c0.65,0 1.16,-0.14 1.54,-0.41c0.38,-0.28 0.67,-0.69 0.89,-1.24l1.84,0.86c-0.7,1.7 -2.11,2.56 -4.25,2.56c-1.07,0 -2,-0.24 -2.79,-0.71c-0.79,-0.47 -1.4,-1.14 -1.83,-1.99c-0.43,-0.85 -0.64,-1.84 -0.64,-2.95c0,-1.11 0.21,-2.08 0.64,-2.94c0.43,-0.86 1.01,-1.52 1.76,-2c0.75,-0.47 1.59,-0.71 2.51,-0.71c0.98,0 1.84,0.23 2.57,0.69c0.73,0.46 1.28,1.12 1.67,1.97c0.39,0.85 0.58,1.84 0.58,2.97c0,0.19 -0.01,0.38 -0.04,0.58l0.01,-0.01Zm-7.43,-1.62l5.24,-0c-0.1,-0.92 -0.37,-1.63 -0.81,-2.11c-0.44,-0.48 -1.04,-0.72 -1.8,-0.72c-0.7,-0 -1.28,0.25 -1.75,0.74c-0.47,0.49 -0.76,1.19 -0.88,2.09Z" style="fill:#606060;fill-rule:nonzero;"/><path d="M576.54,230.625c0,1.1 -0.2,2.08 -0.6,2.94c-0.4,0.86 -0.95,1.52 -1.65,2c-0.7,0.47 -1.47,0.71 -2.32,0.71c-0.79,0 -1.49,-0.17 -2.1,-0.51c-0.61,-0.34 -1.1,-0.83 -1.49,-1.47c-0.01,0.76 -0.05,1.34 -0.13,1.75l-1.94,0c0.06,-0.72 0.09,-1.55 0.09,-2.5l0,-12.82l2.2,0l0,5.92c0.4,-0.54 0.88,-0.95 1.44,-1.24c0.56,-0.29 1.21,-0.43 1.93,-0.43c0.85,0 1.63,0.24 2.32,0.71c0.7,0.47 1.25,1.14 1.65,2c0.4,0.86 0.6,1.84 0.6,2.94Zm-2.23,0c0,-0.77 -0.12,-1.45 -0.36,-2.03c-0.24,-0.58 -0.58,-1.04 -1.01,-1.37c-0.43,-0.32 -0.93,-0.49 -1.49,-0.49c-0.56,0 -1.06,0.16 -1.49,0.49c-0.43,0.32 -0.76,0.78 -1,1.37c-0.24,0.59 -0.36,1.27 -0.36,2.03c0,0.76 0.12,1.45 0.36,2.03c0.24,0.58 0.57,1.04 1,1.37c0.43,0.32 0.92,0.49 1.49,0.49c0.57,0 1.06,-0.16 1.49,-0.49c0.43,-0.32 0.77,-0.78 1.01,-1.37c0.24,-0.59 0.36,-1.27 0.36,-2.03Z" style="fill:#606060;fill-rule:nonzero;"/><rect x="584.22" y="221.355" width="2.38" height="14.69" style="fill:#606060;fill-rule:nonzero;"/><path d="M601.38,228.705c0,1.48 -0.26,2.77 -0.79,3.87c-0.53,1.1 -1.28,1.96 -2.27,2.56c-0.98,0.61 -2.14,0.91 -3.46,0.91l-5.33,0l0,-14.69l5.33,0c1.32,0 2.47,0.3 3.46,0.91c0.98,0.61 1.74,1.46 2.27,2.57c0.53,1.11 0.79,2.4 0.79,3.86l0,0.01Zm-2.38,0c0,-1.63 -0.4,-2.93 -1.2,-3.89c-0.8,-0.96 -1.92,-1.44 -3.36,-1.44l-2.56,0l0,10.67l2.56,0c1.44,0 2.56,-0.48 3.36,-1.45c0.8,-0.97 1.2,-2.26 1.2,-3.9l0,0.01Z" style="fill:#606060;fill-rule:nonzero;"/><path d="M606.14,223.375l0,3.96l6.01,0l0,2.02l-6.01,0l0,4.7l6.43,0l0,2l-8.78,0l0,-14.69l8.78,0l0,2.02l-6.43,0l0,-0.01Z" style="fill:#606060;fill-rule:nonzero;"/></g><g><path d="M247.81,185.285l0,2l-8.57,0l0,-14.69l2.36,0l0,12.69l6.21,0Z" style="fill:#606060;fill-rule:nonzero;"/><path d="M254.51,176.215c0.97,0 1.84,0.24 2.61,0.71c0.77,0.47 1.37,1.14 1.8,2c0.43,0.86 0.65,1.84 0.65,2.94c0,1.1 -0.22,2.1 -0.65,2.95c-0.43,0.85 -1.03,1.51 -1.8,1.99c-0.77,0.47 -1.64,0.71 -2.61,0.71c-0.97,0 -1.86,-0.24 -2.63,-0.71c-0.77,-0.47 -1.37,-1.14 -1.8,-1.99c-0.43,-0.85 -0.65,-1.84 -0.65,-2.95c0,-1.11 0.22,-2.08 0.65,-2.94c0.43,-0.86 1.03,-1.52 1.8,-2c0.77,-0.47 1.64,-0.71 2.63,-0.71Zm0,1.76c-0.56,0 -1.06,0.16 -1.49,0.49c-0.43,0.32 -0.77,0.78 -1.01,1.37c-0.24,0.59 -0.36,1.27 -0.36,2.03c0,0.76 0.12,1.45 0.36,2.03c0.24,0.59 0.58,1.04 1.01,1.37c0.43,0.32 0.93,0.49 1.49,0.49c0.56,0 1.06,-0.16 1.48,-0.49c0.43,-0.32 0.76,-0.78 1,-1.37c0.24,-0.59 0.36,-1.27 0.36,-2.03c0,-0.76 -0.12,-1.45 -0.36,-2.03c-0.24,-0.58 -0.57,-1.04 -1,-1.37c-0.43,-0.32 -0.92,-0.49 -1.48,-0.49Z" style="fill:#606060;fill-rule:nonzero;"/><path d="M266.37,176.215c1.09,0 1.98,0.23 2.67,0.7c0.69,0.47 1.14,1.07 1.34,1.82l-1.87,0.88c-0.28,-1.03 -0.98,-1.55 -2.11,-1.55c-0.86,0 -1.56,0.34 -2.08,1.03c-0.52,0.68 -0.78,1.61 -0.78,2.77c-0,1.16 0.26,2.07 0.78,2.76c0.52,0.69 1.22,1.04 2.08,1.04c1.13,0 1.83,-0.51 2.11,-1.53l1.87,0.86c-0.2,0.74 -0.65,1.35 -1.34,1.82c-0.69,0.47 -1.58,0.7 -2.67,0.7c-0.97,0 -1.84,-0.24 -2.6,-0.71c-0.76,-0.47 -1.36,-1.14 -1.79,-1.99c-0.43,-0.85 -0.65,-1.84 -0.65,-2.95c0,-1.11 0.22,-2.08 0.65,-2.94c0.43,-0.86 1.03,-1.52 1.79,-2c0.76,-0.47 1.63,-0.71 2.6,-0.71Z" style="fill:#606060;fill-rule:nonzero;"/><path d="M282.08,184.785c0,1.09 0.02,1.93 0.07,2.5l-1.98,0c-0.04,-0.24 -0.07,-0.83 -0.09,-1.78c-0.4,0.65 -0.9,1.15 -1.5,1.49c-0.61,0.35 -1.31,0.52 -2.1,0.52c-0.84,0 -1.61,-0.24 -2.3,-0.71c-0.7,-0.47 -1.25,-1.14 -1.65,-2c-0.4,-0.86 -0.6,-1.84 -0.6,-2.94c0,-1.1 0.2,-2.08 0.6,-2.94c0.4,-0.86 0.95,-1.52 1.65,-2c0.7,-0.47 1.46,-0.71 2.3,-0.71c0.79,0 1.49,0.17 2.1,0.52c0.61,0.35 1.11,0.85 1.5,1.49c0.02,-0.92 0.05,-1.52 0.09,-1.78l1.98,0c-0.05,0.58 -0.07,1.41 -0.07,2.5l0,5.84Zm-2.21,-2.92c0,-0.77 -0.12,-1.45 -0.36,-2.03c-0.24,-0.59 -0.58,-1.04 -1.01,-1.37c-0.43,-0.32 -0.93,-0.49 -1.49,-0.49c-0.56,-0 -1.04,0.16 -1.48,0.49c-0.43,0.32 -0.77,0.78 -1.02,1.37c-0.25,0.59 -0.37,1.27 -0.37,2.03c0,0.76 0.12,1.45 0.37,2.03c0.25,0.58 0.58,1.04 1.02,1.37c0.43,0.32 0.92,0.49 1.48,0.49c0.56,-0 1.06,-0.16 1.49,-0.49c0.43,-0.32 0.77,-0.78 1.01,-1.37c0.24,-0.59 0.36,-1.27 0.36,-2.03Z" style="fill:#606060;fill-rule:nonzero;"/><rect x="284.82" y="171.965" width="2.21" height="15.32" style="fill:#606060;fill-rule:nonzero;"/><path d="M306.78,172.605l0,14.69l-2.11,0l-7.34,-10.94l0,10.94l-2.14,0l0,-14.69l2.52,0l6.93,10.37l0,-10.37l2.14,0Z" style="fill:#606060;fill-rule:nonzero;"/><path d="M318.75,182.425l-7.47,0c0.06,1.07 0.36,1.89 0.89,2.47c0.53,0.58 1.24,0.86 2.12,0.86c0.65,0 1.16,-0.14 1.54,-0.41c0.38,-0.28 0.67,-0.69 0.89,-1.24l1.84,0.86c-0.7,1.7 -2.11,2.56 -4.25,2.56c-1.07,0 -2,-0.24 -2.79,-0.71c-0.79,-0.47 -1.4,-1.14 -1.83,-1.99c-0.43,-0.85 -0.64,-1.84 -0.64,-2.95c0,-1.11 0.21,-2.08 0.64,-2.94c0.43,-0.86 1.01,-1.52 1.76,-2c0.75,-0.47 1.59,-0.71 2.51,-0.71c0.98,0 1.84,0.23 2.57,0.69c0.73,0.46 1.28,1.12 1.67,1.97c0.39,0.85 0.58,1.84 0.58,2.97c0,0.19 -0.01,0.38 -0.04,0.58l0.01,-0.01Zm-7.43,-1.62l5.24,-0c-0.1,-0.92 -0.37,-1.63 -0.81,-2.11c-0.44,-0.48 -1.04,-0.72 -1.8,-0.72c-0.7,-0 -1.28,0.25 -1.75,0.74c-0.47,0.49 -0.76,1.19 -0.88,2.09Z" style="fill:#606060;fill-rule:nonzero;"/><path d="M324.06,178.215l0,5.99c0,0.97 0.48,1.46 1.44,1.46c0.43,0 0.79,-0.05 1.08,-0.14l0,1.75c-0.48,0.17 -1,0.25 -1.55,0.25c-0.98,0 -1.76,-0.29 -2.33,-0.86c-0.57,-0.57 -0.86,-1.35 -0.86,-2.35l0,-6.1l-1.57,0l0,-1.76l1.57,0l0,-2.63l2.21,0l0,2.63l2.52,0l0,1.76l-2.52,0l0.01,-0Z" style="fill:#606060;fill-rule:nonzero;"/><path d="M343.64,176.455l-2.97,10.84l-2.52,0l-2.38,-8.8l-2.39,8.8l-2.52,0l-2.95,-10.84l2.25,0l2,8.78l2.39,-8.78l2.56,0l2.39,8.78l2,-8.78l2.14,0Z" style="fill:#606060;fill-rule:nonzero;"/><path d="M350.17,176.215c0.97,0 1.84,0.24 2.61,0.71c0.77,0.47 1.37,1.14 1.8,2c0.43,0.86 0.65,1.84 0.65,2.94c0,1.1 -0.22,2.1 -0.65,2.95c-0.43,0.85 -1.03,1.51 -1.8,1.99c-0.77,0.47 -1.64,0.71 -2.61,0.71c-0.97,0 -1.86,-0.24 -2.63,-0.71c-0.77,-0.47 -1.37,-1.14 -1.8,-1.99c-0.43,-0.85 -0.65,-1.84 -0.65,-2.95c0,-1.11 0.22,-2.08 0.65,-2.94c0.43,-0.86 1.03,-1.52 1.8,-2c0.77,-0.47 1.64,-0.71 2.63,-0.71Zm0,1.76c-0.56,0 -1.06,0.16 -1.49,0.49c-0.43,0.32 -0.77,0.78 -1.01,1.37c-0.24,0.59 -0.36,1.27 -0.36,2.03c0,0.76 0.12,1.45 0.36,2.03c0.24,0.58 0.58,1.04 1.01,1.37c0.43,0.32 0.93,0.49 1.49,0.49c0.56,0 1.06,-0.16 1.49,-0.49c0.43,-0.32 0.76,-0.78 1,-1.37c0.24,-0.59 0.36,-1.27 0.36,-2.03c0,-0.76 -0.12,-1.45 -0.36,-2.03c-0.24,-0.59 -0.57,-1.04 -1,-1.37c-0.43,-0.32 -0.92,-0.49 -1.49,-0.49Z" style="fill:#606060;fill-rule:nonzero;"/><path d="M363.1,176.305l0,1.98c-0.18,-0.04 -0.42,-0.05 -0.72,-0.05c-0.83,0 -1.49,0.26 -1.99,0.79c-0.5,0.53 -0.75,1.28 -0.75,2.25l0,6.01l-2.2,0l0,-8.33c0,-0.95 -0.03,-1.78 -0.09,-2.5l1.91,0c0.06,0.42 0.1,1.02 0.11,1.8c0.32,-0.66 0.76,-1.16 1.3,-1.51c0.54,-0.35 1.15,-0.52 1.82,-0.52c0.29,0 0.49,0.03 0.61,0.09l-0,-0.01Z" style="fill:#606060;fill-rule:nonzero;"/><path d="M371.49,187.285l-4.21,-5.35l0,5.35l-2.21,0l0,-15.32l2.21,0l0,9.27l3.98,-4.79l2.68,0l-4.41,5.15l4.79,5.69l-2.83,0Z" style="fill:#606060;fill-rule:nonzero;"/></g></svg>