<svg xmlns="http://www.w3.org/2000/svg" viewBox="0 0 256 256" role="img" aria-label="C# logo">
  <defs>
    <linearGradient id="csharp-face" x1="64" y1="35" x2="192" y2="221" gradientUnits="userSpaceOnUse">
      <stop offset="0" stop-color="#a45de3"/>
      <stop offset="1" stop-color="#68217a"/>
    </linearGradient>
  </defs>
  <path fill="#5c1f78" d="M128 4 238 66v124l-110 62-110-62V66z"/>
  <path fill="#7b32b4" d="M128 4 238 66 128 128 18 66z"/>
  <path fill="#51206f" d="M238 66v124l-110 62V128z"/>
  <path fill="#68217a" d="M18 66v124l110 62V128z"/>
  <path fill="url(#csharp-face)" d="M128 24 220 76v104l-92 52-92-52V76z"/>
  <g transform="translate(13 9) scale(.9)">
    <path fill="#fff" d="M112.6 168.5c-9.2 7.1-20 10.7-32.4 10.7-15.1 0-27.4-4.9-36.9-14.7-9.6-9.8-14.4-22.3-14.4-37.3 0-15.2 4.9-27.7 14.6-37.5 9.8-9.8 22.3-14.7 37.6-14.7 12.1 0 22.6 3.3 31.7 10l-10.5 17.3c-6.6-4.8-13.6-7.2-21.1-7.2-8.8 0-15.9 2.9-21.3 8.8-5.4 5.8-8.1 13.5-8.1 23s2.7 17.2 8.1 23c5.4 5.8 12.5 8.7 21.3 8.7 8.1 0 15.6-2.7 22.4-8.1z"/>
    <path fill="#fff" d="M156.2 94.8h13.5l-2.7 19h17.2l2.7-19h13.5l-2.7 19h14.8v12.3H196l-2.2 15.7h15.2v12.3h-16.9l-2.9 20.8h-13.5l2.9-20.8h-17.2l-2.9 20.8H145l2.9-20.8h-14.9v-12.3h16.6l2.2-15.7h-15.1v-12.3h16.8zm9.1 31.3-2.2 15.7h17.2l2.2-15.7z"/>
  </g>
</svg>
