<?xml version="1.0" encoding="UTF-8" standalone="no"?><!DOCTYPE svg PUBLIC "-//W3C//DTD SVG 1.1//EN" "http://www.w3.org/Graphics/SVG/1.1/DTD/svg11.dtd"><svg width="100%" height="100%" viewBox="0 0 1133 1133" version="1.1" xmlns="http://www.w3.org/2000/svg" xmlns:xlink="http://www.w3.org/1999/xlink" xml:space="preserve" xmlns:serif="http://www.serif.com/" style="fill-rule:evenodd;clip-rule:evenodd;stroke-linejoin:round;stroke-miterlimit:2;"><path d="M78.052,1102.41c146.44,-32.79 293.19,-49.47 422.069,-54.47l-36.049,-20.81c-129.36,6.59 -258.411,23.9 -386.1,52.01l-0,23.26l0.08,0l-0,0.01Z" style="fill:#fac03d;fill-rule:nonzero;"/><path d="M661.331,1047.95c142.461,4.37 284.61,21.92 425.089,52.81c-0.16,-6.6 -0.48,-14.21 -0.79,-21.68c-128.329,-28.27 -258.088,-45.58 -388.159,-52.01l-36.13,20.89l-0.01,-0.01Z" style="fill:#fac03d;fill-rule:nonzero;"/><path d="M580.651,89.997l372.84,215.211l-0,482.43l-372.84,215.212l-372.84,-215.212l-0,-482.35l372.84,-215.211m-0,-62.889l-27.24,15.719l-372.84,215.211l-27.24,15.72l-0,545.32l27.24,15.72l372.84,215.212l27.24,15.72l27.24,-15.72l372.841,-215.212l27.238,-15.72l0,-545.32l-27.238,-15.72l-372.841,-215.29l-27.24,-15.72l0,0.08Z" style="fill:#fac03d;fill-rule:nonzero;"/><path d="M1073.56,76.658c0,0 -14.06,23.11 -55.35,23.11c-10.8,0 -23.429,-1.59 -38.199,-5.56c-40.339,-9.931 -68.69,-17.55 -111.73,-16.991c-73.22,0 -140.16,42.801 -169.31,104.51c-27.64,-5.239 -56.54,-7.94 -86.56,-7.94c-13.58,0 -27.64,0.561 -41.61,1.591c-12.71,0.709 -114.509,8.659 -218.3,78.779c-75.519,-24.54 -124.91,-75.279 -147.94,-152.389c-23.67,79.319 -75.209,130.78 -154.54,154.52c79.331,23.66 134.21,82.59 153.66,161.52c-0,0 0.08,0 0.16,-0.08c-50.9,96.56 -51.06,211.55 1.11,305.66c60.591,109.349 180.581,172.01 329.16,172.01c33.67,0 69.17,-3.18 105.46,-9.45c189.87,-32.641 274.69,-124.841 312.411,-196.391c64.088,-121.659 35.419,-253.639 8.419,-312.489c-1.03,-2.22 -2.22,-4.37 -3.34,-6.59c40.5,-21.12 88.229,-58.13 113.079,-121.18c0,0 -25.41,14.77 -42.96,16.99c0,0 70.68,-91.561 46.3,-189.561l0.08,-0.079l0,0.01Z" style="fill:#231815;fill-rule:nonzero;"/><path d="M633.542,836.788c-34.461,5.959 -66.791,8.66 -96.961,8.66c-194.08,0 -300.339,-114.35 -316.06,-241.25c29.541,-7.461 139.051,-38.04 258.881,-107.13c-0,0 7.94,-23.27 11.36,-66.94c-0,0 88.309,118.479 35.97,329.72c-0,0 91.799,-38.671 131.109,-156.601c11.28,-9.049 36.93,-25.169 61.62,-8.89c15.8,10.32 21.84,35.181 14.29,58.921c-9.85,30.969 -38.36,48.6 -76.39,47.41l-1.03,30.41c1.75,0 3.41,0.079 5.08,0.079c10.24,0 19.61,-1.109 28.35,-3.099c9.21,23.979 31.45,56.06 71.15,71.39c-35.66,15.959 -77.739,28.75 -127.22,37.24l-0.16,0.08l0.011,0Z" style="fill:#fbe9ec;fill-rule:nonzero;"/><path d="M916.961,404.628c36.85,80.21 58.76,272.22 -111.81,377.679c-57.26,-2.299 -79.09,-43.2 -85.609,-59.719c22.63,-13.341 36.69,-33.83 43.039,-53.841c11.75,-37.159 0.79,-75.599 -26.599,-93.549c-23.431,-15.331 -47.651,-13.901 -67.741,-6.35c6.27,-32.4 8.741,-69.41 5.32,-111.89c0,0 -22.63,138.49 -98.709,219.649c-0,0 25.13,-226.689 -107.57,-299.349c-0,0 -3.41,53.05 -17.79,102.04c-0,0 -79.81,46.689 -231.961,84.18c2.14,-46.46 17.2,-91.83 43.251,-133.52c117.85,-188.84 315.579,-197.741 315.579,-197.741c13.1,-1.03 25.89,-1.509 38.36,-1.509c25.65,-0 49.71,2.299 72.42,6.269c-10.88,87.591 55.11,163.191 149.06,169.781c4.29,0.32 8.58,0.48 12.86,0.48c13.82,-0 27.481,-1.51 40.66,-4.45c13.18,-2.94 9.05,-1.67 23.19,-6.19c1.35,2.7 2.86,5.399 4.131,8.18l-0.081,-0.16l0,0.01Z" style="fill:#fac03d;fill-rule:nonzero;"/><path d="M932.131,305.918l33.59,3.02c-27.71,19.46 -56.06,28.83 -71.23,32.88l-13.819,3.02c-9.851,2.14 -19.771,3.26 -29.621,3.26c-3.1,0 -6.19,-0.08 -9.29,-0.32c-33.43,-2.3 -62.339,-16.6 -81.32,-40.26c-16.76,-20.81 -23.74,-47.01 -19.769,-73.93c8.739,-59.161 65.359,-104.9 130.549,-105.46c37.4,-0.321 72.9,9.769 99.58,15.25c18.34,3.729 35.419,7.31 51.619,7.31c1.83,0 3.57,0 5.32,-0.081c-13.66,80.21 -95.529,155.331 -95.529,155.331l-0.08,0l0,-0.02Z" style="fill:#fac03d;fill-rule:nonzero;"/><path d="M970.801,143.367c-26.68,-5.4 -62.18,-15.56 -99.58,-15.25c-65.28,0.56 -121.9,46.3 -130.549,105.46c-3.971,26.841 3.099,53.131 19.769,73.931c18.981,23.59 47.89,37.88 81.32,40.26l1.35,0c-14.37,-3.89 -50.509,-17.39 -67.74,-58.051c-26.05,-61.46 15.33,-150.41 143.1,-136.75c67.34,7.23 96.719,3.57 109.189,-1.91c0,-0.16 0,-0.319 0.08,-0.48c-1.75,0 -3.49,0.081 -5.32,0.081c-16.2,0 -33.269,-3.571 -51.619,-7.31l0,0.019Z" style="fill:#fff;fill-rule:nonzero;"/><path d="M519.141,668.948c8.77,12.59 -2.98,35.93 -26.239,52.109c-23.26,16.18 -49.22,19.081 -57.991,6.49c-8.769,-12.599 2.981,-35.93 26.241,-52.12c23.259,-16.19 49.219,-19.079 57.989,-6.479Z" style="fill:#ed7a95;fill-rule:nonzero;"/><path d="M486.072,556.628c8.89,51.94 -33.11,107.84 -93.79,124.84c-52.89,14.85 -102.44,-4.84 -120.23,-44.471l209.57,-95.929c1.91,4.919 3.49,10.09 4.45,15.489l0,0.081l0,-0.01Z" style="fill:#231815;fill-rule:nonzero;"/><path d="M423.022,594.588c0,0 4.13,27 -23.59,57.81c0,0 50.509,-15.721 53.68,-71.471l-30.1,13.661l0.01,0Z" style="fill:#fff;fill-rule:nonzero;"/><path d="M204.77,330.972c-11.441,-38.44 -36.371,-63.37 -74.811,-74.811c38.44,-11.439 63.37,-36.369 74.811,-74.809c11.439,38.44 36.369,63.37 74.809,74.809c-38.44,11.441 -63.37,36.371 -74.809,74.811Z" style="fill:#fac03d;fill-rule:nonzero;"/><path d="M467.282,377.268c0,-0 -21.6,62.42 -34.781,80.05c0,-0 -92.829,38.28 -154.139,50.59c0,0 53.93,-274.811 408.099,-264.331c0.16,-2.54 0.36,-4.04 0.68,-6.58c-22.71,-3.969 -47.849,-7.43 -73.5,-7.43c-12.469,0 -25.17,0.481 -38.36,1.51c0,0 -197.739,8.89 -315.579,197.741c-26.051,41.77 -40.021,88.229 -42.171,134.679c4.76,-1.19 52.151,-13.039 105.531,-30.679c107.43,-38.61 126.43,-53.49 126.43,-53.49c14.37,-49 17.79,-102.04 17.79,-102.04" style="fill:#fff;fill-rule:nonzero;"/><path d="M1066.97,956.938c9.77,-7.701 15.96,-20.73 15.88,-35.97c-0,0 1.11,-82.111 1.11,-83.221c0,-25.489 19.3,-39.709 19.3,-39.789l-1045.38,0c-0,0 19.3,18.42 19.22,40.02c-0,0 0.79,222.272 0.79,222.182c332.42,-74.397 674.599,-74.247 1006.94,0.41c-0,0 -0.87,-53.69 -17.95,-103.632l0.09,0Z" style="fill:#231815;fill-rule:nonzero;"/><path d="M211.541,824.958c-26.52,0.48 -53.13,0.95 -79.65,1.51c-2.78,0 -5.639,0.079 -8.419,0.16c-1.91,0 -3.89,0.08 -5.8,0.16c0,0 5.8,7.389 5.8,17.389l0,0.401c-0.08,59.96 -0.241,119.909 -0.321,179.792l0.321,0c11.99,-2.23 23.979,-4.46 36.049,-6.51c16.99,-2.95 33.99,-5.65 50.98,-8.26c15.17,-2.39 27.64,-16.207 27.711,-31.217c0.319,-42.165 0.559,-84.405 0.869,-126.576c0.08,-15.01 -12.229,-27.079 -27.56,-26.839l0.02,-0.01Z" style="fill:#fac03d;fill-rule:nonzero;"/><path d="M202.091,980.453c-14.209,1.909 -28.349,3.81 -42.489,5.95c0.159,-43.036 0.239,-85.995 0.399,-129.036c14.211,-0.639 28.43,-1.19 42.64,-1.829c-0.16,41.61 -0.32,83.22 -0.48,124.845l-0.08,0.08l0.01,-0.01Z" style="fill:#231815;fill-rule:nonzero;"/><path d="M341.862,823.128c-20.171,0.239 -40.34,0.479 -60.51,0.71c-15.25,0.159 -27.711,12.469 -27.79,27.48c-0.081,41.77 -0.241,83.539 -0.32,125.225c-0,14.939 12.229,25.337 27.479,23.429c20.091,-2.459 40.181,-4.6 60.271,-6.589c15.33,-1.5 27.71,-13.891 27.79,-27.865l0.48,-117.45c-0,-13.98 -12.31,-25.17 -27.56,-25.011l0.16,0.081l-0,-0.01Z" style="fill:#fac03d;fill-rule:nonzero;"/><path d="M332.332,966.228c-14.21,1.19 -28.43,2.54 -42.641,3.97c0.161,-39.23 0.401,-78.54 0.56,-117.771c14.211,-0.399 28.431,-0.87 42.641,-1.19c-0.16,38.361 -0.32,76.63 -0.56,114.991Z" style="fill:#231815;fill-rule:nonzero;"/><path d="M602.571,821.778l-60.51,0c-15.25,0 -27.709,10.88 -27.709,24.3c-0,45.5 -0.161,91.09 -0.241,136.585c12.23,-0.31 24.46,-0.551 36.77,-0.7l-0,-66.945c14.291,-0.08 28.51,-0.161 42.8,-0.08l0,66.855c12.23,0 24.54,0.24 36.77,0.48c0,-45.416 -0.08,-90.846 -0.159,-136.265c0,-13.34 -12.391,-24.22 -27.711,-24.22l-0.01,-0.01Z" style="fill:#fac03d;fill-rule:nonzero;"/><rect x="550.951" y="847.908" width="42.721" height="40.74" style="fill:#231815;"/><path d="M754.561,891.668c-18.66,-0.64 -37.24,-1.19 -55.91,-1.59c-0,-13.74 -0,-27.56 -0.08,-41.29c26.21,0.319 52.33,0.79 78.54,1.269c0,-9.13 0,-18.26 -0.08,-27.399c-29.14,-0.24 -58.29,-0.481 -87.429,-0.64c-15.25,0 -27.641,10.719 -27.641,24.14c0,15.089 0,30.18 0.081,45.26c0,13.42 12.469,24.54 27.789,24.939c17.23,0.481 34.461,1.111 51.7,1.75c-0,13.981 0.08,27.871 0.16,41.851c-26.36,-1.51 -52.81,-2.54 -79.17,-3.341l-0,26.445c29.38,0.951 58.84,2.451 88.151,4.531c15.329,1.11 27.709,-9.13 27.639,-23.115c-0.24,-17.15 -0.48,-34.31 -0.79,-51.46c-0.16,-11.44 -10.4,-21.04 -23.03,-21.44l0.08,0.08l-0.01,0.01Z" style="fill:#fff;fill-rule:nonzero;"/><path d="M884.961,897.778c-18.58,-1.11 -37.24,-2.14 -55.83,-3.02c0,-14.53 -0.16,-28.99 -0.24,-43.521c26.211,0.711 52.33,1.51 78.461,2.38c0,-9.769 -0.081,-19.609 -0.161,-29.38c-29.14,-0.479 -58.29,-0.789 -87.43,-1.109c-15.25,-0.16 -27.64,11.04 -27.56,25.01c0,15.719 0.16,31.45 0.24,47.169c0,13.981 12.47,25.971 27.791,26.921c17.229,1.03 34.389,2.22 51.62,3.49c-0,14.85 0.159,29.7 0.239,44.55c-26.29,-2.7 -52.65,-4.92 -79.01,-6.911c-0,9.211 0.08,18.346 0.16,27.556c29.38,2.55 58.69,5.569 87.91,9.137c15.25,1.9 27.56,-8.507 27.48,-23.517c-0.24,-18.416 -0.56,-36.845 -0.79,-55.265c-0.16,-12.31 -10.4,-22.87 -22.95,-23.591l0.08,0.081l-0.01,0.02Z" style="fill:#fff;fill-rule:nonzero;"/><path d="M498.931,896.427c0,-16.759 0,-33.43 0.081,-50.19c0,-13.419 -12.31,-24.219 -27.64,-24.139c-19.931,0.079 -39.86,0.24 -59.8,0.399c-15.25,0.081 -27.71,11.441 -27.79,25.411c-0.16,47.25 -0.4,94.579 -0.561,141.834c12.231,-0.959 24.461,-1.839 36.69,-2.62c0.161,-45.904 0.321,-91.724 0.481,-137.625c14.21,-0.239 28.43,-0.479 42.72,-0.64c0,13.741 0,27.561 -0.08,41.291c-12.47,0.32 -24.86,0.64 -37.32,1.029c0,0.161 37.16,49.241 37.09,93.555c12.23,-0.569 24.46,-1.11 36.77,-1.509c0,-0 -1.75,-30.106 -22.71,-66.866c12.23,-0.319 22.079,-9.209 22.16,-19.849l-0.081,-0.081l-0.01,-0Z" style="fill:#fac03d;fill-rule:nonzero;"/><path d="M1037.74,917.948c0,-24.701 -0.08,-49.391 -0.16,-74.091c0.08,-9.849 5.8,-17.069 5.8,-17.069c-1.91,0 -3.89,-0.08 -5.8,-0.16c-2.78,0 -5.64,-0.081 -8.42,-0.16c-26.29,-0.56 -52.569,-1.03 -78.939,-1.51c-15.25,-0.24 -27.56,11.83 -27.56,26.839c0.24,51.301 0.48,102.521 0.64,153.823c12.15,1.67 24.301,3.49 36.53,5.4c-0.159,-51.783 -0.4,-103.552 -0.56,-155.413c14.211,0.561 28.43,1.19 42.639,1.831c0,16.28 0.08,32.559 0.16,48.76c-12.389,-1.03 -24.778,-1.99 -37.159,-2.94c0,-0.48 37.399,61.31 37.479,114.662c12.15,2.06 24.22,4.29 36.37,6.51c0,0.17 -1.83,-37.948 -22.87,-85.282c12.15,1.43 21.92,-8.02 21.92,-21.2l-0.08,0l0.01,0Z" style="fill:#fff;fill-rule:nonzero;"/></svg>