<svg xmlns="http://www.w3.org/2000/svg" width="100%" height="100%" viewBox="0 0 1133 1133" version="1.1">
  <path clip-rule="evenodd" fill="#ffffff" d="M1100.702,774.247 L1029.322,774.247 L1029.322,349.38 C1106.641,283.374 1117.172,194.572 1117.172,194.572 L1082.631,214.746 C1125.572,112.6 1081.292,41.113 1081.292,41.113 C1081.292,41.113 1053.641,85.753 986.307,71.615 L986.07,71.615 L985.832,71.456 L979.178,69.788 C942.818,60.813 914.062,53.744 872.948,53.744 L868.433,53.744 C823.676,53.744 779.79,68.12 743.35,94.49 L618.426,22.209 L591.255,6.483 L579.372,-0.427 L567.49,6.483 L540.318,22.209 L273.359,176.699 C245.633,148.82 206.579,57.476 206.579,57.476 C206.579,57.476 178.299,181.863 7.509,256.686 C7.509,256.686 106.451,305.694 129.343,328.172 L129.343,774.168 L32.382,774.168 L34.839,808.482 L41.175,814.916 C47.037,820.952 53.376,830.721 53.376,838.03 L53.376,838.427 C53.376,847.323 54.168,1098.562 54.168,1100.782 L49.176,1133.422 L83.16,1125.802 C216.164,1095.932 360.26,1077.352 499.918,1071.872 L539.368,1070.362 L540.24,1070.912 L567.41,1086.642 L579.293,1093.552 L591.175,1086.642 L618.347,1070.912 L618.823,1070.602 L658.985,1071.792 C799.753,1076.082 940.917,1093.712 1078.672,1124.052 L1108.381,1130.642 L1106.081,1060.193 C1106.081,1058.052 1105.131,1011.342 1091.192,962.893 C1099.432,951.296 1104.021,936.76 1104.021,921.112 C1104.021,921.112 1105.131,838.268 1105.131,837.711 C1105.131,825.242 1114.322,817.456 1115.351,816.583 L1123.751,809.831 L1125.491,774.089 L1100.621,774.089 L1100.702,774.247 Z"/>
  <path clip-rule="evenodd" fill="#231815" d="M78.052,1102.412 C224.492,1069.622 371.242,1052.943 500.121,1047.943 L464.072,1027.132 C334.712,1033.722 205.661,1051.032 77.972,1079.142 L77.972,1102.402 L78.052,1102.402 L78.052,1102.412 Z"/>
  <path clip-rule="evenodd" fill="#231815" d="M661.331,1047.952 C803.792,1052.323 945.941,1069.872 1086.422,1100.762 C1086.261,1094.162 1085.942,1086.552 1085.631,1079.082 C957.301,1050.812 827.542,1033.502 697.471,1027.073 L661.341,1047.962 L661.331,1047.952 Z"/>
  <path clip-rule="evenodd" fill="#231815" d="M580.651,89.997 L953.491,305.208 L953.491,787.638 L580.651,1002.852 L207.811,787.638 L207.811,305.288 L580.651,90.077 M580.651,27.188 L553.411,42.907 L180.571,258.118 L153.331,273.838 L153.331,819.158 L180.571,834.878 L553.411,1050.092 L580.651,1065.812 L607.891,1050.092 L980.732,834.878 L1007.971,819.158 L1007.971,273.838 L980.732,258.118 L607.891,42.828 L580.651,27.108 L580.651,27.188 Z"/>
  <path clip-rule="evenodd" fill="#231815" d="M1073.562,76.658 C1073.562,76.658 1059.501,99.768 1018.211,99.768 C1007.411,99.768 994.781,98.178 980.011,94.208 C939.672,84.277 911.321,76.658 868.281,77.217 C795.061,77.217 728.121,120.018 698.971,181.727 C671.331,176.488 642.431,173.787 612.411,173.787 C598.831,173.787 584.771,174.348 570.801,175.378 C558.091,176.087 456.292,184.037 352.501,254.157 C276.982,229.617 227.591,178.878 204.561,101.768 C180.891,181.087 129.352,232.548 50.021,256.288 C129.352,279.948 184.231,338.878 203.681,417.808 C203.681,417.808 203.761,417.808 203.841,417.728 C152.941,514.288 152.781,629.278 204.951,723.388 C265.542,832.737 385.532,895.398 534.111,895.398 C567.781,895.398 603.281,892.218 639.571,885.948 C829.441,853.307 914.261,761.107 951.982,689.557 C1016.072,567.898 987.401,435.918 960.401,377.068 C959.371,374.848 958.181,372.698 957.061,370.478 C997.561,349.358 1045.292,312.348 1070.141,249.298 C1070.141,249.298 1044.731,264.068 1027.182,266.288 C1027.182,266.288 1097.861,174.727 1073.481,76.727 L1073.562,76.648 L1073.562,76.658 Z"/>
  <path clip-rule="evenodd" fill="#fbe9ec" d="M633.542,836.788 C599.081,842.747 566.751,845.448 536.581,845.448 C342.501,845.448 236.242,731.098 220.521,604.198 C250.062,596.737 359.572,566.158 479.402,497.068 C479.402,497.068 487.342,473.798 490.762,430.128 C490.762,430.128 579.071,548.607 526.732,759.848 C526.732,759.848 618.531,721.177 657.841,603.247 C669.121,594.198 694.771,578.078 719.461,594.357 C735.261,604.677 741.301,629.538 733.751,653.278 C723.901,684.247 695.391,701.878 657.361,700.688 L656.331,731.098 C658.081,731.098 659.741,731.177 661.411,731.177 C671.651,731.177 681.021,730.068 689.761,728.078 C698.971,752.057 721.211,784.138 760.911,799.468 C725.251,815.427 683.172,828.218 633.691,836.708 L633.531,836.788 L633.542,836.788 Z"/>
  <path clip-rule="evenodd" fill="#fac03d" d="M916.961,404.628 C953.811,484.838 975.721,676.848 805.151,782.307 C747.891,780.008 726.061,739.107 719.542,722.588 C742.172,709.247 756.232,688.758 762.581,668.747 C774.331,631.588 763.371,593.148 735.982,575.198 C712.551,559.867 688.331,561.297 668.241,568.848 C674.511,536.448 676.982,499.438 673.561,456.958 C673.561,456.958 650.931,595.448 574.852,676.607 C574.852,676.607 599.982,449.918 467.282,377.258 C467.282,377.258 463.872,430.308 449.492,479.298 C449.492,479.298 369.682,525.987 217.531,563.478 C219.671,517.018 234.731,471.648 260.782,429.958 C378.632,241.118 576.361,232.217 576.361,232.217 C589.461,231.187 602.251,230.708 614.721,230.708 C640.371,230.708 664.431,233.007 687.141,236.977 C676.261,324.568 742.251,400.168 836.201,406.758 C840.491,407.078 844.781,407.238 849.061,407.238 C862.881,407.238 876.542,405.728 889.721,402.788 C902.901,399.848 898.771,401.118 912.911,396.598 C914.261,399.298 915.771,401.997 917.042,404.778 L916.961,404.618 L916.961,404.628 Z"/>
  <path clip-rule="evenodd" fill="#fac03d" d="M932.131,305.918 L965.721,308.938 C938.011,328.398 909.661,337.768 894.491,341.818 L880.672,344.838 C870.821,346.978 860.901,348.098 851.051,348.098 C847.951,348.098 844.861,348.018 841.761,347.778 C808.331,345.478 779.422,331.178 760.441,307.518 C743.681,286.708 736.701,260.508 740.672,233.588 C749.411,174.427 806.031,128.688 871.221,128.128 C908.621,127.807 944.121,137.897 970.801,143.378 C989.141,147.107 1006.221,150.688 1022.422,150.688 C1024.251,150.688 1025.991,150.688 1027.741,150.607 C1014.081,230.817 932.211,305.938 932.211,305.938 L932.131,305.938 L932.131,305.918 Z"/>
  <path clip-rule="evenodd" fill="#ffffff" d="M970.801,143.367 C944.121,137.967 908.621,127.807 871.221,128.117 C805.941,128.677 749.321,174.417 740.672,233.577 C736.701,260.418 743.771,286.708 760.441,307.508 C779.422,331.098 808.331,345.388 841.761,347.768 L843.111,347.768 C828.741,343.878 792.602,330.378 775.371,289.717 C749.321,228.257 790.701,139.307 918.471,152.967 C985.811,160.197 1015.192,156.537 1027.661,151.057 C1027.661,150.897 1027.661,150.738 1027.741,150.577 C1025.991,150.577 1024.251,150.658 1022.422,150.658 C1006.221,150.658 989.151,147.087 970.801,143.348 L970.801,143.367 Z"/>
  <path clip-rule="evenodd" fill="#ed7a95" d="M519.141,668.948 C527.911,681.538 516.161,704.878 492.902,721.057 C469.642,737.237 443.682,740.138 434.911,727.547 C426.142,714.948 437.892,691.617 461.152,675.427 C484.411,659.237 510.371,656.348 519.141,668.948 Z"/>
  <path clip-rule="evenodd" fill="#231815" d="M486.072,556.628 C494.962,608.568 452.962,664.468 392.282,681.468 C339.392,696.318 289.842,676.628 272.052,636.997 L481.622,541.068 C483.532,545.987 485.112,551.158 486.072,556.557 L486.072,556.638 L486.072,556.628 Z"/>
  <path clip-rule="evenodd" fill="#ffffff" d="M423.022,594.588 C423.022,594.588 427.152,621.588 399.432,652.398 C399.432,652.398 449.941,636.677 453.112,580.927 L423.012,594.588 L423.022,594.588 Z"/>
  <path clip-rule="evenodd" fill="#fac03d" d="M204.77,330.972 C193.329,292.532 168.399,267.602 129.959,256.161 C168.399,244.722 193.329,219.792 204.77,181.352 C216.209,219.792 241.139,244.722 279.579,256.161 C241.139,267.602 216.209,292.532 204.77,330.972 Z"/>
  <path clip-rule="evenodd" fill="#ffffff" d="M467.282,377.268 C467.282,377.268 445.682,439.688 432.501,457.318 C432.501,457.318 339.672,495.598 278.362,507.908 C278.362,507.908 332.292,233.097 686.461,243.577 C686.621,241.037 686.821,239.537 687.141,236.997 C664.431,233.028 639.292,229.567 613.641,229.567 C601.172,229.567 588.471,230.048 575.281,231.077 C575.281,231.077 377.542,239.967 259.702,428.818 C233.651,470.588 219.681,517.047 217.531,563.497 C222.291,562.307 269.682,550.458 323.062,532.818 C430.492,494.208 449.492,479.328 449.492,479.328 C463.862,430.328 467.282,377.288 467.282,377.288"/>
  <path clip-rule="evenodd" fill="#231815" d="M1066.971,956.938 C1076.741,949.237 1082.932,936.208 1082.851,920.968 C1082.851,920.968 1083.961,838.857 1083.961,837.747 C1083.961,812.258 1103.261,798.038 1103.261,797.958 L57.882,797.958 C57.882,797.958 77.182,816.378 77.102,837.978 C77.102,837.978 77.892,1060.252 77.892,1060.162 C410.312,985.763 752.491,985.913 1084.831,1060.573 C1084.831,1060.573 1083.961,1006.883 1066.881,956.938 L1066.971,956.938 Z"/>
  <path clip-rule="evenodd" fill="#fac03d" d="M211.541,824.958 C185.021,825.438 158.411,825.908 131.891,826.468 C129.111,826.468 126.252,826.547 123.472,826.628 C121.562,826.628 119.582,826.708 117.672,826.788 C117.672,826.788 123.472,834.177 123.472,844.177 L123.472,844.578 C123.392,904.538 123.231,964.487 123.151,1024.372 L123.472,1024.372 C135.462,1022.143 147.451,1019.913 159.521,1017.862 C176.511,1014.913 193.511,1012.212 210.501,1009.602 C225.671,1007.212 238.141,993.393 238.212,978.383 C238.531,936.218 238.771,893.978 239.081,851.807 C239.161,836.797 226.852,824.728 211.521,824.968 L211.541,824.958 Z"/>
  <path clip-rule="evenodd" fill="#231815" d="M202.091,980.453 C187.882,982.362 173.742,984.263 159.602,986.403 C159.761,943.367 159.841,900.408 160.001,857.367 C174.212,856.728 188.431,856.177 202.641,855.538 C202.481,897.148 202.321,938.758 202.161,980.383 L202.081,980.463 L202.091,980.453 Z"/>
  <path clip-rule="evenodd" fill="#fac03d" d="M341.862,823.128 C321.691,823.367 301.522,823.607 281.352,823.838 C266.102,823.997 253.641,836.307 253.562,851.318 C253.481,893.088 253.321,934.857 253.242,976.543 C253.242,991.482 265.471,1001.883 280.721,999.972 C300.812,997.513 320.902,995.372 340.992,993.383 C356.322,991.883 368.702,979.492 368.782,965.518 L369.262,848.068 C369.262,834.088 356.952,822.898 341.702,823.057 L341.862,823.138 L341.862,823.128 Z"/>
  <path clip-rule="evenodd" fill="#231815" d="M332.332,966.228 C318.122,967.418 303.902,968.768 289.691,970.198 C289.852,930.968 290.092,891.658 290.251,852.427 C304.462,852.028 318.682,851.557 332.892,851.237 C332.732,889.598 332.572,927.867 332.332,966.228 Z"/>
  <path clip-rule="evenodd" fill="#fac03d" d="M602.571,821.778 L542.061,821.778 C526.811,821.778 514.352,832.658 514.352,846.078 C514.352,891.578 514.191,937.168 514.111,982.663 C526.341,982.353 538.571,982.112 550.881,981.963 L550.881,915.018 C565.172,914.938 579.391,914.857 593.681,914.938 L593.681,981.793 C605.911,981.793 618.221,982.033 630.451,982.273 C630.451,936.857 630.371,891.427 630.292,846.008 C630.292,832.668 617.901,821.788 602.581,821.788 L602.571,821.778 Z"/>
  <path clip-rule="evenodd" fill="#231815" d="M550.951,847.908 L593.672,847.908 L593.672,888.648 L550.951,888.648 L550.951,847.908 Z"/>
  <path clip-rule="evenodd" fill="#ffffff" d="M754.561,891.668 C735.901,891.028 717.321,890.478 698.651,890.078 C698.651,876.338 698.651,862.518 698.571,848.788 C724.781,849.107 750.901,849.578 777.111,850.057 C777.111,840.927 777.111,831.797 777.031,822.658 C747.891,822.418 718.741,822.177 689.602,822.018 C674.352,822.018 661.961,832.737 661.961,846.158 C661.961,861.247 661.961,876.338 662.042,891.418 C662.042,904.838 674.511,915.958 689.831,916.357 C707.061,916.838 724.292,917.468 741.531,918.107 C741.531,932.088 741.611,945.978 741.691,959.958 C715.331,958.448 688.881,957.418 662.521,956.617 L662.521,983.062 C691.901,984.013 721.361,985.513 750.672,987.593 C766.001,988.703 778.381,978.463 778.311,964.478 C778.071,947.328 777.831,930.168 777.521,913.018 C777.361,901.578 767.121,891.978 754.491,891.578 L754.571,891.658 L754.561,891.668 Z"/>
  <path clip-rule="evenodd" fill="#ffffff" d="M884.961,897.778 C866.381,896.668 847.721,895.638 829.131,894.758 C829.131,880.228 828.971,865.768 828.891,851.237 C855.102,851.948 881.221,852.747 907.352,853.617 C907.352,843.848 907.271,834.008 907.191,824.237 C878.051,823.758 848.901,823.448 819.761,823.128 C804.511,822.968 792.121,834.168 792.201,848.138 C792.201,863.857 792.361,879.588 792.441,895.307 C792.441,909.288 804.911,921.278 820.232,922.228 C837.461,923.258 854.621,924.448 871.852,925.718 C871.852,940.568 872.011,955.418 872.091,970.268 C845.801,967.568 819.441,965.348 793.081,963.357 C793.081,972.568 793.161,981.703 793.241,990.913 C822.621,993.463 851.931,996.482 881.151,1000.053 C896.401,1001.952 908.711,991.543 908.631,976.533 C908.391,958.117 908.071,939.688 907.841,921.268 C907.681,908.958 897.441,898.398 884.891,897.677 L884.971,897.758 L884.961,897.778 Z"/>
  <path clip-rule="evenodd" fill="#fac03d" d="M498.931,896.427 C498.931,879.668 498.931,862.997 499.012,846.237 C499.012,832.818 486.702,822.018 471.372,822.098 C451.441,822.177 431.512,822.338 411.572,822.497 C396.322,822.578 383.862,833.938 383.782,847.908 C383.622,895.158 383.382,942.487 383.221,989.742 C395.452,988.783 407.682,987.903 419.911,987.122 C420.072,941.218 420.232,895.398 420.392,849.497 C434.602,849.258 448.822,849.018 463.112,848.857 C463.112,862.598 463.112,876.418 463.032,890.148 C450.562,890.468 438.172,890.788 425.712,891.177 C425.712,891.338 462.872,940.418 462.802,984.732 C475.032,984.163 487.262,983.622 499.572,983.223 C499.572,983.223 497.822,953.117 476.862,916.357 C489.092,916.038 498.941,907.148 499.022,896.508 L498.941,896.427 L498.931,896.427 Z"/>
  <path clip-rule="evenodd" fill="#ffffff" d="M1037.741,917.948 C1037.741,893.247 1037.661,868.557 1037.581,843.857 C1037.661,834.008 1043.381,826.788 1043.381,826.788 C1041.471,826.788 1039.491,826.708 1037.581,826.628 C1034.802,826.628 1031.942,826.547 1029.161,826.468 C1002.871,825.908 976.591,825.438 950.221,824.958 C934.971,824.718 922.661,836.788 922.661,851.797 C922.901,903.098 923.141,954.318 923.301,1005.622 C935.451,1007.293 947.602,1009.112 959.831,1011.023 C959.672,959.237 959.431,907.468 959.271,855.607 C973.482,856.168 987.701,856.797 1001.911,857.438 C1001.911,873.718 1001.991,889.997 1002.071,906.198 C989.681,905.168 977.292,904.208 964.911,903.258 C964.911,902.778 1002.311,964.568 1002.391,1017.923 C1014.542,1019.982 1026.611,1022.212 1038.761,1024.432 C1038.761,1024.602 1036.932,986.482 1015.891,939.148 C1028.042,940.578 1037.812,931.128 1037.812,917.948 L1037.731,917.948 L1037.741,917.948 Z"/>
</svg>