<?xml version="1.0" encoding="UTF-8" standalone="no"?>
<!DOCTYPE svg PUBLIC "-//W3C//DTD SVG 1.1//EN" "http://www.w3.org/Graphics/SVG/1.1/DTD/svg11.dtd">
<svg width="100%" height="100%" viewBox="0 0 1029 1039" version="1.1" xmlns="http://www.w3.org/2000/svg" xmlns:xlink="http://www.w3.org/1999/xlink" xml:space="preserve" xmlns:serif="http://www.serif.com/" style="fill-rule:evenodd;clip-rule:evenodd;stroke-linejoin:round;stroke-miterlimit:2;">
    <g transform="matrix(1,0,0,1,-13.38,-2.345)">
        <path d="M544.01,65.235L916.85,280.445L916.85,762.875L544.01,978.085L171.17,762.875L171.17,280.525L544.01,65.315M544.01,2.425L516.77,18.145L143.93,233.355L116.69,249.075L116.69,794.395L143.93,810.115L516.77,1025.33L544.01,1041.05L571.25,1025.33L944.09,810.115L971.33,794.395L971.33,249.075L944.09,233.355L571.25,18.065L544.01,2.345L544.01,2.425Z" style="fill:rgb(250,192,61);fill-rule:nonzero;"/>
        <path d="M1036.92,51.895C1036.92,51.895 1022.86,75.005 981.57,75.005C970.77,75.005 958.14,73.415 943.37,69.445C903.03,59.515 874.68,51.895 831.64,52.455C758.42,52.455 691.48,95.255 662.33,156.965C634.69,151.725 605.79,149.025 575.77,149.025C562.19,149.025 548.13,149.585 534.16,150.615C521.45,151.325 419.65,159.275 315.86,229.395C240.34,204.855 190.95,154.115 167.92,77.005C144.25,156.325 92.71,207.785 13.38,231.525C92.71,255.185 147.59,314.115 167.04,393.045C167.04,393.045 167.12,393.045 167.2,392.965C116.3,489.525 116.14,604.515 168.31,698.625C228.9,807.975 348.89,870.635 497.47,870.635C531.14,870.635 566.64,867.455 602.93,861.185C792.8,828.545 877.62,736.345 915.34,664.795C979.43,543.135 950.76,411.155 923.76,352.305C922.73,350.085 921.54,347.935 920.42,345.715C960.92,324.595 1008.65,287.585 1033.5,224.535C1033.5,224.535 1008.09,239.305 990.54,241.525C990.54,241.525 1061.22,149.965 1036.84,51.965L1036.92,51.885L1036.92,51.895Z" style="fill:rgb(35,24,21);fill-rule:nonzero;"/>
        <path d="M596.9,812.025C562.44,817.985 530.11,820.685 499.94,820.685C305.86,820.685 199.6,706.335 183.88,579.435C213.42,571.975 322.93,541.395 442.76,472.305C442.76,472.305 450.7,449.035 454.12,405.365C454.12,405.365 542.43,523.845 490.09,735.085C490.09,735.085 581.89,696.415 621.2,578.485C632.48,569.435 658.13,553.315 682.82,569.595C698.62,579.915 704.66,604.775 697.11,628.515C687.26,659.485 658.75,677.115 620.72,675.925L619.69,706.335C621.44,706.335 623.1,706.415 624.77,706.415C635.01,706.415 644.38,705.305 653.12,703.315C662.33,727.295 684.57,759.375 724.27,774.705C688.61,790.665 646.53,803.455 597.05,811.945L596.89,812.025L596.9,812.025Z" style="fill:rgb(251,233,236);fill-rule:nonzero;"/>
        <path d="M880.32,379.865C917.17,460.075 939.08,652.085 768.51,757.545C711.25,755.245 689.42,714.345 682.9,697.825C705.53,684.485 719.59,663.995 725.94,643.985C737.69,606.825 726.73,568.385 699.34,550.435C675.91,535.105 651.69,536.535 631.6,544.085C637.87,511.685 640.34,474.675 636.92,432.195C636.92,432.195 614.29,570.685 538.21,651.845C538.21,651.845 563.34,425.155 430.64,352.495C430.64,352.495 427.23,405.545 412.85,454.535C412.85,454.535 333.04,501.225 180.89,538.715C183.03,492.255 198.09,446.885 224.14,405.195C341.99,216.355 539.72,207.455 539.72,207.455C552.82,206.425 565.61,205.945 578.08,205.945C603.73,205.945 627.79,208.245 650.5,212.215C639.62,299.805 705.61,375.405 799.56,381.995C803.85,382.315 808.14,382.475 812.42,382.475C826.24,382.475 839.9,380.965 853.08,378.025C866.26,375.085 862.13,376.355 876.27,371.835C877.62,374.535 879.13,377.235 880.4,380.015L880.32,379.855L880.32,379.865Z" style="fill:rgb(250,192,61);fill-rule:nonzero;"/>
        <path d="M895.49,281.155L929.08,284.175C901.37,303.635 873.02,313.005 857.85,317.055L844.03,320.075C834.18,322.215 824.26,323.335 814.41,323.335C811.31,323.335 808.22,323.255 805.12,323.015C771.69,320.715 742.78,306.415 723.8,282.755C707.04,261.945 700.06,235.745 704.03,208.825C712.77,149.665 769.39,103.925 834.58,103.365C871.98,103.045 907.48,113.135 934.16,118.615C952.5,122.345 969.58,125.925 985.78,125.925C987.61,125.925 989.35,125.925 991.1,125.845C977.44,206.055 895.57,281.175 895.57,281.175L895.49,281.175L895.49,281.155Z" style="fill:rgb(250,192,61);fill-rule:nonzero;"/>
        <path d="M934.16,118.605C907.48,113.205 871.98,103.045 834.58,103.355C769.3,103.915 712.68,149.655 704.03,208.815C700.06,235.655 707.13,261.945 723.8,282.745C742.78,306.335 771.69,320.625 805.12,323.005L806.47,323.005C792.1,319.115 755.96,305.615 738.73,264.955C712.68,203.495 754.06,114.545 881.83,128.205C949.17,135.435 978.55,131.775 991.02,126.295C991.02,126.135 991.02,125.975 991.1,125.815C989.35,125.815 987.61,125.895 985.78,125.895C969.58,125.895 952.51,122.325 934.16,118.585L934.16,118.605Z" style="fill:white;fill-rule:nonzero;"/>
        <path d="M482.5,644.185C491.27,656.775 479.52,680.115 456.26,696.295C433,712.475 407.04,715.375 398.27,702.785C389.5,690.185 401.25,666.855 424.51,650.665C447.77,634.475 473.73,631.585 482.5,644.185Z" style="fill:rgb(237,122,149);fill-rule:nonzero;"/>
        <path d="M449.43,531.865C458.32,583.805 416.32,639.705 355.64,656.705C302.75,671.555 253.2,651.865 235.41,612.235L444.98,516.305C446.89,521.225 448.47,526.395 449.43,531.795L449.43,531.875L449.43,531.865Z" style="fill:rgb(35,24,21);fill-rule:nonzero;"/>
        <path d="M386.38,569.825C386.38,569.825 390.51,596.825 362.79,627.635C362.79,627.635 413.3,611.915 416.47,556.165L386.37,569.825L386.38,569.825Z" style="fill:white;fill-rule:nonzero;"/>
        <path d="M168.128,306.209C156.688,267.769 131.758,242.839 93.318,231.399C131.758,219.959 156.688,195.029 168.128,156.589C179.568,195.029 204.498,219.959 242.938,231.399C204.498,242.839 179.568,267.769 168.128,306.209Z" style="fill:rgb(250,192,61);fill-rule:nonzero;"/>
        <path d="M430.64,352.505C430.64,352.505 409.04,414.925 395.86,432.555C395.86,432.555 303.03,470.835 241.72,483.145C241.72,483.145 295.65,208.335 649.82,218.815C649.98,216.275 650.18,214.775 650.5,212.235C627.79,208.265 602.65,204.805 577,204.805C564.53,204.805 551.83,205.285 538.64,206.315C538.64,206.315 340.9,215.205 223.06,404.055C197.01,445.825 183.04,492.285 180.89,538.735C185.65,537.545 233.04,525.695 286.42,508.055C393.85,469.445 412.85,454.565 412.85,454.565C427.22,405.565 430.64,352.525 430.64,352.525" style="fill:white;fill-rule:nonzero;"/>
    </g>
</svg>
