<?xml version="1.0" encoding="UTF-8" standalone="no"?><!DOCTYPE svg PUBLIC "-//W3C//DTD SVG 1.1//EN" "http://www.w3.org/Graphics/SVG/1.1/DTD/svg11.dtd"><svg width="100%" height="100%" viewBox="0 0 411 83" version="1.1" xmlns="http://www.w3.org/2000/svg" xmlns:xlink="http://www.w3.org/1999/xlink" xml:space="preserve" xmlns:serif="http://www.serif.com/" style="fill-rule:evenodd;clip-rule:evenodd;stroke-linejoin:round;stroke-miterlimit:2;"><path d="M77.9,22.4c2.9,5.7 4.6,12.1 4.6,18.9c0,6.8 -0.1,3.9 -0.4,5.8c-9,-5.3 -18.6,-8.7 -28.5,-10.2l-6,-14.4l30.3,-0l0,-0.1Zm-43.5,13.7c2.3,-0.2 4.5,-0.3 6.8,-0.3c2.3,-0 4.5,0.1 6.8,0.3l-3.8,-11.9c-0.4,-1.4 -1.7,-2 -3,-2c-1.3,-0 -2.6,0.7 -3,2l-3.8,11.9Zm-29.8,-13.7l30.3,0l-6,14.4c-9.9,1.6 -19.6,5 -28.5,10.2c-0.3,-1.9 -0.4,-3.8 -0.4,-5.8c0,-6.8 1.6,-13.2 4.6,-18.9l0,0.1Zm75.1,33.9c-7.2,-7.6 -15.6,-12.7 -24.4,-15.4l11.6,27.9c1.1,2.5 2.4,2.8 4,1.2c3.8,-3.9 6.8,-8.5 8.8,-13.6l0,-0.1Zm-76.8,0c2,5.1 5,9.7 8.8,13.6c1.6,1.7 3,1.4 4,-1.2l11.6,-27.9c-8.8,2.7 -17.1,7.8 -24.4,15.4l0,0.1Zm58.4,21l-12.1,-37.8c-2.6,-0.4 -5.2,-0.7 -7.9,-0.7c-2.6,0 -5.3,0.2 -7.9,0.7l-12.1,37.8c5.9,3.3 12.8,5.2 20,5.2c7.2,0 14.1,-1.9 20,-5.2Zm-20.1,-77.3c13.2,0 24.9,6.2 32.4,15.8c-10.5,2.5 -21.4,3.8 -32.4,3.8c-11,0 -21.9,-1.3 -32.4,-3.8c7.6,-9.6 19.3,-15.8 32.4,-15.8Z" style="fill:url(#_Linear1);fill-rule:nonzero;"/><path d="M137.1,18.6l6.6,0l-1.3,-4.4l4,0l1.3,4.4l5.2,0l0,2.7l-9,0l0,3.4l7.5,0l0,17.7c0,1.1 -0.9,2 -2,2l-5.3,0l0,-2.7l3.2,0l0,-14.3l-3.4,0l0,1.9c0,5 -0.7,11.4 -3.6,15.1l-3.7,0c2.8,-5.1 3.2,-9.9 3.2,-14.7l0,-8.4l-2.7,0l0,-2.7Zm-32.8,-3.8l28.2,0l0,2.7l-4.4,0l0,10.5l5.5,0l0,2.7l-5.5,0l0,13.7l-4,0l0,-13.7l-10.4,0c-0.3,4.6 -1.6,9.7 -5.3,13.7l-4.6,0c3.8,-3.9 5.6,-8.9 5.9,-13.7l-6.3,0l0,-2.7l6.4,0l0,-10.5l-5.3,0l0,-2.7l-0.2,0Zm19.7,2.7l-10.4,0l0,10.5l10.4,0l0,-10.5Zm264.5,0c-0.9,3.4 -2.6,6.4 -4.7,8.9l-3.9,0c2.3,-3.2 4.1,-6.7 5.1,-11.6l20.8,0c1,4.9 2.8,8.3 5.1,11.6l-3.9,0c-2.2,-2.5 -3.8,-5.4 -4.7,-8.9l-13.8,0Zm-0.3,24.2l14.6,0l-2,-5.3l4.2,0l3,8.1l-25.4,0l4.6,-11.2l-4.8,0l-0,-2.7l25.8,0l-0,2.7l-16.6,0l-3.5,8.5l0.1,-0.1Zm-1.8,-18.1l-0,2.7l18,0l-0,-2.7l-18,0Zm-32.5,-6.2c-0.9,3.4 -2.6,6.4 -4.7,8.9l-3.9,0c2.3,-3.2 4.1,-6.7 5.1,-11.6l20.8,0c1,4.9 2.8,8.3 5.1,11.6l-3.9,0c-2.2,-2.5 -3.8,-5.4 -4.7,-8.9l-13.8,0Zm18.5,18l-4.3,0l-2.1,6.2l-3.2,0l-0,-8.5l10.9,0l-0,-2.7l-10.9,0l-0,-4.1l7,0l-0,-2.7l-18,0l-0,2.7l7,0l-0,4.1l-10.9,0l-0,2.7l10.9,0l-0,8.5l-3.2,0l-2.1,-6.2l-4.2,0l2.1,6.2l-5.7,0l-0,2.7l30.3,0l-0,-2.7l-5.7,0l2.1,-6.2Zm-60.3,-19.3l3.1,0l-0,-2l4,0l-0,2l13.8,0l-0,-2l4,0l-0,2l3.1,0l-0,2.7l-3.1,0l-0,11.6l4.2,0l-0,2.7l-4.2,0c0.7,2.3 1.7,4.3 3.5,6.6l-3.9,0c-1.7,-1.8 -2.9,-4.2 -3.7,-6.6l-4.8,0l-0,2.5l5,0l-0,2.7l-5,0l-0,3.3l13.2,0l-0,2.7l-30.3,0l-0,-2.7l13.2,0l-0,-3.3l-5,0l-0,-2.7l5,0l-0,-2.5l-4.8,0c-0.8,2.4 -2,4.8 -3.7,6.6l-3.9,0c1.8,-2.3 2.8,-4.3 3.5,-6.6l-4.2,0l-0,-2.7l4.2,0l-0,-11.6l-3.1,0l-0,-2.7l-0.1,0Zm7.2,9.5l12.6,0l-0,2.7l-12.6,0l-0,2l13.8,0l-0,-11.6l-13.8,0l-0,2l12.6,0l-0,2.7l-12.6,0l-0,2.2Zm-34.8,-10.9l23,0l-0,2.7l-7.7,0l-0.7,3l7.2,0l-0,10.6c-0,1.1 -0.9,2 -2,2l-3.9,0l-0,9.2c-0,1.1 -0.9,2 -2,2l-3.6,0l-0,-2.7l1.6,0l-0,-8.5l-5.9,0l-0,-12.7l4.4,0l0.7,-3l-7,0l-0,12.1c-0,4.9 -0.6,11 -2.8,14.8l-3.7,0c2.2,-4.9 2.5,-9.7 2.5,-14.4l-0,-15.2l-0.1,0.1Zm-8.2,6.6l1.7,4.6l4,0l-1.7,-4.6l-4,0Zm-0,-6.6l1.7,4.6l4,0l-1.7,-4.6l-4,0Zm5.7,13.2l-4.1,0c-0,6.7 -0.7,10.9 -2.7,16.4l4,0c1.9,-4.2 2.8,-9.9 2.8,-16.4Zm19.4,7.4c0.1,3.2 0.8,6.6 2.6,9.1l3.7,0c-1.7,-3.1 -2.2,-5.7 -2.4,-9.1l-4,0l0.1,0Zm-6.8,0l-4,0c-0.1,3.4 -0.7,5.9 -2.4,9.1l3.7,0c1.7,-2.4 2.4,-5.8 2.6,-9.1l0.1,0Zm-0.3,-9.9l6.5,0l-0,2.7l-6.5,0l-0,2.3l7.8,0l-0,-7.2l-7.8,0l-0,2.3l-0,-0.1Zm-51.6,-10.7l28.2,0l-0,2.7l-4.4,0l-0,10.5l5.5,0l-0,2.7l-5.5,0l-0,13.7l-4,0l-0,-13.7l-10.4,0c-0.3,4.6 -1.6,9.7 -5.3,13.7l-4.6,0c3.8,-3.9 5.6,-8.9 5.9,-13.7l-6.3,0l-0,-2.7l6.4,0l-0,-10.5l-5.3,0l-0,-2.7l-0.2,0Zm19.7,2.7l-10.4,0l-0,10.5l10.4,0l-0,-10.5Zm-54.4,-2.7l28.2,0l-0,2.7l-10.8,8.4l-0,2.1l11.9,0l-0,2.7l-11.9,0l-0,11.7c-0,1.1 -0.9,2 -2,2l-10,0l-0,-2.7l8,0l-0,-11l-14.4,0l-0,-2.7l14.4,0l-0,-3.8l8.5,-6.7l-21.9,0l-0,-2.7Zm-33.7,0l28.8,0l-0,2.7l-10.1,0l-0.9,3l9.7,0l-0,10.6c-0,1.1 -0.9,2 -2,2l-6.5,0l-0,9.2c-0,1.1 -0.9,2 -2,2l-4.9,0l-0,-2.7l2.9,0l-0,-8.5l-8.5,0l-0,-12.7l7,0l0.9,-3l-10.4,0l-0,12.1c-0,4.9 -0.6,11 -2.8,14.8l-3.7,0c2.2,-4.9 2.5,-9.7 2.5,-14.4l-0,-15.2l-0,0.1Zm22,20.6c0.3,3.2 1,6.8 2.8,9.1l4,0c-1.8,-3.1 -2.4,-5.7 -2.7,-9.1l-4.1,0Zm-10.5,0l-4.1,0c-0.3,3.4 -0.9,5.9 -2.7,9.1l4,0c1.8,-2.3 2.6,-5.8 2.8,-9.1Zm-1,-9.9l11.4,0l-0,2.7l-11.4,0l-0,2.3l13,0l-0,-7.2l-13,0l-0,2.3l-0,-0.1Zm-21,18.9l5.3,0c-2.6,-2.5 -4.6,-4.9 -6.2,-7.4c2.5,-4.4 3.9,-9.4 4.2,-15.7l1.6,0l-0,-2.7l-9.5,0c0.2,-1.4 0.4,-2.9 0.4,-4.4l-4.2,0c-0.1,4.9 -0.7,8.4 -2.9,13.2l2.6,0c0.6,3.3 1.6,6.5 3.3,9.6c-1.7,2.8 -3.8,5.2 -6.2,7.4l4.8,0c1.3,-1.3 2.5,-2.6 3.5,-3.9c1,1.3 2.1,2.7 3.3,3.9Zm-5.7,-21.1c0.2,-0.7 0.4,-1.3 0.5,-2l4.3,0c-0.3,4.4 -1.2,8.1 -2.4,11.3c-1.2,-2.9 -2,-5.9 -2.4,-9.3Zm-47.6,45c-1.5,0 -2.8,-0.3 -3.9,-0.9c-1.1,-0.6 -2,-1.4 -2.6,-2.5c-0.6,-1.1 -0.9,-2.3 -0.9,-3.6c-0,-1.3 0.3,-2.6 0.9,-3.6c0.6,-1.1 1.5,-1.9 2.6,-2.5c1.1,-0.6 2.4,-0.9 3.9,-0.9c1.5,0 2.8,0.3 3.9,0.9c1.1,0.6 2,1.4 2.6,2.5c0.6,1.1 0.9,2.3 0.9,3.6c-0,1.3 -0.3,2.6 -0.9,3.6c-0.6,1.1 -1.5,1.9 -2.6,2.5c-1.1,0.6 -2.4,0.9 -3.9,0.9Zm-0,-2.1c0.9,0 1.6,-0.2 2.3,-0.6c0.7,-0.4 1.2,-1 1.6,-1.7c0.4,-0.7 0.6,-1.6 0.6,-2.6c-0,-1 -0.2,-1.8 -0.6,-2.6c-0.4,-0.7 -0.9,-1.3 -1.6,-1.7c-0.7,-0.4 -1.4,-0.6 -2.3,-0.6c-0.9,0 -1.6,0.2 -2.3,0.6c-0.7,0.4 -1.2,1 -1.5,1.7c-0.4,0.7 -0.6,1.6 -0.6,2.6c-0,1 0.2,1.8 0.6,2.6c0.4,0.7 0.9,1.3 1.5,1.7c0.7,0.4 1.4,0.6 2.3,0.6Zm22.9,-7.3c-0,0.9 -0.2,1.6 -0.7,2.3c-0.4,0.7 -1.1,1.2 -1.9,1.5c-0.8,0.4 -1.7,0.6 -2.8,0.6l-2.9,0l-0,4.7l-3.1,0l-0,-13.5l6,0c1.1,0 2,0.2 2.8,0.6c0.8,0.4 1.4,0.9 1.9,1.5c0.4,0.7 0.7,1.4 0.7,2.3Zm-3.1,0c-0,-0.8 -0.3,-1.4 -0.8,-1.8c-0.5,-0.4 -1.2,-0.6 -2.2,-0.6l-2.2,0l-0,4.8l2.2,0c0.9,0 1.7,-0.2 2.2,-0.6c0.5,-0.4 0.8,-1 0.8,-1.8Zm10.1,-2.2l-0,3.2l6.5,0l-0,2.1l-6.5,0l-0,3.9l7,0l-0,2.1l-10.1,0l-0,-13.5l10.1,0l-0,2.2l-7,0Zm24.6,-2.2l-0,13.5l-2.8,0l-7.7,-9.5l-0,9.5l-2.8,0l-0,-13.5l3.3,0l7.2,8.9l-0,-8.9l2.8,0Zm13.7,10.1l-5.9,0l-1.2,3.5l-3.2,0l5.5,-13.5l3.8,0l5.5,13.5l-3.3,0l-1.2,-3.5Zm-0.9,-2.2l-2.1,-5.9l-2.1,5.9l4.2,0Zm19.1,-5.8l-4.3,0l-0,11.4l-3.1,0l-0,-11.4l-4.3,0l-0,-2.2l11.7,0l-0,2.2Zm10.3,11.6c-1.5,-0 -2.8,-0.3 -3.9,-0.9c-1.1,-0.6 -2,-1.4 -2.6,-2.5c-0.6,-1.1 -0.9,-2.3 -0.9,-3.6c-0,-1.3 0.3,-2.6 0.9,-3.6c0.6,-1.1 1.5,-1.9 2.6,-2.5c1.1,-0.6 2.4,-0.9 3.9,-0.9c1.5,-0 2.8,0.3 3.9,0.9c1.1,0.6 2,1.4 2.6,2.5c0.6,1.1 0.9,2.3 0.9,3.6c-0,1.3 -0.3,2.6 -0.9,3.6c-0.6,1.1 -1.5,1.9 -2.6,2.5c-1.1,0.6 -2.4,0.9 -3.9,0.9Zm-0,-2.1c0.9,-0 1.6,-0.2 2.3,-0.6c0.7,-0.4 1.2,-1 1.6,-1.7c0.4,-0.7 0.6,-1.6 0.6,-2.6c-0,-1 -0.2,-1.8 -0.6,-2.6c-0.4,-0.7 -0.9,-1.3 -1.6,-1.7c-0.7,-0.4 -1.4,-0.6 -2.3,-0.6c-0.9,-0 -1.6,0.2 -2.3,0.6c-0.7,0.4 -1.2,1 -1.5,1.7c-0.4,0.7 -0.6,1.6 -0.6,2.6c-0,1 0.2,1.8 0.6,2.6c0.4,0.7 0.9,1.3 1.5,1.7c0.7,0.4 1.4,0.6 2.3,0.6Zm28.7,1.9l-3.2,-0l-0,-10.1l-3.9,10.1l-3.3,-0l-3.9,-10.1l-0,10.1l-2.8,-0l-0,-13.5l4.4,-0l4.1,10.6l4.1,-10.6l4.5,-0l-0,13.5Zm19.2,-11.4l-0,3.4l6.3,-0l-0,2.2l-6.3,-0l-0,5.8l-3.1,-0l-0,-13.5l9.8,-0l-0,2.2l-6.7,-0l-0,-0.1Zm17.8,11.6c-1.5,-0 -2.8,-0.3 -3.9,-0.9c-1.1,-0.6 -2,-1.4 -2.6,-2.5c-0.6,-1.1 -0.9,-2.3 -0.9,-3.6c-0,-1.3 0.3,-2.6 0.9,-3.6c0.6,-1.1 1.5,-1.9 2.6,-2.5c1.1,-0.6 2.4,-0.9 3.9,-0.9c1.5,-0 2.8,0.3 3.9,0.9c1.1,0.6 2,1.4 2.6,2.5c0.6,1.1 0.9,2.3 0.9,3.6c-0,1.3 -0.3,2.6 -0.9,3.6c-0.6,1.1 -1.5,1.9 -2.6,2.5c-1.1,0.6 -2.4,0.9 -3.9,0.9Zm-0,-2.1c0.9,-0 1.6,-0.2 2.3,-0.6c0.7,-0.4 1.2,-1 1.6,-1.7c0.4,-0.7 0.6,-1.6 0.6,-2.6c-0,-1 -0.2,-1.8 -0.6,-2.6c-0.4,-0.7 -0.9,-1.3 -1.6,-1.7c-0.7,-0.4 -1.4,-0.6 -2.3,-0.6c-0.9,-0 -1.6,0.2 -2.3,0.6c-0.7,0.4 -1.2,1 -1.5,1.7c-0.4,0.7 -0.6,1.6 -0.6,2.6c-0,1 0.2,1.8 0.6,2.6c0.4,0.7 0.9,1.3 1.5,1.7c0.7,0.4 1.4,0.6 2.3,0.6Zm18.1,2.1c-1.4,-0 -2.5,-0.2 -3.5,-0.6c-1,-0.4 -1.8,-1 -2.3,-1.8c-0.5,-0.8 -0.8,-1.7 -0.8,-2.7l-0,-8.6l2.9,-0l-0,8.4c-0,1.1 0.3,1.9 0.9,2.4c0.6,0.5 1.5,0.8 2.7,0.8c1.2,-0 2.1,-0.3 2.7,-0.8c0.6,-0.5 0.9,-1.4 0.9,-2.4l-0,-8.4l3.1,-0l-0,8.6c-0,1 -0.3,1.9 -0.8,2.7c-0.5,0.8 -1.3,1.4 -2.3,1.8c-1,0.4 -2.2,0.6 -3.5,0.6Zm24.4,-13.7l-0,13.5l-2.8,-0l-7.7,-9.5l-0,9.5l-2.8,-0l-0,-13.5l3.3,-0l7.2,8.9l-0,-8.9l2.8,-0Zm18.1,6.8c-0,1.4 -0.3,2.5 -0.9,3.6c-0.6,1 -1.4,1.8 -2.5,2.4c-1.1,0.6 -2.4,0.8 -3.9,0.8l-6.3,-0l-0,-13.5l6.3,-0c1.5,-0 2.8,0.3 3.9,0.8c1.1,0.6 1.9,1.4 2.5,2.4c0.6,1 0.9,2.2 0.9,3.6l-0,-0.1Zm-3.1,-0c-0,-1.4 -0.4,-2.5 -1.3,-3.4c-0.8,-0.8 -2,-1.2 -3.5,-1.2l-2.6,-0l-0,9.2l2.6,-0c1.5,-0 2.7,-0.4 3.5,-1.2c0.8,-0.8 1.3,-2 1.3,-3.4Zm16,3.3l-5.9,-0l-1.2,3.5l-3.2,-0l5.5,-13.5l3.8,-0l5.5,13.5l-3.3,-0l-1.2,-3.5Zm-0.9,-2.2l-2.1,-5.9l-2.1,5.9l4.2,-0Zm19.1,-5.8l-4.3,-0l-0,11.4l-3.1,-0l-0,-11.4l-4.3,-0l-0,-2.2l11.7,-0l-0,2.2Zm7.1,-2.2l-0,13.5l-3.1,-0l-0,-13.5l3.1,-0Zm11.7,13.7c-1.5,-0 -2.8,-0.3 -3.9,-0.9c-1.1,-0.6 -2,-1.4 -2.6,-2.5c-0.6,-1.1 -0.9,-2.3 -0.9,-3.6c-0,-1.3 0.3,-2.6 0.9,-3.6c0.6,-1.1 1.5,-1.9 2.6,-2.5c1.1,-0.6 2.4,-0.9 3.9,-0.9c1.5,-0 2.8,0.3 3.9,0.9c1.1,0.6 2,1.4 2.6,2.5c0.6,1.1 0.9,2.3 0.9,3.6c-0,1.3 -0.3,2.6 -0.9,3.6c-0.6,1.1 -1.5,1.9 -2.6,2.5c-1.1,0.6 -2.4,0.9 -3.9,0.9Zm-0,-2.1c0.9,-0 1.6,-0.2 2.3,-0.6c0.7,-0.4 1.2,-1 1.6,-1.7c0.4,-0.7 0.6,-1.6 0.6,-2.6c-0,-1 -0.2,-1.8 -0.6,-2.6c-0.4,-0.7 -0.9,-1.3 -1.6,-1.7c-0.7,-0.4 -1.4,-0.6 -2.3,-0.6c-0.9,-0 -1.6,0.2 -2.3,0.6c-0.7,0.4 -1.2,1 -1.5,1.7c-0.4,0.7 -0.6,1.6 -0.6,2.6c-0,1 0.2,1.8 0.6,2.6c0.4,0.7 0.9,1.3 1.5,1.7c0.7,0.4 1.4,0.6 2.3,0.6Zm24.9,-11.7l-0,13.5l-2.8,-0l-7.7,-9.5l-0,9.5l-2.8,-0l-0,-13.5l3.3,-0l7.2,8.9l-0,-8.9l2.8,-0Z" style="fill:#fff;fill-rule:nonzero;"/><defs><linearGradient id="_Linear1" x1="0" y1="0" x2="1" y2="0" gradientUnits="userSpaceOnUse" gradientTransform="matrix(-27.9,-45,45,-27.9,55.6,64.5)"><stop offset="0" style="stop-color:#1281ff;stop-opacity:1"/><stop offset="1" style="stop-color:#5ce9ff;stop-opacity:1"/></linearGradient></defs></svg>